<svg xmlns:xlink="http://www.w3.org/1999/xlink" height="20" width="133" viewBox="0 0 637 91" xmlns="http://www.w3.org/2000/svg"><g fill="#161616"><path d="m133.085 40.608h3.871c8.33 0 16.541 0 16.541-10.793 0-11.145-7.625-11.262-16.541-11.262h-3.871zm-22.995-40.59h35.196c19.004 0 32.144 8.798 32.144 29.093 0 20.883-11.263 30.033-31.324 30.033h-13.022v29.33h-22.994v-88.458m113.743 49.626c-1.054-5.75-6.334-9.503-12.082-9.503-6.218 0-11.38 3.285-12.671 9.503zm19.827 12.318h-44.932c0 8.68 4.576 13.374 13.375 13.374 4.574 0 7.86-1.525 10.206-5.514h20.53c-3.403 14.195-16.894 20.648-30.619 20.648-19.944 0-34.843-11.263-34.843-32.028 0-20.06 13.726-32.144 33.318-32.144 20.882 0 32.965 12.905 32.965 33.435zm28.124-23.815h.235c4.106-7.391 11.145-10.676 19.474-10.676h4.107v20.531c-2.933-1.642-5.748-1.994-9.033-1.994-11.85 0-14.783 7.86-14.783 18.184v24.284h-21.35v-60.184h21.35zm75.197 9.737c-3.166-2.347-6.921-4.224-11.026-4.224-8.212 0-14.666 6.336-14.666 14.665 0 8.681 6.218 14.782 15.018 14.782 3.753 0 7.858-1.525 10.674-4.106v18.066c-4.692 2.346-9.853 3.403-15.016 3.403-17.832 0-32.73-13.257-32.73-31.44 0-19.358 14.781-32.732 33.669-32.732 4.927 0 9.855 1.173 14.077 3.52zm26.583 10.558c0 7.626 5.044 13.492 13.725 13.492 8.682 0 13.727-5.866 13.727-13.492 0-7.39-5.045-13.608-13.727-13.608-8.681 0-13.725 6.217-13.725 13.608zm49.976 0c0 20.413-16.893 32.028-36.25 32.028-19.24 0-36.251-11.498-36.251-32.028s16.893-32.144 36.25-32.144c19.358 0 36.251 11.614 36.251 32.144m27.125 30.033h-21.35v-88.456h21.35zm28.094-30.033c0 7.626 5.044 13.492 13.725 13.492s13.725-5.866 13.725-13.492c0-7.39-5.044-13.608-13.725-13.608s-13.725 6.217-13.725 13.608zm48.098 30.033h-21.352v-6.687h-.233c-3.755 5.983-11.145 8.682-18.184 8.682-17.833 0-30.385-14.9-30.385-32.145s12.318-32.027 30.149-32.027c6.923 0 14.196 2.58 18.653 7.86v-5.866h21.352zm28.655 0h-21.352v-78.25h21.352v18.067h12.083v17.597h-12.083zm60.884-38.831c-1.056-5.75-6.335-9.503-12.084-9.503-6.217 0-11.379 3.285-12.67 9.503zm19.825 12.318h-44.93c0 8.68 4.574 13.374 13.373 13.374 4.576 0 7.86-1.525 10.207-5.514h20.53c-3.402 14.195-16.894 20.648-30.62 20.648-19.944 0-34.842-11.263-34.842-32.028 0-20.06 13.725-32.144 33.317-32.144 20.883 0 32.965 12.905 32.965 33.435z" fill="#161616"></path><path d="m73.937 53.974c0 20.195-16.55 36.56-36.968 36.56-20.417-.001-36.969-16.366-36.969-36.561 0-23.18 36.97-53.969 36.97-53.969s36.967 30.789 36.967 53.97" fill-rule="evenodd" fill="#161616"></path></g></svg>