<svg xmlns:xlink="http://www.w3.org/1999/xlink" xmlns="http://www.w3.org/2000/svg" viewBox="0 0 1080 600" width="1080" height="600" preserveAspectRatio="xMidYMid meet" style="width: 100%; height: 100%; transform: translate3d(0px, 0px, 0px);"><defs><clipPath id="__lottie_element_2"><rect width="1080" height="600" x="0" y="0"></rect></clipPath><clipPath id="__lottie_element_4"><path d="M0,0 L720,0 L720,480 L0,480z"></path></clipPath><clipPath id="__lottie_element_102"><path d="M0,0 L720,0 L720,480 L0,480z"></path></clipPath><mask id="__lottie_element_159" mask-type="alpha"><g clip-path="url(#__lottie_element_160)" transform="matrix(1,0,0,1,0,0)" opacity="1" style="display: block;"><g transform="matrix(1,0,0,1,294.4259033203125,255.87745666503906)" opacity="1" style="display: block;"><g opacity="1" transform="matrix(1,0,0,1,0,0)"><path fill="rgb(3,170,80)" fill-opacity="1" d=" M0,-5 C2.759500026702881,-5 5,-2.759500026702881 5,0 C5,2.759500026702881 2.759500026702881,5 0,5 C-2.759500026702881,5 -5,2.759500026702881 -5,0 C-5,-2.759500026702881 -2.759500026702881,-5 0,-5z"></path></g></g><g transform="matrix(1,0,0,1,184.3459930419922,40.40999984741211)" opacity="1" style="display: block;"><g opacity="1" transform="matrix(1,0,0,1,0,0)"><path fill="rgb(3,170,80)" fill-opacity="1" d=" M0,-5 C2.759500026702881,-5 5,-2.759500026702881 5,0 C5,2.759500026702881 2.759500026702881,5 0,5 C-2.759500026702881,5 -5,2.759500026702881 -5,0 C-5,-2.759500026702881 -2.759500026702881,-5 0,-5z"></path></g></g><g transform="matrix(1,0,0,1,317.8125,52.18299865722656)" opacity="1" style="display: block;"><g opacity="1" transform="matrix(1,0,0,1,0,0)"><path fill="rgb(3,170,80)" fill-opacity="1" d=" M0,-5 C2.759500026702881,-5 5,-2.759500026702881 5,0 C5,2.759500026702881 2.759500026702881,5 0,5 C-2.759500026702881,5 -5,2.759500026702881 -5,0 C-5,-2.759500026702881 -2.759500026702881,-5 0,-5z"></path></g></g><g transform="matrix(1,0,0,1,480.3939514160156,63.18299865722656)" opacity="1" style="display: block;"><g opacity="1" transform="matrix(1,0,0,1,0,0)"><path fill="rgb(3,170,80)" fill-opacity="1" d=" M0,-5 C2.759500026702881,-5 5,-2.759500026702881 5,0 C5,2.759500026702881 2.759500026702881,5 0,5 C-2.759500026702881,5 -5,2.759500026702881 -5,0 C-5,-2.759500026702881 -2.759500026702881,-5 0,-5z"></path></g></g><g transform="matrix(1,0,0,1,533.166015625,220.18087768554688)" opacity="1" style="display: block;"><g opacity="1" transform="matrix(1,0,0,1,0,0)"><path fill="rgb(3,170,80)" fill-opacity="1" d=" M0,-5 C2.759500026702881,-5 5,-2.759500026702881 5,0 C5,2.759500026702881 2.759500026702881,5 0,5 C-2.759500026702881,5 -5,2.759500026702881 -5,0 C-5,-2.759500026702881 -2.759500026702881,-5 0,-5z"></path></g></g></g></mask><clipPath id="__lottie_element_160"><path d="M0,0 L720,0 L720,480 L0,480z"></path></clipPath><clipPath id="__lottie_element_182"><path d="M0,0 L720,0 L720,480 L0,480z"></path></clipPath></defs><g clip-path="url(#__lottie_element_2)"><g transform="matrix(1,0,0,1,0.8900146484375,-0.25)" opacity="1" style="display: block;"><g opacity="1" transform="matrix(1,0,0,1,539.6790161132812,300.25)"><path fill="#F3F3F3" fill-opacity="1" d=" M-298.57501220703125,180.28599548339844 C-298.57501220703125,180.28599548339844 -180.28399658203125,180.28599548339844 -180.28399658203125,180.28599548339844 C-180.28399658203125,180.28599548339844 -180.28399658203125,298.57598876953125 -180.28399658203125,298.57598876953125 C-180.28399658203125,298.57598876953125 -298.57501220703125,298.57598876953125 -298.57501220703125,298.57598876953125 C-298.57501220703125,298.57598876953125 -298.57501220703125,180.28599548339844 -298.57501220703125,180.28599548339844z M-178.86000061035156,180.28599548339844 C-178.86000061035156,180.28599548339844 -60.56999969482422,180.28599548339844 -60.56999969482422,180.28599548339844 C-60.56999969482422,180.28599548339844 -60.56999969482422,298.57598876953125 -60.56999969482422,298.57598876953125 C-60.56999969482422,298.57598876953125 -178.86000061035156,298.57598876953125 -178.86000061035156,298.57598876953125 C-178.86000061035156,298.57598876953125 -178.86000061035156,180.28599548339844 -178.86000061035156,180.28599548339844z M-59.14400100708008,180.28599548339844 C-59.14400100708008,180.28599548339844 59.145999908447266,180.28599548339844 59.145999908447266,180.28599548339844 C59.145999908447266,180.28599548339844 59.145999908447266,298.57598876953125 59.145999908447266,298.57598876953125 C59.145999908447266,298.57598876953125 -59.14400100708008,298.57598876953125 -59.14400100708008,298.57598876953125 C-59.14400100708008,298.57598876953125 -59.14400100708008,180.28599548339844 -59.14400100708008,180.28599548339844z M60.57099914550781,180.28599548339844 C60.57099914550781,180.28599548339844 178.86000061035156,180.28599548339844 178.86000061035156,180.28599548339844 C178.86000061035156,180.28599548339844 178.86000061035156,298.57598876953125 178.86000061035156,298.57598876953125 C178.86000061035156,298.57598876953125 60.57099914550781,298.57598876953125 60.57099914550781,298.57598876953125 C60.57099914550781,298.57598876953125 60.57099914550781,180.28599548339844 60.57099914550781,180.28599548339844z M180.28599548339844,180.28599548339844 C180.28599548339844,180.28599548339844 298.57501220703125,180.28599548339844 298.57501220703125,180.28599548339844 C298.57501220703125,180.28599548339844 298.57501220703125,298.57598876953125 298.57501220703125,298.57598876953125 C298.57501220703125,298.57598876953125 180.28599548339844,298.57598876953125 180.28599548339844,298.57598876953125 C180.28599548339844,298.57598876953125 180.28599548339844,180.28599548339844 180.28599548339844,180.28599548339844z M300.0010070800781,180.28599548339844 C300.0010070800781,180.28599548339844 418.2900085449219,180.28599548339844 418.2900085449219,180.28599548339844 C418.2900085449219,180.28599548339844 418.2900085449219,298.57598876953125 418.2900085449219,298.57598876953125 C418.2900085449219,298.57598876953125 300.0010070800781,298.57598876953125 300.0010070800781,298.57598876953125 C300.0010070800781,298.57598876953125 300.0010070800781,180.28599548339844 300.0010070800781,180.28599548339844z M419.7149963378906,180.28599548339844 C419.7149963378906,180.28599548339844 538.0050048828125,180.28599548339844 538.0050048828125,180.28599548339844 C538.0050048828125,180.28599548339844 538.0050048828125,298.57598876953125 538.0050048828125,298.57598876953125 C538.0050048828125,298.57598876953125 419.7149963378906,298.57598876953125 419.7149963378906,298.57598876953125 C419.7149963378906,298.57598876953125 419.7149963378906,180.28599548339844 419.7149963378906,180.28599548339844z M-418.28900146484375,60.57099914550781 C-418.28900146484375,60.57099914550781 -299.9989929199219,60.57099914550781 -299.9989929199219,60.57099914550781 C-299.9989929199219,60.57099914550781 -299.9989929199219,178.86000061035156 -299.9989929199219,178.86000061035156 C-299.9989929199219,178.86000061035156 -418.28900146484375,178.86000061035156 -418.28900146484375,178.86000061035156 C-418.28900146484375,178.86000061035156 -418.28900146484375,60.57099914550781 -418.28900146484375,60.57099914550781z M-298.57501220703125,60.57099914550781 C-298.57501220703125,60.57099914550781 -180.28399658203125,60.57099914550781 -180.28399658203125,60.57099914550781 C-180.28399658203125,60.57099914550781 -180.28399658203125,178.86000061035156 -180.28399658203125,178.86000061035156 C-180.28399658203125,178.86000061035156 -298.57501220703125,178.86000061035156 -298.57501220703125,178.86000061035156 C-298.57501220703125,178.86000061035156 -298.57501220703125,60.57099914550781 -298.57501220703125,60.57099914550781z M-178.86000061035156,60.57099914550781 C-178.86000061035156,60.57099914550781 -60.56999969482422,60.57099914550781 -60.56999969482422,60.57099914550781 C-60.56999969482422,60.57099914550781 -60.56999969482422,178.86000061035156 -60.56999969482422,178.86000061035156 C-60.56999969482422,178.86000061035156 -178.86000061035156,178.86000061035156 -178.86000061035156,178.86000061035156 C-178.86000061035156,178.86000061035156 -178.86000061035156,60.57099914550781 -178.86000061035156,60.57099914550781z M-59.14400100708008,60.57099914550781 C-59.14400100708008,60.57099914550781 59.145999908447266,60.57099914550781 59.145999908447266,60.57099914550781 C59.145999908447266,60.57099914550781 59.145999908447266,178.86000061035156 59.145999908447266,178.86000061035156 C59.145999908447266,178.86000061035156 -59.14400100708008,178.86000061035156 -59.14400100708008,178.86000061035156 C-59.14400100708008,178.86000061035156 -59.14400100708008,60.57099914550781 -59.14400100708008,60.57099914550781z M60.57099914550781,60.57099914550781 C60.57099914550781,60.57099914550781 178.86000061035156,60.57099914550781 178.86000061035156,60.57099914550781 C178.86000061035156,60.57099914550781 178.86000061035156,178.86000061035156 178.86000061035156,178.86000061035156 C178.86000061035156,178.86000061035156 60.57099914550781,178.86000061035156 60.57099914550781,178.86000061035156 C60.57099914550781,178.86000061035156 60.57099914550781,60.57099914550781 60.57099914550781,60.57099914550781z M180.28599548339844,60.57099914550781 C180.28599548339844,60.57099914550781 298.57501220703125,60.57099914550781 298.57501220703125,60.57099914550781 C298.57501220703125,60.57099914550781 298.57501220703125,178.86000061035156 298.57501220703125,178.86000061035156 C298.57501220703125,178.86000061035156 180.28599548339844,178.86000061035156 180.28599548339844,178.86000061035156 C180.28599548339844,178.86000061035156 180.28599548339844,60.57099914550781 180.28599548339844,60.57099914550781z M300.0010070800781,60.57099914550781 C300.0010070800781,60.57099914550781 418.2900085449219,60.57099914550781 418.2900085449219,60.57099914550781 C418.2900085449219,60.57099914550781 418.2900085449219,178.86000061035156 418.2900085449219,178.86000061035156 C418.2900085449219,178.86000061035156 300.0010070800781,178.86000061035156 300.0010070800781,178.86000061035156 C300.0010070800781,178.86000061035156 300.0010070800781,60.57099914550781 300.0010070800781,60.57099914550781z M419.7149963378906,60.57099914550781 C419.7149963378906,60.57099914550781 538.0050048828125,60.57099914550781 538.0050048828125,60.57099914550781 C538.0050048828125,60.57099914550781 538.0050048828125,178.86000061035156 538.0050048828125,178.86000061035156 C538.0050048828125,178.86000061035156 419.7149963378906,178.86000061035156 419.7149963378906,178.86000061035156 C419.7149963378906,178.86000061035156 419.7149963378906,60.57099914550781 419.7149963378906,60.57099914550781z M-538.0050048828125,-59.14500045776367 C-538.0050048828125,-59.14500045776367 -419.7149963378906,-59.14500045776367 -419.7149963378906,-59.14500045776367 C-419.7149963378906,-59.14500045776367 -419.7149963378906,59.14500045776367 -419.7149963378906,59.14500045776367 C-419.7149963378906,59.14500045776367 -538.0050048828125,59.14500045776367 -538.0050048828125,59.14500045776367 C-538.0050048828125,59.14500045776367 -538.0050048828125,-59.14500045776367 -538.0050048828125,-59.14500045776367z M-418.28900146484375,-59.14500045776367 C-418.28900146484375,-59.14500045776367 -299.9989929199219,-59.14500045776367 -299.9989929199219,-59.14500045776367 C-299.9989929199219,-59.14500045776367 -299.9989929199219,59.14500045776367 -299.9989929199219,59.14500045776367 C-299.9989929199219,59.14500045776367 -418.28900146484375,59.14500045776367 -418.28900146484375,59.14500045776367 C-418.28900146484375,59.14500045776367 -418.28900146484375,-59.14500045776367 -418.28900146484375,-59.14500045776367z M-298.57501220703125,-59.14500045776367 C-298.57501220703125,-59.14500045776367 -180.28399658203125,-59.14500045776367 -180.28399658203125,-59.14500045776367 C-180.28399658203125,-59.14500045776367 -180.28399658203125,59.14500045776367 -180.28399658203125,59.14500045776367 C-180.28399658203125,59.14500045776367 -298.57501220703125,59.14500045776367 -298.57501220703125,59.14500045776367 C-298.57501220703125,59.14500045776367 -298.57501220703125,-59.14500045776367 -298.57501220703125,-59.14500045776367z M-178.86000061035156,-59.14500045776367 C-178.86000061035156,-59.14500045776367 -60.56999969482422,-59.14500045776367 -60.56999969482422,-59.14500045776367 C-60.56999969482422,-59.14500045776367 -60.56999969482422,59.14500045776367 -60.56999969482422,59.14500045776367 C-60.56999969482422,59.14500045776367 -178.86000061035156,59.14500045776367 -178.86000061035156,59.14500045776367 C-178.86000061035156,59.14500045776367 -178.86000061035156,-59.14500045776367 -178.86000061035156,-59.14500045776367z M-59.14400100708008,-59.14500045776367 C-59.14400100708008,-59.14500045776367 59.145999908447266,-59.14500045776367 59.145999908447266,-59.14500045776367 C59.145999908447266,-59.14500045776367 59.145999908447266,59.14500045776367 59.145999908447266,59.14500045776367 C59.145999908447266,59.14500045776367 -59.14400100708008,59.14500045776367 -59.14400100708008,59.14500045776367 C-59.14400100708008,59.14500045776367 -59.14400100708008,-59.14500045776367 -59.14400100708008,-59.14500045776367z M60.57099914550781,-59.14500045776367 C60.57099914550781,-59.14500045776367 178.86000061035156,-59.14500045776367 178.86000061035156,-59.14500045776367 C178.86000061035156,-59.14500045776367 178.86000061035156,59.14500045776367 178.86000061035156,59.14500045776367 C178.86000061035156,59.14500045776367 60.57099914550781,59.14500045776367 60.57099914550781,59.14500045776367 C60.57099914550781,59.14500045776367 60.57099914550781,-59.14500045776367 60.57099914550781,-59.14500045776367z M180.28599548339844,-59.14500045776367 C180.28599548339844,-59.14500045776367 298.57501220703125,-59.14500045776367 298.57501220703125,-59.14500045776367 C298.57501220703125,-59.14500045776367 298.57501220703125,59.14500045776367 298.57501220703125,59.14500045776367 C298.57501220703125,59.14500045776367 180.28599548339844,59.14500045776367 180.28599548339844,59.14500045776367 C180.28599548339844,59.14500045776367 180.28599548339844,-59.14500045776367 180.28599548339844,-59.14500045776367z M300.0010070800781,-59.14500045776367 C300.0010070800781,-59.14500045776367 418.2900085449219,-59.14500045776367 418.2900085449219,-59.14500045776367 C418.2900085449219,-59.14500045776367 418.2900085449219,59.14500045776367 418.2900085449219,59.14500045776367 C418.2900085449219,59.14500045776367 300.0010070800781,59.14500045776367 300.0010070800781,59.14500045776367 C300.0010070800781,59.14500045776367 300.0010070800781,-59.14500045776367 300.0010070800781,-59.14500045776367z M-538.0050048828125,-178.86000061035156 C-538.0050048828125,-178.86000061035156 -419.7149963378906,-178.86000061035156 -419.7149963378906,-178.86000061035156 C-419.7149963378906,-178.86000061035156 -419.7149963378906,-60.56999969482422 -419.7149963378906,-60.56999969482422 C-419.7149963378906,-60.56999969482422 -538.0050048828125,-60.56999969482422 -538.0050048828125,-60.56999969482422 C-538.0050048828125,-60.56999969482422 -538.0050048828125,-178.86000061035156 -538.0050048828125,-178.86000061035156z M-418.28900146484375,-178.86000061035156 C-418.28900146484375,-178.86000061035156 -299.9989929199219,-178.86000061035156 -299.9989929199219,-178.86000061035156 C-299.9989929199219,-178.86000061035156 -299.9989929199219,-60.56999969482422 -299.9989929199219,-60.56999969482422 C-299.9989929199219,-60.56999969482422 -418.28900146484375,-60.56999969482422 -418.28900146484375,-60.56999969482422 C-418.28900146484375,-60.56999969482422 -418.28900146484375,-178.86000061035156 -418.28900146484375,-178.86000061035156z M-298.57501220703125,-178.86000061035156 C-298.57501220703125,-178.86000061035156 -180.28399658203125,-178.86000061035156 -180.28399658203125,-178.86000061035156 C-180.28399658203125,-178.86000061035156 -180.28399658203125,-60.56999969482422 -180.28399658203125,-60.56999969482422 C-180.28399658203125,-60.56999969482422 -298.57501220703125,-60.56999969482422 -298.57501220703125,-60.56999969482422 C-298.57501220703125,-60.56999969482422 -298.57501220703125,-178.86000061035156 -298.57501220703125,-178.86000061035156z M-178.86000061035156,-178.86000061035156 C-178.86000061035156,-178.86000061035156 -60.56999969482422,-178.86000061035156 -60.56999969482422,-178.86000061035156 C-60.56999969482422,-178.86000061035156 -60.56999969482422,-60.56999969482422 -60.56999969482422,-60.56999969482422 C-60.56999969482422,-60.56999969482422 -178.86000061035156,-60.56999969482422 -178.86000061035156,-60.56999969482422 C-178.86000061035156,-60.56999969482422 -178.86000061035156,-178.86000061035156 -178.86000061035156,-178.86000061035156z M-59.14400100708008,-178.86000061035156 C-59.14400100708008,-178.86000061035156 59.145999908447266,-178.86000061035156 59.145999908447266,-178.86000061035156 C59.145999908447266,-178.86000061035156 59.145999908447266,-60.56999969482422 59.145999908447266,-60.56999969482422 C59.145999908447266,-60.56999969482422 -59.14400100708008,-60.56999969482422 -59.14400100708008,-60.56999969482422 C-59.14400100708008,-60.56999969482422 -59.14400100708008,-178.86000061035156 -59.14400100708008,-178.86000061035156z M60.57099914550781,-178.86000061035156 C60.57099914550781,-178.86000061035156 178.86000061035156,-178.86000061035156 178.86000061035156,-178.86000061035156 C178.86000061035156,-178.86000061035156 178.86000061035156,-60.56999969482422 178.86000061035156,-60.56999969482422 C178.86000061035156,-60.56999969482422 60.57099914550781,-60.56999969482422 60.57099914550781,-60.56999969482422 C60.57099914550781,-60.56999969482422 60.57099914550781,-178.86000061035156 60.57099914550781,-178.86000061035156z M180.28599548339844,-178.86000061035156 C180.28599548339844,-178.86000061035156 298.57501220703125,-178.86000061035156 298.57501220703125,-178.86000061035156 C298.57501220703125,-178.86000061035156 298.57501220703125,-60.56999969482422 298.57501220703125,-60.56999969482422 C298.57501220703125,-60.56999969482422 180.28599548339844,-60.56999969482422 180.28599548339844,-60.56999969482422 C180.28599548339844,-60.56999969482422 180.28599548339844,-178.86000061035156 180.28599548339844,-178.86000061035156z M300.0010070800781,-178.86000061035156 C300.0010070800781,-178.86000061035156 418.2900085449219,-178.86000061035156 418.2900085449219,-178.86000061035156 C418.2900085449219,-178.86000061035156 418.2900085449219,-60.56999969482422 418.2900085449219,-60.56999969482422 C418.2900085449219,-60.56999969482422 300.0010070800781,-60.56999969482422 300.0010070800781,-60.56999969482422 C300.0010070800781,-60.56999969482422 300.0010070800781,-178.86000061035156 300.0010070800781,-178.86000061035156z M-418.28900146484375,-298.5740051269531 C-418.28900146484375,-298.5740051269531 -299.9989929199219,-298.5740051269531 -299.9989929199219,-298.5740051269531 C-299.9989929199219,-298.5740051269531 -299.9989929199219,-180.28399658203125 -299.9989929199219,-180.28399658203125 C-299.9989929199219,-180.28399658203125 -418.28900146484375,-180.28399658203125 -418.28900146484375,-180.28399658203125 C-418.28900146484375,-180.28399658203125 -418.28900146484375,-298.5740051269531 -418.28900146484375,-298.5740051269531z M-298.57501220703125,-298.5740051269531 C-298.57501220703125,-298.5740051269531 -180.28399658203125,-298.5740051269531 -180.28399658203125,-298.5740051269531 C-180.28399658203125,-298.5740051269531 -180.28399658203125,-180.28399658203125 -180.28399658203125,-180.28399658203125 C-180.28399658203125,-180.28399658203125 -298.57501220703125,-180.28399658203125 -298.57501220703125,-180.28399658203125 C-298.57501220703125,-180.28399658203125 -298.57501220703125,-298.5740051269531 -298.57501220703125,-298.5740051269531z M-178.86000061035156,-298.5740051269531 C-178.86000061035156,-298.5740051269531 -60.56999969482422,-298.5740051269531 -60.56999969482422,-298.5740051269531 C-60.56999969482422,-298.5740051269531 -60.56999969482422,-180.28399658203125 -60.56999969482422,-180.28399658203125 C-60.56999969482422,-180.28399658203125 -178.86000061035156,-180.28399658203125 -178.86000061035156,-180.28399658203125 C-178.86000061035156,-180.28399658203125 -178.86000061035156,-298.5740051269531 -178.86000061035156,-298.5740051269531z M-59.14400100708008,-298.5740051269531 C-59.14400100708008,-298.5740051269531 59.145999908447266,-298.5740051269531 59.145999908447266,-298.5740051269531 C59.145999908447266,-298.5740051269531 59.145999908447266,-180.28399658203125 59.145999908447266,-180.28399658203125 C59.145999908447266,-180.28399658203125 -59.14400100708008,-180.28399658203125 -59.14400100708008,-180.28399658203125 C-59.14400100708008,-180.28399658203125 -59.14400100708008,-298.5740051269531 -59.14400100708008,-298.5740051269531z M60.57099914550781,-298.5740051269531 C60.57099914550781,-298.5740051269531 178.86000061035156,-298.5740051269531 178.86000061035156,-298.5740051269531 C178.86000061035156,-298.5740051269531 178.86000061035156,-180.28399658203125 178.86000061035156,-180.28399658203125 C178.86000061035156,-180.28399658203125 60.57099914550781,-180.28399658203125 60.57099914550781,-180.28399658203125 C60.57099914550781,-180.28399658203125 60.57099914550781,-298.5740051269531 60.57099914550781,-298.5740051269531z M180.28599548339844,-298.5740051269531 C180.28599548339844,-298.5740051269531 298.57501220703125,-298.5740051269531 298.57501220703125,-298.5740051269531 C298.57501220703125,-298.5740051269531 298.57501220703125,-180.28399658203125 298.57501220703125,-180.28399658203125 C298.57501220703125,-180.28399658203125 180.28599548339844,-180.28399658203125 180.28599548339844,-180.28399658203125 C180.28599548339844,-180.28399658203125 180.28599548339844,-298.5740051269531 180.28599548339844,-298.5740051269531z M-419.7149963378906,-300 C-419.7149963378906,-300 -419.7149963378906,-299.2869873046875 -419.7149963378906,-299.2869873046875 C-419.7149963378906,-299.2869873046875 -419.7149963378906,-180.28500366210938 -419.7149963378906,-180.28500366210938 C-419.7149963378906,-180.28500366210938 -538.718017578125,-180.28500366210938 -538.718017578125,-180.28500366210938 C-538.718017578125,-180.28500366210938 -539.4290161132812,-180.28500366210938 -539.4290161132812,-180.28500366210938 C-539.4290161132812,-180.28500366210938 -539.4290161132812,-179.57200622558594 -539.4290161132812,-179.57200622558594 C-539.4290161132812,-179.57200622558594 -539.4290161132812,-59.856998443603516 -539.4290161132812,-59.856998443603516 C-539.4290161132812,-59.856998443603516 -539.4290161132812,-59.14500045776367 -539.4290161132812,-59.14500045776367 C-539.4290161132812,-59.14500045776367 -539.4290161132812,59.858001708984375 -539.4290161132812,59.858001708984375 C-539.4290161132812,59.858001708984375 -539.4290161132812,60.57099914550781 -539.4290161132812,60.57099914550781 C-539.4290161132812,60.57099914550781 -538.718017578125,60.57099914550781 -538.718017578125,60.57099914550781 C-538.718017578125,60.57099914550781 -419.7149963378906,60.57099914550781 -419.7149963378906,60.57099914550781 C-419.7149963378906,60.57099914550781 -419.7149963378906,179.57200622558594 -419.7149963378906,179.57200622558594 C-419.7149963378906,179.57200622558594 -419.7149963378906,180.28599548339844 -419.7149963378906,180.28599548339844 C-419.7149963378906,180.28599548339844 -419.00201416015625,180.28599548339844 -419.00201416015625,180.28599548339844 C-419.00201416015625,180.28599548339844 -300,180.28599548339844 -300,180.28599548339844 C-300,180.28599548339844 -300,299.2869873046875 -300,299.2869873046875 C-300,299.2869873046875 -300,300 -300,300 C-300,300 -299.2869873046875,300 -299.2869873046875,300 C-299.2869873046875,300 -180.28399658203125,300 -180.28399658203125,300 C-180.28399658203125,300 -179.572998046875,300 -179.572998046875,300 C-179.572998046875,300 -178.86000061035156,300 -178.86000061035156,300 C-178.86000061035156,300 -60.56999969482422,300 -60.56999969482422,300 C-60.56999969482422,300 -59.856998443603516,300 -59.856998443603516,300 C-59.856998443603516,300 -59.14400100708008,300 -59.14400100708008,300 C-59.14400100708008,300 59.14500045776367,300 59.14500045776367,300 C59.14500045776367,300 59.858001708984375,300 59.858001708984375,300 C59.858001708984375,300 60.57099914550781,300 60.57099914550781,300 C60.57099914550781,300 178.86000061035156,300 178.86000061035156,300 C178.86000061035156,300 179.57200622558594,300 179.57200622558594,300 C179.57200622558594,300 180.28599548339844,300 180.28599548339844,300 C180.28599548339844,300 298.57501220703125,300 298.57501220703125,300 C298.57501220703125,300 299.2879943847656,300 299.2879943847656,300 C299.2879943847656,300 300.0010070800781,300 300.0010070800781,300 C300.0010070800781,300 418.28900146484375,300 418.28900146484375,300 C418.28900146484375,300 419.00201416015625,300 419.00201416015625,300 C419.00201416015625,300 419.7149963378906,300 419.7149963378906,300 C419.7149963378906,300 538.7160034179688,300 538.7160034179688,300 C538.7160034179688,300 539.4290161132812,300 539.4290161132812,300 C539.4290161132812,300 539.4290161132812,59.14500045776367 539.4290161132812,59.14500045776367 C539.4290161132812,59.14500045776367 538.7160034179688,59.14500045776367 538.7160034179688,59.14500045776367 C538.7160034179688,59.14500045776367 419.7149963378906,59.14500045776367 419.7149963378906,59.14500045776367 C419.7149963378906,59.14500045776367 419.7149963378906,-59.14500045776367 419.7149963378906,-59.14500045776367 C419.7149963378906,-59.14500045776367 419.7149963378906,-59.856998443603516 419.7149963378906,-59.856998443603516 C419.7149963378906,-59.856998443603516 419.7149963378906,-60.56999969482422 419.7149963378906,-60.56999969482422 C419.7149963378906,-60.56999969482422 419.7149963378906,-179.57200622558594 419.7149963378906,-179.57200622558594 C419.7149963378906,-179.57200622558594 419.7149963378906,-180.28500366210938 419.7149963378906,-180.28500366210938 C419.7149963378906,-180.28500366210938 419.00201416015625,-180.28500366210938 419.00201416015625,-180.28500366210938 C419.00201416015625,-180.28500366210938 300.0010070800781,-180.28500366210938 300.0010070800781,-180.28500366210938 C300.0010070800781,-180.28500366210938 300.0010070800781,-299.2869873046875 300.0010070800781,-299.2869873046875 C300.0010070800781,-299.2869873046875 300.0010070800781,-300 300.0010070800781,-300 C300.0010070800781,-300 -419.7149963378906,-300 -419.7149963378906,-300z"></path></g></g><g clip-path="url(#__lottie_element_4)" transform="matrix(1,0,0,1,165.18499755859375,0)" opacity="1" style="display: block;"><g transform="matrix(1,0,0,1,109.47000122070312,32.13600158691406)" opacity="1" style="display: block;"><g opacity="1" transform="matrix(1,0,0,1,275.7030029296875,297.1579895019531)"><path stroke-linecap="butt" stroke-linejoin="miter" fill-opacity="0" stroke-miterlimit="10" stroke="#0FAE5A" stroke-opacity="1" stroke-width="1" d=" M249.2030029296875,90.65899658203125 C249.2030029296875,90.65899658203125 -158.54600524902344,90.65899658203125 -158.54600524902344,90.65899658203125 C-208.61500549316406,90.65899658203125 -249.20399475097656,50.06999969482422 -249.20399475097656,0.0010000000474974513 C-249.20399475097656,-50.069000244140625 -208.61500549316406,-90.65799713134766 -158.54600524902344,-90.65799713134766 C-158.54600524902344,-90.65799713134766 -48.56800079345703,-90.65799713134766 -48.56800079345703,-90.65799713134766"></path></g><g opacity="1" transform="matrix(1,0,0,1,255.5590057373047,116.5)"><path stroke-linecap="butt" stroke-linejoin="miter" fill-opacity="0" stroke-miterlimit="10" stroke="#C2C2C2" stroke-opacity="1" stroke-width="1" d=" M-28.42300033569336,90 C-28.42300033569336,90 160.39199829101562,90 160.39199829101562,90 C210.09800720214844,90 250.39199829101562,49.70600128173828 250.39199829101562,0 C250.39199829101562,-49.70600128173828 210.09800720214844,-90 160.39199829101562,-90 C160.39199829101562,-90 -250.39199829101562,-90 -250.39199829101562,-90"></path></g><g opacity="1" transform="matrix(1,0,0,1,281.7030029296875,297.1579895019531)"><path stroke-linecap="butt" stroke-linejoin="miter" fill-opacity="0" stroke-miterlimit="10" stroke="#0FAE5A" stroke-opacity="1" stroke-width="1" d=" M-54.56700134277344,-78.65799713134766 C-54.56700134277344,-78.65799713134766 -164.5449981689453,-78.65799713134766 -164.5449981689453,-78.65799713134766 C-207.98699951171875,-78.65799713134766 -243.2030029296875,-43.44200134277344 -243.2030029296875,0 C-243.2030029296875,43.44200134277344 -207.98699951171875,78.65799713134766 -164.5449981689453,78.65799713134766 C-164.5449981689453,78.65799713134766 243.20399475097656,78.65799713134766 243.20399475097656,78.65799713134766"></path></g><g opacity="1" transform="matrix(1,0,0,1,261.55999755859375,116.5)"><path stroke-linecap="butt" stroke-linejoin="miter" fill-opacity="0" stroke-miterlimit="10" stroke="#C2C2C2" stroke-opacity="1" stroke-width="1" d=" M-34.42399978637695,102 C-34.42399978637695,102 154.39199829101562,102 154.39199829101562,102 C210.72500610351562,102 256.3919982910156,56.33300018310547 256.3919982910156,0 C256.3919982910156,-56.33300018310547 210.72500610351562,-102 154.39199829101562,-102 C154.39199829101562,-102 -256.3919982910156,-102 -256.3919982910156,-102"></path></g><g opacity="1" transform="matrix(1,0,0,1,269.7030029296875,297.1579895019531)"><path stroke-linecap="butt" stroke-linejoin="miter" fill-opacity="0" stroke-miterlimit="10" stroke="#0FAE5A" stroke-opacity="1" stroke-width="1" d=" M-42.56700134277344,-102.65799713134766 C-42.56700134277344,-102.65799713134766 -152.5449981689453,-102.65799713134766 -152.5449981689453,-102.65799713134766 C-209.24200439453125,-102.65799713134766 -255.2030029296875,-56.69599914550781 -255.2030029296875,0 C-255.2030029296875,56.69599914550781 -209.24200439453125,102.65799713134766 -152.5449981689453,102.65799713134766 C-152.5449981689453,102.65799713134766 255.20399475097656,102.65799713134766 255.20399475097656,102.65799713134766"></path></g><g opacity="1" transform="matrix(1,0,0,1,249.55999755859375,116.5)"><path stroke-linecap="butt" stroke-linejoin="miter" fill-opacity="0" stroke-miterlimit="10" stroke="#C2C2C2" stroke-opacity="1" stroke-width="1" d=" M-244.39199829101562,-78 C-244.39199829101562,-78 166.39300537109375,-78 166.39300537109375,-78 C209.4709930419922,-78 244.39300537109375,-43.07899856567383 244.39300537109375,0 C244.39300537109375,43.077999114990234 209.4709930419922,78 166.39300537109375,78 C166.39300537109375,78 -22.423999786376953,78 -22.423999786376953,78"></path></g><g opacity="1" transform="matrix(1,0,0,1,243.55999755859375,116.5)"><path stroke-linecap="butt" stroke-linejoin="miter" fill-opacity="0" stroke-miterlimit="10" stroke="#C2C2C2" stroke-opacity="1" stroke-width="1" d=" M-16.423999786376953,66 C-16.423999786376953,66 172.39199829101562,66 172.39199829101562,66 C208.84300231933594,66 238.39199829101562,36.45100021362305 238.39199829101562,0 C238.39199829101562,-36.45100021362305 208.84300231933594,-66 172.39199829101562,-66 C172.39199829101562,-66 -238.39199829101562,-66 -238.39199829101562,-66"></path></g><g opacity="1" transform="matrix(1,0,0,1,263.7030029296875,297.1579895019531)"><path stroke-linecap="butt" stroke-linejoin="miter" fill-opacity="0" stroke-miterlimit="10" stroke="#0FAE5A" stroke-opacity="1" stroke-width="1" d=" M-36.56700134277344,-114.65799713134766 C-36.56700134277344,-114.65799713134766 -146.5449981689453,-114.65799713134766 -146.5449981689453,-114.65799713134766 C-209.86900329589844,-114.65799713134766 -261.2030029296875,-63.32400131225586 -261.2030029296875,0 C-261.2030029296875,63.32400131225586 -209.86900329589844,114.65799713134766 -146.5449981689453,114.65799713134766 C-146.5449981689453,114.65799713134766 261.2030029296875,114.65799713134766 261.2030029296875,114.65799713134766"></path></g><g opacity="1" transform="matrix(1,0,0,1,267.55999755859375,116.5)"><path stroke-linecap="butt" stroke-linejoin="miter" fill-opacity="0" stroke-miterlimit="10" stroke="#C2C2C2" stroke-opacity="1" stroke-width="1" d=" M-40.42399978637695,114 C-40.42399978637695,114 148.39199829101562,114 148.39199829101562,114 C211.3520050048828,114 262.3919982910156,62.959999084472656 262.3919982910156,0 C262.3919982910156,-62.96099853515625 211.3520050048828,-114 148.39199829101562,-114 C148.39199829101562,-114 -262.3919982910156,-114 -262.3919982910156,-114"></path></g><g opacity="1" transform="matrix(1,0,0,1,287.7030029296875,297.1579895019531)"><path stroke-linecap="butt" stroke-linejoin="miter" fill-opacity="0" stroke-miterlimit="10" stroke="#0FAE5A" stroke-opacity="1" stroke-width="1" d=" M-60.56700134277344,-66.65799713134766 C-60.56700134277344,-66.65799713134766 -170.5449981689453,-66.65799713134766 -170.5449981689453,-66.65799713134766 C-207.35899353027344,-66.65799713134766 -237.2030029296875,-36.81399917602539 -237.2030029296875,0 C-237.2030029296875,36.814998626708984 -207.35899353027344,66.65799713134766 -170.5449981689453,66.65799713134766 C-170.5449981689453,66.65799713134766 237.20399475097656,66.65799713134766 237.20399475097656,66.65799713134766"></path></g></g><g clip-path="url(#__lottie_element_182)" transform="matrix(1,0,0,1,0,0)" opacity="1" style="display: block;"><g transform="matrix(1,0,0,1,294.4259033203125,255.87745666503906)" opacity="1" style="display: block;"><g opacity="1" transform="matrix(1,0,0,1,0,0)"><path fill="#03AA50" fill-opacity="1" d=" M0,-5 C2.759500026702881,-5 5,-2.759500026702881 5,0 C5,2.759500026702881 2.759500026702881,5 0,5 C-2.759500026702881,5 -5,2.759500026702881 -5,0 C-5,-2.759500026702881 -2.759500026702881,-5 0,-5z"></path></g></g><g transform="matrix(1,0,0,1,184.3459930419922,40.40999984741211)" opacity="1" style="display: block;"><g opacity="1" transform="matrix(1,0,0,1,0,0)"><path fill="#03AA50" fill-opacity="1" d=" M0,-5 C2.759500026702881,-5 5,-2.759500026702881 5,0 C5,2.759500026702881 2.759500026702881,5 0,5 C-2.759500026702881,5 -5,2.759500026702881 -5,0 C-5,-2.759500026702881 -2.759500026702881,-5 0,-5z"></path></g></g><g transform="matrix(1,0,0,1,317.8125,52.18299865722656)" opacity="1" style="display: block;"><g opacity="1" transform="matrix(1,0,0,1,0,0)"><path fill="#03AA50" fill-opacity="1" d=" M0,-5 C2.759500026702881,-5 5,-2.759500026702881 5,0 C5,2.759500026702881 2.759500026702881,5 0,5 C-2.759500026702881,5 -5,2.759500026702881 -5,0 C-5,-2.759500026702881 -2.759500026702881,-5 0,-5z"></path></g></g><g transform="matrix(1,0,0,1,480.3939514160156,63.18299865722656)" opacity="1" style="display: block;"><g opacity="1" transform="matrix(1,0,0,1,0,0)"><path fill="#03AA50" fill-opacity="1" d=" M0,-5 C2.759500026702881,-5 5,-2.759500026702881 5,0 C5,2.759500026702881 2.759500026702881,5 0,5 C-2.759500026702881,5 -5,2.759500026702881 -5,0 C-5,-2.759500026702881 -2.759500026702881,-5 0,-5z"></path></g></g><g transform="matrix(1,0,0,1,533.166015625,220.18087768554688)" opacity="1" style="display: block;"><g opacity="1" transform="matrix(1,0,0,1,0,0)"><path fill="#03AA50" fill-opacity="1" d=" M0,-5 C2.759500026702881,-5 5,-2.759500026702881 5,0 C5,2.759500026702881 2.759500026702881,5 0,5 C-2.759500026702881,5 -5,2.759500026702881 -5,0 C-5,-2.759500026702881 -2.759500026702881,-5 0,-5z"></path></g></g></g><g mask="url(#__lottie_element_159)" style="display: block;"><g transform="matrix(1,0,0,1,360,240)" opacity="1"><g opacity="1" transform="matrix(1,0,0,1,0,0)"><path fill="#456B8B" fill-opacity="1" d=" M322,-222 C322,-222 -263,-224 -263,-224 C-263,-224 -263,-85 -263,-85 C-263,-85 -10,-85 -10,-85 C-10,-85 -10,85 -10,85 C-10,85 322,85 322,85 C322,85 322,-222 322,-222z"></path></g></g></g><g transform="matrix(1,0,0,1,16.59400177001953,0.46199989318847656)" opacity="1" style="display: block;"><g opacity="1" transform="matrix(1,0,0,1,30.25,30.25)"><path fill="#C9E9D9" fill-opacity="1" d=" M-30,30 C-30,30 30,30 30,30 C30,30 30,-30 30,-30 C30,-30 -30,-30 -30,-30 C-30,-30 -30,30 -30,30z"></path></g></g><g transform="matrix(1,0,0,1,375.6809997558594,213.94400024414062)" opacity="1" style="display: block;"><g opacity="1" transform="matrix(1,0,0,1,30.25,30.538000106811523)"><path fill="#456B8B" fill-opacity="1" d=" M30,30.288000106811523 C30,30.288000106811523 -30,30.288000106811523 -30,30.288000106811523 C-30,30.288000106811523 -30,-30.288000106811523 -30,-30.288000106811523 C-30,-30.288000106811523 30,-30.288000106811523 30,-30.288000106811523 C30,-30.288000106811523 30,30.288000106811523 30,30.288000106811523z"></path></g></g><g transform="matrix(1,0,0,1,76.59500122070312,0.5519981384277344)" opacity="1" style="display: block;"><g opacity="1" transform="matrix(1,0,0,1,60.25,60.25)"><path fill="#004149" fill-opacity="1" d=" M-60,60 C-60,60 60,60 60,60 C60,60 60,-60 60,-60 C60,-60 -60,-60 -60,-60 C-60,-60 -60,60 -60,60z"></path></g></g><g transform="matrix(1,0,0,1,556.1849975585938,359.5140075683594)" opacity="1" style="display: block;"><g opacity="1" transform="matrix(1,0,0,1,60.25,60.25)"><path fill="#C9E9D9" fill-opacity="1" d=" M-60,60 C-60,60 60,60 60,60 C60,60 60,-60 60,-60 C60,-60 -60,-60 -60,-60 C-60,-60 -60,60 -60,60z"></path></g></g><g transform="matrix(1,0,0,1,16.594999313354492,60.46099853515625)" opacity="1" style="display: block;"><g opacity="1" transform="matrix(1,0,0,1,12.25,12.25)"><path fill="#456B8B" fill-opacity="1" d=" M-12,12 C-12,12 -12,-12 -12,-12 C-12,-12 12,-12 12,-12 C12,-12 -12,12 -12,12z"></path></g></g><g transform="matrix(1,0,0,1,16.595001220703125,120.552001953125)" opacity="1" style="display: block;"><g opacity="1" transform="matrix(1,0,0,1,30.25,30.25)"><path fill="#008C50" fill-opacity="1" d=" M30,30 C30,30 -30,30 -30,30 C-30,30 -30,-30 -30,-30 C-30,-30 30,-30 30,-30 C30,-30 30,30 30,30z"></path></g></g><g transform="matrix(1,0,0,1,496.166015625,359.5150146484375)" opacity="1" style="display: block;"><g opacity="1" transform="matrix(1,0,0,1,30.25,30.25)"><path fill="#004149" fill-opacity="1" d=" M30,30 C30,30 -30,30 -30,30 C-30,30 -30,-30 -30,-30 C-30,-30 30,-30 30,-30 C30,-30 30,30 30,30z"></path></g></g><g transform="matrix(1,0,0,1,676.1329956054688,426.2539978027344)" opacity="1" style="display: block;"><g opacity="1" transform="matrix(0.9995200037956238,0,0,1.0068800449371338,13.571999549865723,27.261999130249023)"><path fill="#004149" fill-opacity="1" d=" M-15.654999732971191,26.586999893188477 C-15.654999732971191,26.586999893188477 13.321999549865723,26.67799949645996 13.321999549865723,26.67799949645996 C13.321999549865723,26.67799949645996 13.321999549865723,-26.905000686645508 13.321999549865723,-26.905000686645508 C13.321999549865723,-26.905000686645508 -15.654999732971191,-26.996999740600586 -15.654999732971191,-26.996999740600586 C-15.654999732971191,-26.996999740600586 -15.654999732971191,26.586999893188477 -15.654999732971191,26.586999893188477z"></path></g></g><g transform="matrix(1,0,0,1,622.6510009765625,426.2559814453125)" opacity="1" style="display: block;"><g opacity="1" transform="matrix(1,0,0,1,26.992000579833984,26.996999740600586)"><path fill="#004149" fill-opacity="1" d=" M-26.742000579833984,26.746999740600586 C-26.742000579833984,26.746999740600586 26.742000579833984,26.746999740600586 26.742000579833984,26.746999740600586 C26.742000579833984,26.746999740600586 26.742000579833984,-26.746999740600586 26.742000579833984,-26.746999740600586 C26.742000579833984,-26.746999740600586 -26.742000579833984,-26.746999740600586 -26.742000579833984,-26.746999740600586 C-26.742000579833984,-26.746999740600586 -26.742000579833984,26.746999740600586 -26.742000579833984,26.746999740600586z"></path></g></g><g transform="matrix(1,0,0,1,622.8460083007812,399.61102294921875)" opacity="1" style="display: block;"><g opacity="1" transform="matrix(1,0,0,1,26.893999099731445,13.571999549865723)"><path fill="#0FAE5A" fill-opacity="1" d=" M26.643999099731445,13.321999549865723 C26.643999099731445,13.321999549865723 -26.643999099731445,13.321999549865723 -26.643999099731445,13.321999549865723 C-26.643999099731445,13.321999549865723 -26.643999099731445,-13.321999549865723 -26.643999099731445,-13.321999549865723 C-26.643999099731445,-13.321999549865723 26.643999099731445,-13.321999549865723 26.643999099731445,-13.321999549865723 C26.643999099731445,-13.321999549865723 26.643999099731445,13.321999549865723 26.643999099731445,13.321999549865723z"></path></g></g><g transform="matrix(1,0,0,1,29.845001220703125,133.802001953125)" opacity="1" style="display: block;"><g opacity="1" transform="matrix(1,0,0,1,17,17)"><path stroke-linecap="butt" stroke-linejoin="miter" fill-opacity="0" stroke-miterlimit="10" stroke="#87CA98" stroke-opacity="1" stroke-width="2px" d=" M12,0 C12,6.626999855041504 6.626999855041504,12 0,12 C-6.626999855041504,12 -12,6.626999855041504 -12,0 C-12,-6.626999855041504 -6.626999855041504,-12 0,-12 C6.626999855041504,-12 12,-6.626999855041504 12,0z"></path></g></g><g transform="matrix(1,0,0,1,76.59500122070312,120.552001953125)" opacity="1" style="display: block;"><g opacity="1" transform="matrix(1,0,0,1,30.25,30.25)"><path fill="#C9E9D9" fill-opacity="1" d=" M30,30 C30,30 -30,30 -30,30 C-30,30 -30,-30 -30,-30 C-30,-30 30,-30 30,-30 C30,-30 30,30 30,30z"></path></g></g><g transform="matrix(1,0,0,1,76.59500122070312,0.5529994964599609)" opacity="1" style="display: block;"><g opacity="1" transform="matrix(1,0,0,1,60.25,9.720000267028809)"><path fill="#008C50" fill-opacity="1" d=" M-60,9.470000267028809 C-60,9.470000267028809 60,9.470000267028809 60,9.470000267028809 C60,9.470000267028809 60,-9.470000267028809 60,-9.470000267028809 C60,-9.470000267028809 -60,-9.470000267028809 -60,-9.470000267028809 C-60,-9.470000267028809 -60,9.470000267028809 -60,9.470000267028809z"></path></g></g><g transform="matrix(1,0,0,1,86.70899963378906,146.052001953125)" opacity="1" style="display: block;"><g opacity="1" transform="matrix(1,0,0,1,25.19300079345703,4.75)"><path fill="#456B8B" fill-opacity="1" d=" M24.94300079345703,-4.5 C24.94300079345703,-4.5 24.94300079345703,4.5 24.94300079345703,4.5 C24.94300079345703,4.5 -20.44300079345703,4.5 -20.44300079345703,4.5 C-22.92799949645996,4.5 -24.94300079345703,2.484999895095825 -24.94300079345703,0 C-24.94300079345703,-2.484999895095825 -22.92799949645996,-4.5 -20.44300079345703,-4.5 C-20.44300079345703,-4.5 24.94300079345703,-4.5 24.94300079345703,-4.5z"></path></g></g><g transform="matrix(1,0,0,1,106.48699951171875,47.191001892089844)" opacity="1" style="display: block;"><g opacity="1" transform="matrix(1,0,0,1,45.30400085449219,5.25)"><path fill="#456B8B" fill-opacity="1" d=" M45.05400085449219,-5 C45.05400085449219,-5 45.05400085449219,5 45.05400085449219,5 C45.05400085449219,5 -40.05400085449219,5 -40.05400085449219,5 C-42.816001892089844,5 -45.05400085449219,2.76200008392334 -45.05400085449219,0 C-45.05400085449219,-2.760999917984009 -42.816001892089844,-5 -40.05400085449219,-5 C-40.05400085449219,-5 45.05400085449219,-5 45.05400085449219,-5z"></path></g></g><g transform="matrix(1,0,0,1,137.97601318359375,70.58300018310547)" opacity="1" style="display: block;"><g opacity="1" transform="matrix(1,0,0,1,11.333000183105469,5.25)"><path fill="#456B8B" fill-opacity="1" d=" M11.083999633789062,0 C11.083999633789062,0 11.083999633789062,0 11.083999633789062,0 C11.083999633789062,2.76200008392334 8.845999717712402,5 6.084000110626221,5 C6.084000110626221,5 -6.084000110626221,5 -6.084000110626221,5 C-8.845000267028809,5 -11.083999633789062,2.76200008392334 -11.083999633789062,0 C-11.083999633789062,-2.760999917984009 -8.845000267028809,-5 -6.084000110626221,-5 C-6.084000110626221,-5 6.084000110626221,-5 6.084000110626221,-5 C8.845999717712402,-5 11.083999633789062,-2.760999917984009 11.083999633789062,0z"></path></g></g><g clip-path="url(#__lottie_element_102)" transform="matrix(1,0,0,1,0,0)" opacity="1" style="display: block;"><g transform="matrix(1,0,0,1,168.35899353027344,70.58300018310547)" opacity="1" style="display: block;"><g opacity="1" transform="matrix(1,0,0,1,14.04800033569336,5.25)"><path fill="#0FAE5A" fill-opacity="1" d=" M13.79800033569336,0 C13.79800033569336,0 13.79800033569336,0 13.79800033569336,0 C13.79800033569336,2.76200008392334 11.559000015258789,5 8.79800033569336,5 C8.79800033569336,5 -8.79800033569336,5 -8.79800033569336,5 C-11.559000015258789,5 -13.79800033569336,2.76200008392334 -13.79800033569336,0 C-13.79800033569336,-2.760999917984009 -11.559000015258789,-5 -8.79800033569336,-5 C-8.79800033569336,-5 8.79800033569336,-5 8.79800033569336,-5 C11.559000015258789,-5 13.79800033569336,-2.760999917984009 13.79800033569336,0z"></path></g></g><g transform="matrix(1,0,0,1,108.98600769042969,94.58300018310547)" opacity="1" style="display: block;"><g opacity="1" transform="matrix(1,0,0,1,19.23900032043457,5.25)"><path fill="#0FAE5A" fill-opacity="1" d=" M18.98900032043457,0 C18.98900032043457,0 18.98900032043457,0 18.98900032043457,0 C18.98900032043457,2.760999917984009 16.750999450683594,5 13.98900032043457,5 C13.98900032043457,5 -13.98900032043457,5 -13.98900032043457,5 C-16.75,5 -18.98900032043457,2.760999917984009 -18.98900032043457,0 C-18.98900032043457,-2.760999917984009 -16.75,-5 -13.98900032043457,-5 C-13.98900032043457,-5 13.98900032043457,-5 13.98900032043457,-5 C16.750999450683594,-5 18.98900032043457,-2.760999917984009 18.98900032043457,0z"></path></g></g></g><g transform="matrix(1,0,0,1,154.7570037841797,94.58300018310547)" opacity="1" style="display: block;"><g opacity="1" transform="matrix(1,0,0,1,19.23900032043457,5.25)"><path fill="#456B8B" fill-opacity="1" d=" M18.98900032043457,0 C18.98900032043457,0 18.98900032043457,0 18.98900032043457,0 C18.98900032043457,2.760999917984009 16.75,5 13.98900032043457,5 C13.98900032043457,5 -13.98900032043457,5 -13.98900032043457,5 C-16.75,5 -18.98900032043457,2.760999917984009 -18.98900032043457,0 C-18.98900032043457,-2.760999917984009 -16.75,-5 -13.98900032043457,-5 C-13.98900032043457,-5 13.98900032043457,-5 13.98900032043457,-5 C16.75,-5 18.98900032043457,-2.760999917984009 18.98900032043457,0z"></path></g></g><g transform="matrix(1,0,0,1,46.595001220703125,16.796001434326172)" opacity="1" style="display: block;"><g opacity="1" transform="matrix(1,0,0,1,7.127999782562256,14.005999565124512)"><path fill="#0FAE5A" fill-opacity="1" d=" M-6.877999782562256,0 C-6.877999782562256,0 -6.877999782562256,-13.755999565124512 -6.877999782562256,-13.755999565124512 C0.6679999828338623,-13.755999565124512 6.877999782562256,-7.546000003814697 6.877999782562256,0 C6.877999782562256,7.546000003814697 0.6679999828338623,13.755999565124512 -6.877999782562256,13.755999565124512 C-6.877999782562256,13.755999565124512 -6.877999782562256,0 -6.877999782562256,0z"></path></g></g><g transform="matrix(1,0,0,1,375.6809997558594,153.94400024414062)" opacity="1" style="display: block;"><g opacity="1" transform="matrix(1,0,0,1,30.25,30.25)"><path fill="#0FAE5A" fill-opacity="1" d=" M30,30 C30,30 -30,30 -30,30 C-30,30 -30,-30 -30,-30 C-30,-30 30,-30 30,-30 C30,-30 30,30 30,30z"></path></g></g><g transform="matrix(1,0,0,1,315.7799987792969,274.52099609375)" opacity="1" style="display: block;"><g opacity="1" transform="matrix(1,0,0,1,30.25,30.25)"><path fill="#0FAE5A" fill-opacity="1" d=" M30,30 C30,30 -30,30 -30,30 C-30,30 -30,-30 -30,-30 C-30,-30 30,-30 30,-30 C30,-30 30,30 30,30z"></path></g></g><g transform="matrix(1,0,0,1,339.5329895019531,226.24099731445312)" opacity="1" style="display: block;"><g opacity="1" transform="matrix(1,0,0,1,0,0)"><path stroke-linecap="butt" stroke-linejoin="miter" fill-opacity="0" stroke-miterlimit="10" stroke="#C9E9D9" stroke-opacity="1" stroke-width="1" d=" M0.5,12.404000282287598 C0.5,12.404000282287598 96.5,12.404000282287598 96.5,12.404000282287598"></path></g><g opacity="1" transform="matrix(1,0,0,1,0,0)"><path stroke-linecap="butt" stroke-linejoin="miter" fill-opacity="0" stroke-miterlimit="10" stroke="#C9E9D9" stroke-opacity="1" stroke-width="1" d=" M0.5,0.5 C0.5,0.5 96.5,0.5 96.5,0.5"></path></g><g opacity="1" transform="matrix(1,0,0,1,0,0)"><path stroke-linecap="butt" stroke-linejoin="miter" fill-opacity="0" stroke-miterlimit="10" stroke="#C9E9D9" stroke-opacity="1" stroke-width="1" d=" M96.5,24.402999877929688 C96.5,24.402999877929688 0.5,24.402999877929688 0.5,24.402999877929688"></path></g><g opacity="1" transform="matrix(1,0,0,1,0,0)"><path stroke-linecap="butt" stroke-linejoin="miter" fill-opacity="0" stroke-miterlimit="10" stroke="#C9E9D9" stroke-opacity="1" stroke-width="1" d=" M96.5,36.40299987792969 C96.5,36.40299987792969 0.5,36.40299987792969 0.5,36.40299987792969"></path></g></g><g transform="matrix(1,0,0,1,255.77999877929688,274.52099609375)" opacity="1" style="display: block;"><g opacity="1" transform="matrix(1,0,0,1,30.25,30.25)"><path fill="#004149" fill-opacity="1" d=" M30,30 C30,30 -30,30 -30,30 C-30,30 -30,-30 -30,-30 C-30,-30 30,-30 30,-30 C30,-30 30,30 30,30z"></path></g></g><g transform="matrix(1,0,0,1,315.7799987792969,244.52099609375)" opacity="1" style="display: block;"><g opacity="1" transform="matrix(1,0,0,1,30.25,15.25)"><path fill="#004149" fill-opacity="1" d=" M30,15 C30,15 -30,15 -30,15 C-30,15 -30,-15 -30,-15 C-30,-15 30,-15 30,-15 C30,-15 30,15 30,15z"></path></g></g><g transform="matrix(1,0,0,1,255.77999877929688,214.52099609375)" opacity="1" style="display: block;"><g opacity="1" transform="matrix(1,0,0,1,30.25,30.25)"><path fill="#456B8B" fill-opacity="1" d=" M-30,30 C-30,30 30,30 30,30 C30,30 30,-30 30,-30 C30,-30 -30,30 -30,30z"></path></g></g><g transform="matrix(1,0,0,1,676.1339721679688,399.61102294921875)" opacity="1" style="display: block;"><g opacity="1" transform="matrix(1,0,0,1,13.571999549865723,13.571999549865723)"><path fill="#008C50" fill-opacity="1" d=" M-13.321999549865723,-13.321999549865723 C-13.321999549865723,-13.321999549865723 -13.321999549865723,13.321999549865723 -13.321999549865723,13.321999549865723 C-13.321999549865723,13.321999549865723 13.321999549865723,13.321999549865723 13.321999549865723,13.321999549865723 C13.321999549865723,13.321999549865723 -13.321999549865723,-13.321999549865723 -13.321999549865723,-13.321999549865723z"></path></g></g><g transform="matrix(1,0,0,1,622.6510009765625,399.61102294921875)" opacity="1" style="display: block;"><g opacity="1" transform="matrix(1,0,0,1,13.571999549865723,13.571999549865723)"><path fill="#C9E9D9" fill-opacity="1" d=" M-13.321999549865723,-13.321999549865723 C-13.321999549865723,-13.321999549865723 -13.321999549865723,13.321999549865723 -13.321999549865723,13.321999549865723 C-13.321999549865723,13.321999549865723 13.321999549865723,13.321999549865723 13.321999549865723,13.321999549865723 C13.321999549865723,13.321999549865723 -13.321999549865723,-13.321999549865723 -13.321999549865723,-13.321999549865723z"></path></g></g><g transform="matrix(1,0,0,1,375.6809997558594,274.52099609375)" opacity="1" style="display: block;"><g opacity="1" transform="matrix(1,0,0,1,30.25,30.25)"><path fill="#004149" fill-opacity="1" d=" M30,-30 C30,-30 -30,-30 -30,-30 C-30,-30 -30,30 -30,30 C-30,30 30,-30 30,-30z"></path></g></g><g transform="matrix(1,0,0,1,330.01800537109375,258.52099609375)" opacity="1" style="display: block;"><g opacity="1" transform="matrix(1,0,0,1,16.25,8.25)"><path fill="#008C50" fill-opacity="1" d=" M0,8 C0,8 -16,8 -16,8 C-16,-0.7770000100135803 -8.777000427246094,-8 0,-8 C8.777000427246094,-8 16,-0.7770000100135803 16,8 C16,8 0,8 0,8z"></path></g></g><g transform="matrix(1,0,0,1,589.5399780273438,372.96600341796875)" opacity="1" style="display: block;"><g opacity="1" transform="matrix(1,0,0,1,26.893999099731445,13.572999954223633)"><path fill="#008C50" fill-opacity="1" d=" M0,13.321999549865723 C0,13.321999549865723 -26.645000457763672,13.321999549865723 -26.645000457763672,13.321999549865723 C-26.645000457763672,-1.2940000295639038 -14.616000175476074,-13.321999549865723 0,-13.321999549865723 C14.616000175476074,-13.321999549865723 26.645000457763672,-1.2940000295639038 26.645000457763672,13.321999549865723 C26.645000457763672,13.321999549865723 0,13.321999549865723 0,13.321999549865723z"></path></g></g><g transform="matrix(1,0,0,1,315.7799987792969,213.94400024414062)" opacity="1" style="display: block;"><g opacity="1" transform="matrix(1,0,0,1,30.200000762939453,15.538000106811523)"><path fill="#C9E9D9" fill-opacity="1" d=" M-29.950000762939453,-15.288000106811523 C-29.950000762939453,-15.288000106811523 29.950000762939453,-15.288000106811523 29.950000762939453,-15.288000106811523 C29.950000762939453,-15.288000106811523 29.950000762939453,15.288000106811523 29.950000762939453,15.288000106811523 C29.950000762939453,15.288000106811523 -29.950000762939453,15.288000106811523 -29.950000762939453,15.288000106811523 C-29.950000762939453,15.288000106811523 -29.950000762939453,-15.288000106811523 -29.950000762939453,-15.288000106811523z"></path></g></g><g transform="matrix(1,0,0,1,325.66900634765625,226.98500061035156)" opacity="1" style="display: block;"><g opacity="1" transform="matrix(1,0,0,1,0,0)"><path fill="#456B8B" fill-opacity="1" d="M0 0"></path></g><g opacity="1" transform="matrix(1,0,0,1,3.693000078201294,3.693000078201294)"><path fill="#10AF5A" fill-opacity="1" d=" M3.444000005722046,0 C3.444000005722046,1.9019999504089355 1.9010000228881836,3.443000078201294 0,3.443000078201294 C-1.9019999504089355,3.443000078201294 -3.444000005722046,1.9019999504089355 -3.444000005722046,0 C-3.444000005722046,-1.9010000228881836 -1.9019999504089355,-3.443000078201294 0,-3.443000078201294 C1.9010000228881836,-3.443000078201294 3.444000005722046,-1.9010000228881836 3.444000005722046,0z"></path></g></g><g transform="matrix(1,0,0,1,342.36199951171875,226.98500061035156)" opacity="1" style="display: block;"><g opacity="1" transform="matrix(1,0,0,1,3.693000078201294,3.693000078201294)"><path fill="#456B8B" fill-opacity="1" d=" M3.443000078201294,0 C3.443000078201294,1.9019999504089355 1.9010000228881836,3.443000078201294 0,3.443000078201294 C-1.9019999504089355,3.443000078201294 -3.443000078201294,1.9019999504089355 -3.443000078201294,0 C-3.443000078201294,-1.9010000228881836 -1.9019999504089355,-3.443000078201294 0,-3.443000078201294 C1.9010000228881836,-3.443000078201294 3.443000078201294,-1.9010000228881836 3.443000078201294,0z"></path></g></g><g transform="matrix(1,0,0,1,359.0530090332031,226.98500061035156)" opacity="1" style="display: block;"><g opacity="1" transform="matrix(1,0,0,1,3.693000078201294,3.693000078201294)"><path fill="#008C50" fill-opacity="1" d=" M3.443000078201294,0 C3.443000078201294,1.9019999504089355 1.9019999504089355,3.443000078201294 0,3.443000078201294 C-1.9019999504089355,3.443000078201294 -3.443000078201294,1.9019999504089355 -3.443000078201294,0 C-3.443000078201294,-1.9010000228881836 -1.9019999504089355,-3.443000078201294 0,-3.443000078201294 C1.9019999504089355,-3.443000078201294 3.443000078201294,-1.9010000228881836 3.443000078201294,0z"></path></g></g><g transform="matrix(1,0,0,1,32.8390007019043,16.796001434326172)" opacity="1" style="display: block;"><g opacity="1" transform="matrix(1,0,0,1,7.127999782562256,14.005999565124512)"><path fill="#F8F8F8" fill-opacity="1" d=" M6.877999782562256,0 C6.877999782562256,0 6.877999782562256,13.755999565124512 6.877999782562256,13.755999565124512 C-0.6679999828338623,13.755999565124512 -6.877999782562256,7.546000003814697 -6.877999782562256,0 C-6.877999782562256,-7.546000003814697 -0.6679999828338623,-13.755999565124512 6.877999782562256,-13.755999565124512 C6.877999782562256,-13.755999565124512 6.877999782562256,0 6.877999782562256,0z"></path></g></g><g transform="matrix(1,0,0,1,501.6280212402344,364.7820129394531)" opacity="1" style="display: block;"><path fill="#008C50" fill-opacity="0" d=" M44.97,24.98 C44.97,13.95 36.02,5 24.98,5 C13.95,5 5,13.95 5,24.98 C5,36.02 13.95,44.97 24.98,44.97 C36.02,44.97 44.97,36.02 44.97,24.98z"></path><g opacity="1" transform="matrix(1,0,0,1,24.982999801635742,24.982999801635742)"><path stroke-linecap="butt" stroke-linejoin="miter" fill-opacity="0" stroke-miterlimit="10" stroke="#008C50" stroke-opacity="1" stroke-width="2px" d=" M19.982999801635742,0.0010000000474974513 C19.982999801635742,-11.03600025177002 11.036999702453613,-19.98200035095215 0.0010000000474974513,-19.98200035095215 C-11.03600025177002,-19.98200035095215 -19.982999801635742,-11.03600025177002 -19.982999801635742,0.0010000000474974513 C-19.982999801635742,11.036999702453613 -11.03600025177002,19.98200035095215 0.0010000000474974513,19.98200035095215 C11.036999702453613,19.98200035095215 19.982999801635742,11.036999702453613 19.982999801635742,0.0010000000474974513z"></path></g></g><g transform="matrix(1,0,0,1,516.7550048828125,381.63702392578125)" opacity="1" style="display: block;"><g opacity="1" transform="matrix(1,0,0,1,11.586000442504883,8.126999855041504)"><path fill="#F8F8F8" fill-opacity="1" d=" M-6.920000076293945,6.921000003814697 C-6.920000076293945,6.921000003814697 -6.920000076293945,6.921000003814697 -6.920000076293945,6.921000003814697 C-7.875999927520752,5.965000152587891 -7.875999927520752,4.415999889373779 -6.920000076293945,3.4600000381469727 C-6.920000076293945,3.4600000381469727 3.4609999656677246,-6.921000003814697 3.4609999656677246,-6.921000003814697 C4.416999816894531,-7.876999855041504 5.966000080108643,-7.876999855041504 6.921999931335449,-6.921000003814697 C7.876999855041504,-5.966000080108643 7.876999855041504,-4.414999961853027 6.921999931335449,-3.4600000381469727 C6.921999931335449,-3.4600000381469727 -3.4609999656677246,6.921000003814697 -3.4609999656677246,6.921000003814697 C-4.415999889373779,7.875999927520752 -5.965000152587891,7.875999927520752 -6.920000076293945,6.921000003814697z"></path></g><g opacity="1" transform="matrix(1,0,0,1,4.665999889373779,11.586999893188477)"><path fill="#F8F8F8" fill-opacity="1" d=" M3.4600000381469727,3.4609999656677246 C3.4600000381469727,3.4609999656677246 3.4600000381469727,3.4609999656677246 3.4600000381469727,3.4609999656677246 C2.505000114440918,4.415999889373779 0.9549999833106995,4.415999889373779 0,3.4609999656677246 C0,3.4609999656677246 -3.4609999656677246,0 -3.4609999656677246,0 C-4.415999889373779,-0.9549999833106995 -4.415999889373779,-2.505000114440918 -3.4609999656677246,-3.4600000381469727 C-2.505000114440918,-4.415999889373779 -0.9559999704360962,-4.415999889373779 0,-3.4600000381469727 C0,-3.4600000381469727 3.4600000381469727,0 3.4600000381469727,0 C4.415999889373779,0.9559999704360962 4.415999889373779,2.505000114440918 3.4600000381469727,3.4609999656677246z"></path></g></g><g transform="matrix(1,0,0,1,389.9639892578125,168.1280059814453)" opacity="1" style="display: block;"><g opacity="1" transform="matrix(1,0,0,1,23.974000930786133,16.06599998474121)"><path fill="#C9E9D9" fill-opacity="1" d=" M-7.9079999923706055,0 C-7.9079999923706055,0 -7.9079999923706055,-15.815999984741211 -7.9079999923706055,-15.815999984741211 C0.7689999938011169,-15.815999984741211 7.9079999923706055,-8.675999641418457 7.9079999923706055,0 C7.9079999923706055,8.677000045776367 0.7689999938011169,15.815999984741211 -7.9079999923706055,15.815999984741211 C-7.9079999923706055,15.815999984741211 -7.9079999923706055,0 -7.9079999923706055,0z"></path></g><g opacity="1" transform="matrix(1,0,0,1,8.157999992370605,16.06599998474121)"><path fill="#004149" fill-opacity="1" d=" M7.9079999923706055,0 C7.9079999923706055,0 7.9079999923706055,15.815999984741211 7.9079999923706055,15.815999984741211 C-0.7689999938011169,15.815999984741211 -7.9079999923706055,8.677000045776367 -7.9079999923706055,0 C-7.9079999923706055,-8.675999641418457 -0.7689999938011169,-15.815999984741211 7.9079999923706055,-15.815999984741211 C7.9079999923706055,-15.815999984741211 7.9079999923706055,0 7.9079999923706055,0z"></path></g></g><g transform="matrix(1,0,0,1,556.166015625,399.6099853515625)" opacity="1" style="display: block;"><g opacity="1" transform="matrix(1,0,0,1,33.49300003051758,40.31999969482422)"><path fill="#456B8B" fill-opacity="1" d=" M-33.24300003051758,40.06999969482422 C-33.24300003051758,40.06999969482422 33.24300003051758,40.06999969482422 33.24300003051758,40.06999969482422 C33.24300003051758,40.06999969482422 33.24300003051758,-40.06999969482422 33.24300003051758,-40.06999969482422 C33.24300003051758,-40.06999969482422 -33.24300003051758,-40.06999969482422 -33.24300003051758,-40.06999969482422 C-33.24300003051758,-40.06999969482422 -33.24300003051758,40.06999969482422 -33.24300003051758,40.06999969482422z"></path></g></g><g transform="matrix(1,0,0,1,555.43505859375,418.99200439453125)" opacity="1" style="display: block;"><g opacity="1" transform="matrix(1,0,0,1,0,0)"><path stroke-linecap="butt" stroke-linejoin="miter" fill-opacity="0" stroke-miterlimit="10" stroke="#004149" stroke-opacity="1" stroke-width="2px" d=" M1,12.9399995803833 C1,12.9399995803833 67.41500091552734,12.9399995803833 67.41500091552734,12.9399995803833"></path></g><g opacity="1" transform="matrix(1,0,0,1,0,0)"><path stroke-linecap="butt" stroke-linejoin="miter" fill-opacity="0" stroke-miterlimit="10" stroke="#004149" stroke-opacity="1" stroke-width="2px" d=" M67.41500091552734,24.8799991607666 C67.41500091552734,24.8799991607666 1,24.8799991607666 1,24.8799991607666"></path></g><g opacity="1" transform="matrix(1,0,0,1,0,0)"><path stroke-linecap="butt" stroke-linejoin="miter" fill-opacity="0" stroke-miterlimit="10" stroke="#004149" stroke-opacity="1" stroke-width="2px" d=" M1,1 C1,1 67.46700286865234,1 67.46700286865234,1"></path></g><g opacity="1" transform="matrix(1,0,0,1,0,0)"><path stroke-linecap="butt" stroke-linejoin="miter" fill-opacity="0" stroke-miterlimit="10" stroke="#004149" stroke-opacity="1" stroke-width="2px" d=" M67.41500091552734,36.81999969482422 C67.41500091552734,36.81999969482422 1,36.81999969482422 1,36.81999969482422"></path></g></g><g transform="matrix(1,0,0,1,632,438.7039794921875)" opacity="1" style="display: block;"><g opacity="1" transform="matrix(1,0,0,1,5.614999771118164,13.100000381469727)"><path fill="#0FAE5A" fill-opacity="1" d=" M5.364999771118164,12.850000381469727 C5.364999771118164,12.850000381469727 -5.364999771118164,12.850000381469727 -5.364999771118164,12.850000381469727 C-5.364999771118164,12.850000381469727 -5.364999771118164,-12.850000381469727 -5.364999771118164,-12.850000381469727 C-5.364999771118164,-12.850000381469727 5.364999771118164,-12.850000381469727 5.364999771118164,-12.850000381469727 C5.364999771118164,-12.850000381469727 5.364999771118164,12.850000381469727 5.364999771118164,12.850000381469727z"></path></g></g><g transform="matrix(1,0,0,1,653.968994140625,438.7039794921875)" opacity="1" style="display: block;"><g opacity="1" transform="matrix(1,0,0,1,5.614999771118164,13.100000381469727)"><path fill="#0FAE5A" fill-opacity="1" d=" M5.364999771118164,12.850000381469727 C5.364999771118164,12.850000381469727 -5.364999771118164,12.850000381469727 -5.364999771118164,12.850000381469727 C-5.364999771118164,12.850000381469727 -5.364999771118164,-12.850000381469727 -5.364999771118164,-12.850000381469727 C-5.364999771118164,-12.850000381469727 5.364999771118164,-12.850000381469727 5.364999771118164,-12.850000381469727 C5.364999771118164,-12.850000381469727 5.364999771118164,12.850000381469727 5.364999771118164,12.850000381469727z"></path></g></g><g transform="matrix(1,0,0,1,683.89599609375,438.6239929199219)" opacity="1" style="display: block;"><g opacity="1" transform="matrix(1,0,0,1,5.614999771118164,13.100000381469727)"><path fill="#C9E9D9" fill-opacity="1" d=" M5.364999771118164,12.850000381469727 C5.364999771118164,12.850000381469727 -5.364999771118164,12.850000381469727 -5.364999771118164,12.850000381469727 C-5.364999771118164,12.850000381469727 -5.364999771118164,-12.850000381469727 -5.364999771118164,-12.850000381469727 C-5.364999771118164,-12.850000381469727 5.364999771118164,-12.850000381469727 5.364999771118164,-12.850000381469727 C5.364999771118164,-12.850000381469727 5.364999771118164,12.850000381469727 5.364999771118164,12.850000381469727z"></path></g></g><g transform="matrix(1,0,0,1,270.6700134277344,289.81201171875)" opacity="1" style="display: block;"><g opacity="1" transform="matrix(1,0,0,1,3.2939999103546143,3.2939999103546143)"><path fill="#C9E9D9" fill-opacity="1" d=" M3.0439999103546143,3.0439999103546143 C3.0439999103546143,3.0439999103546143 -3.0439999103546143,3.0439999103546143 -3.0439999103546143,3.0439999103546143 C-3.0439999103546143,3.0439999103546143 -3.0439999103546143,-3.0439999103546143 -3.0439999103546143,-3.0439999103546143 C-3.0439999103546143,-3.0439999103546143 3.0439999103546143,-3.0439999103546143 3.0439999103546143,-3.0439999103546143 C3.0439999103546143,-3.0439999103546143 3.0439999103546143,3.0439999103546143 3.0439999103546143,3.0439999103546143z"></path></g><g opacity="1" transform="matrix(1,0,0,1,15.361000061035156,3.2939999103546143)"><path fill="#008C50" fill-opacity="1" d=" M3.0439999103546143,3.0439999103546143 C3.0439999103546143,3.0439999103546143 -3.0439999103546143,3.0439999103546143 -3.0439999103546143,3.0439999103546143 C-3.0439999103546143,3.0439999103546143 -3.0439999103546143,-3.0439999103546143 -3.0439999103546143,-3.0439999103546143 C-3.0439999103546143,-3.0439999103546143 3.0439999103546143,-3.0439999103546143 3.0439999103546143,-3.0439999103546143 C3.0439999103546143,-3.0439999103546143 3.0439999103546143,3.0439999103546143 3.0439999103546143,3.0439999103546143z"></path></g><g opacity="1" transform="matrix(1,0,0,1,27.429000854492188,3.2939999103546143)"><path fill="#C9E9D9" fill-opacity="1" d=" M3.0439999103546143,3.0439999103546143 C3.0439999103546143,3.0439999103546143 -3.0439999103546143,3.0439999103546143 -3.0439999103546143,3.0439999103546143 C-3.0439999103546143,3.0439999103546143 -3.0439999103546143,-3.0439999103546143 -3.0439999103546143,-3.0439999103546143 C-3.0439999103546143,-3.0439999103546143 3.0439999103546143,-3.0439999103546143 3.0439999103546143,-3.0439999103546143 C3.0439999103546143,-3.0439999103546143 3.0439999103546143,3.0439999103546143 3.0439999103546143,3.0439999103546143z"></path></g><g opacity="1" transform="matrix(1,0,0,1,3.2939999103546143,14.958999633789062)"><path fill="#008C50" fill-opacity="1" d=" M3.0439999103546143,3.0439999103546143 C3.0439999103546143,3.0439999103546143 -3.0439999103546143,3.0439999103546143 -3.0439999103546143,3.0439999103546143 C-3.0439999103546143,3.0439999103546143 -3.0439999103546143,-3.0439999103546143 -3.0439999103546143,-3.0439999103546143 C-3.0439999103546143,-3.0439999103546143 3.0439999103546143,-3.0439999103546143 3.0439999103546143,-3.0439999103546143 C3.0439999103546143,-3.0439999103546143 3.0439999103546143,3.0439999103546143 3.0439999103546143,3.0439999103546143z"></path></g><g opacity="1" transform="matrix(1,0,0,1,15.361000061035156,14.958999633789062)"><path fill="#C9E9D9" fill-opacity="1" d=" M3.0439999103546143,3.0439999103546143 C3.0439999103546143,3.0439999103546143 -3.0439999103546143,3.0439999103546143 -3.0439999103546143,3.0439999103546143 C-3.0439999103546143,3.0439999103546143 -3.0439999103546143,-3.0439999103546143 -3.0439999103546143,-3.0439999103546143 C-3.0439999103546143,-3.0439999103546143 3.0439999103546143,-3.0439999103546143 3.0439999103546143,-3.0439999103546143 C3.0439999103546143,-3.0439999103546143 3.0439999103546143,3.0439999103546143 3.0439999103546143,3.0439999103546143z"></path></g><g opacity="1" transform="matrix(1,0,0,1,27.429000854492188,14.958999633789062)"><path fill="#008C50" fill-opacity="1" d=" M3.0439999103546143,3.0439999103546143 C3.0439999103546143,3.0439999103546143 -3.0439999103546143,3.0439999103546143 -3.0439999103546143,3.0439999103546143 C-3.0439999103546143,3.0439999103546143 -3.0439999103546143,-3.0439999103546143 -3.0439999103546143,-3.0439999103546143 C-3.0439999103546143,-3.0439999103546143 3.0439999103546143,-3.0439999103546143 3.0439999103546143,-3.0439999103546143 C3.0439999103546143,-3.0439999103546143 3.0439999103546143,3.0439999103546143 3.0439999103546143,3.0439999103546143z"></path></g><g opacity="1" transform="matrix(1,0,0,1,3.2939999103546143,26.62299919128418)"><path fill="#C9E9D9" fill-opacity="1" d=" M3.0439999103546143,3.0439999103546143 C3.0439999103546143,3.0439999103546143 -3.0439999103546143,3.0439999103546143 -3.0439999103546143,3.0439999103546143 C-3.0439999103546143,3.0439999103546143 -3.0439999103546143,-3.0439999103546143 -3.0439999103546143,-3.0439999103546143 C-3.0439999103546143,-3.0439999103546143 3.0439999103546143,-3.0439999103546143 3.0439999103546143,-3.0439999103546143 C3.0439999103546143,-3.0439999103546143 3.0439999103546143,3.0439999103546143 3.0439999103546143,3.0439999103546143z"></path></g><g opacity="1" transform="matrix(1,0,0,1,15.361000061035156,26.62299919128418)"><path fill="#008C50" fill-opacity="1" d=" M3.0439999103546143,3.0439999103546143 C3.0439999103546143,3.0439999103546143 -3.0439999103546143,3.0439999103546143 -3.0439999103546143,3.0439999103546143 C-3.0439999103546143,3.0439999103546143 -3.0439999103546143,-3.0439999103546143 -3.0439999103546143,-3.0439999103546143 C-3.0439999103546143,-3.0439999103546143 3.0439999103546143,-3.0439999103546143 3.0439999103546143,-3.0439999103546143 C3.0439999103546143,-3.0439999103546143 3.0439999103546143,3.0439999103546143 3.0439999103546143,3.0439999103546143z"></path></g><g opacity="1" transform="matrix(1,0,0,1,27.429000854492188,26.62299919128418)"><path fill="#C9E9D9" fill-opacity="1" d=" M3.0439999103546143,3.0439999103546143 C3.0439999103546143,3.0439999103546143 -3.0439999103546143,3.0439999103546143 -3.0439999103546143,3.0439999103546143 C-3.0439999103546143,3.0439999103546143 -3.0439999103546143,-3.0439999103546143 -3.0439999103546143,-3.0439999103546143 C-3.0439999103546143,-3.0439999103546143 3.0439999103546143,-3.0439999103546143 3.0439999103546143,-3.0439999103546143 C3.0439999103546143,-3.0439999103546143 3.0439999103546143,3.0439999103546143 3.0439999103546143,3.0439999103546143z"></path></g></g><g transform="matrix(1,0,0,1,83.13899993896484,6.921999931335449)" opacity="1" style="display: block;"><g opacity="1" transform="matrix(1,0,0,1,3.3510000705718994,3.3510000705718994)"><path fill="#004149" fill-opacity="1" d=" M3.1010000705718994,0 C3.1010000705718994,1.7120000123977661 1.7120000123977661,3.1010000705718994 -0.0010000000474974513,3.1010000705718994 C-1.7130000591278076,3.1010000705718994 -3.1010000705718994,1.7120000123977661 -3.1010000705718994,0 C-3.1010000705718994,-1.7120000123977661 -1.7130000591278076,-3.1010000705718994 -0.0010000000474974513,-3.1010000705718994 C1.7120000123977661,-3.1010000705718994 3.1010000705718994,-1.7120000123977661 3.1010000705718994,0z"></path></g></g><g transform="matrix(1,0,0,1,95.11700439453125,6.921999931335449)" opacity="1" style="display: block;"><g opacity="1" transform="matrix(1,0,0,1,3.3510000705718994,3.3510000705718994)"><path fill="#C9E9D9" fill-opacity="1" d=" M3.1010000705718994,0 C3.1010000705718994,1.7120000123977661 1.7130000591278076,3.1010000705718994 0,3.1010000705718994 C-1.7120000123977661,3.1010000705718994 -3.1010000705718994,1.7120000123977661 -3.1010000705718994,0 C-3.1010000705718994,-1.7120000123977661 -1.7120000123977661,-3.1010000705718994 0,-3.1010000705718994 C1.7130000591278076,-3.1010000705718994 3.1010000705718994,-1.7120000123977661 3.1010000705718994,0z"></path></g></g><g transform="matrix(1,0,0,1,107.09600067138672,6.921999931335449)" opacity="1" style="display: block;"><g opacity="1" transform="matrix(1,0,0,1,3.3510000705718994,3.3510000705718994)"><path fill="#0FAE5A" fill-opacity="1" d=" M3.1010000705718994,0 C3.1010000705718994,1.7120000123977661 1.7120000123977661,3.1010000705718994 -0.0010000000474974513,3.1010000705718994 C-1.7130000591278076,3.1010000705718994 -3.1010000705718994,1.7120000123977661 -3.1010000705718994,0 C-3.1010000705718994,-1.7120000123977661 -1.7130000591278076,-3.1010000705718994 -0.0010000000474974513,-3.1010000705718994 C1.7120000123977661,-3.1010000705718994 3.1010000705718994,-1.7120000123977661 3.1010000705718994,0z"></path></g></g><g transform="matrix(1,0,0,1,315.6809997558594,183.94400024414062)" opacity="1" style="display: block;"><g opacity="1" transform="matrix(1,0,0,1,30.25,15.25)"><path fill="#004149" fill-opacity="1" d=" M0,15 C0,15 30,15 30,15 C30,-1.4579999446868896 16.457000732421875,-15 0,-15 C-16.45800018310547,-15 -30,-1.4579999446868896 -30,15 C-30,15 0,15 0,15z"></path></g></g></g></g></svg>