<svg xmlns:xlink="http://www.w3.org/1999/xlink" fill="none" height="240" viewBox="0 0 60 240" width="60" xmlns="http://www.w3.org/2000/svg"><path d="m0 0h60.2985v60.2985h-60.2985z" fill="#C7E8D7" transform="matrix(1 0 0 -1 0 180)"></path><rect fill="#04AA51" height="12.0597" rx="6.02985" transform="matrix(1 0 0 -1 12.0596 167.941)" width="12.0597"></rect><rect fill="#3B6385" height="12.0597" rx="6.02985" transform="matrix(1 0 0 -1 36.179 167.94)" width="12.0597"></rect><rect fill="#3B6385" height="12.0597" rx="6.02985" transform="matrix(1 0 0 -1 12.0596 143.821)" width="12.0597"></rect><rect fill="#04AA51" height="12.0597" rx="6.02985" transform="matrix(1 0 0 -1 36.179 143.821)" width="12.0597"></rect><path d="m0 .00024414v119.99975586h60v-119.99975586z" fill="#04AA51"></path><path d="m36 29.3682v61.2671c0 2.9515-2.7 5.3664-6 5.3664s-6-2.4149-6-5.3664v-61.2671c0-2.9516 2.7-5.3665 6-5.3665 3.4 0 6 2.4149 6 5.3665z" fill="#003740"></path><path d="m30 83.9998c3.3137 0 6-2.6863 6-6 0-3.3138-2.6863-6-6-6s-6 2.6862-6 6c0 3.3137 2.6863 6 6 6z" fill="#C7E8D7"></path><path d="m0 180v60l60-60z" fill="#3B6385"></path></svg>