<svg fill="none" height="240" viewBox="0 0 60 240" width="60" xmlns="http://www.w3.org/2000/svg" xmlns:xlink="http://www.w3.org/1999/xlink"><clipPath id="a" fill="none"><path d="m0 0h60v240h-60z" fill="none"></path></clipPath><g clip-path="url(#a)" fill="none"><path d="m12 50v60" stroke="#003038" fill="none"></path><path d="m60 180c0 7.88-1.5519 15.682-4.5672 22.961-3.0153 7.28-7.4349 13.894-13.0064 19.466-5.5715 5.571-12.1859 9.991-19.4654 13.006s-15.08169 4.567-22.961 4.567l.00000262-60z" fill="#C7E8D7"></path><path d="m0 180h60v-60h-60z" fill="#04AA51"></path><path d="m48 120c0 26.51-21.4903 48-48 48" stroke="#003740" stroke-width="2px" fill="none"></path><path d="m36 120c0 19.882-16.1177 36-36 36" stroke="#003740" stroke-width="2px" fill="none"></path><path d="m24 120c0 13.255-10.7452 24-24 24" stroke="#003740" stroke-width="2px" fill="none"></path><path d="m12 120c0 6.628-5.37258 12-12 12" stroke="#003740" stroke-width="2px" fill="none"></path><path d="m0 0h60v60h-60z" fill="#3B6385"></path><g stroke-width="2px" fill="none"><path d="m48 60c0-26.5097-21.4903-48-48-48" stroke="#C7E8D7" fill="none" stroke-width="2px"></path><path d="m36 60c0-19.8822-16.1178-36-36-36" stroke="#C7E8D7" fill="none" stroke-width="2px"></path><path d="m24 60c0-13.2548-10.7452-24-24-24" stroke="#C7E8D7" fill="none" stroke-width="2px"></path><path d="m12 60c0-6.6274-5.37258-12-12-12" stroke="#C7E8D7" fill="none" stroke-width="2px"></path><path d="m12 120v-60.2979" stroke="#C7E8D7" fill="none" stroke-width="2px"></path><path d="m24 120v-60.2979" stroke="#C7E8D7" fill="none" stroke-width="2px"></path><path d="m36 120v-60.2979" stroke="#C7E8D7" fill="none" stroke-width="2px"></path><path d="m48 120v-60.2979" stroke="#C7E8D7" fill="none" stroke-width="2px"></path></g><path clip-rule="evenodd" d="m0 0h60v60h-60z" fill="#3B6385" fill-rule="evenodd"></path><path d="m24 24h-6v-6h6z" fill="#C7E8D7"></path><path d="m24 42.001h-6v-6.0001h6z" fill="#04AA51"></path><path d="m42 24h-6v-6h6z" fill="#04AA51"></path><path d="m42 42.001h-6v-6.0001h6z" fill="#C7E8D7"></path></g></svg>