<svg xmlns:xlink="http://www.w3.org/1999/xlink" xmlns="http://www.w3.org/2000/svg" viewBox="0 0 1080 600" width="1080" height="600" preserveAspectRatio="xMidYMid meet" style="width: 100%; height: 100%; transform: translate3d(0px, 0px, 0px);"><defs><clipPath id="__lottie_element_708"><rect width="1080" height="600" x="0" y="0"></rect></clipPath><clipPath id="__lottie_element_710"><path d="M0,0 L480,0 L480,480 L0,480z"></path></clipPath><clipPath id="__lottie_element_764"><path d="M0,0 L480,0 L480,480 L0,480z"></path></clipPath><clipPath id="__lottie_element_774"><path d="M0,0 L480,0 L480,480 L0,480z"></path></clipPath><clipPath id="__lottie_element_778"><path d="M0,0 L480,0 L480,480 L0,480z"></path></clipPath><clipPath id="__lottie_element_881"><path d="M0,0 L480,0 L480,480 L0,480z"></path></clipPath></defs><g clip-path="url(#__lottie_element_708)"><g transform="matrix(1,0,0,1,120.60498046875,-0.25)" opacity="1" style="display: block;"><g opacity="1" transform="matrix(1,0,0,1,479.822998046875,300.25)"><path fill="#F3F3F3" fill-opacity="1" d=" M-358.4330139160156,180.28599548339844 C-358.4330139160156,180.28599548339844 -240.14199829101562,180.28599548339844 -240.14199829101562,180.28599548339844 C-240.14199829101562,180.28599548339844 -240.14199829101562,298.57598876953125 -240.14199829101562,298.57598876953125 C-240.14199829101562,298.57598876953125 -358.4330139160156,298.57598876953125 -358.4330139160156,298.57598876953125 C-358.4330139160156,298.57598876953125 -358.4330139160156,180.28599548339844 -358.4330139160156,180.28599548339844z M-238.71800231933594,180.28599548339844 C-238.71800231933594,180.28599548339844 -120.4280014038086,180.28599548339844 -120.4280014038086,180.28599548339844 C-120.4280014038086,180.28599548339844 -120.4280014038086,298.57598876953125 -120.4280014038086,298.57598876953125 C-120.4280014038086,298.57598876953125 -238.71800231933594,298.57598876953125 -238.71800231933594,298.57598876953125 C-238.71800231933594,298.57598876953125 -238.71800231933594,180.28599548339844 -238.71800231933594,180.28599548339844z M-119.00299835205078,180.28599548339844 C-119.00299835205078,180.28599548339844 -0.7129999995231628,180.28599548339844 -0.7129999995231628,180.28599548339844 C-0.7129999995231628,180.28599548339844 -0.7129999995231628,298.57598876953125 -0.7129999995231628,298.57598876953125 C-0.7129999995231628,298.57598876953125 -119.00299835205078,298.57598876953125 -119.00299835205078,298.57598876953125 C-119.00299835205078,298.57598876953125 -119.00299835205078,180.28599548339844 -119.00299835205078,180.28599548339844z M0.7129999995231628,180.28599548339844 C0.7129999995231628,180.28599548339844 119.00199890136719,180.28599548339844 119.00199890136719,180.28599548339844 C119.00199890136719,180.28599548339844 119.00199890136719,298.57598876953125 119.00199890136719,298.57598876953125 C119.00199890136719,298.57598876953125 0.7129999995231628,298.57598876953125 0.7129999995231628,298.57598876953125 C0.7129999995231628,298.57598876953125 0.7129999995231628,180.28599548339844 0.7129999995231628,180.28599548339844z M120.4280014038086,180.28599548339844 C120.4280014038086,180.28599548339844 238.71800231933594,180.28599548339844 238.71800231933594,180.28599548339844 C238.71800231933594,180.28599548339844 238.71800231933594,298.57598876953125 238.71800231933594,298.57598876953125 C238.71800231933594,298.57598876953125 120.4280014038086,298.57598876953125 120.4280014038086,298.57598876953125 C120.4280014038086,298.57598876953125 120.4280014038086,180.28599548339844 120.4280014038086,180.28599548339844z M240.14199829101562,180.28599548339844 C240.14199829101562,180.28599548339844 358.4320068359375,180.28599548339844 358.4320068359375,180.28599548339844 C358.4320068359375,180.28599548339844 358.4320068359375,298.57598876953125 358.4320068359375,298.57598876953125 C358.4320068359375,298.57598876953125 240.14199829101562,298.57598876953125 240.14199829101562,298.57598876953125 C240.14199829101562,298.57598876953125 240.14199829101562,180.28599548339844 240.14199829101562,180.28599548339844z M359.8580017089844,180.28599548339844 C359.8580017089844,180.28599548339844 478.14898681640625,180.28599548339844 478.14898681640625,180.28599548339844 C478.14898681640625,180.28599548339844 478.14898681640625,298.57598876953125 478.14898681640625,298.57598876953125 C478.14898681640625,298.57598876953125 359.8580017089844,298.57598876953125 359.8580017089844,298.57598876953125 C359.8580017089844,298.57598876953125 359.8580017089844,180.28599548339844 359.8580017089844,180.28599548339844z M-478.14801025390625,60.57099914550781 C-478.14801025390625,60.57099914550781 -359.8580017089844,60.57099914550781 -359.8580017089844,60.57099914550781 C-359.8580017089844,60.57099914550781 -359.8580017089844,178.86000061035156 -359.8580017089844,178.86000061035156 C-359.8580017089844,178.86000061035156 -478.14801025390625,178.86000061035156 -478.14801025390625,178.86000061035156 C-478.14801025390625,178.86000061035156 -478.14801025390625,60.57099914550781 -478.14801025390625,60.57099914550781z M-358.4330139160156,60.57099914550781 C-358.4330139160156,60.57099914550781 -240.14199829101562,60.57099914550781 -240.14199829101562,60.57099914550781 C-240.14199829101562,60.57099914550781 -240.14199829101562,178.86000061035156 -240.14199829101562,178.86000061035156 C-240.14199829101562,178.86000061035156 -358.4330139160156,178.86000061035156 -358.4330139160156,178.86000061035156 C-358.4330139160156,178.86000061035156 -358.4330139160156,60.57099914550781 -358.4330139160156,60.57099914550781z M-238.71800231933594,60.57099914550781 C-238.71800231933594,60.57099914550781 -120.4280014038086,60.57099914550781 -120.4280014038086,60.57099914550781 C-120.4280014038086,60.57099914550781 -120.4280014038086,178.86000061035156 -120.4280014038086,178.86000061035156 C-120.4280014038086,178.86000061035156 -238.71800231933594,178.86000061035156 -238.71800231933594,178.86000061035156 C-238.71800231933594,178.86000061035156 -238.71800231933594,60.57099914550781 -238.71800231933594,60.57099914550781z M-119.00299835205078,60.57099914550781 C-119.00299835205078,60.57099914550781 -0.7129999995231628,60.57099914550781 -0.7129999995231628,60.57099914550781 C-0.7129999995231628,60.57099914550781 -0.7129999995231628,178.86000061035156 -0.7129999995231628,178.86000061035156 C-0.7129999995231628,178.86000061035156 -119.00299835205078,178.86000061035156 -119.00299835205078,178.86000061035156 C-119.00299835205078,178.86000061035156 -119.00299835205078,60.57099914550781 -119.00299835205078,60.57099914550781z M0.7129999995231628,60.57099914550781 C0.7129999995231628,60.57099914550781 119.00199890136719,60.57099914550781 119.00199890136719,60.57099914550781 C119.00199890136719,60.57099914550781 119.00199890136719,178.86000061035156 119.00199890136719,178.86000061035156 C119.00199890136719,178.86000061035156 0.7129999995231628,178.86000061035156 0.7129999995231628,178.86000061035156 C0.7129999995231628,178.86000061035156 0.7129999995231628,60.57099914550781 0.7129999995231628,60.57099914550781z M120.4280014038086,60.57099914550781 C120.4280014038086,60.57099914550781 238.71800231933594,60.57099914550781 238.71800231933594,60.57099914550781 C238.71800231933594,60.57099914550781 238.71800231933594,178.86000061035156 238.71800231933594,178.86000061035156 C238.71800231933594,178.86000061035156 120.4280014038086,178.86000061035156 120.4280014038086,178.86000061035156 C120.4280014038086,178.86000061035156 120.4280014038086,60.57099914550781 120.4280014038086,60.57099914550781z M240.14199829101562,60.57099914550781 C240.14199829101562,60.57099914550781 358.4320068359375,60.57099914550781 358.4320068359375,60.57099914550781 C358.4320068359375,60.57099914550781 358.4320068359375,178.86000061035156 358.4320068359375,178.86000061035156 C358.4320068359375,178.86000061035156 240.14199829101562,178.86000061035156 240.14199829101562,178.86000061035156 C240.14199829101562,178.86000061035156 240.14199829101562,60.57099914550781 240.14199829101562,60.57099914550781z M359.8580017089844,60.57099914550781 C359.8580017089844,60.57099914550781 478.14898681640625,60.57099914550781 478.14898681640625,60.57099914550781 C478.14898681640625,60.57099914550781 478.14898681640625,178.86000061035156 478.14898681640625,178.86000061035156 C478.14898681640625,178.86000061035156 359.8580017089844,178.86000061035156 359.8580017089844,178.86000061035156 C359.8580017089844,178.86000061035156 359.8580017089844,60.57099914550781 359.8580017089844,60.57099914550781z M-478.14801025390625,-59.14500045776367 C-478.14801025390625,-59.14500045776367 -359.8580017089844,-59.14500045776367 -359.8580017089844,-59.14500045776367 C-359.8580017089844,-59.14500045776367 -359.8580017089844,59.14500045776367 -359.8580017089844,59.14500045776367 C-359.8580017089844,59.14500045776367 -478.14801025390625,59.14500045776367 -478.14801025390625,59.14500045776367 C-478.14801025390625,59.14500045776367 -478.14801025390625,-59.14500045776367 -478.14801025390625,-59.14500045776367z M-358.4330139160156,-59.14500045776367 C-358.4330139160156,-59.14500045776367 -240.14199829101562,-59.14500045776367 -240.14199829101562,-59.14500045776367 C-240.14199829101562,-59.14500045776367 -240.14199829101562,59.14500045776367 -240.14199829101562,59.14500045776367 C-240.14199829101562,59.14500045776367 -358.4330139160156,59.14500045776367 -358.4330139160156,59.14500045776367 C-358.4330139160156,59.14500045776367 -358.4330139160156,-59.14500045776367 -358.4330139160156,-59.14500045776367z M-238.71800231933594,-59.14500045776367 C-238.71800231933594,-59.14500045776367 -120.4280014038086,-59.14500045776367 -120.4280014038086,-59.14500045776367 C-120.4280014038086,-59.14500045776367 -120.4280014038086,59.14500045776367 -120.4280014038086,59.14500045776367 C-120.4280014038086,59.14500045776367 -238.71800231933594,59.14500045776367 -238.71800231933594,59.14500045776367 C-238.71800231933594,59.14500045776367 -238.71800231933594,-59.14500045776367 -238.71800231933594,-59.14500045776367z M-119.00299835205078,-59.14500045776367 C-119.00299835205078,-59.14500045776367 -0.7129999995231628,-59.14500045776367 -0.7129999995231628,-59.14500045776367 C-0.7129999995231628,-59.14500045776367 -0.7129999995231628,59.14500045776367 -0.7129999995231628,59.14500045776367 C-0.7129999995231628,59.14500045776367 -119.00299835205078,59.14500045776367 -119.00299835205078,59.14500045776367 C-119.00299835205078,59.14500045776367 -119.00299835205078,-59.14500045776367 -119.00299835205078,-59.14500045776367z M0.7129999995231628,-59.14500045776367 C0.7129999995231628,-59.14500045776367 119.00199890136719,-59.14500045776367 119.00199890136719,-59.14500045776367 C119.00199890136719,-59.14500045776367 119.00199890136719,59.14500045776367 119.00199890136719,59.14500045776367 C119.00199890136719,59.14500045776367 0.7129999995231628,59.14500045776367 0.7129999995231628,59.14500045776367 C0.7129999995231628,59.14500045776367 0.7129999995231628,-59.14500045776367 0.7129999995231628,-59.14500045776367z M120.4280014038086,-59.14500045776367 C120.4280014038086,-59.14500045776367 238.71800231933594,-59.14500045776367 238.71800231933594,-59.14500045776367 C238.71800231933594,-59.14500045776367 238.71800231933594,59.14500045776367 238.71800231933594,59.14500045776367 C238.71800231933594,59.14500045776367 120.4280014038086,59.14500045776367 120.4280014038086,59.14500045776367 C120.4280014038086,59.14500045776367 120.4280014038086,-59.14500045776367 120.4280014038086,-59.14500045776367z M240.14199829101562,-59.14500045776367 C240.14199829101562,-59.14500045776367 358.4320068359375,-59.14500045776367 358.4320068359375,-59.14500045776367 C358.4320068359375,-59.14500045776367 358.4320068359375,59.14500045776367 358.4320068359375,59.14500045776367 C358.4320068359375,59.14500045776367 240.14199829101562,59.14500045776367 240.14199829101562,59.14500045776367 C240.14199829101562,59.14500045776367 240.14199829101562,-59.14500045776367 240.14199829101562,-59.14500045776367z M-478.14801025390625,-178.86000061035156 C-478.14801025390625,-178.86000061035156 -359.8580017089844,-178.86000061035156 -359.8580017089844,-178.86000061035156 C-359.8580017089844,-178.86000061035156 -359.8580017089844,-60.56999969482422 -359.8580017089844,-60.56999969482422 C-359.8580017089844,-60.56999969482422 -478.14801025390625,-60.56999969482422 -478.14801025390625,-60.56999969482422 C-478.14801025390625,-60.56999969482422 -478.14801025390625,-178.86000061035156 -478.14801025390625,-178.86000061035156z M-358.4330139160156,-178.86000061035156 C-358.4330139160156,-178.86000061035156 -240.14199829101562,-178.86000061035156 -240.14199829101562,-178.86000061035156 C-240.14199829101562,-178.86000061035156 -240.14199829101562,-60.56999969482422 -240.14199829101562,-60.56999969482422 C-240.14199829101562,-60.56999969482422 -358.4330139160156,-60.56999969482422 -358.4330139160156,-60.56999969482422 C-358.4330139160156,-60.56999969482422 -358.4330139160156,-178.86000061035156 -358.4330139160156,-178.86000061035156z M-238.71800231933594,-178.86000061035156 C-238.71800231933594,-178.86000061035156 -120.4280014038086,-178.86000061035156 -120.4280014038086,-178.86000061035156 C-120.4280014038086,-178.86000061035156 -120.4280014038086,-60.56999969482422 -120.4280014038086,-60.56999969482422 C-120.4280014038086,-60.56999969482422 -238.71800231933594,-60.56999969482422 -238.71800231933594,-60.56999969482422 C-238.71800231933594,-60.56999969482422 -238.71800231933594,-178.86000061035156 -238.71800231933594,-178.86000061035156z M-119.00299835205078,-178.86000061035156 C-119.00299835205078,-178.86000061035156 -0.7129999995231628,-178.86000061035156 -0.7129999995231628,-178.86000061035156 C-0.7129999995231628,-178.86000061035156 -0.7129999995231628,-60.56999969482422 -0.7129999995231628,-60.56999969482422 C-0.7129999995231628,-60.56999969482422 -119.00299835205078,-60.56999969482422 -119.00299835205078,-60.56999969482422 C-119.00299835205078,-60.56999969482422 -119.00299835205078,-178.86000061035156 -119.00299835205078,-178.86000061035156z M0.7129999995231628,-178.86000061035156 C0.7129999995231628,-178.86000061035156 119.00199890136719,-178.86000061035156 119.00199890136719,-178.86000061035156 C119.00199890136719,-178.86000061035156 119.00199890136719,-60.56999969482422 119.00199890136719,-60.56999969482422 C119.00199890136719,-60.56999969482422 0.7129999995231628,-60.56999969482422 0.7129999995231628,-60.56999969482422 C0.7129999995231628,-60.56999969482422 0.7129999995231628,-178.86000061035156 0.7129999995231628,-178.86000061035156z M120.4280014038086,-178.86000061035156 C120.4280014038086,-178.86000061035156 238.71800231933594,-178.86000061035156 238.71800231933594,-178.86000061035156 C238.71800231933594,-178.86000061035156 238.71800231933594,-60.56999969482422 238.71800231933594,-60.56999969482422 C238.71800231933594,-60.56999969482422 120.4280014038086,-60.56999969482422 120.4280014038086,-60.56999969482422 C120.4280014038086,-60.56999969482422 120.4280014038086,-178.86000061035156 120.4280014038086,-178.86000061035156z M240.14199829101562,-178.86000061035156 C240.14199829101562,-178.86000061035156 358.4320068359375,-178.86000061035156 358.4320068359375,-178.86000061035156 C358.4320068359375,-178.86000061035156 358.4320068359375,-60.56999969482422 358.4320068359375,-60.56999969482422 C358.4320068359375,-60.56999969482422 240.14199829101562,-60.56999969482422 240.14199829101562,-60.56999969482422 C240.14199829101562,-60.56999969482422 240.14199829101562,-178.86000061035156 240.14199829101562,-178.86000061035156z M-358.4330139160156,-298.5740051269531 C-358.4330139160156,-298.5740051269531 -240.14199829101562,-298.5740051269531 -240.14199829101562,-298.5740051269531 C-240.14199829101562,-298.5740051269531 -240.14199829101562,-180.28399658203125 -240.14199829101562,-180.28399658203125 C-240.14199829101562,-180.28399658203125 -358.4330139160156,-180.28399658203125 -358.4330139160156,-180.28399658203125 C-358.4330139160156,-180.28399658203125 -358.4330139160156,-298.5740051269531 -358.4330139160156,-298.5740051269531z M-238.71800231933594,-298.5740051269531 C-238.71800231933594,-298.5740051269531 -120.4280014038086,-298.5740051269531 -120.4280014038086,-298.5740051269531 C-120.4280014038086,-298.5740051269531 -120.4280014038086,-180.28399658203125 -120.4280014038086,-180.28399658203125 C-120.4280014038086,-180.28399658203125 -238.71800231933594,-180.28399658203125 -238.71800231933594,-180.28399658203125 C-238.71800231933594,-180.28399658203125 -238.71800231933594,-298.5740051269531 -238.71800231933594,-298.5740051269531z M-119.00299835205078,-298.5740051269531 C-119.00299835205078,-298.5740051269531 -0.7129999995231628,-298.5740051269531 -0.7129999995231628,-298.5740051269531 C-0.7129999995231628,-298.5740051269531 -0.7129999995231628,-180.28399658203125 -0.7129999995231628,-180.28399658203125 C-0.7129999995231628,-180.28399658203125 -119.00299835205078,-180.28399658203125 -119.00299835205078,-180.28399658203125 C-119.00299835205078,-180.28399658203125 -119.00299835205078,-298.5740051269531 -119.00299835205078,-298.5740051269531z M0.7129999995231628,-298.5740051269531 C0.7129999995231628,-298.5740051269531 119.00199890136719,-298.5740051269531 119.00199890136719,-298.5740051269531 C119.00199890136719,-298.5740051269531 119.00199890136719,-180.28399658203125 119.00199890136719,-180.28399658203125 C119.00199890136719,-180.28399658203125 0.7129999995231628,-180.28399658203125 0.7129999995231628,-180.28399658203125 C0.7129999995231628,-180.28399658203125 0.7129999995231628,-298.5740051269531 0.7129999995231628,-298.5740051269531z M120.4280014038086,-298.5740051269531 C120.4280014038086,-298.5740051269531 238.71800231933594,-298.5740051269531 238.71800231933594,-298.5740051269531 C238.71800231933594,-298.5740051269531 238.71800231933594,-180.28399658203125 238.71800231933594,-180.28399658203125 C238.71800231933594,-180.28399658203125 120.4280014038086,-180.28399658203125 120.4280014038086,-180.28399658203125 C120.4280014038086,-180.28399658203125 120.4280014038086,-298.5740051269531 120.4280014038086,-298.5740051269531z M-359.8580017089844,-300 C-359.8580017089844,-300 -359.8580017089844,-299.2869873046875 -359.8580017089844,-299.2869873046875 C-359.8580017089844,-299.2869873046875 -359.8580017089844,-180.28500366210938 -359.8580017089844,-180.28500366210938 C-359.8580017089844,-180.28500366210938 -478.8590087890625,-180.28500366210938 -478.8590087890625,-180.28500366210938 C-478.8590087890625,-180.28500366210938 -479.572998046875,-180.28500366210938 -479.572998046875,-180.28500366210938 C-479.572998046875,-180.28500366210938 -479.572998046875,-179.57200622558594 -479.572998046875,-179.57200622558594 C-479.572998046875,-179.57200622558594 -479.572998046875,-59.856998443603516 -479.572998046875,-59.856998443603516 C-479.572998046875,-59.856998443603516 -479.572998046875,-59.14500045776367 -479.572998046875,-59.14500045776367 C-479.572998046875,-59.14500045776367 -479.572998046875,59.858001708984375 -479.572998046875,59.858001708984375 C-479.572998046875,59.858001708984375 -479.572998046875,60.57099914550781 -479.572998046875,60.57099914550781 C-479.572998046875,60.57099914550781 -479.572998046875,179.57200622558594 -479.572998046875,179.57200622558594 C-479.572998046875,179.57200622558594 -479.572998046875,180.28599548339844 -479.572998046875,180.28599548339844 C-479.572998046875,180.28599548339844 -478.8590087890625,180.28599548339844 -478.8590087890625,180.28599548339844 C-478.8590087890625,180.28599548339844 -359.8580017089844,180.28599548339844 -359.8580017089844,180.28599548339844 C-359.8580017089844,180.28599548339844 -359.8580017089844,299.2869873046875 -359.8580017089844,299.2869873046875 C-359.8580017089844,299.2869873046875 -359.8580017089844,300 -359.8580017089844,300 C-359.8580017089844,300 -359.1449890136719,300 -359.1449890136719,300 C-359.1449890136719,300 -240.14300537109375,300 -240.14300537109375,300 C-240.14300537109375,300 -239.43099975585938,300 -239.43099975585938,300 C-239.43099975585938,300 -238.71800231933594,300 -238.71800231933594,300 C-238.71800231933594,300 -120.4280014038086,300 -120.4280014038086,300 C-120.4280014038086,300 -119.71499633789062,300 -119.71499633789062,300 C-119.71499633789062,300 -119.00299835205078,300 -119.00299835205078,300 C-119.00299835205078,300 -0.7129999995231628,300 -0.7129999995231628,300 C-0.7129999995231628,300 0,300 0,300 C0,300 0.7129999995231628,300 0.7129999995231628,300 C0.7129999995231628,300 119.0009994506836,300 119.0009994506836,300 C119.0009994506836,300 119.71399688720703,300 119.71399688720703,300 C119.71399688720703,300 120.4280014038086,300 120.4280014038086,300 C120.4280014038086,300 238.71800231933594,300 238.71800231933594,300 C238.71800231933594,300 239.4290008544922,300 239.4290008544922,300 C239.4290008544922,300 240.14199829101562,300 240.14199829101562,300 C240.14199829101562,300 358.4320068359375,300 358.4320068359375,300 C358.4320068359375,300 359.1449890136719,300 359.1449890136719,300 C359.1449890136719,300 359.8580017089844,300 359.8580017089844,300 C359.8580017089844,300 478.8590087890625,300 478.8590087890625,300 C478.8590087890625,300 479.572998046875,300 479.572998046875,300 C479.572998046875,300 479.572998046875,59.14500045776367 479.572998046875,59.14500045776367 C479.572998046875,59.14500045776367 478.8590087890625,59.14500045776367 478.8590087890625,59.14500045776367 C478.8590087890625,59.14500045776367 359.8580017089844,59.14500045776367 359.8580017089844,59.14500045776367 C359.8580017089844,59.14500045776367 359.8580017089844,-59.14500045776367 359.8580017089844,-59.14500045776367 C359.8580017089844,-59.14500045776367 359.8580017089844,-59.856998443603516 359.8580017089844,-59.856998443603516 C359.8580017089844,-59.856998443603516 359.8580017089844,-60.56999969482422 359.8580017089844,-60.56999969482422 C359.8580017089844,-60.56999969482422 359.8580017089844,-179.57200622558594 359.8580017089844,-179.57200622558594 C359.8580017089844,-179.57200622558594 359.8580017089844,-180.28500366210938 359.8580017089844,-180.28500366210938 C359.8580017089844,-180.28500366210938 359.1449890136719,-180.28500366210938 359.1449890136719,-180.28500366210938 C359.1449890136719,-180.28500366210938 240.14199829101562,-180.28500366210938 240.14199829101562,-180.28500366210938 C240.14199829101562,-180.28500366210938 240.14199829101562,-299.2869873046875 240.14199829101562,-299.2869873046875 C240.14199829101562,-299.2869873046875 240.14199829101562,-300 240.14199829101562,-300 C240.14199829101562,-300 -359.8580017089844,-300 -359.8580017089844,-300z"></path></g></g><g clip-path="url(#__lottie_element_710)" transform="matrix(1,0,0,1,360.49102783203125,0)" opacity="1" style="display: block;"><g clip-path="url(#__lottie_element_881)" transform="matrix(1,0,0,1,0,0)" opacity="1" style="display: none;"><g transform="matrix(1,0,0,1,122.1520004272461,1.3109970092773438)" opacity="1" style="display: block;"><g opacity="1" transform="matrix(1,0,0,1,107.94100189208984,101.51100158691406)"><path stroke-linecap="butt" stroke-linejoin="miter" fill-opacity="0" stroke-miterlimit="10" stroke="#0FAE5A" stroke-opacity="1" stroke-width="1" d="M0 0"></path></g><g opacity="1" transform="matrix(1,0,0,1,101.94100189208984,95.51000213623047)"><path stroke-linecap="butt" stroke-linejoin="miter" fill-opacity="0" stroke-miterlimit="10" stroke="#0FAE5A" stroke-opacity="1" stroke-width="1" d="M0 0"></path></g><g opacity="1" transform="matrix(1,0,0,1,95.94100189208984,89.51000213623047)"><path stroke-linecap="butt" stroke-linejoin="miter" fill-opacity="0" stroke-miterlimit="10" stroke="#0FAE5A" stroke-opacity="1" stroke-width="1" d="M0 0"></path></g><g opacity="1" transform="matrix(1,0,0,1,89.94100189208984,83.51000213623047)"><path stroke-linecap="butt" stroke-linejoin="miter" fill-opacity="0" stroke-miterlimit="10" stroke="#0FAE5A" stroke-opacity="1" stroke-width="1" d="M0 0"></path></g></g><g transform="matrix(1,0,0,1,63.512996673583984,130.03799438476562)" opacity="1" style="display: block;"><g opacity="1" transform="matrix(1,0,0,1,40.229000091552734,36.97800064086914)"><path stroke-linecap="butt" stroke-linejoin="miter" fill-opacity="0" stroke-miterlimit="10" stroke="#C9E9D9" stroke-opacity="1" stroke-width="1" d="M0 0"></path></g><g opacity="1" transform="matrix(1,0,0,1,45.5369987487793,42.236000061035156)"><path stroke-linecap="butt" stroke-linejoin="miter" fill-opacity="0" stroke-miterlimit="10" stroke="#C9E9D9" stroke-opacity="1" stroke-width="1" d="M0 0"></path></g><g opacity="1" transform="matrix(1,0,0,1,34.856998443603516,31.823999404907227)"><path stroke-linecap="butt" stroke-linejoin="miter" fill-opacity="0" stroke-miterlimit="10" stroke="#C9E9D9" stroke-opacity="1" stroke-width="1" d="M0 0"></path></g><g opacity="1" transform="matrix(1,0,0,1,29.517000198364258,26.37299919128418)"><path stroke-linecap="butt" stroke-linejoin="miter" fill-opacity="0" stroke-miterlimit="10" stroke="#C9E9D9" stroke-opacity="1" stroke-width="1" d="M0 0"></path></g></g><g transform="matrix(1,0,0,1,176.82699584960938,357.77398681640625)" opacity="1" style="display: block;"><g opacity="1" transform="matrix(1,0,0,1,60.69900131225586,18.809999465942383)"><path stroke-linecap="butt" stroke-linejoin="miter" fill-opacity="0" stroke-miterlimit="10" stroke="#008C50" stroke-opacity="1" stroke-width="1" d="M0 0"></path></g><g opacity="1" transform="matrix(1,0,0,1,56.0260009765625,14.180000305175781)"><path stroke-linecap="butt" stroke-linejoin="miter" fill-opacity="0" stroke-miterlimit="10" stroke="#008C50" stroke-opacity="1" stroke-width="1" d="M0 0"></path></g><g opacity="1" transform="matrix(1,0,0,1,65.42900085449219,23.347999572753906)"><path stroke-linecap="butt" stroke-linejoin="miter" fill-opacity="0" stroke-miterlimit="10" stroke="#008C50" stroke-opacity="1" stroke-width="1" d="M0 0"></path></g><g opacity="1" transform="matrix(1,0,0,1,70.12999725341797,28.148000717163086)"><path stroke-linecap="butt" stroke-linejoin="miter" fill-opacity="0" stroke-miterlimit="10" stroke="#008C50" stroke-opacity="1" stroke-width="1" d="M0 0"></path></g></g><g transform="matrix(1,0,0,1,357.6109924316406,177.82400512695312)" opacity="1" style="display: block;"><g opacity="1" transform="matrix(1,0,0,1,25.636999130249023,53.487998962402344)"><path stroke-linecap="butt" stroke-linejoin="miter" fill-opacity="0" stroke-miterlimit="10" stroke="#004149" stroke-opacity="1" stroke-width="1" d="M0 0"></path></g><g opacity="1" transform="matrix(1,0,0,1,31.636999130249023,59.487998962402344)"><path stroke-linecap="butt" stroke-linejoin="miter" fill-opacity="0" stroke-miterlimit="10" stroke="#004149" stroke-opacity="1" stroke-width="1" d="M0 0"></path></g><g opacity="1" transform="matrix(1,0,0,1,37.637001037597656,65.48799896240234)"><path stroke-linecap="butt" stroke-linejoin="miter" fill-opacity="0" stroke-miterlimit="10" stroke="#004149" stroke-opacity="1" stroke-width="1" d="M0 0"></path></g><g opacity="1" transform="matrix(1,0,0,1,43.637001037597656,71.48799896240234)"><path stroke-linecap="butt" stroke-linejoin="miter" fill-opacity="0" stroke-miterlimit="10" stroke="#004149" stroke-opacity="1" stroke-width="1" d="M0 0"></path></g><g opacity="1" transform="matrix(1,0,0,1,49.637001037597656,77.48799896240234)"><path stroke-linecap="butt" stroke-linejoin="miter" fill-opacity="0" stroke-miterlimit="10" stroke="#004149" stroke-opacity="1" stroke-width="1" d="M0 0"></path></g></g></g><g clip-path="url(#__lottie_element_774)" transform="matrix(1,0,0,1,0,0)" opacity="0.52" style="display: block;"><g transform="matrix(1,0,0,1,117.52799987792969,417.5)" opacity="1" style="display: block;"><g opacity="1" transform="matrix(1,0,0,1,18.868999481201172,15.923999786376953)"><path stroke-linecap="butt" stroke-linejoin="miter" fill-opacity="0" stroke-miterlimit="10" stroke="#008C50" stroke-opacity="1" stroke-width="1" d="M0 0"></path></g><g opacity="1" transform="matrix(1,0,0,1,13.562000274658203,10.666000366210938)"><path stroke-linecap="butt" stroke-linejoin="miter" fill-opacity="0" stroke-miterlimit="10" stroke="#008C50" stroke-opacity="1" stroke-width="1" d="M0 0"></path></g><g opacity="1" transform="matrix(1,0,0,1,24.242000579833984,21.07900047302246)"><path stroke-linecap="butt" stroke-linejoin="miter" fill-opacity="0" stroke-miterlimit="10" stroke="#008C50" stroke-opacity="1" stroke-width="1" d="M0 0"></path></g><g opacity="1" transform="matrix(1,0,0,1,29.58099937438965,26.52899932861328)"><path stroke-linecap="butt" stroke-linejoin="miter" fill-opacity="0" stroke-miterlimit="10" stroke="#008C50" stroke-opacity="1" stroke-width="1" d="M0 0"></path></g></g><g transform="matrix(1,0,0,1,117.5,309.6139831542969)" opacity="1" style="display: block;"><g opacity="1" transform="matrix(1,0,0,1,14.319999694824219,35.71900177001953)"><path stroke-linecap="butt" stroke-linejoin="miter" fill-opacity="0" stroke-miterlimit="10" stroke="#C9E9D9" stroke-opacity="1" stroke-width="1" d="M0 0"></path></g><g opacity="1" transform="matrix(1,0,0,1,9.6899995803833,40.391998291015625)"><path stroke-linecap="butt" stroke-linejoin="miter" fill-opacity="0" stroke-miterlimit="10" stroke="#C9E9D9" stroke-opacity="1" stroke-width="1" d="M0 0"></path></g><g opacity="1" transform="matrix(1,0,0,1,18.857999801635742,30.98900032043457)"><path stroke-linecap="butt" stroke-linejoin="miter" fill-opacity="0" stroke-miterlimit="10" stroke="#C9E9D9" stroke-opacity="1" stroke-width="1" d="M0 0"></path></g><g opacity="1" transform="matrix(1,0,0,1,23.656999588012695,26.288000106811523)"><path stroke-linecap="butt" stroke-linejoin="miter" fill-opacity="0" stroke-miterlimit="10" stroke="#C9E9D9" stroke-opacity="1" stroke-width="1" d="M0 0"></path></g></g><g transform="matrix(1,0,0,1,8.743995666503906,66.23500061035156)" opacity="1" style="display: block;"><g opacity="1" transform="matrix(1,0,0,1,107.94100189208984,101.51100158691406)"><path stroke-linecap="butt" stroke-linejoin="miter" fill-opacity="0" stroke-miterlimit="10" stroke="#0FAE5A" stroke-opacity="1" stroke-width="1" d="M0 0"></path></g><g opacity="1" transform="matrix(1,0,0,1,101.94100189208984,95.51100158691406)"><path stroke-linecap="butt" stroke-linejoin="miter" fill-opacity="0" stroke-miterlimit="10" stroke="#0FAE5A" stroke-opacity="1" stroke-width="1" d="M0 0"></path></g><g opacity="1" transform="matrix(1,0,0,1,95.94100189208984,89.51100158691406)"><path stroke-linecap="butt" stroke-linejoin="miter" fill-opacity="0" stroke-miterlimit="10" stroke="#0FAE5A" stroke-opacity="1" stroke-width="1" d="M0 0"></path></g><g opacity="1" transform="matrix(1,0,0,1,89.94100189208984,83.51100158691406)"><path stroke-linecap="butt" stroke-linejoin="miter" fill-opacity="0" stroke-miterlimit="10" stroke="#0FAE5A" stroke-opacity="1" stroke-width="1" d="M0 0"></path></g></g><g transform="matrix(1,0,0,1,297.4339904785156,238.08499145507812)" opacity="1" style="display: block;"><g opacity="1" transform="matrix(1,0,0,1,38.5,86.5)"><path stroke-linecap="butt" stroke-linejoin="miter" fill-opacity="0" stroke-miterlimit="10" stroke="#004149" stroke-opacity="1" stroke-width="1" d="M0 0"></path></g><g opacity="1" transform="matrix(1,0,0,1,44.5,80.5)"><path stroke-linecap="butt" stroke-linejoin="miter" fill-opacity="0" stroke-miterlimit="10" stroke="#004149" stroke-opacity="1" stroke-width="1" d="M0 0"></path></g><g opacity="1" transform="matrix(1,0,0,1,50.5,74.5)"><path stroke-linecap="butt" stroke-linejoin="miter" fill-opacity="0" stroke-miterlimit="10" stroke="#004149" stroke-opacity="1" stroke-width="1" d="M0 0"></path></g><g opacity="1" transform="matrix(1,0,0,1,56.5,68.5)"><path stroke-linecap="butt" stroke-linejoin="miter" fill-opacity="0" stroke-miterlimit="10" stroke="#004149" stroke-opacity="1" stroke-width="1" d="M0 0"></path></g><g opacity="1" transform="matrix(1,0,0,1,62.5,62.5)"><path stroke-linecap="butt" stroke-linejoin="miter" fill-opacity="0" stroke-miterlimit="10" stroke="#004149" stroke-opacity="1" stroke-width="1" d="M0 0"></path></g></g><g clip-path="url(#__lottie_element_778)" transform="matrix(1,0,0,1,0,0)" opacity="1" style="display: block;"><g transform="matrix(1,0,0,1,299.6839904785156,119.49600219726562)" opacity="1" style="display: block;"><g opacity="1" transform="matrix(1,0,0,1,30.25,30.25)"><path fill="#456B8B" fill-opacity="1" d=" M-30,-30 C-30,-30 -30,30 -30,30 C-30,30 30,30 30,30 C30,-3.13700008392334 3.138000011444092,-30 -30,-30z"></path></g></g><g transform="matrix(1,0,0,1,119.75,359.75)" opacity="1" style="display: block;"><g opacity="1" transform="matrix(1,0,0,1,30.25,30.25)"><path fill="#004149" fill-opacity="1" d=" M30,30 C30,30 30,-30 30,-30 C30,-30 -30,30 -30,30 C-30,30 30,30 30,30z"></path></g></g><g transform="matrix(1,0,0,1,-0.25,420.00201416015625)" opacity="1" style="display: block;"><g opacity="1" transform="matrix(1,0,0,1,60.25,30.124000549316406)"><path fill="#0FAE5A" fill-opacity="1" d=" M-60,29.874000549316406 C-60,29.874000549316406 60,29.874000549316406 60,29.874000549316406 C60,29.874000549316406 60,-29.874000549316406 60,-29.874000549316406 C60,-29.874000549316406 -60,-29.874000549316406 -60,-29.874000549316406 C-60,-29.874000549316406 -60,29.874000549316406 -60,29.874000549316406z"></path></g></g><g transform="matrix(1,0,0,1,21.23999786376953,444.64898681640625)" opacity="1" style="display: block;"><g opacity="1" transform="matrix(1,0,0,1,40.48500061035156,6.25)"><path fill="#004149" fill-opacity="1" d=" M34.23400115966797,6 C34.23400115966797,6 -34.23400115966797,6 -34.23400115966797,6 C-37.54800033569336,6 -40.23400115966797,3.312999963760376 -40.23400115966797,0 C-40.23400115966797,-3.312999963760376 -37.54800033569336,-6 -34.23400115966797,-6 C-34.23400115966797,-6 34.23400115966797,-6 34.23400115966797,-6 C37.54800033569336,-6 40.23400115966797,-3.312999963760376 40.23400115966797,0 C40.23400115966797,3.312999963760376 37.54800033569336,6 34.23400115966797,6z"></path></g></g><g transform="matrix(1,0,0,1,40.59000015258789,444.64898681640625)" opacity="1" style="display: block;"><g opacity="1" transform="matrix(1,0,0,1,6.25,6.25)"><path fill="#C9E9D9" fill-opacity="1" d=" M6,0 C6,3.312999963760376 3.312999963760376,6 0,6 C-3.313999891281128,6 -6,3.312999963760376 -6,0 C-6,-3.312999963760376 -3.313999891281128,-6 0,-6 C3.312999963760376,-6 6,-3.312999963760376 6,0z"></path></g></g><g transform="matrix(1,0,0,1,119.75,359.75)" opacity="1" style="display: block;"><g opacity="1" transform="matrix(1,0,0,1,30.25,30.25)"><path fill="#008C50" fill-opacity="1" d=" M-30,-30 C-30,-30 -30,30 -30,30 C-30,30 30,-30 30,-30 C30,-30 -30,-30 -30,-30z"></path></g></g><g transform="matrix(1,0,0,1,179.75,239.49600219726562)" opacity="1" style="display: block;"><g opacity="1" transform="matrix(1,0,0,1,60.25,60.25)"><path fill="#004149" fill-opacity="1" d=" M-60,60 C-60,60 60,60 60,60 C60,60 60,-60 60,-60 C60,-60 -60,-60 -60,-60 C-60,-60 -60,60 -60,60z"></path></g></g><g transform="matrix(1,0,0,1,299.75,359.75)" opacity="1" style="display: block;"><g opacity="1" transform="matrix(1,0,0,1,60.250999450683594,60.25)"><path fill="#456B8B" fill-opacity="1" d=" M-60.000999450683594,60 C-60.000999450683594,60 60.000999450683594,60 60.000999450683594,60 C60.000999450683594,60 60.000999450683594,-60 60.000999450683594,-60 C60.000999450683594,-60 -60.000999450683594,-60 -60.000999450683594,-60 C-60.000999450683594,-60 -60.000999450683594,60 -60.000999450683594,60z"></path></g></g><g transform="matrix(1,0,0,1,59.75,119.49600219726562)" opacity="1" style="display: block;"><g opacity="1" transform="matrix(1,0,0,1,60.25,60.25)"><path fill="#456B8B" fill-opacity="1" d=" M-60,60 C-60,60 60,60 60,60 C60,60 60,-60 60,-60 C60,-60 -60,60 -60,60z"></path></g></g><g transform="matrix(1,0,0,1,299.75,179.49600219726562)" opacity="1" style="display: block;"><g opacity="1" transform="matrix(1,0,0,1,60.25,30.25)"><path fill="#0FAE5A" fill-opacity="1" d=" M-60,30 C-60,30 60,30 60,30 C60,30 60,-30 60,-30 C60,-30 -60,-30 -60,-30 C-60,-30 -60,30 -60,30z"></path></g></g><g transform="matrix(1,0,0,1,59.75,299.9939880371094)" opacity="1" style="display: block;"><g opacity="1" transform="matrix(1,0,0,1,30.25,30.25)"><path fill="#C9E9D9" fill-opacity="1" d=" M30,-30 C30,-30 -30,-30 -30,-30 C-30,-30 -30,30 -30,30 C-30,30 30,30 30,30 C30,30 30,-30 30,-30z"></path></g></g><g transform="matrix(1,0,0,1,419.7510070800781,419.75)" opacity="1" style="display: block;"><g opacity="1" transform="matrix(1,0,0,1,30.249000549316406,30.25)"><path fill="#C9E9D9" fill-opacity="1" d=" M-29.999000549316406,30 C-29.999000549316406,30 29.999000549316406,30 29.999000549316406,30 C29.999000549316406,30 -29.999000549316406,-30 -29.999000549316406,-30 C-29.999000549316406,-30 -29.999000549316406,30 -29.999000549316406,30z"></path></g></g><g transform="matrix(1,0,0,1,211.10699462890625,151.69100952148438)" opacity="1" style="display: block;"><g opacity="1" transform="matrix(1,0,0,1,28.89299964904785,28.893999099731445)"><path fill="#008C50" fill-opacity="1" d=" M28.643999099731445,0 C28.643999099731445,-15.819000244140625 15.819000244140625,-28.643999099731445 -0.0010000000474974513,-28.643999099731445 C-15.819999694824219,-28.643999099731445 -28.643999099731445,-15.819000244140625 -28.643999099731445,0 C-28.643999099731445,15.819000244140625 -15.819999694824219,28.643999099731445 -0.0010000000474974513,28.643999099731445 C15.819000244140625,28.643999099731445 28.643999099731445,15.819000244140625 28.643999099731445,0z"></path></g></g><g transform="matrix(1,0,0,1,332.7850036621094,211.38999938964844)" opacity="1" style="display: block;"><g opacity="1" transform="matrix(1,0,0,1,28.35700035095215,14.303000450134277)"><path fill="#C9E9D9" fill-opacity="1" d=" M0,14.053000450134277 C0,14.053000450134277 -28.10700035095215,14.053000450134277 -28.10700035095215,14.053000450134277 C-28.10700035095215,-1.3660000562667847 -15.418999671936035,-14.053000450134277 0,-14.053000450134277 C15.420000076293945,-14.053000450134277 28.10700035095215,-1.3660000562667847 28.10700035095215,14.053000450134277 C28.10700035095215,14.053000450134277 0,14.053000450134277 0,14.053000450134277z"></path></g></g><g transform="matrix(1,0,0,1,208.40499877929688,268.99798583984375)" opacity="1" style="display: block;"><g opacity="1" transform="matrix(1,0,0,1,6.25,6.25)"><path fill="#0FAE5A" fill-opacity="1" d=" M6,6 C6,6 -6,6 -6,6 C-6,6 -6,-6 -6,-6 C-6,-6 6,-6 6,-6 C6,-6 6,6 6,6z"></path></g></g><g transform="matrix(1,0,0,1,233.75,268.99798583984375)" opacity="1" style="display: block;"><g opacity="1" transform="matrix(1,0,0,1,6.25,6.25)"><path fill="#456B8B" fill-opacity="1" d=" M6,6 C6,6 -6,6 -6,6 C-6,6 -6,-6 -6,-6 C-6,-6 6,-6 6,-6 C6,-6 6,6 6,6z"></path></g></g><g transform="matrix(1,0,0,1,259.0950012207031,268.99798583984375)" opacity="1" style="display: block;"><g opacity="1" transform="matrix(1,0,0,1,6.25,6.25)"><path fill="#0FAE5A" fill-opacity="1" d=" M6,6 C6,6 -6,6 -6,6 C-6,6 -6,-6 -6,-6 C-6,-6 6,-6 6,-6 C6,-6 6,6 6,6z"></path></g></g><g transform="matrix(1,0,0,1,208.40499877929688,293.4960021972656)" opacity="1" style="display: block;"><g opacity="1" transform="matrix(1,0,0,1,6.25,6.25)"><path fill="#456B8B" fill-opacity="1" d=" M6,6 C6,6 -6,6 -6,6 C-6,6 -6,-6 -6,-6 C-6,-6 6,-6 6,-6 C6,-6 6,6 6,6z"></path></g></g><g transform="matrix(1,0,0,1,233.75,293.4960021972656)" opacity="1" style="display: block;"><g opacity="1" transform="matrix(1,0,0,1,6.25,6.25)"><path fill="#0FAE5A" fill-opacity="1" d=" M6,6 C6,6 -6,6 -6,6 C-6,6 -6,-6 -6,-6 C-6,-6 6,-6 6,-6 C6,-6 6,6 6,6z"></path></g></g><g transform="matrix(1,0,0,1,259.0950012207031,293.4960021972656)" opacity="1" style="display: block;"><g opacity="1" transform="matrix(1,0,0,1,6.25,6.25)"><path fill="#456B8B" fill-opacity="1" d=" M6,6 C6,6 -6,6 -6,6 C-6,6 -6,-6 -6,-6 C-6,-6 6,-6 6,-6 C6,-6 6,6 6,6z"></path></g></g><g transform="matrix(1,0,0,1,208.40499877929688,317.9939880371094)" opacity="1" style="display: block;"><g opacity="1" transform="matrix(1,0,0,1,6.25,6.25)"><path fill="#0FAE5A" fill-opacity="1" d=" M6,6 C6,6 -6,6 -6,6 C-6,6 -6,-6 -6,-6 C-6,-6 6,-6 6,-6 C6,-6 6,6 6,6z"></path></g></g><g transform="matrix(1,0,0,1,233.75,317.9939880371094)" opacity="1" style="display: block;"><g opacity="1" transform="matrix(1,0,0,1,6.25,6.25)"><path fill="#456B8B" fill-opacity="1" d=" M6,6 C6,6 -6,6 -6,6 C-6,6 -6,-6 -6,-6 C-6,-6 6,-6 6,-6 C6,-6 6,6 6,6z"></path></g></g><g transform="matrix(1,0,0,1,259.0950012207031,317.9939880371094)" opacity="1" style="display: block;"><g opacity="1" transform="matrix(1,0,0,1,6.25,6.25)"><path fill="#0FAE5A" fill-opacity="1" d=" M6,6 C6,6 -6,6 -6,6 C-6,6 -6,-6 -6,-6 C-6,-6 6,-6 6,-6 C6,-6 6,6 6,6z"></path></g></g><g transform="matrix(1,0,0,1,325.59100341796875,385.59100341796875)" opacity="1" style="display: block;"><g opacity="1" transform="matrix(1,0,0,1,34.409000396728516,34.409000396728516)"><path fill="#0FAE5A" fill-opacity="1" d=" M34.159000396728516,0 C34.159000396728516,-18.864999771118164 18.864999771118164,-34.159000396728516 0,-34.159000396728516 C-18.864999771118164,-34.159000396728516 -34.159000396728516,-18.864999771118164 -34.159000396728516,0 C-34.159000396728516,18.864999771118164 -18.864999771118164,34.159000396728516 0,34.159000396728516 C18.864999771118164,34.159000396728516 34.159000396728516,18.864999771118164 34.159000396728516,0z"></path></g></g><g transform="matrix(1,0,0,1,328.3740234375,419.75)" opacity="1" style="display: block;"><g opacity="1" transform="matrix(1,0,0,1,15.937999725341797,15.88599967956543)"><path fill="#004149" fill-opacity="1" d=" M15.687999725341797,-15.63599967956543 C15.687999725341797,-15.63599967956543 -15.687999725341797,-2.128000020980835 -15.687999725341797,-2.128000020980835 C-13.994000434875488,1.8049999475479126 -11.574999809265137,5.386000156402588 -8.557000160217285,8.425999641418457 C-5.540999889373779,11.468000411987305 -1.9769999980926514,13.913000106811523 1.944000005722046,15.63599967956543 C1.944000005722046,15.63599967956543 15.687999725341797,-15.63599967956543 15.687999725341797,-15.63599967956543z"></path></g></g><g transform="matrix(1,0,0,1,325.59100341796875,385.59100341796875)" opacity="1" style="display: block;"><g opacity="1" transform="matrix(1,0,0,1,17.32900047302246,24.09600067138672)"><path fill="#C9E9D9" fill-opacity="1" d=" M17.079999923706055,10.312999725341797 C17.079999923706055,10.312999725341797 17.079999923706055,-23.84600067138672 17.079999923706055,-23.84600067138672 C-1.659000039100647,-23.84600067138672 -17.079999923706055,-8.425999641418457 -17.079999923706055,10.312999725341797 C-17.079999923706055,14.967000007629395 -16.12700080871582,19.572999954223633 -14.282999992370605,23.84600067138672 C-14.282999992370605,23.84600067138672 17.079999923706055,10.312999725341797 17.079999923706055,10.312999725341797z"></path></g></g><g transform="matrix(1,0,0,1,-0.25,179.99400329589844)" opacity="1" style="display: block;"><g opacity="1" transform="matrix(1,0,0,1,30.25,60.25)"><path fill="#0FAE5A" fill-opacity="1" d=" M-30,60 C-30,60 30,60 30,60 C30,60 30,-60 30,-60 C30,-60 -30,-60 -30,-60 C-30,-60 -30,60 -30,60z"></path></g></g><g transform="matrix(1,0,0,1,180.00399780273438,-0.25)" opacity="1" style="display: block;"><g opacity="1" transform="matrix(1,0,0,1,60.12300109863281,60.12300109863281)"><path fill="#004149" fill-opacity="1" d=" M-59.87300109863281,-59.87300109863281 C-59.87300109863281,-59.87300109863281 59.87300109863281,59.87300109863281 59.87300109863281,59.87300109863281 C59.87300109863281,59.87300109863281 59.87300109863281,-59.87300109863281 59.87300109863281,-59.87300109863281 C59.87300109863281,-59.87300109863281 -59.87300109863281,-59.87300109863281 -59.87300109863281,-59.87300109863281z"></path></g></g><g transform="matrix(1,0,0,1,179.75,-0.25)" opacity="1" style="display: block;"><g opacity="1" transform="matrix(1,0,0,1,60.25,60.12300109863281)"><path fill="#C9E9D9" fill-opacity="1" d=" M-60,-59.87300109863281 C-60,-59.87300109863281 -60,59.87300109863281 -60,59.87300109863281 C-60,59.87300109863281 60,59.87300109863281 60,59.87300109863281 C60,59.87300109863281 -59.74599838256836,-59.87300109863281 -59.74599838256836,-59.87300109863281 C-59.74599838256836,-59.87300109863281 -60,-59.87300109863281 -60,-59.87300109863281z"></path></g></g></g></g><g clip-path="url(#__lottie_element_764)" transform="matrix(1,0,0,1,0,0)" opacity="1" style="display: none;"><g transform="matrix(1,0,0,1,57.50099182128906,233.5260009765625)" opacity="1" style="display: block;"><g opacity="1" transform="matrix(1,0,0,1,90.17500305175781,113.58200073242188)"><path stroke-linecap="butt" stroke-linejoin="miter" fill-opacity="0" stroke-miterlimit="10" stroke="#0FAE5A" stroke-opacity="1" stroke-width="1" d=" M51.67599868774414,-75.08100128173828 C51.67599868774414,-75.08100128173828 -30.69700050354004,-75.08100128173828 -30.69700050354004,-75.08100128173828 C-42.28300094604492,-75.08100128173828 -51.67599868774414,-65.68800354003906 -51.67599868774414,-54.10200119018555 C-51.67599868774414,-54.10200119018555 -51.67599868774414,75.08100128173828 -51.67599868774414,75.08100128173828"></path></g><g opacity="1" transform="matrix(1,0,0,1,84.17500305175781,107.58200073242188)"><path stroke-linecap="butt" stroke-linejoin="miter" fill-opacity="0" stroke-miterlimit="10" stroke="#0FAE5A" stroke-opacity="1" stroke-width="1" d=" M57.67599868774414,-81.08100128173828 C57.67599868774414,-81.08100128173828 -24.69700050354004,-81.08100128173828 -24.69700050354004,-81.08100128173828 C-42.90999984741211,-81.08100128173828 -57.67599868774414,-66.31500244140625 -57.67599868774414,-48.10200119018555 C-57.67599868774414,-48.10200119018555 -57.67599868774414,81.08100128173828 -57.67599868774414,81.08100128173828"></path></g><g opacity="1" transform="matrix(1,0,0,1,78.17500305175781,101.58200073242188)"><path stroke-linecap="butt" stroke-linejoin="miter" fill-opacity="0" stroke-miterlimit="10" stroke="#0FAE5A" stroke-opacity="1" stroke-width="1" d=" M63.67599868774414,-87.08100128173828 C63.67599868774414,-87.08100128173828 -18.69700050354004,-87.08100128173828 -18.69700050354004,-87.08100128173828 C-43.53799819946289,-87.08100128173828 -63.67599868774414,-66.94300079345703 -63.67599868774414,-42.10200119018555 C-63.67599868774414,-42.10200119018555 -63.67599868774414,87.08100128173828 -63.67599868774414,87.08100128173828"></path></g><g opacity="1" transform="matrix(1,0,0,1,72.17500305175781,95.58100128173828)"><path stroke-linecap="butt" stroke-linejoin="miter" fill-opacity="0" stroke-miterlimit="10" stroke="#0FAE5A" stroke-opacity="1" stroke-width="1" d=" M69.6760025024414,-93.08100128173828 C69.6760025024414,-93.08100128173828 -12.696999549865723,-93.08100128173828 -12.696999549865723,-93.08100128173828 C-44.165000915527344,-93.08100128173828 -69.6760025024414,-67.56999969482422 -69.6760025024414,-36.10100173950195 C-69.6760025024414,-36.10100173950195 -69.6760025024414,93.08100128173828 -69.6760025024414,93.08100128173828"></path></g></g><g transform="matrix(1,0,0,1,297.5,417.5)" opacity="1" style="display: block;"><g opacity="1" transform="matrix(1,0,0,1,18.868999481201172,15.923999786376953)"><path stroke-linecap="butt" stroke-linejoin="miter" fill-opacity="0" stroke-miterlimit="10" stroke="#008C50" stroke-opacity="1" stroke-width="1" d=" M16.3700008392334,-13.267999649047852 C16.3700008392334,-13.267999649047852 16.3700008392334,-13.267999649047852 16.3700008392334,-13.267999649047852 C16.3700008392334,1.3869999647140503 4.48799991607666,13.267999649047852 -10.166999816894531,13.267999649047852 C-10.166999816894531,13.267999649047852 -16.3700008392334,13.267999649047852 -16.3700008392334,13.267999649047852"></path></g><g opacity="1" transform="matrix(1,0,0,1,13.562000274658203,10.666000366210938)"><path stroke-linecap="butt" stroke-linejoin="miter" fill-opacity="0" stroke-miterlimit="10" stroke="#008C50" stroke-opacity="1" stroke-width="1" d=" M10.998000144958496,-8.010000228881836 C10.998000144958496,-8.010000228881836 10.998000144958496,-8.010000228881836 10.998000144958496,-8.010000228881836 C10.998000144958496,0.8379999995231628 3.8239998817443848,8.010000228881836 -5.0229997634887695,8.010000228881836 C-5.0229997634887695,8.010000228881836 -10.998000144958496,8.010000228881836 -10.998000144958496,8.010000228881836"></path></g><g opacity="1" transform="matrix(1,0,0,1,24.242000579833984,21.07900047302246)"><path stroke-linecap="butt" stroke-linejoin="miter" fill-opacity="0" stroke-miterlimit="10" stroke="#008C50" stroke-opacity="1" stroke-width="1" d=" M21.677000045776367,-18.57900047302246 C21.677000045776367,-18.57900047302246 21.677000045776367,-18.57900047302246 21.677000045776367,-18.57900047302246 C21.677000045776367,1.9420000314712524 5.040999889373779,18.57900047302246 -15.479999542236328,18.57900047302246 C-15.479999542236328,18.57900047302246 -21.677000045776367,18.57900047302246 -21.677000045776367,18.57900047302246"></path></g><g opacity="1" transform="matrix(1,0,0,1,29.58099937438965,26.52899932861328)"><path stroke-linecap="butt" stroke-linejoin="miter" fill-opacity="0" stroke-miterlimit="10" stroke="#008C50" stroke-opacity="1" stroke-width="1" d=" M27.017000198364258,-23.87299919128418 C27.017000198364258,-23.87299919128418 27.017000198364258,-23.87299919128418 27.017000198364258,-23.87299919128418 C27.017000198364258,2.496000051498413 5.639999866485596,23.87299919128418 -20.729000091552734,23.87299919128418 C-20.729000091552734,23.87299919128418 -27.017000198364258,23.87299919128418 -27.017000198364258,23.87299919128418"></path></g></g></g><g transform="matrix(0,1,-1,0,360.36199951171875,119.74298858642578)" opacity="1" style="display: block;"><g opacity="1" transform="matrix(1,0,0,1,30.25,30.25)"><path fill="#456B8B" fill-opacity="1" d=" M-30,30 C-30,30 30,30 30,30 C30,30 30,-30 30,-30 C-3.138000011444092,-30 -30,-3.13700008392334 -30,30z"></path></g></g><g transform="matrix(0,1,-1,0,539.6969604492188,240.98899841308594)" opacity="1" style="display: block;"><g opacity="1" transform="matrix(1,0,0,1,119.10499572753906,360.0929870605469)"><g opacity="1" transform="matrix(1,0,0,1,30.25,30.25)"><path fill="#004149" fill-opacity="1" d=" M30,-30 C30,-30 -30,-30 -30,-30 C-30,-30 30,30 30,30 C30,30 30,-30 30,-30z"></path></g></g><g opacity="1" transform="matrix(1,0,0,1,0,0)"><g opacity="1" transform="matrix(1,0,0,1,119.10400390625,360.0929870605469)"><g opacity="1" transform="matrix(1,0,0,1,30.25,30.25)"><path fill="#008C50" fill-opacity="1" d=" M-30,30 C-30,30 30,30 30,30 C30,30 -30,-30 -30,-30 C-30,-30 -30,30 -30,30z"></path></g></g></g></g><g transform="matrix(1,0,0,1,59.75,299.75)" opacity="1" style="display: block;"><g opacity="1" transform="matrix(1,0,0,1,30.25,30.25)"><path fill="#C9E9D9" fill-opacity="1" d=" M-30,30 C-30,30 30,30 30,30 C30,30 30,-30 30,-30 C30,-30 -30,-30 -30,-30 C-30,-30 -30,30 -30,30z"></path></g></g><g transform="matrix(1,0,0,1,-360.0559997558594,299.6759948730469)" opacity="1" style="display: block;"><g opacity="1" transform="matrix(1,0,0,1,359.86199951171875,120.07500457763672)"><g opacity="1" transform="matrix(1,0,0,1,60.194000244140625,30.249000549316406)"><path fill="#0FAE5A" fill-opacity="1" d=" M-59.944000244140625,29.999000549316406 C-59.944000244140625,29.999000549316406 59.944000244140625,29.999000549316406 59.944000244140625,29.999000549316406 C59.944000244140625,29.999000549316406 59.944000244140625,-29.999000549316406 59.944000244140625,-29.999000549316406 C59.944000244140625,-29.999000549316406 -59.944000244140625,-29.999000549316406 -59.944000244140625,-29.999000549316406 C-59.944000244140625,-29.999000549316406 -59.944000244140625,29.999000549316406 -59.944000244140625,29.999000549316406z"></path></g></g><g opacity="1" transform="matrix(1,0,0,1,377.9010009765625,143.42799377441406)"><g opacity="1" transform="matrix(1,0,0,1,40.48500061035156,6.25)"><path fill="#004149" fill-opacity="1" d=" M-34.23500061035156,-6 C-34.23500061035156,-6 34.23500061035156,-6 34.23500061035156,-6 C37.54800033569336,-6 40.23500061035156,-3.312999963760376 40.23500061035156,0 C40.23500061035156,3.313999891281128 37.54800033569336,6 34.23500061035156,6 C34.23500061035156,6 -34.23500061035156,6 -34.23500061035156,6 C-37.54800033569336,6 -40.23500061035156,3.313999891281128 -40.23500061035156,0 C-40.23500061035156,-3.312999963760376 -37.54800033569336,-6 -34.23500061035156,-6z"></path></g></g><g opacity="1" transform="matrix(1,0,0,1,427.02099609375,143.42799377441406)"><g opacity="1" transform="matrix(1,0,0,1,6.25,6.25)"><path fill="#C9E9D9" fill-opacity="1" d=" M-6,0 C-6,-3.312999963760376 -3.312999963760376,-6 0,-6 C3.313999891281128,-6 6,-3.312999963760376 6,0 C6,3.313999891281128 3.313999891281128,6 0,6 C-3.312999963760376,6 -6,3.313999891281128 -6,0z"></path></g></g></g><g transform="matrix(1,0,0,1,211.10699462890625,151.1060028076172)" opacity="1" style="display: block;"><g opacity="1" transform="matrix(1,0,0,1,28.89299964904785,28.893999099731445)"><path fill="#008C50" fill-opacity="1" d=" M28.64299964904785,0 C28.64299964904785,-15.819000244140625 15.819999694824219,-28.643999099731445 0.0010000000474974513,-28.643999099731445 C-15.817999839782715,-28.643999099731445 -28.64299964904785,-15.819000244140625 -28.64299964904785,0 C-28.64299964904785,15.819000244140625 -15.817999839782715,28.643999099731445 0.0010000000474974513,28.643999099731445 C15.819999694824219,28.643999099731445 28.64299964904785,15.819000244140625 28.64299964904785,0z"></path></g></g><g transform="matrix(1,0,0,1,179.80599975585938,239.74899291992188)" opacity="1" style="display: block;"><g opacity="1" transform="matrix(1,0,0,1,60.194000244140625,60.250999450683594)"><path fill="#004149" fill-opacity="1" d=" M-59.944000244140625,60.000999450683594 C-59.944000244140625,60.000999450683594 59.944000244140625,60.000999450683594 59.944000244140625,60.000999450683594 C59.944000244140625,60.000999450683594 59.944000244140625,-60.000999450683594 59.944000244140625,-60.000999450683594 C59.944000244140625,-60.000999450683594 -59.944000244140625,-60.000999450683594 -59.944000244140625,-60.000999450683594 C-59.944000244140625,-60.000999450683594 -59.944000244140625,60.000999450683594 -59.944000244140625,60.000999450683594z"></path></g></g><g transform="matrix(1,0,0,1,-180.05599975585938,239.67599487304688)" opacity="1" style="display: block;"><g opacity="1" transform="matrix(1,0,0,1,388.5169982910156,29.575000762939453)"><g opacity="1" transform="matrix(1,0,0,1,6.25,6.25)"><path fill="#0FAE5A" fill-opacity="1" d=" M6,6 C6,6 -6,6 -6,6 C-6,6 -6,-6 -6,-6 C-6,-6 6,-6 6,-6 C6,-6 6,6 6,6z"></path></g></g><g opacity="1" transform="matrix(1,0,0,1,413.8609924316406,29.575000762939453)"><g opacity="1" transform="matrix(1,0,0,1,6.25,6.25)"><path fill="#456B8B" fill-opacity="1" d=" M6,6 C6,6 -6,6 -6,6 C-6,6 -6,-6 -6,-6 C-6,-6 6,-6 6,-6 C6,-6 6,6 6,6z"></path></g></g><g opacity="1" transform="matrix(1,0,0,1,439.20599365234375,29.575000762939453)"><g opacity="1" transform="matrix(1,0,0,1,6.25,6.25)"><path fill="#0FAE5A" fill-opacity="1" d=" M6,6 C6,6 -6,6 -6,6 C-6,6 -6,-6 -6,-6 C-6,-6 6,-6 6,-6 C6,-6 6,6 6,6z"></path></g></g><g opacity="1" transform="matrix(1,0,0,1,388.5169982910156,54.07400131225586)"><g opacity="1" transform="matrix(1,0,0,1,6.25,6.25)"><path fill="#456B8B" fill-opacity="1" d=" M6,6 C6,6 -6,6 -6,6 C-6,6 -6,-6 -6,-6 C-6,-6 6,-6 6,-6 C6,-6 6,6 6,6z"></path></g></g><g opacity="1" transform="matrix(1,0,0,1,413.8609924316406,54.07400131225586)"><g opacity="1" transform="matrix(1,0,0,1,6.25,6.25)"><path fill="#0FAE5A" fill-opacity="1" d=" M6,6 C6,6 -6,6 -6,6 C-6,6 -6,-6 -6,-6 C-6,-6 6,-6 6,-6 C6,-6 6,6 6,6z"></path></g></g><g opacity="1" transform="matrix(1,0,0,1,439.20599365234375,54.07400131225586)"><g opacity="1" transform="matrix(1,0,0,1,6.25,6.25)"><path fill="#456B8B" fill-opacity="1" d=" M6,6 C6,6 -6,6 -6,6 C-6,6 -6,-6 -6,-6 C-6,-6 6,-6 6,-6 C6,-6 6,6 6,6z"></path></g></g><g opacity="1" transform="matrix(1,0,0,1,388.5169982910156,78.5719985961914)"><g opacity="1" transform="matrix(1,0,0,1,6.25,6.25)"><path fill="#0FAE5A" fill-opacity="1" d=" M6,6 C6,6 -6,6 -6,6 C-6,6 -6,-6 -6,-6 C-6,-6 6,-6 6,-6 C6,-6 6,6 6,6z"></path></g></g><g opacity="1" transform="matrix(1,0,0,1,413.8609924316406,78.5719985961914)"><g opacity="1" transform="matrix(1,0,0,1,6.25,6.25)"><path fill="#456B8B" fill-opacity="1" d=" M6,6 C6,6 -6,6 -6,6 C-6,6 -6,-6 -6,-6 C-6,-6 6,-6 6,-6 C6,-6 6,6 6,6z"></path></g></g><g opacity="1" transform="matrix(1,0,0,1,439.20599365234375,78.5719985961914)"><g opacity="1" transform="matrix(1,0,0,1,6.25,6.25)"><path fill="#0FAE5A" fill-opacity="1" d=" M6,6 C6,6 -6,6 -6,6 C-6,6 -6,-6 -6,-6 C-6,-6 6,-6 6,-6 C6,-6 6,6 6,6z"></path></g></g></g><g transform="matrix(0,-1.0000027418136597,0.9999960064888,0,59.58384323120117,239.76039123535156)" opacity="1" style="display: block;"><g opacity="1" transform="matrix(1,0,0,1,60.250999450683594,60.25)"><path fill="#456B8B" fill-opacity="1" d=" M-59.999000549316406,60 C-59.999000549316406,60 60,60 60,60 C60,60 -60.000999450683594,-60 -60.000999450683594,-60 C-60.000999450683594,-60 -59.999000549316406,60 -59.999000549316406,60z"></path></g></g><g transform="matrix(1,0,0,1,419.75,419.75)" opacity="1" style="display: block;"><g opacity="1" transform="matrix(1,0,0,1,30.25,30.25)"><path fill="#C9E9D9" fill-opacity="1" d=" M-30,-30 C-30,-30 -30,30 -30,30 C-30,30 30,30 30,30 C30,30 -30,-30 -30,-30z"></path></g></g><g transform="matrix(1,0,0,1,299.75,359.75)" opacity="1" style="display: block;"><g opacity="1" transform="matrix(1,0,0,1,60.25,60.25)"><path fill="#456B8B" fill-opacity="1" d=" M-60,60 C-60,60 60,60 60,60 C60,60 60,-60 60,-60 C60,-60 -60,-60 -60,-60 C-60,-60 -60,60 -60,60z"></path></g></g><g transform="matrix(1,0,0,1,59.889007568359375,119.65701293945312)" opacity="1" style="display: block;"><g opacity="1" transform="matrix(1,0,0,1,265.7030029296875,265.9339904785156)"><g opacity="1" transform="matrix(1,0,0,1,34.40800094604492,34.409000396728516)"><path fill="#0FAE5A" fill-opacity="1" d=" M34.159000396728516,-0.0010000000474974513 C34.159000396728516,-18.865999221801758 18.864999771118164,-34.159000396728516 0,-34.159000396728516 C-18.864999771118164,-34.159000396728516 -34.159000396728516,-18.865999221801758 -34.159000396728516,-0.0010000000474974513 C-34.159000396728516,18.86400032043457 -18.864999771118164,34.159000396728516 0,34.159000396728516 C18.864999771118164,34.159000396728516 34.159000396728516,18.86400032043457 34.159000396728516,-0.0010000000474974513z"></path></g></g><g opacity="1" transform="matrix(1,0,0,1,268.48602294921875,300.093017578125)"><g opacity="1" transform="matrix(1,0,0,1,15.937999725341797,15.88599967956543)"><path fill="#004149" fill-opacity="1" d=" M15.687999725341797,-15.63599967956543 C15.687999725341797,-15.63599967956543 -15.687999725341797,-2.128000020980835 -15.687999725341797,-2.128000020980835 C-13.994000434875488,1.805999994277954 -11.576000213623047,5.386000156402588 -8.557999610900879,8.427000045776367 C-5.540999889373779,11.468000411987305 -1.9780000448226929,13.913000106811523 1.944000005722046,15.63599967956543 C1.944000005722046,15.63599967956543 15.687999725341797,-15.63599967956543 15.687999725341797,-15.63599967956543z"></path></g></g><g opacity="1" transform="matrix(1,0,0,1,265.7030029296875,265.9339904785156)"><g opacity="1" transform="matrix(1,0,0,1,17.32900047302246,24.09600067138672)"><path fill="#C9E9D9" fill-opacity="1" d=" M17.079999923706055,10.312000274658203 C17.079999923706055,10.312000274658203 17.079999923706055,-23.84600067138672 17.079999923706055,-23.84600067138672 C-1.659000039100647,-23.84600067138672 -17.079999923706055,-8.425999641418457 -17.079999923706055,10.312000274658203 C-17.079999923706055,14.965999603271484 -16.128999710083008,19.572999954223633 -14.28499984741211,23.84600067138672 C-14.28499984741211,23.84600067138672 17.079999923706055,10.312000274658203 17.079999923706055,10.312000274658203z"></path></g></g></g><g transform="matrix(0,1.0000027418136597,-1.0000020265579224,0,60.250064849853516,179.7498321533203)" opacity="1" style="display: block;"><g opacity="1" transform="matrix(1,0,0,1,60.25,30.25)"><path fill="#0FAE5A" fill-opacity="1" d=" M-60,30 C-60,30 60,30 60,30 C60,30 60,-30 60,-30 C60,-30 -60,-30 -60,-30 C-60,-30 -60,30 -60,30z"></path></g></g><g transform="matrix(0,0.9999974370002747,-0.9999995231628418,0,301.1612243652344,-0.9068445563316345)" opacity="1" style="display: block;"><g opacity="1" transform="matrix(1,0,0,1,60.25,60.25)"><path fill="#004149" fill-opacity="1" d=" M-60,60 C-60,60 60,60 60,60 C60,60 -60,-60 -60,-60 C-60,-60 -60,60 -60,60z"></path></g></g><g transform="matrix(0,0.9999974370002747,-0.9999995231628418,0,301.1612243652344,-0.9068445563316345)" opacity="1" style="display: block;"><g opacity="1" transform="matrix(1,0,0,1,60.25,60.25)"><path fill="#C9E9D9" fill-opacity="1" d=" M60,-60 C60,-60 -60,-60 -60,-60 C-60,-60 60,60 60,60 C60,60 60,-60 60,-60z"></path></g></g><g transform="matrix(1,0,0,1,117.58700561523438,-226.14498901367188)" opacity="1" style="display: block;"><g opacity="1" transform="matrix(1,0,0,1,182.16299438476562,405.8949890136719)"><g opacity="1" transform="matrix(1,0,0,1,60.25,30.25)"><path fill="#0FAE5A" fill-opacity="1" d=" M-60,30 C-60,30 60,30 60,30 C60,30 60,-30 60,-30 C60,-30 -60,-30 -60,-30 C-60,-30 -60,30 -60,30z"></path></g></g><g opacity="1" transform="matrix(1,0,0,1,215.197998046875,437.7879943847656)"><g opacity="1" transform="matrix(1,0,0,1,28.35700035095215,14.303000450134277)"><path fill="#C9E9D9" fill-opacity="1" d=" M0,14.053000450134277 C0,14.053000450134277 -28.10700035095215,14.053000450134277 -28.10700035095215,14.053000450134277 C-28.10700035095215,-1.3660000562667847 -15.418999671936035,-14.053000450134277 0,-14.053000450134277 C15.420000076293945,-14.053000450134277 28.10700035095215,-1.3660000562667847 28.10700035095215,14.053000450134277 C28.10700035095215,14.053000450134277 0,14.053000450134277 0,14.053000450134277z"></path></g></g></g></g></g></svg>