<svg fill="none" height="33" viewBox="0 0 180 33" width="180" xmlns="http://www.w3.org/2000/svg" xmlns:xlink="http://www.w3.org/1999/xlink"><g fill="#FFFFFF" fill-rule="evenodd"><path d="m14.2867 23.6061c-1.0489.9324-2.3893 1.486-3.7879 1.5151-4.48715-.0291-5.50696-3.7879-5.50696-8.7412 0-4.9534.96154-8.74129 5.44876-8.74129 1.3694 0 2.6806.55361 3.6421 1.54428l2.4767 4.07921h.1457v-5.74004h-.1457l-2.331 1.19463c-1.0489-.90326-2.3892-1.42773-3.7878-1.45687-4.3124.02914-9.4406 3.32168-9.4406 9.12008 0 5.7983 5.01165 9.12 9.4988 9.12 1.4278-.0291 2.7972-.5536 3.9045-1.4569l2.4184 1.1947h.1457v-6.0024h-.1457z" fill="#FFFFFF"></path><path d="m28.8846 7.28903c-4.225 0-9.2075 3.55477-9.2075 9.09087 0 5.5362 4.9825 9.1201 9.2075 9.1201 4.2249 0 9.2074-3.5548 9.2074-9.1201 0-5.5652-5.0116-9.09087-9.2074-9.09087zm0 17.83217c-4.2832 0-5.2739-3.5256-5.2739-8.7413 0-5.1864.9907-8.74122 5.2739-8.74122s5.2739 3.52562 5.2739 8.74122c-.0292 5.1865-.9907 8.7413-5.2739 8.7413z" fill="#FFFFFF"></path><path d="m52.8648 7.60956v.29137h2.2436v11.15967h-.0292l-8.0419-11.45104h-6.9348v.29137h2.2728v16.95807h-2.2728v.2913h4.9534v-.2913h-2.2727v-16.95807h.0291l12.6166 17.59907h.1165v-17.59907h2.2436v-.29137z" fill="#FFFFFF"></path><path d="m67.5792 7.60956h-7.8088v.29137h2.2436v16.95807h-2.2436v.2913h7.8088c3.8753 0 10.5187-1.6899 10.5187-8.8869 0-7.19697-6.6142-8.65384-10.5187-8.65384zm-.0582 17.24944h-1.894v-16.95807h1.894c4.6037 0 6.7016 3.14687 6.7016 8.47907 0 5.3321-2.127 8.479-6.7016 8.479z" fill="#FFFFFF"></path><path d="m92.5792 24.859h-6.6433v-8.9452h3.3508c1.1072.8741 2.3893 3.409 2.3893 3.409h.1457v-7.1678h-.1749s-1.282 2.535-2.3893 3.4091h-3.3508v-7.66317h5.9441c1.7191 1.13637 3.2343 4.42887 3.2343 4.42887h.1456v-4.72024h-15.1515v.29137h2.2728v16.95807h-2.2728v.2913h15.6469v-5.8857h-.1457c.0291 0-1.486 3.9044-3.0012 5.5944" fill="#FFFFFF"></path><path d="m92.1131.5-5.5944 4.60373.0583.08741 5.7109-1.31119-.4662-1.25291.3788-2.039627z" fill="#FFFFFF"></path><path d="m123.261 7.60956v.29137h2.273v11.15967h-.058l-8.042-11.45104h-6.935v.29137h2.273v16.95807h-2.273v.2913h4.953v-.2913h-2.272v-16.95807h.058l12.587 17.59907h.117v-17.59907h2.273v-.29137z" fill="#FFFFFF"></path><path d="m137.568 6.99768-7.605 17.86132h-2.098v.2914h4.72v-.2914h-2.185l2.797-6.6434h5.711l2.972 6.6434h-2.273v.2914h8.246v-.2914h-2.098l-8.071-17.86132zm-1.574 4.63282 2.797 6.2646h-5.478z" fill="#FFFFFF"></path><path d="m158.08 14.8648-3.467-1.1655c-1.719-.5827-3.147-1.4277-3.147-3.0886 0-1.8939 1.515-2.94286 3.817-2.94286 1.428 0 2.331.37879 3.176 1.16551l2.448 4.05015h.145v-5.59444h-.145l-2.331 1.1655c-.933-.78672-2.098-1.19464-3.322-1.1655-3.351 0-5.536 2.18531-5.565 5.24474.029 2.4767 1.748 3.7588 3.729 4.4872l3.526 1.282c1.865.6702 3.147 1.4861 3.147 3.3217 0 1.7191-1.166 3.4674-4.225 3.4965-1.428-.0291-3.06-.6119-4.021-1.5443l-2.652-4.4289h-.145l.116 6.0606h.146l2.389-1.282c1.195.9324 2.652 1.486 4.167 1.5151 3.846 0 6.352-2.7098 6.352-5.6818.058-2.8555-1.981-4.1666-4.138-4.8951" fill="#FFFFFF"></path><path d="m163.995 7.60956v5.44874h.146s1.632-3.46739 3.147-5.15737h3.059v16.95807h-2.768v.2913h9.091v-.2913h-2.768v-16.95807h3.06c1.544 1.68998 3.146 5.15737 3.146 5.15737h.146v-5.44874z" fill="#FFFFFF"></path></g></svg>