<svg xmlns:xlink="http://www.w3.org/1999/xlink" viewBox="0 0 740.94 159.36" xmlns="http://www.w3.org/2000/svg" width="143" height="32"><g fill="#161616"><rect height="15.36" rx="2.86" width="88.52" x="55.6" y="52.81" fill="#161616"></rect><rect height="15.36" rx="2.86" width="88.52" x=".83" y="91.19" fill="#161616"></rect><path d="m11.45 63.32a2.87 2.87 0 0 0 3.48-2 60.42 60.42 0 0 1 70.59-40.61 2.84 2.84 0 0 0 3.32-2.06l2.5-9.33a2.87 2.87 0 0 0 -2.17-3.53 75.76 75.76 0 0 0 -89 51.48 2.86 2.86 0 0 0 2 3.56z" fill-rule="evenodd" fill="#161616"></path><path d="m133.52 96a2.88 2.88 0 0 0 -3.52 2 60.42 60.42 0 0 1 -70.59 40.66 2.83 2.83 0 0 0 -3.32 2.06l-2.45 9.28a2.87 2.87 0 0 0 2.17 3.54 75.8 75.8 0 0 0 89-51.49 2.84 2.84 0 0 0 -2-3.55z" fill-rule="evenodd" fill="#161616"></path><circle cx="116.24" cy="27.53" r="8.42" fill="#161616"></circle><circle cx="28.73" cy="131.82" r="8.42" fill="#161616"></circle><path d="m350.33 64.41a32.21 32.21 0 0 1 24.27-10.52c8.86 0 15.76 2.74 20.12 8v-4.36a2.44 2.44 0 0 1 2.3-2.32h11.68a2.45 2.45 0 0 1 2.3 2.32v64.85a39.51 39.51 0 0 1 -8 25.44c-6.3 7.66-15.86 11.54-28.42 11.54-17.46 0-31.24-11.05-33.51-26.83a2.45 2.45 0 0 1 1.76-2.59l11.41-2.68a1.13 1.13 0 0 1 .18 0 2.28 2.28 0 0 1 2.6 1.93 17.26 17.26 0 0 0 17.58 15.21c13.64 0 20-7 20-21.63v-5.68a25.66 25.66 0 0 1 -20 8.56c-19.41 0-33.49-15.07-33.49-35.81a37.76 37.76 0 0 1 9.22-25.43zm226.49-11.41h.61c20.87.28 33.8 14.81 33.8 38.06a35.09 35.09 0 0 1 -.2 3.69 2.27 2.27 0 0 1 -2.24 2h-49.61a19.08 19.08 0 0 0 19.35 18.51 17.39 17.39 0 0 0 17.75-12.39 2.29 2.29 0 0 1 2.85-1.37l9.87 3.5a2.13 2.13 0 0 1 1.29 1.17 2.22 2.22 0 0 1 .12 1.73 32.66 32.66 0 0 1 -31.92 22.2 35.26 35.26 0 0 1 -25.17-10.22 39.36 39.36 0 0 1 -10.81-28.56c0-24 17.44-38.37 34.29-38.37zm-280.68 0c21.24 0 34.44 14.59 34.44 38.07a35.09 35.09 0 0 1 -.2 3.69 2.24 2.24 0 0 1 -2.24 2h-49.61a19.08 19.08 0 0 0 19.47 18.55 17.37 17.37 0 0 0 17.75-12.39 2.26 2.26 0 0 1 2.85-1.37l9.91 3.49a2.11 2.11 0 0 1 1.29 1.17 2.26 2.26 0 0 1 0 1.73 32.66 32.66 0 0 1 -31.9 22.2 35.29 35.29 0 0 1 -25.22-10.22 39.5 39.5 0 0 1 -10.81-28.56c0-24 17.44-38.37 34.3-38.37zm-75.14 0c9.53 0 17.24 2.31 22.95 6.88a25 25 0 0 1 8.22 11.92 1.55 1.55 0 0 1 -1.17 1.87l-11.83 3.91a2.29 2.29 0 0 1 -1.63 0 1.72 1.72 0 0 1 -.93-1.08c-1-3.83-4.44-10.26-15.63-10.26-7.81 0-12.49 4.48-12.49 8.82 0 2.88 1.49 6.59 8.53 7.93l13 2.44c14.53 2.93 22.85 10.88 22.85 21.95v-.19c0 11-10.58 22.75-30.24 22.75-22.8 0-31.76-12.9-33.41-20.51a1.64 1.64 0 0 1 1.21-1.81l12.2-3.8a1.83 1.83 0 0 1 .66 0 2.05 2.05 0 0 1 1 .24 1.68 1.68 0 0 1 .9 1.1c1.54 7.32 8.15 11.68 17.66 11.68 8.85 0 12.88-4.63 12.88-8.83s-3.59-7.29-9.76-8.53l-13.68-2.66c-12.76-2.41-20.71-10.34-20.71-20.66 0-12.56 13.49-23.16 29.42-23.16zm502.55-20.35a2.44 2.44 0 0 1 2.29 2.44v20h12.83a2.45 2.45 0 0 1 2.27 2.44v10.66a2.3 2.3 0 0 1 -2.27 2.31h-12.83v35.59c0 5.9 2.34 8.34 8.36 8.34a31.2 31.2 0 0 0 4.1-.34 2.28 2.28 0 0 1 1.86.51 2.44 2.44 0 0 1 .78 1.76v10a2.3 2.3 0 0 1 -1.64 2.22 31.61 31.61 0 0 1 -9 1.17c-12.86 0-20.83-8.27-20.83-21.61v-37.49h-11.1a2.44 2.44 0 0 1 -2.29-2.32v-10.68a2.43 2.43 0 0 1 2.29-2.44h2.88c3.49 0 9.37-1.22 9.37-9.54v-10.58a2.43 2.43 0 0 1 2.29-2.44zm-240.8 32.27a26.4 26.4 0 0 1 23.25-11.92c12.68 0 25.49 8.93 25.49 28.44v45.16a2.45 2.45 0 0 1 -2.3 2.32h-11.69a2.45 2.45 0 0 1 -2.29-2.32v-43.71c0-5.53-1.73-14.85-13.44-14.85-8.56 0-14.64 6.73-14.64 16.49v42.07a2.44 2.44 0 0 1 -2.29 2.32h-11.84a2.45 2.45 0 0 1 -2.3-2.32v-43.71c.02-5.53-1.7-14.89-13.42-14.89-8.9 0-14.9 6.68-14.9 16.63v41.97a2.45 2.45 0 0 1 -2.29 2.32h-11.68a2.44 2.44 0 0 1 -2.27-2.32v-69.22a2.45 2.45 0 0 1 2.27-2.32h11.24a2.45 2.45 0 0 1 2.29 2.32v4.17a26.29 26.29 0 0 1 19.76-8.55 23.35 23.35 0 0 1 21.05 11.92zm178.11-11.92a24.69 24.69 0 0 1 19.81 8.61 32.2 32.2 0 0 1 6.53 20.85v44.14a2.43 2.43 0 0 1 -2.26 2.32h-11.83a2.46 2.46 0 0 1 -2.3-2.32v-41.78c0-10.93-5.14-16.49-14.9-16.49a13.55 13.55 0 0 0 -11.09 5.17 21.38 21.38 0 0 0 -3.81 13v40.1a2.45 2.45 0 0 1 -2.29 2.32h-11.81a2.45 2.45 0 0 1 -2.29-2.32v-69.27a2.43 2.43 0 0 1 2.29-2.33h11.54a2.43 2.43 0 0 1 2.27 2.31v4.88a25.41 25.41 0 0 1 20.14-9.19zm-284.23 15.48c-11.52 0-18.83 8.19-18.83 21.36s7.22 21.35 18.83 21.35c11.07 0 18.53-8.59 18.53-21.35s-7.46-21.36-18.53-21.36zm-80.37-.66a17.07 17.07 0 0 0 -17.26 15.18h34.7c-.83-9.37-7.49-15.18-17.44-15.18zm280.75 0a17.08 17.08 0 0 0 -17.24 15.18h34.71c-.86-9.37-7.48-15.18-17.48-15.18z" fill-rule="evenodd" fill="#161616"></path><path d="m208.79 6.19v23.26h-6.59v-23.26h-9.11v-5.64h24.91v5.64z" fill="#161616"></path><path d="m259.13 29.55h-6.85l-6.28-21.3-6.39 21.3h-6.71l-8.5-29h7l5.39 20.89 6.08-20.89h7l6 20.89 5.22-20.89h6.44z" fill="#161616"></path><path d="m276.6 29.45v-28.9h6.49v28.9z" fill="#161616"></path><path d="m294.77 29.45v-28.9h6.59v23.21h11.28v5.69z" fill="#161616"></path><path d="m322.46 29.45v-28.9h6.54v28.9z" fill="#161616"></path><path d="m353.47 30c-8 0-14.4-5.74-14.4-14.95s6.49-15 14.45-15 14.39 5.74 14.39 15-6.44 14.95-14.44 14.95zm0-24.66c-5 0-7.91 4.12-7.91 9.66s3 9.71 7.91 9.71 7.8-4.22 7.8-9.66-2.92-9.71-7.75-9.71z" fill="#161616"></path></g></svg>