<svg xmlns:xlink="http://www.w3.org/1999/xlink" xmlns="http://www.w3.org/2000/svg" viewBox="0 0 1080 600" width="1080" height="600" preserveAspectRatio="xMidYMid meet" style="width: 100%; height: 100%; transform: translate3d(0px, 0px, 0px);"><defs><clipPath id="__lottie_element_207"><rect width="1080" height="600" x="0" y="0"></rect></clipPath><clipPath id="__lottie_element_209"><path d="M0,0 L600,0 L600,500 L0,500z"></path></clipPath><clipPath id="__lottie_element_348"><path d="M0,0 L600,0 L600,500 L0,500z"></path></clipPath><clipPath id="__lottie_element_349"><path fill="#ffffff" clip-rule="nonzero" d=" M459,126 C459,126 433,126 433,126 C433,126 433,265 433,265 C433,265 459,265 459,265 C459,265 459,126 459,126" fill-opacity="1"></path></clipPath><clipPath id="__lottie_element_397"><path d="M0,0 L600,0 L600,500 L0,500z"></path></clipPath><clipPath id="__lottie_element_464"><path d="M0,0 L600,0 L600,500 L0,500z"></path></clipPath></defs><g clip-path="url(#__lottie_element_207)"><g transform="matrix(1,0,0,1,0.8900146484375,-0.25)" opacity="1" style="display: block;"><g opacity="1" transform="matrix(1,0,0,1,539.6799926757812,300.25)"><path fill="#F3F3F3" fill-opacity="1" d=" M-298.57501220703125,180.28599548339844 C-298.57501220703125,180.28599548339844 -180.28399658203125,180.28599548339844 -180.28399658203125,180.28599548339844 C-180.28399658203125,180.28599548339844 -180.28399658203125,298.57598876953125 -180.28399658203125,298.57598876953125 C-180.28399658203125,298.57598876953125 -298.57501220703125,298.57598876953125 -298.57501220703125,298.57598876953125 C-298.57501220703125,298.57598876953125 -298.57501220703125,180.28599548339844 -298.57501220703125,180.28599548339844z M-178.86000061035156,180.28599548339844 C-178.86000061035156,180.28599548339844 -60.56999969482422,180.28599548339844 -60.56999969482422,180.28599548339844 C-60.56999969482422,180.28599548339844 -60.56999969482422,298.57598876953125 -60.56999969482422,298.57598876953125 C-60.56999969482422,298.57598876953125 -178.86000061035156,298.57598876953125 -178.86000061035156,298.57598876953125 C-178.86000061035156,298.57598876953125 -178.86000061035156,180.28599548339844 -178.86000061035156,180.28599548339844z M-59.14500045776367,180.28599548339844 C-59.14500045776367,180.28599548339844 59.14500045776367,180.28599548339844 59.14500045776367,180.28599548339844 C59.14500045776367,180.28599548339844 59.14500045776367,298.57598876953125 59.14500045776367,298.57598876953125 C59.14500045776367,298.57598876953125 -59.14500045776367,298.57598876953125 -59.14500045776367,298.57598876953125 C-59.14500045776367,298.57598876953125 -59.14500045776367,180.28599548339844 -59.14500045776367,180.28599548339844z M60.57099914550781,180.28599548339844 C60.57099914550781,180.28599548339844 178.86000061035156,180.28599548339844 178.86000061035156,180.28599548339844 C178.86000061035156,180.28599548339844 178.86000061035156,298.57598876953125 178.86000061035156,298.57598876953125 C178.86000061035156,298.57598876953125 60.57099914550781,298.57598876953125 60.57099914550781,298.57598876953125 C60.57099914550781,298.57598876953125 60.57099914550781,180.28599548339844 60.57099914550781,180.28599548339844z M180.28599548339844,180.28599548339844 C180.28599548339844,180.28599548339844 298.57501220703125,180.28599548339844 298.57501220703125,180.28599548339844 C298.57501220703125,180.28599548339844 298.57501220703125,298.57598876953125 298.57501220703125,298.57598876953125 C298.57501220703125,298.57598876953125 180.28599548339844,298.57598876953125 180.28599548339844,298.57598876953125 C180.28599548339844,298.57598876953125 180.28599548339844,180.28599548339844 180.28599548339844,180.28599548339844z M300,180.28599548339844 C300,180.28599548339844 418.28900146484375,180.28599548339844 418.28900146484375,180.28599548339844 C418.28900146484375,180.28599548339844 418.28900146484375,298.57598876953125 418.28900146484375,298.57598876953125 C418.28900146484375,298.57598876953125 300,298.57598876953125 300,298.57598876953125 C300,298.57598876953125 300,180.28599548339844 300,180.28599548339844z M419.7149963378906,180.28599548339844 C419.7149963378906,180.28599548339844 538.0059814453125,180.28599548339844 538.0059814453125,180.28599548339844 C538.0059814453125,180.28599548339844 538.0059814453125,298.57598876953125 538.0059814453125,298.57598876953125 C538.0059814453125,298.57598876953125 419.7149963378906,298.57598876953125 419.7149963378906,298.57598876953125 C419.7149963378906,298.57598876953125 419.7149963378906,180.28599548339844 419.7149963378906,180.28599548339844z M-538.0050048828125,60.57099914550781 C-538.0050048828125,60.57099914550781 -419.7149963378906,60.57099914550781 -419.7149963378906,60.57099914550781 C-419.7149963378906,60.57099914550781 -419.7149963378906,178.86000061035156 -419.7149963378906,178.86000061035156 C-419.7149963378906,178.86000061035156 -538.0050048828125,178.86000061035156 -538.0050048828125,178.86000061035156 C-538.0050048828125,178.86000061035156 -538.0050048828125,60.57099914550781 -538.0050048828125,60.57099914550781z M-418.2900085449219,60.57099914550781 C-418.2900085449219,60.57099914550781 -300,60.57099914550781 -300,60.57099914550781 C-300,60.57099914550781 -300,178.86000061035156 -300,178.86000061035156 C-300,178.86000061035156 -418.2900085449219,178.86000061035156 -418.2900085449219,178.86000061035156 C-418.2900085449219,178.86000061035156 -418.2900085449219,60.57099914550781 -418.2900085449219,60.57099914550781z M-298.57501220703125,60.57099914550781 C-298.57501220703125,60.57099914550781 -180.28399658203125,60.57099914550781 -180.28399658203125,60.57099914550781 C-180.28399658203125,60.57099914550781 -180.28399658203125,178.86000061035156 -180.28399658203125,178.86000061035156 C-180.28399658203125,178.86000061035156 -298.57501220703125,178.86000061035156 -298.57501220703125,178.86000061035156 C-298.57501220703125,178.86000061035156 -298.57501220703125,60.57099914550781 -298.57501220703125,60.57099914550781z M-178.86000061035156,60.57099914550781 C-178.86000061035156,60.57099914550781 -60.56999969482422,60.57099914550781 -60.56999969482422,60.57099914550781 C-60.56999969482422,60.57099914550781 -60.56999969482422,178.86000061035156 -60.56999969482422,178.86000061035156 C-60.56999969482422,178.86000061035156 -178.86000061035156,178.86000061035156 -178.86000061035156,178.86000061035156 C-178.86000061035156,178.86000061035156 -178.86000061035156,60.57099914550781 -178.86000061035156,60.57099914550781z M-59.14500045776367,60.57099914550781 C-59.14500045776367,60.57099914550781 59.14500045776367,60.57099914550781 59.14500045776367,60.57099914550781 C59.14500045776367,60.57099914550781 59.14500045776367,178.86000061035156 59.14500045776367,178.86000061035156 C59.14500045776367,178.86000061035156 -59.14500045776367,178.86000061035156 -59.14500045776367,178.86000061035156 C-59.14500045776367,178.86000061035156 -59.14500045776367,60.57099914550781 -59.14500045776367,60.57099914550781z M60.57099914550781,60.57099914550781 C60.57099914550781,60.57099914550781 178.86000061035156,60.57099914550781 178.86000061035156,60.57099914550781 C178.86000061035156,60.57099914550781 178.86000061035156,178.86000061035156 178.86000061035156,178.86000061035156 C178.86000061035156,178.86000061035156 60.57099914550781,178.86000061035156 60.57099914550781,178.86000061035156 C60.57099914550781,178.86000061035156 60.57099914550781,60.57099914550781 60.57099914550781,60.57099914550781z M180.28599548339844,60.57099914550781 C180.28599548339844,60.57099914550781 298.57501220703125,60.57099914550781 298.57501220703125,60.57099914550781 C298.57501220703125,60.57099914550781 298.57501220703125,178.86000061035156 298.57501220703125,178.86000061035156 C298.57501220703125,178.86000061035156 180.28599548339844,178.86000061035156 180.28599548339844,178.86000061035156 C180.28599548339844,178.86000061035156 180.28599548339844,60.57099914550781 180.28599548339844,60.57099914550781z M300,60.57099914550781 C300,60.57099914550781 418.28900146484375,60.57099914550781 418.28900146484375,60.57099914550781 C418.28900146484375,60.57099914550781 418.28900146484375,178.86000061035156 418.28900146484375,178.86000061035156 C418.28900146484375,178.86000061035156 300,178.86000061035156 300,178.86000061035156 C300,178.86000061035156 300,60.57099914550781 300,60.57099914550781z M-418.2900085449219,-59.14500045776367 C-418.2900085449219,-59.14500045776367 -300,-59.14500045776367 -300,-59.14500045776367 C-300,-59.14500045776367 -300,59.14500045776367 -300,59.14500045776367 C-300,59.14500045776367 -418.2900085449219,59.14500045776367 -418.2900085449219,59.14500045776367 C-418.2900085449219,59.14500045776367 -418.2900085449219,-59.14500045776367 -418.2900085449219,-59.14500045776367z M-298.57501220703125,-59.14500045776367 C-298.57501220703125,-59.14500045776367 -180.28399658203125,-59.14500045776367 -180.28399658203125,-59.14500045776367 C-180.28399658203125,-59.14500045776367 -180.28399658203125,59.14500045776367 -180.28399658203125,59.14500045776367 C-180.28399658203125,59.14500045776367 -298.57501220703125,59.14500045776367 -298.57501220703125,59.14500045776367 C-298.57501220703125,59.14500045776367 -298.57501220703125,-59.14500045776367 -298.57501220703125,-59.14500045776367z M-178.86000061035156,-59.14500045776367 C-178.86000061035156,-59.14500045776367 -60.56999969482422,-59.14500045776367 -60.56999969482422,-59.14500045776367 C-60.56999969482422,-59.14500045776367 -60.56999969482422,59.14500045776367 -60.56999969482422,59.14500045776367 C-60.56999969482422,59.14500045776367 -178.86000061035156,59.14500045776367 -178.86000061035156,59.14500045776367 C-178.86000061035156,59.14500045776367 -178.86000061035156,-59.14500045776367 -178.86000061035156,-59.14500045776367z M-59.14500045776367,-59.14500045776367 C-59.14500045776367,-59.14500045776367 59.14500045776367,-59.14500045776367 59.14500045776367,-59.14500045776367 C59.14500045776367,-59.14500045776367 59.14500045776367,59.14500045776367 59.14500045776367,59.14500045776367 C59.14500045776367,59.14500045776367 -59.14500045776367,59.14500045776367 -59.14500045776367,59.14500045776367 C-59.14500045776367,59.14500045776367 -59.14500045776367,-59.14500045776367 -59.14500045776367,-59.14500045776367z M60.57099914550781,-59.14500045776367 C60.57099914550781,-59.14500045776367 178.86000061035156,-59.14500045776367 178.86000061035156,-59.14500045776367 C178.86000061035156,-59.14500045776367 178.86000061035156,59.14500045776367 178.86000061035156,59.14500045776367 C178.86000061035156,59.14500045776367 60.57099914550781,59.14500045776367 60.57099914550781,59.14500045776367 C60.57099914550781,59.14500045776367 60.57099914550781,-59.14500045776367 60.57099914550781,-59.14500045776367z M180.28599548339844,-59.14500045776367 C180.28599548339844,-59.14500045776367 298.57501220703125,-59.14500045776367 298.57501220703125,-59.14500045776367 C298.57501220703125,-59.14500045776367 298.57501220703125,59.14500045776367 298.57501220703125,59.14500045776367 C298.57501220703125,59.14500045776367 180.28599548339844,59.14500045776367 180.28599548339844,59.14500045776367 C180.28599548339844,59.14500045776367 180.28599548339844,-59.14500045776367 180.28599548339844,-59.14500045776367z M-418.2900085449219,-178.86000061035156 C-418.2900085449219,-178.86000061035156 -300,-178.86000061035156 -300,-178.86000061035156 C-300,-178.86000061035156 -300,-60.56999969482422 -300,-60.56999969482422 C-300,-60.56999969482422 -418.2900085449219,-60.56999969482422 -418.2900085449219,-60.56999969482422 C-418.2900085449219,-60.56999969482422 -418.2900085449219,-178.86000061035156 -418.2900085449219,-178.86000061035156z M-298.57501220703125,-178.86000061035156 C-298.57501220703125,-178.86000061035156 -180.28399658203125,-178.86000061035156 -180.28399658203125,-178.86000061035156 C-180.28399658203125,-178.86000061035156 -180.28399658203125,-60.56999969482422 -180.28399658203125,-60.56999969482422 C-180.28399658203125,-60.56999969482422 -298.57501220703125,-60.56999969482422 -298.57501220703125,-60.56999969482422 C-298.57501220703125,-60.56999969482422 -298.57501220703125,-178.86000061035156 -298.57501220703125,-178.86000061035156z M-178.86000061035156,-178.86000061035156 C-178.86000061035156,-178.86000061035156 -60.56999969482422,-178.86000061035156 -60.56999969482422,-178.86000061035156 C-60.56999969482422,-178.86000061035156 -60.56999969482422,-60.56999969482422 -60.56999969482422,-60.56999969482422 C-60.56999969482422,-60.56999969482422 -178.86000061035156,-60.56999969482422 -178.86000061035156,-60.56999969482422 C-178.86000061035156,-60.56999969482422 -178.86000061035156,-178.86000061035156 -178.86000061035156,-178.86000061035156z M-59.14500045776367,-178.86000061035156 C-59.14500045776367,-178.86000061035156 59.14500045776367,-178.86000061035156 59.14500045776367,-178.86000061035156 C59.14500045776367,-178.86000061035156 59.14500045776367,-60.56999969482422 59.14500045776367,-60.56999969482422 C59.14500045776367,-60.56999969482422 -59.14500045776367,-60.56999969482422 -59.14500045776367,-60.56999969482422 C-59.14500045776367,-60.56999969482422 -59.14500045776367,-178.86000061035156 -59.14500045776367,-178.86000061035156z M60.57099914550781,-178.86000061035156 C60.57099914550781,-178.86000061035156 178.86000061035156,-178.86000061035156 178.86000061035156,-178.86000061035156 C178.86000061035156,-178.86000061035156 178.86000061035156,-60.56999969482422 178.86000061035156,-60.56999969482422 C178.86000061035156,-60.56999969482422 60.57099914550781,-60.56999969482422 60.57099914550781,-60.56999969482422 C60.57099914550781,-60.56999969482422 60.57099914550781,-178.86000061035156 60.57099914550781,-178.86000061035156z M180.28599548339844,-178.86000061035156 C180.28599548339844,-178.86000061035156 298.57501220703125,-178.86000061035156 298.57501220703125,-178.86000061035156 C298.57501220703125,-178.86000061035156 298.57501220703125,-60.56999969482422 298.57501220703125,-60.56999969482422 C298.57501220703125,-60.56999969482422 180.28599548339844,-60.56999969482422 180.28599548339844,-60.56999969482422 C180.28599548339844,-60.56999969482422 180.28599548339844,-178.86000061035156 180.28599548339844,-178.86000061035156z M-298.57501220703125,-298.5740051269531 C-298.57501220703125,-298.5740051269531 -180.28399658203125,-298.5740051269531 -180.28399658203125,-298.5740051269531 C-180.28399658203125,-298.5740051269531 -180.28399658203125,-180.28399658203125 -180.28399658203125,-180.28399658203125 C-180.28399658203125,-180.28399658203125 -298.57501220703125,-180.28399658203125 -298.57501220703125,-180.28399658203125 C-298.57501220703125,-180.28399658203125 -298.57501220703125,-298.5740051269531 -298.57501220703125,-298.5740051269531z M-178.86000061035156,-298.5740051269531 C-178.86000061035156,-298.5740051269531 -60.56999969482422,-298.5740051269531 -60.56999969482422,-298.5740051269531 C-60.56999969482422,-298.5740051269531 -60.56999969482422,-180.28399658203125 -60.56999969482422,-180.28399658203125 C-60.56999969482422,-180.28399658203125 -178.86000061035156,-180.28399658203125 -178.86000061035156,-180.28399658203125 C-178.86000061035156,-180.28399658203125 -178.86000061035156,-298.5740051269531 -178.86000061035156,-298.5740051269531z M-59.14500045776367,-298.5740051269531 C-59.14500045776367,-298.5740051269531 59.14500045776367,-298.5740051269531 59.14500045776367,-298.5740051269531 C59.14500045776367,-298.5740051269531 59.14500045776367,-180.28399658203125 59.14500045776367,-180.28399658203125 C59.14500045776367,-180.28399658203125 -59.14500045776367,-180.28399658203125 -59.14500045776367,-180.28399658203125 C-59.14500045776367,-180.28399658203125 -59.14500045776367,-298.5740051269531 -59.14500045776367,-298.5740051269531z M60.57099914550781,-298.5740051269531 C60.57099914550781,-298.5740051269531 178.86000061035156,-298.5740051269531 178.86000061035156,-298.5740051269531 C178.86000061035156,-298.5740051269531 178.86000061035156,-180.28399658203125 178.86000061035156,-180.28399658203125 C178.86000061035156,-180.28399658203125 60.57099914550781,-180.28399658203125 60.57099914550781,-180.28399658203125 C60.57099914550781,-180.28399658203125 60.57099914550781,-298.5740051269531 60.57099914550781,-298.5740051269531z M-300,-300 C-300,-300 -300,-299.2869873046875 -300,-299.2869873046875 C-300,-299.2869873046875 -300,-180.28500366210938 -300,-180.28500366210938 C-300,-180.28500366210938 -419.00201416015625,-180.28500366210938 -419.00201416015625,-180.28500366210938 C-419.00201416015625,-180.28500366210938 -419.7149963378906,-180.28500366210938 -419.7149963378906,-180.28500366210938 C-419.7149963378906,-180.28500366210938 -419.7149963378906,-179.57200622558594 -419.7149963378906,-179.57200622558594 C-419.7149963378906,-179.57200622558594 -419.7149963378906,-60.56999969482422 -419.7149963378906,-60.56999969482422 C-419.7149963378906,-60.56999969482422 -419.7149963378906,-59.856998443603516 -419.7149963378906,-59.856998443603516 C-419.7149963378906,-59.856998443603516 -419.7149963378906,-59.14500045776367 -419.7149963378906,-59.14500045776367 C-419.7149963378906,-59.14500045776367 -419.7149963378906,59.14500045776367 -419.7149963378906,59.14500045776367 C-419.7149963378906,59.14500045776367 -538.718017578125,59.14500045776367 -538.718017578125,59.14500045776367 C-538.718017578125,59.14500045776367 -539.4299926757812,59.14500045776367 -539.4299926757812,59.14500045776367 C-539.4299926757812,59.14500045776367 -539.4299926757812,59.858001708984375 -539.4299926757812,59.858001708984375 C-539.4299926757812,59.858001708984375 -539.4299926757812,179.57200622558594 -539.4299926757812,179.57200622558594 C-539.4299926757812,179.57200622558594 -539.4299926757812,180.28599548339844 -539.4299926757812,180.28599548339844 C-539.4299926757812,180.28599548339844 -538.718017578125,180.28599548339844 -538.718017578125,180.28599548339844 C-538.718017578125,180.28599548339844 -419.7149963378906,180.28599548339844 -419.7149963378906,180.28599548339844 C-419.7149963378906,180.28599548339844 -419.00201416015625,180.28599548339844 -419.00201416015625,180.28599548339844 C-419.00201416015625,180.28599548339844 -418.2900085449219,180.28599548339844 -418.2900085449219,180.28599548339844 C-418.2900085449219,180.28599548339844 -300,180.28599548339844 -300,180.28599548339844 C-300,180.28599548339844 -300,299.2869873046875 -300,299.2869873046875 C-300,299.2869873046875 -300,300 -300,300 C-300,300 -299.2869873046875,300 -299.2869873046875,300 C-299.2869873046875,300 -180.28500366210938,300 -180.28500366210938,300 C-180.28500366210938,300 -179.572998046875,300 -179.572998046875,300 C-179.572998046875,300 -178.86000061035156,300 -178.86000061035156,300 C-178.86000061035156,300 -60.56999969482422,300 -60.56999969482422,300 C-60.56999969482422,300 -59.856998443603516,300 -59.856998443603516,300 C-59.856998443603516,300 -59.14500045776367,300 -59.14500045776367,300 C-59.14500045776367,300 59.14500045776367,300 59.14500045776367,300 C59.14500045776367,300 59.858001708984375,300 59.858001708984375,300 C59.858001708984375,300 60.57099914550781,300 60.57099914550781,300 C60.57099914550781,300 178.85899353027344,300 178.85899353027344,300 C178.85899353027344,300 179.57200622558594,300 179.57200622558594,300 C179.57200622558594,300 180.28599548339844,300 180.28599548339844,300 C180.28599548339844,300 298.57501220703125,300 298.57501220703125,300 C298.57501220703125,300 299.2869873046875,300 299.2869873046875,300 C299.2869873046875,300 300,300 300,300 C300,300 418.28900146484375,300 418.28900146484375,300 C418.28900146484375,300 419.00201416015625,300 419.00201416015625,300 C419.00201416015625,300 419.7149963378906,300 419.7149963378906,300 C419.7149963378906,300 538.7169799804688,300 538.7169799804688,300 C538.7169799804688,300 539.4299926757812,300 539.4299926757812,300 C539.4299926757812,300 539.4299926757812,178.85899353027344 539.4299926757812,178.85899353027344 C539.4299926757812,178.85899353027344 538.7169799804688,178.85899353027344 538.7169799804688,178.85899353027344 C538.7169799804688,178.85899353027344 419.7149963378906,178.85899353027344 419.7149963378906,178.85899353027344 C419.7149963378906,178.85899353027344 419.7149963378906,59.858001708984375 419.7149963378906,59.858001708984375 C419.7149963378906,59.858001708984375 419.7149963378906,59.14500045776367 419.7149963378906,59.14500045776367 C419.7149963378906,59.14500045776367 419.00201416015625,59.14500045776367 419.00201416015625,59.14500045776367 C419.00201416015625,59.14500045776367 300,59.14500045776367 300,59.14500045776367 C300,59.14500045776367 300,-59.14500045776367 300,-59.14500045776367 C300,-59.14500045776367 300,-59.856998443603516 300,-59.856998443603516 C300,-59.856998443603516 300,-60.56999969482422 300,-60.56999969482422 C300,-60.56999969482422 300,-179.57200622558594 300,-179.57200622558594 C300,-179.57200622558594 300,-180.28500366210938 300,-180.28500366210938 C300,-180.28500366210938 299.2869873046875,-180.28500366210938 299.2869873046875,-180.28500366210938 C299.2869873046875,-180.28500366210938 180.28599548339844,-180.28500366210938 180.28599548339844,-180.28500366210938 C180.28599548339844,-180.28500366210938 180.28599548339844,-299.2869873046875 180.28599548339844,-299.2869873046875 C180.28599548339844,-299.2869873046875 180.28599548339844,-300 180.28599548339844,-300 C180.28599548339844,-300 -300,-300 -300,-300z"></path></g></g><g clip-path="url(#__lottie_element_209)" transform="matrix(1,0,0,1,304.3079833984375,-19.990005493164062)" opacity="1" style="display: block;"><g clip-path="url(#__lottie_element_464)" transform="matrix(1,0,0,1,0,0)" opacity="1" style="display: block;"><g transform="matrix(1,0,0,1,297.7070007324219,231.333984375)" opacity="1" style="display: none;"><g opacity="1" transform="matrix(1,0,0,1,0,0)"><path stroke-linecap="butt" stroke-linejoin="miter" fill-opacity="0" stroke-miterlimit="10" stroke="#0FAE5A" stroke-opacity="1" stroke-width="1" d=" M0.5,132.177001953125 C0.5,132.177001953125 13.064000129699707,132.177001953125 13.064000129699707,132.177001953125"></path></g></g><g transform="matrix(1,0,0,1,297.7070007324219,231.33299255371094)" opacity="1" style="display: block;"><g opacity="1" transform="matrix(1,0,0,1,0,0)"><path stroke-linecap="butt" stroke-linejoin="miter" fill-opacity="0" stroke-miterlimit="10" stroke="#0FAE5A" stroke-opacity="1" stroke-width="1" d=" M0.5,125.24800109863281 C0.5,125.24800109863281 13.064000129699707,125.24800109863281 13.064000129699707,125.24800109863281"></path></g></g><g transform="matrix(1,0,0,1,297.7070007324219,231.33299255371094)" opacity="1" style="display: block;"><g opacity="1" transform="matrix(1,0,0,1,0,0)"><path stroke-linecap="butt" stroke-linejoin="miter" fill-opacity="0" stroke-miterlimit="10" stroke="#0FAE5A" stroke-opacity="1" stroke-width="1" d=" M0.5,118.31700134277344 C0.5,118.31700134277344 13.064000129699707,118.31700134277344 13.064000129699707,118.31700134277344"></path></g></g><g transform="matrix(1,0,0,1,297.7070007324219,231.33399963378906)" opacity="1" style="display: block;"><g opacity="1" transform="matrix(1,0,0,1,0,0)"><path stroke-linecap="butt" stroke-linejoin="miter" fill-opacity="0" stroke-miterlimit="10" stroke="#0FAE5A" stroke-opacity="1" stroke-width="1" d=" M0.5,111.38600158691406 C0.5,111.38600158691406 13.064000129699707,111.38600158691406 13.064000129699707,111.38600158691406"></path></g></g><g transform="matrix(1,0,0,1,297.7070007324219,231.33401489257812)" opacity="1" style="display: block;"><g opacity="1" transform="matrix(1,0,0,1,0,0)"><path stroke-linecap="butt" stroke-linejoin="miter" fill-opacity="0" stroke-miterlimit="10" stroke="#0FAE5A" stroke-opacity="1" stroke-width="1" d=" M0.5,104.45600128173828 C0.5,104.45600128173828 13.064000129699707,104.45600128173828 13.064000129699707,104.45600128173828"></path></g></g><g transform="matrix(1,0,0,1,297.7070007324219,231.3330078125)" opacity="1" style="display: block;"><g opacity="1" transform="matrix(1,0,0,1,0,0)"><path stroke-linecap="butt" stroke-linejoin="miter" fill-opacity="0" stroke-miterlimit="10" stroke="#0FAE5A" stroke-opacity="1" stroke-width="1" d=" M0.5,97.5260009765625 C0.5,97.5260009765625 13.064000129699707,97.5260009765625 13.064000129699707,97.5260009765625"></path></g></g><g transform="matrix(1,0,0,1,297.7070007324219,231.333984375)" opacity="1" style="display: block;"><g opacity="1" transform="matrix(1,0,0,1,0,0)"><path stroke-linecap="butt" stroke-linejoin="miter" fill-opacity="0" stroke-miterlimit="10" stroke="#0FAE5A" stroke-opacity="1" stroke-width="1" d=" M0.5,90.59500122070312 C0.5,90.59500122070312 13.064000129699707,90.59500122070312 13.064000129699707,90.59500122070312"></path></g></g><g transform="matrix(1,0,0,1,297.7070007324219,231.33297729492188)" opacity="1" style="display: block;"><g opacity="1" transform="matrix(1,0,0,1,0,0)"><path stroke-linecap="butt" stroke-linejoin="miter" fill-opacity="0" stroke-miterlimit="10" stroke="#0FAE5A" stroke-opacity="1" stroke-width="1" d=" M0.5,83.66500091552734 C0.5,83.66500091552734 13.064000129699707,83.66500091552734 13.064000129699707,83.66500091552734"></path></g></g><g transform="matrix(1,0,0,1,297.7070007324219,231.33299255371094)" opacity="1" style="display: block;"><g opacity="1" transform="matrix(1,0,0,1,0,0)"><path stroke-linecap="butt" stroke-linejoin="miter" fill-opacity="0" stroke-miterlimit="10" stroke="#0FAE5A" stroke-opacity="1" stroke-width="1" d=" M0.5,76.73500061035156 C0.5,76.73500061035156 13.064000129699707,76.73500061035156 13.064000129699707,76.73500061035156"></path></g></g><g transform="matrix(1,0,0,1,297.7070007324219,231.33399963378906)" opacity="1" style="display: block;"><g opacity="1" transform="matrix(1,0,0,1,0,0)"><path stroke-linecap="butt" stroke-linejoin="miter" fill-opacity="0" stroke-miterlimit="10" stroke="#0FAE5A" stroke-opacity="1" stroke-width="1" d=" M0.5,69.80400085449219 C0.5,69.80400085449219 13.064000129699707,69.80400085449219 13.064000129699707,69.80400085449219"></path></g></g><g transform="matrix(1,0,0,1,297.7070007324219,231.3330078125)" opacity="1" style="display: block;"><g opacity="1" transform="matrix(1,0,0,1,0,0)"><path stroke-linecap="butt" stroke-linejoin="miter" fill-opacity="0" stroke-miterlimit="10" stroke="#0FAE5A" stroke-opacity="1" stroke-width="1" d=" M0.5,62.874000549316406 C0.5,62.874000549316406 13.064000129699707,62.874000549316406 13.064000129699707,62.874000549316406"></path></g></g><g transform="matrix(1,0,0,1,297.7070007324219,231.3330078125)" opacity="1" style="display: block;"><g opacity="1" transform="matrix(1,0,0,1,0,0)"><path stroke-linecap="butt" stroke-linejoin="miter" fill-opacity="0" stroke-miterlimit="10" stroke="#0FAE5A" stroke-opacity="1" stroke-width="1" d=" M0.5,55.94300079345703 C0.5,55.94300079345703 13.064000129699707,55.94300079345703 13.064000129699707,55.94300079345703"></path></g></g><g transform="matrix(1,0,0,1,297.7070007324219,231.333984375)" opacity="1" style="display: block;"><g opacity="1" transform="matrix(1,0,0,1,0,0)"><path stroke-linecap="butt" stroke-linejoin="miter" fill-opacity="0" stroke-miterlimit="10" stroke="#0FAE5A" stroke-opacity="1" stroke-width="1" d=" M0.5,49.01300048828125 C0.5,49.01300048828125 13.064000129699707,49.01300048828125 13.064000129699707,49.01300048828125"></path></g></g><g transform="matrix(1,0,0,1,297.7070007324219,231.33297729492188)" opacity="1" style="display: block;"><g opacity="1" transform="matrix(1,0,0,1,0,0)"><path stroke-linecap="butt" stroke-linejoin="miter" fill-opacity="0" stroke-miterlimit="10" stroke="#0FAE5A" stroke-opacity="1" stroke-width="1" d=" M0.5,42.08300018310547 C0.5,42.08300018310547 13.064000129699707,42.08300018310547 13.064000129699707,42.08300018310547"></path></g></g><g transform="matrix(1,0,0,1,297.7070007324219,231.33297729492188)" opacity="1" style="display: block;"><g opacity="1" transform="matrix(1,0,0,1,0,0)"><path stroke-linecap="butt" stroke-linejoin="miter" fill-opacity="0" stroke-miterlimit="10" stroke="#0FAE5A" stroke-opacity="1" stroke-width="1" d=" M0.5,35.152000427246094 C0.5,35.152000427246094 13.064000129699707,35.152000427246094 13.064000129699707,35.152000427246094"></path></g></g><g transform="matrix(1,0,0,1,297.7070007324219,231.33299255371094)" opacity="1" style="display: block;"><g opacity="1" transform="matrix(1,0,0,1,0,0)"><path stroke-linecap="butt" stroke-linejoin="miter" fill-opacity="0" stroke-miterlimit="10" stroke="#0FAE5A" stroke-opacity="1" stroke-width="1" d=" M0.5,28.222000122070312 C0.5,28.222000122070312 13.064000129699707,28.222000122070312 13.064000129699707,28.222000122070312"></path></g></g><g transform="matrix(1,0,0,1,297.7070007324219,231.3330078125)" opacity="1" style="display: block;"><g opacity="1" transform="matrix(1,0,0,1,0,0)"><path stroke-linecap="butt" stroke-linejoin="miter" fill-opacity="0" stroke-miterlimit="10" stroke="#0FAE5A" stroke-opacity="1" stroke-width="1" d=" M0.5,21.29199981689453 C0.5,21.29199981689453 13.064000129699707,21.29199981689453 13.064000129699707,21.29199981689453"></path></g></g><g transform="matrix(1,0,0,1,297.7070007324219,231.3330078125)" opacity="1" style="display: block;"><g opacity="1" transform="matrix(1,0,0,1,0,0)"><path stroke-linecap="butt" stroke-linejoin="miter" fill-opacity="0" stroke-miterlimit="10" stroke="#0FAE5A" stroke-opacity="1" stroke-width="1" d=" M0.5,14.361000061035156 C0.5,14.361000061035156 13.064000129699707,14.361000061035156 13.064000129699707,14.361000061035156"></path></g></g><g transform="matrix(1,0,0,1,297.7070007324219,231.3330078125)" opacity="1" style="display: block;"><g opacity="1" transform="matrix(1,0,0,1,0,0)"><path stroke-linecap="butt" stroke-linejoin="miter" fill-opacity="0" stroke-miterlimit="10" stroke="#0FAE5A" stroke-opacity="1" stroke-width="1" d=" M0.5,7.431000232696533 C0.5,7.431000232696533 13.064000129699707,7.431000232696533 13.064000129699707,7.431000232696533"></path></g></g><g transform="matrix(1,0,0,1,297.7070007324219,231.33399963378906)" opacity="1" style="display: block;"><g opacity="1" transform="matrix(1,0,0,1,0,0)"><path stroke-linecap="butt" stroke-linejoin="miter" fill-opacity="0" stroke-miterlimit="10" stroke="#0FAE5A" stroke-opacity="1" stroke-width="1" d=" M0.5,0.5 C0.5,0.5 13.064000129699707,0.5 13.064000129699707,0.5"></path></g></g></g><g transform="matrix(1,0,0,1,297.7070007324219,231.333984375)" opacity="1" style="display: block;"><g opacity="1" transform="matrix(1,0,0,1,0,0)"><path stroke-linecap="butt" stroke-linejoin="miter" fill-opacity="0" stroke-miterlimit="10" stroke="#0FAE5A" stroke-opacity="1" stroke-width="1" d=" M0.5,132.177001953125 C0.5,132.177001953125 13.064000129699707,132.177001953125 13.064000129699707,132.177001953125"></path></g></g><g clip-path="url(#__lottie_element_397)" transform="matrix(1,0,0,1,0,0)" opacity="1" style="display: block;"><g transform="matrix(1,0,0,1,129.06298828125,37.62300109863281)" opacity="1" style="display: block;"><g opacity="1" transform="matrix(1,0,0,1,0,0)"><path stroke-linecap="butt" stroke-linejoin="miter" fill-opacity="0" stroke-miterlimit="10" stroke="#0FAE5A" stroke-opacity="1" stroke-width="1" d=" M0.5,132.17799377441406 C0.5,132.17799377441406 13.062999725341797,132.17799377441406 13.062999725341797,132.17799377441406"></path></g></g><g transform="matrix(1,0,0,1,129.06298828125,37.62300109863281)" opacity="1" style="display: block;"><g opacity="1" transform="matrix(1,0,0,1,0,0)"><path stroke-linecap="butt" stroke-linejoin="miter" fill-opacity="0" stroke-miterlimit="10" stroke="#0FAE5A" stroke-opacity="1" stroke-width="1" d=" M0.5,125.24800109863281 C0.5,125.24800109863281 13.062999725341797,125.24800109863281 13.062999725341797,125.24800109863281"></path></g></g><g transform="matrix(1,0,0,1,129.06298828125,37.62300109863281)" opacity="1" style="display: block;"><g opacity="1" transform="matrix(1,0,0,1,0,0)"><path stroke-linecap="butt" stroke-linejoin="miter" fill-opacity="0" stroke-miterlimit="10" stroke="#0FAE5A" stroke-opacity="1" stroke-width="1" d=" M0.5,118.31700134277344 C0.5,118.31700134277344 13.062999725341797,118.31700134277344 13.062999725341797,118.31700134277344"></path></g></g><g transform="matrix(1,0,0,1,129.06298828125,37.62299346923828)" opacity="1" style="display: block;"><g opacity="1" transform="matrix(1,0,0,1,0,0)"><path stroke-linecap="butt" stroke-linejoin="miter" fill-opacity="0" stroke-miterlimit="10" stroke="#0FAE5A" stroke-opacity="1" stroke-width="1" d=" M0.5,111.38700103759766 C0.5,111.38700103759766 13.062999725341797,111.38700103759766 13.062999725341797,111.38700103759766"></path></g></g><g transform="matrix(1,0,0,1,129.06298828125,37.624000549316406)" opacity="1" style="display: block;"><g opacity="1" transform="matrix(1,0,0,1,0,0)"><path stroke-linecap="butt" stroke-linejoin="miter" fill-opacity="0" stroke-miterlimit="10" stroke="#0FAE5A" stroke-opacity="1" stroke-width="1" d=" M0.5,104.45600128173828 C0.5,104.45600128173828 13.062999725341797,104.45600128173828 13.062999725341797,104.45600128173828"></path></g></g><g transform="matrix(1,0,0,1,129.06298828125,37.62300109863281)" opacity="1" style="display: block;"><g opacity="1" transform="matrix(1,0,0,1,0,0)"><path stroke-linecap="butt" stroke-linejoin="miter" fill-opacity="0" stroke-miterlimit="10" stroke="#0FAE5A" stroke-opacity="1" stroke-width="1" d=" M0.5,97.5260009765625 C0.5,97.5260009765625 13.062999725341797,97.5260009765625 13.062999725341797,97.5260009765625"></path></g></g><g transform="matrix(1,0,0,1,129.06298828125,37.623992919921875)" opacity="1" style="display: block;"><g opacity="1" transform="matrix(1,0,0,1,0,0)"><path stroke-linecap="butt" stroke-linejoin="miter" fill-opacity="0" stroke-miterlimit="10" stroke="#0FAE5A" stroke-opacity="1" stroke-width="1" d=" M0.5,90.59500122070312 C0.5,90.59500122070312 13.062999725341797,90.59500122070312 13.062999725341797,90.59500122070312"></path></g></g><g transform="matrix(1,0,0,1,129.06298828125,37.624000549316406)" opacity="1" style="display: block;"><g opacity="1" transform="matrix(1,0,0,1,0,0)"><path stroke-linecap="butt" stroke-linejoin="miter" fill-opacity="0" stroke-miterlimit="10" stroke="#0FAE5A" stroke-opacity="1" stroke-width="1" d=" M0.5,83.66500091552734 C0.5,83.66500091552734 13.062999725341797,83.66500091552734 13.062999725341797,83.66500091552734"></path></g></g><g transform="matrix(1,0,0,1,129.06298828125,37.624000549316406)" opacity="1" style="display: block;"><g opacity="1" transform="matrix(1,0,0,1,0,0)"><path stroke-linecap="butt" stroke-linejoin="miter" fill-opacity="0" stroke-miterlimit="10" stroke="#0FAE5A" stroke-opacity="1" stroke-width="1" d=" M0.5,76.73400115966797 C0.5,76.73400115966797 13.062999725341797,76.73400115966797 13.062999725341797,76.73400115966797"></path></g></g><g transform="matrix(1,0,0,1,129.06298828125,37.624000549316406)" opacity="1" style="display: block;"><g opacity="1" transform="matrix(1,0,0,1,0,0)"><path stroke-linecap="butt" stroke-linejoin="miter" fill-opacity="0" stroke-miterlimit="10" stroke="#0FAE5A" stroke-opacity="1" stroke-width="1" d=" M0.5,69.80400085449219 C0.5,69.80400085449219 13.062999725341797,69.80400085449219 13.062999725341797,69.80400085449219"></path></g></g><g transform="matrix(1,0,0,1,129.06298828125,37.62300109863281)" opacity="1" style="display: block;"><g opacity="1" transform="matrix(1,0,0,1,0,0)"><path stroke-linecap="butt" stroke-linejoin="miter" fill-opacity="0" stroke-miterlimit="10" stroke="#0FAE5A" stroke-opacity="1" stroke-width="1" d=" M0.5,62.874000549316406 C0.5,62.874000549316406 13.062999725341797,62.874000549316406 13.062999725341797,62.874000549316406"></path></g></g><g transform="matrix(1,0,0,1,129.06298828125,37.624000549316406)" opacity="1" style="display: block;"><g opacity="1" transform="matrix(1,0,0,1,0,0)"><path stroke-linecap="butt" stroke-linejoin="miter" fill-opacity="0" stroke-miterlimit="10" stroke="#0FAE5A" stroke-opacity="1" stroke-width="1" d=" M0.5,55.94300079345703 C0.5,55.94300079345703 13.062999725341797,55.94300079345703 13.062999725341797,55.94300079345703"></path></g></g><g transform="matrix(1,0,0,1,129.06298828125,37.62300109863281)" opacity="1" style="display: block;"><g opacity="1" transform="matrix(1,0,0,1,0,0)"><path stroke-linecap="butt" stroke-linejoin="miter" fill-opacity="0" stroke-miterlimit="10" stroke="#0FAE5A" stroke-opacity="1" stroke-width="1" d=" M0.5,49.01300048828125 C0.5,49.01300048828125 13.062999725341797,49.01300048828125 13.062999725341797,49.01300048828125"></path></g></g><g transform="matrix(1,0,0,1,129.06298828125,37.62300109863281)" opacity="1" style="display: block;"><g opacity="1" transform="matrix(1,0,0,1,0,0)"><path stroke-linecap="butt" stroke-linejoin="miter" fill-opacity="0" stroke-miterlimit="10" stroke="#0FAE5A" stroke-opacity="1" stroke-width="1" d=" M0.5,42.08300018310547 C0.5,42.08300018310547 13.062999725341797,42.08300018310547 13.062999725341797,42.08300018310547"></path></g></g><g transform="matrix(1,0,0,1,129.06298828125,37.624000549316406)" opacity="1" style="display: block;"><g opacity="1" transform="matrix(1,0,0,1,0,0)"><path stroke-linecap="butt" stroke-linejoin="miter" fill-opacity="0" stroke-miterlimit="10" stroke="#0FAE5A" stroke-opacity="1" stroke-width="1" d=" M0.5,35.152000427246094 C0.5,35.152000427246094 13.062999725341797,35.152000427246094 13.062999725341797,35.152000427246094"></path></g></g><g transform="matrix(1,0,0,1,129.06298828125,37.62300109863281)" opacity="1" style="display: block;"><g opacity="1" transform="matrix(1,0,0,1,0,0)"><path stroke-linecap="butt" stroke-linejoin="miter" fill-opacity="0" stroke-miterlimit="10" stroke="#0FAE5A" stroke-opacity="1" stroke-width="1" d=" M0.5,28.222000122070312 C0.5,28.222000122070312 13.062999725341797,28.222000122070312 13.062999725341797,28.222000122070312"></path></g></g><g transform="matrix(1,0,0,1,129.06298828125,37.62300109863281)" opacity="1" style="display: block;"><g opacity="1" transform="matrix(1,0,0,1,0,0)"><path stroke-linecap="butt" stroke-linejoin="miter" fill-opacity="0" stroke-miterlimit="10" stroke="#0FAE5A" stroke-opacity="1" stroke-width="1" d=" M0.5,21.29199981689453 C0.5,21.29199981689453 13.062999725341797,21.29199981689453 13.062999725341797,21.29199981689453"></path></g></g><g transform="matrix(1,0,0,1,129.06298828125,37.62300109863281)" opacity="1" style="display: block;"><g opacity="1" transform="matrix(1,0,0,1,0,0)"><path stroke-linecap="butt" stroke-linejoin="miter" fill-opacity="0" stroke-miterlimit="10" stroke="#0FAE5A" stroke-opacity="1" stroke-width="1" d=" M0.5,14.361000061035156 C0.5,14.361000061035156 13.062999725341797,14.361000061035156 13.062999725341797,14.361000061035156"></path></g></g><g transform="matrix(1,0,0,1,129.06298828125,37.62300109863281)" opacity="1" style="display: block;"><g opacity="1" transform="matrix(1,0,0,1,0,0)"><path stroke-linecap="butt" stroke-linejoin="miter" fill-opacity="0" stroke-miterlimit="10" stroke="#0FAE5A" stroke-opacity="1" stroke-width="1" d=" M0.5,7.431000232696533 C0.5,7.431000232696533 13.062999725341797,7.431000232696533 13.062999725341797,7.431000232696533"></path></g></g><g transform="matrix(1,0,0,1,129.06298828125,37.624000549316406)" opacity="1" style="display: block;"><g opacity="1" transform="matrix(1,0,0,1,0,0)"><path stroke-linecap="butt" stroke-linejoin="miter" fill-opacity="0" stroke-miterlimit="10" stroke="#0FAE5A" stroke-opacity="1" stroke-width="1" d=" M0.5,0.5 C0.5,0.5 13.062999725341797,0.5 13.062999725341797,0.5"></path></g></g></g><g clip-path="url(#__lottie_element_348)" transform="matrix(1,0,0,1,0,0)" opacity="1" style="display: block;"><g clip-path="url(#__lottie_element_349)"><g transform="matrix(1,0,0,1,439.0220031738281,133.52398681640625)" opacity="1" style="display: block;"><g opacity="1" transform="matrix(1,0,0,1,0,0)"><path stroke-linecap="butt" stroke-linejoin="miter" fill-opacity="0" stroke-miterlimit="10" stroke="#0FAE5A" stroke-opacity="1" stroke-width="1" d=" M0.5,101.38500213623047 C0.5,101.38500213623047 0.5,0.5 0.5,0.5"></path></g></g><g transform="matrix(1,0,0,1,439.02301025390625,133.52500915527344)" opacity="1" style="display: block;"><g opacity="1" transform="matrix(1,0,0,1,0,0)"><path stroke-linecap="butt" stroke-linejoin="miter" fill-opacity="0" stroke-miterlimit="10" stroke="#0FAE5A" stroke-opacity="1" stroke-width="1" d=" M13.064000129699707,101.572998046875 C13.064000129699707,101.572998046875 13.064000129699707,0.5 13.064000129699707,0.5"></path></g></g><g transform="matrix(1,0,0,1,439.02197265625,133.52398681640625)" opacity="1" style="display: block;"><g opacity="1" transform="matrix(1,0,0,1,0,0)"><path stroke-linecap="butt" stroke-linejoin="miter" fill-opacity="0" stroke-miterlimit="10" stroke="#0FAE5A" stroke-opacity="1" stroke-width="1" d=" M0.5,93.48600006103516 C0.5,93.48600006103516 13.064000129699707,93.48600006103516 13.064000129699707,93.48600006103516"></path></g></g><g transform="matrix(1,0,0,1,439.02197265625,133.52499389648438)" opacity="1" style="display: block;"><g opacity="1" transform="matrix(1,0,0,1,0,0)"><path stroke-linecap="butt" stroke-linejoin="miter" fill-opacity="0" stroke-miterlimit="10" stroke="#0FAE5A" stroke-opacity="1" stroke-width="1" d=" M0.5,86.55500030517578 C0.5,86.55500030517578 13.064000129699707,86.55500030517578 13.064000129699707,86.55500030517578"></path></g></g><g transform="matrix(1,0,0,1,439.02197265625,133.5240020751953)" opacity="1" style="display: block;"><g opacity="1" transform="matrix(1,0,0,1,0,0)"><path stroke-linecap="butt" stroke-linejoin="miter" fill-opacity="0" stroke-miterlimit="10" stroke="#0FAE5A" stroke-opacity="1" stroke-width="1" d=" M0.5,79.625 C0.5,79.625 13.064000129699707,79.625 13.064000129699707,79.625"></path></g></g><g transform="matrix(1,0,0,1,439.02197265625,133.52398681640625)" opacity="1" style="display: block;"><g opacity="1" transform="matrix(1,0,0,1,0,0)"><path stroke-linecap="butt" stroke-linejoin="miter" fill-opacity="0" stroke-miterlimit="10" stroke="#0FAE5A" stroke-opacity="1" stroke-width="1" d=" M0.5,72.69499969482422 C0.5,72.69499969482422 13.064000129699707,72.69499969482422 13.064000129699707,72.69499969482422"></path></g></g><g transform="matrix(1,0,0,1,439.02197265625,133.52499389648438)" opacity="1" style="display: block;"><g opacity="1" transform="matrix(1,0,0,1,0,0)"><path stroke-linecap="butt" stroke-linejoin="miter" fill-opacity="0" stroke-miterlimit="10" stroke="#0FAE5A" stroke-opacity="1" stroke-width="1" d=" M0.5,65.76399993896484 C0.5,65.76399993896484 13.064000129699707,65.76399993896484 13.064000129699707,65.76399993896484"></path></g></g><g transform="matrix(1,0,0,1,439.02197265625,133.5240020751953)" opacity="1" style="display: block;"><g opacity="1" transform="matrix(1,0,0,1,0,0)"><path stroke-linecap="butt" stroke-linejoin="miter" fill-opacity="0" stroke-miterlimit="10" stroke="#0FAE5A" stroke-opacity="1" stroke-width="1" d=" M0.5,58.83399963378906 C0.5,58.83399963378906 13.064000129699707,58.83399963378906 13.064000129699707,58.83399963378906"></path></g></g><g transform="matrix(1,0,0,1,439.02197265625,133.52398681640625)" opacity="1" style="display: block;"><g opacity="1" transform="matrix(1,0,0,1,0,0)"><path stroke-linecap="butt" stroke-linejoin="miter" fill-opacity="0" stroke-miterlimit="10" stroke="#0FAE5A" stroke-opacity="1" stroke-width="1" d=" M0.5,51.90399932861328 C0.5,51.90399932861328 13.064000129699707,51.90399932861328 13.064000129699707,51.90399932861328"></path></g></g><g transform="matrix(1,0,0,1,439.02197265625,133.52499389648438)" opacity="1" style="display: block;"><g opacity="1" transform="matrix(1,0,0,1,0,0)"><path stroke-linecap="butt" stroke-linejoin="miter" fill-opacity="0" stroke-miterlimit="10" stroke="#0FAE5A" stroke-opacity="1" stroke-width="1" d=" M0.5,44.972999572753906 C0.5,44.972999572753906 13.064000129699707,44.972999572753906 13.064000129699707,44.972999572753906"></path></g></g><g transform="matrix(1,0,0,1,439.02197265625,133.5240020751953)" opacity="1" style="display: block;"><g opacity="1" transform="matrix(1,0,0,1,0,0)"><path stroke-linecap="butt" stroke-linejoin="miter" fill-opacity="0" stroke-miterlimit="10" stroke="#0FAE5A" stroke-opacity="1" stroke-width="1" d=" M0.5,38.042999267578125 C0.5,38.042999267578125 13.064000129699707,38.042999267578125 13.064000129699707,38.042999267578125"></path></g></g><g transform="matrix(1,0,0,1,439.02197265625,133.52499389648438)" opacity="1" style="display: block;"><g opacity="1" transform="matrix(1,0,0,1,0,0)"><path stroke-linecap="butt" stroke-linejoin="miter" fill-opacity="0" stroke-miterlimit="10" stroke="#0FAE5A" stroke-opacity="1" stroke-width="1" d=" M0.5,31.11199951171875 C0.5,31.11199951171875 13.064000129699707,31.11199951171875 13.064000129699707,31.11199951171875"></path></g></g><g transform="matrix(1,0,0,1,439.02197265625,133.52398681640625)" opacity="1" style="display: block;"><g opacity="1" transform="matrix(1,0,0,1,0,0)"><path stroke-linecap="butt" stroke-linejoin="miter" fill-opacity="0" stroke-miterlimit="10" stroke="#0FAE5A" stroke-opacity="1" stroke-width="1" d=" M0.5,24.18199920654297 C0.5,24.18199920654297 13.064000129699707,24.18199920654297 13.064000129699707,24.18199920654297"></path></g></g><g transform="matrix(1,0,0,1,439.02197265625,133.5240020751953)" opacity="1" style="display: block;"><g opacity="1" transform="matrix(1,0,0,1,0,0)"><path stroke-linecap="butt" stroke-linejoin="miter" fill-opacity="0" stroke-miterlimit="10" stroke="#0FAE5A" stroke-opacity="1" stroke-width="1" d=" M0.5,17.25200080871582 C0.5,17.25200080871582 13.064000129699707,17.25200080871582 13.064000129699707,17.25200080871582"></path></g></g><g transform="matrix(1,0,0,1,439.02197265625,133.5240020751953)" opacity="1" style="display: block;"><g opacity="1" transform="matrix(1,0,0,1,0,0)"><path stroke-linecap="butt" stroke-linejoin="miter" fill-opacity="0" stroke-miterlimit="10" stroke="#0FAE5A" stroke-opacity="1" stroke-width="1" d=" M0.5,10.321000099182129 C0.5,10.321000099182129 13.064000129699707,10.321000099182129 13.064000129699707,10.321000099182129"></path></g></g></g></g><g transform="matrix(1,0,0,1,0.03900146484375,0.4160003662109375)" opacity="1" style="display: block;"><g opacity="1" transform="matrix(1,0,0,1,157.3979949951172,198.14599609375)"><path fill="#456B8B" fill-opacity="1" d=" M5.10099983215332,0 C5.10099983215332,2.816999912261963 2.815999984741211,5.099999904632568 -0.0010000000474974513,5.099999904632568 C-2.816999912261963,5.099999904632568 -5.10099983215332,2.816999912261963 -5.10099983215332,0 C-5.10099983215332,-2.816999912261963 -2.816999912261963,-5.099999904632568 -0.0010000000474974513,-5.099999904632568 C2.815999984741211,-5.099999904632568 5.10099983215332,-2.816999912261963 5.10099983215332,0z"></path></g></g><g transform="matrix(1,0,0,1,402.66900634765625,244.64801025390625)" opacity="1" style="display: block;"><g opacity="1" transform="matrix(1,0,0,1,6.25,6.25)"><path fill="#C9E9D9" fill-opacity="1" d=" M6,6 C6,6 -6,6 -6,6 C-6,6 -6,-6 -6,-6 C-6,-6 6,-6 6,-6 C6,-6 6,6 6,6z"></path></g></g><g transform="matrix(1,0,0,1,414.66900634765625,233.0330047607422)" opacity="1" style="display: block;"><g opacity="1" transform="matrix(1,0,0,1,6.25,12.057999610900879)"><path fill="#C9E9D9" fill-opacity="1" d=" M6,11.807999610900879 C6,11.807999610900879 -6,11.807999610900879 -6,11.807999610900879 C-6,11.807999610900879 -6,-11.807999610900879 -6,-11.807999610900879 C-6,-11.807999610900879 6,-11.807999610900879 6,-11.807999610900879 C6,-11.807999610900879 6,11.807999610900879 6,11.807999610900879z"></path></g></g><g transform="matrix(1,0,0,1,426.66900634765625,222.6400146484375)" opacity="1" style="display: block;"><g opacity="1" transform="matrix(1,0,0,1,6.25,17.253999710083008)"><path fill="#C9E9D9" fill-opacity="1" d=" M6,17.003999710083008 C6,17.003999710083008 -6,17.003999710083008 -6,17.003999710083008 C-6,17.003999710083008 -6,-17.003999710083008 -6,-17.003999710083008 C-6,-17.003999710083008 6,-17.003999710083008 6,-17.003999710083008 C6,-17.003999710083008 6,17.003999710083008 6,17.003999710083008z"></path></g></g><g transform="matrix(1,0,0,1,237.95700073242188,379.75)" opacity="1" style="display: block;"><g opacity="1" transform="matrix(1,0,0,1,60.25,60.25)"><path fill="#0FAE5A" fill-opacity="1" d=" M-60,60 C-60,60 60,60 60,60 C60,60 60,-60 60,-60 C60,-60 -60,-60 -60,-60 C-60,-60 -60,60 -60,60z"></path></g></g><g transform="matrix(1,0,0,1,117.95700073242188,439.75)" opacity="1" style="display: block;"><g opacity="1" transform="matrix(1,0,0,1,60.25,30.25)"><path fill="#004149" fill-opacity="1" d=" M-60,30 C-60,30 60,30 60,30 C60,30 60,-30 60,-30 C60,-30 -60,-30 -60,-30 C-60,-30 -60,30 -60,30z"></path></g></g><g transform="matrix(1,0,0,1,357.95599365234375,443.77801513671875)" opacity="1" style="display: block;"><g opacity="1" transform="matrix(1,0,0,1,28.235000610351562,28.236000061035156)"><path fill="#008C50" fill-opacity="1" d=" M-27.985000610351562,27.986000061035156 C-27.985000610351562,27.986000061035156 27.985000610351562,27.986000061035156 27.985000610351562,27.986000061035156 C27.985000610351562,27.986000061035156 -27.985000610351562,-27.986000061035156 -27.985000610351562,-27.986000061035156 C-27.985000610351562,-27.986000061035156 -27.985000610351562,27.986000061035156 -27.985000610351562,27.986000061035156z"></path></g></g><g transform="matrix(1,0,0,1,128.20700073242188,202.54998779296875)" opacity="1" style="display: block;"><g opacity="1" transform="matrix(1,0,0,1,73.84700012207031,89.9749984741211)"><path stroke-linecap="butt" stroke-linejoin="miter" fill-opacity="0" stroke-miterlimit="10" stroke="#456B8B" stroke-opacity="1" stroke-width="1" d=" M71.34700012207031,87.4749984741211 C71.34700012207031,87.4749984741211 71.34700012207031,29.35099983215332 71.34700012207031,29.35099983215332 C71.34700012207031,21.4689998626709 64.95700073242188,15.079000473022461 57.07500076293945,15.079000473022461 C57.07500076293945,15.079000473022461 -1.1039999723434448,15.079000473022461 -1.1039999723434448,15.079000473022461 C-8.986000061035156,15.079000473022461 -15.376999855041504,8.689000129699707 -15.376999855041504,0.8069999814033508 C-15.376999855041504,0.8069999814033508 -15.376999855041504,-74.37100219726562 -15.376999855041504,-74.37100219726562 C-15.376999855041504,-81.60800170898438 -21.243000030517578,-87.4749984741211 -28.479000091552734,-87.4749984741211 C-28.479000091552734,-87.4749984741211 -71.34700012207031,-87.4749984741211 -71.34700012207031,-87.4749984741211"></path></g></g><g transform="matrix(1,0,0,1,185.0479736328125,-2.4999847412109375)" opacity="1" style="display: block;"><g opacity="1" transform="matrix(1,0,0,1,76.09100341796875,93.8030014038086)"><path stroke-linecap="butt" stroke-linejoin="miter" fill-opacity="0" stroke-miterlimit="10" stroke="#456B8B" stroke-opacity="1" stroke-width="1" d=" M73.59100341796875,91.3030014038086 C73.59100341796875,91.3030014038086 73.59100341796875,74.4800033569336 73.59100341796875,74.4800033569336 C73.59100341796875,66.1259994506836 66.81999969482422,59.354000091552734 58.46500015258789,59.354000091552734 C58.46500015258789,59.354000091552734 40.893001556396484,59.354000091552734 40.893001556396484,59.354000091552734 C33.65599822998047,59.354000091552734 27.790000915527344,53.487998962402344 27.790000915527344,46.250999450683594 C27.790000915527344,46.250999450683594 27.790000915527344,-22.323999404907227 27.790000915527344,-22.323999404907227 C27.790000915527344,-29.559999465942383 21.92300033569336,-35.426998138427734 14.687000274658203,-35.426998138427734 C14.687000274658203,-35.426998138427734 -61.53200149536133,-35.426998138427734 -61.53200149536133,-35.426998138427734 C-68.19200134277344,-35.426998138427734 -73.59100341796875,-40.82600021362305 -73.59100341796875,-47.486000061035156 C-73.59100341796875,-47.486000061035156 -73.59100341796875,-91.3030014038086 -73.59100341796875,-91.3030014038086"></path></g></g><g transform="matrix(1,0,0,1,332.2309875488281,180.12501525878906)" opacity="1" style="display: block;"><g opacity="1" transform="matrix(1,0,0,1,87.16400146484375,126.86799621582031)"><path stroke-linecap="butt" stroke-linejoin="miter" fill-opacity="0" stroke-miterlimit="10" stroke="#0FAE5A" stroke-opacity="1" stroke-width="1" d=" M84.66400146484375,-124.36799621582031 C84.66400146484375,-124.36799621582031 84.66400146484375,-62.694000244140625 84.66400146484375,-62.694000244140625 C84.66400146484375,-55.45800018310547 78.7979965209961,-49.590999603271484 71.55999755859375,-49.590999603271484 C71.55999755859375,-49.590999603271484 -71.56099700927734,-49.590999603271484 -71.56099700927734,-49.590999603271484 C-78.7979965209961,-49.590999603271484 -84.66400146484375,-43.724998474121094 -84.66400146484375,-36.48899841308594 C-84.66400146484375,-36.48899841308594 -84.66400146484375,124.36799621582031 -84.66400146484375,124.36799621582031"></path></g></g><g transform="matrix(1,0,0,1,332.22998046875,64.80601501464844)" opacity="1" style="display: block;"><g opacity="1" transform="matrix(1,0,0,1,30.165000915527344,104.99400329589844)"><path stroke-linecap="butt" stroke-linejoin="miter" fill-opacity="0" stroke-miterlimit="10" stroke="#008C50" stroke-opacity="1" stroke-width="1" d=" M-27.665000915527344,102.49400329589844 C-27.665000915527344,102.49400329589844 -27.665000915527344,-30.49799919128418 -27.665000915527344,-30.49799919128418 C-27.665000915527344,-38.025001525878906 -21.562999725341797,-44.12699890136719 -14.03600025177002,-44.12699890136719 C-14.03600025177002,-44.12699890136719 14.036999702453613,-44.12699890136719 14.036999702453613,-44.12699890136719 C21.562999725341797,-44.12699890136719 27.665000915527344,-50.22800064086914 27.665000915527344,-57.755001068115234 C27.665000915527344,-57.755001068115234 27.665000915527344,-102.49400329589844 27.665000915527344,-102.49400329589844"></path></g></g><g transform="matrix(1,0,0,1,127.06200408935547,28.375)" opacity="1" style="display: block;"><g opacity="1" transform="matrix(1,0,0,1,86.8219985961914,176.96800231933594)"><path stroke-linecap="butt" stroke-linejoin="miter" fill-opacity="0" stroke-miterlimit="10" stroke="#0FAE5A" stroke-opacity="1" stroke-width="1" d=" M84.3219985961914,174.46800231933594 C84.3219985961914,174.46800231933594 84.3219985961914,12.593999862670898 84.3219985961914,12.593999862670898 C84.3219985961914,5.357999801635742 78.45500183105469,-0.5090000033378601 71.21900177001953,-0.5090000033378601 C71.21900177001953,-0.5090000033378601 -71.21900177001953,-0.5090000033378601 -71.21900177001953,-0.5090000033378601 C-78.45600128173828,-0.5090000033378601 -84.3219985961914,-6.375 -84.3219985961914,-13.612000465393066 C-84.3219985961914,-13.612000465393066 -84.3219985961914,-174.46800231933594 -84.3219985961914,-174.46800231933594"></path></g></g><g transform="matrix(1,0,0,1,139.625,28.376007080078125)" opacity="1" style="display: block;"><g opacity="1" transform="matrix(1,0,0,1,86.822998046875,177.06199645996094)"><path stroke-linecap="butt" stroke-linejoin="miter" fill-opacity="0" stroke-miterlimit="10" stroke="#0FAE5A" stroke-opacity="1" stroke-width="1" d=" M84.322998046875,174.56199645996094 C84.322998046875,174.56199645996094 84.322998046875,11.692999839782715 84.322998046875,11.692999839782715 C84.322998046875,-2.625 72.71499633789062,-14.232999801635742 58.395999908447266,-14.232999801635742 C58.395999908447266,-14.232999801635742 -71.22000122070312,-14.232999801635742 -71.22000122070312,-14.232999801635742 C-78.45600128173828,-14.232999801635742 -84.322998046875,-20.100000381469727 -84.322998046875,-27.336000442504883 C-84.322998046875,-27.336000442504883 -84.322998046875,-174.56199645996094 -84.322998046875,-174.56199645996094"></path></g></g><g transform="matrix(1,0,0,1,356.5500183105469,19.799999237060547)" opacity="1" style="display: block;"><g opacity="1" transform="matrix(1,0,0,1,33.512001037597656,33.51300048828125)"><path fill="#004149" fill-opacity="1" d=" M33.262001037597656,33.26300048828125 C33.262001037597656,33.26300048828125 -33.262001037597656,33.26300048828125 -33.262001037597656,33.26300048828125 C-33.262001037597656,33.26300048828125 -33.262001037597656,-33.26300048828125 -33.262001037597656,-33.26300048828125 C-33.262001037597656,-33.26300048828125 33.262001037597656,-33.26300048828125 33.262001037597656,-33.26300048828125 C33.262001037597656,-33.26300048828125 33.262001037597656,33.26300048828125 33.262001037597656,33.26300048828125z"></path></g></g><g transform="matrix(1,0,0,1,364.9560241699219,28.206998825073242)" opacity="1" style="display: block;"><g opacity="1" transform="matrix(1,0,0,1,25.106000900268555,25.106000900268555)"><path stroke-linecap="butt" stroke-linejoin="miter" fill-opacity="0" stroke-miterlimit="10" stroke="#C9E9D9" stroke-opacity="1" stroke-width="2px" d=" M20.10700035095215,0 C20.10700035095215,11.104000091552734 11.104000091552734,20.106000900268555 0,20.106000900268555 C-11.104999542236328,20.106000900268555 -20.10700035095215,11.104000091552734 -20.10700035095215,0 C-20.10700035095215,-11.104000091552734 -11.104999542236328,-20.106000900268555 0,-20.106000900268555 C11.104000091552734,-20.106000900268555 20.10700035095215,-11.104000091552734 20.10700035095215,0z"></path></g></g><g transform="matrix(1,0,0,1,376.156005859375,39.40599822998047)" opacity="1" style="display: block;"><g opacity="1" transform="matrix(1,0,0,1,13.906000137329102,13.906999588012695)"><path stroke-linecap="round" stroke-linejoin="round" fill-opacity="0" stroke="#0FAE5A" stroke-opacity="1" stroke-width="2px" d=" M0,-8.906999588012695 C0,-8.906999588012695 2.752000093460083,-3.0420000553131104 2.752000093460083,-3.0420000553131104 C2.752000093460083,-3.0420000553131104 8.906000137329102,-2.1019999980926514 8.906000137329102,-2.1019999980926514 C8.906000137329102,-2.1019999980926514 4.453000068664551,2.4630000591278076 4.453000068664551,2.4630000591278076 C4.453000068664551,2.4630000591278076 5.505000114440918,8.906999588012695 5.505000114440918,8.906999588012695 C5.505000114440918,8.906999588012695 0,5.864999771118164 0,5.864999771118164 C0,5.864999771118164 -5.505000114440918,8.906999588012695 -5.505000114440918,8.906999588012695 C-5.505000114440918,8.906999588012695 -4.453000068664551,2.4630000591278076 -4.453000068664551,2.4630000591278076 C-4.453000068664551,2.4630000591278076 -8.906000137329102,-2.1019999980926514 -8.906000137329102,-2.1019999980926514 C-8.906000137329102,-2.1019999980926514 -2.752000093460083,-3.0420000553131104 -2.752000093460083,-3.0420000553131104 C-2.752000093460083,-3.0420000553131104 0,-8.906999588012695 0,-8.906999588012695z"></path></g></g><g transform="matrix(1,0,0,1,56.0260009765625,89.31399536132812)" opacity="1" style="display: block;"><g opacity="1" transform="matrix(1,0,0,1,30.25,30.25)"><path fill="#456B8B" fill-opacity="1" d=" M30,30 C30,30 -30,30 -30,30 C-30,30 -30,-30 -30,-30 C3.13700008392334,-30 30,-3.13700008392334 30,30z"></path></g></g><g transform="matrix(1,0,0,1,146.1649932861328,456.5350036621094)" opacity="1" style="display: block;"><g opacity="1" transform="matrix(1,0,0,1,4.178999900817871,4.178999900817871)"><path fill="#C9E9D9" fill-opacity="1" d=" M3.930000066757202,0.0010000000474974513 C3.930000066757202,2.1710000038146973 2.1700000762939453,3.930000066757202 -0.0010000000474974513,3.930000066757202 C-2.1710000038146973,3.930000066757202 -3.930000066757202,2.1710000038146973 -3.930000066757202,0.0010000000474974513 C-3.930000066757202,-2.1700000762939453 -2.1710000038146973,-3.930000066757202 -0.0010000000474974513,-3.930000066757202 C2.1700000762939453,-3.930000066757202 3.930000066757202,-2.1700000762939453 3.930000066757202,0.0010000000474974513z"></path></g></g><g transform="matrix(1,0,0,1,161.8830108642578,456.5350036621094)" opacity="1" style="display: block;"><g opacity="1" transform="matrix(1,0,0,1,4.179999828338623,4.178999900817871)"><path fill="#0FAE5A" fill-opacity="1" d=" M3.930000066757202,0.0010000000474974513 C3.930000066757202,2.1710000038146973 2.1710000038146973,3.930000066757202 0.0010000000474974513,3.930000066757202 C-2.1700000762939453,3.930000066757202 -3.930000066757202,2.1710000038146973 -3.930000066757202,0.0010000000474974513 C-3.930000066757202,-2.1700000762939453 -2.1700000762939453,-3.930000066757202 0.0010000000474974513,-3.930000066757202 C2.1710000038146973,-3.930000066757202 3.930000066757202,-2.1700000762939453 3.930000066757202,0.0010000000474974513z"></path></g></g><g transform="matrix(1,0,0,1,177.60101318359375,456.5350036621094)" opacity="1" style="display: block;"><g opacity="1" transform="matrix(1,0,0,1,4.179999828338623,4.178999900817871)"><path fill="#C9E9D9" fill-opacity="1" d=" M3.930000066757202,0.0010000000474974513 C3.930000066757202,2.1710000038146973 2.1710000038146973,3.930000066757202 0.0010000000474974513,3.930000066757202 C-2.1700000762939453,3.930000066757202 -3.930000066757202,2.1710000038146973 -3.930000066757202,0.0010000000474974513 C-3.930000066757202,-2.1700000762939453 -2.1700000762939453,-3.930000066757202 0.0010000000474974513,-3.930000066757202 C2.1710000038146973,-3.930000066757202 3.930000066757202,-2.1700000762939453 3.930000066757202,0.0010000000474974513z"></path></g></g><g transform="matrix(1,0,0,1,193.3209991455078,456.5350036621094)" opacity="1" style="display: block;"><g opacity="1" transform="matrix(1,0,0,1,4.178999900817871,4.178999900817871)"><path fill="#0FAE5A" fill-opacity="1" d=" M3.930000066757202,0.0010000000474974513 C3.930000066757202,2.1710000038146973 2.1700000762939453,3.930000066757202 -0.0010000000474974513,3.930000066757202 C-2.1710000038146973,3.930000066757202 -3.930000066757202,2.1710000038146973 -3.930000066757202,0.0010000000474974513 C-3.930000066757202,-2.1700000762939453 -2.1710000038146973,-3.930000066757202 -0.0010000000474974513,-3.930000066757202 C2.1700000762939453,-3.930000066757202 3.930000066757202,-2.1700000762939453 3.930000066757202,0.0010000000474974513z"></path></g></g><g transform="matrix(1,0,0,1,209.0380096435547,456.5350036621094)" opacity="1" style="display: block;"><g opacity="1" transform="matrix(1,0,0,1,4.179999828338623,4.178999900817871)"><path fill="#C9E9D9" fill-opacity="1" d=" M3.930000066757202,0.0010000000474974513 C3.930000066757202,2.1710000038146973 2.1710000038146973,3.930000066757202 0.0010000000474974513,3.930000066757202 C-2.1700000762939453,3.930000066757202 -3.930000066757202,2.1710000038146973 -3.930000066757202,0.0010000000474974513 C-3.930000066757202,-2.1700000762939453 -2.1700000762939453,-3.930000066757202 0.0010000000474974513,-3.930000066757202 C2.1710000038146973,-3.930000066757202 3.930000066757202,-2.1700000762939453 3.930000066757202,0.0010000000474974513z"></path></g></g><g transform="matrix(1,0,0,1,146.1649932861328,473.5500183105469)" opacity="1" style="display: block;"><g opacity="1" transform="matrix(1,0,0,1,4.178999900817871,4.179999828338623)"><path fill="#0FAE5A" fill-opacity="1" d=" M3.930000066757202,0.0010000000474974513 C3.930000066757202,2.1710000038146973 2.1700000762939453,3.930000066757202 -0.0010000000474974513,3.930000066757202 C-2.1710000038146973,3.930000066757202 -3.930000066757202,2.1710000038146973 -3.930000066757202,0.0010000000474974513 C-3.930000066757202,-2.1700000762939453 -2.1710000038146973,-3.930000066757202 -0.0010000000474974513,-3.930000066757202 C2.1700000762939453,-3.930000066757202 3.930000066757202,-2.1700000762939453 3.930000066757202,0.0010000000474974513z"></path></g></g><g transform="matrix(1,0,0,1,161.8830108642578,473.5500183105469)" opacity="1" style="display: block;"><g opacity="1" transform="matrix(1,0,0,1,4.179999828338623,4.179999828338623)"><path fill="#C9E9D9" fill-opacity="1" d=" M3.930000066757202,0.0010000000474974513 C3.930000066757202,2.1710000038146973 2.1710000038146973,3.930000066757202 0.0010000000474974513,3.930000066757202 C-2.1700000762939453,3.930000066757202 -3.930000066757202,2.1710000038146973 -3.930000066757202,0.0010000000474974513 C-3.930000066757202,-2.1700000762939453 -2.1700000762939453,-3.930000066757202 0.0010000000474974513,-3.930000066757202 C2.1710000038146973,-3.930000066757202 3.930000066757202,-2.1700000762939453 3.930000066757202,0.0010000000474974513z"></path></g></g><g transform="matrix(1,0,0,1,177.60101318359375,473.5500183105469)" opacity="1" style="display: block;"><g opacity="1" transform="matrix(1,0,0,1,4.179999828338623,4.179999828338623)"><path fill="#0FAE5A" fill-opacity="1" d=" M3.930000066757202,0.0010000000474974513 C3.930000066757202,2.1710000038146973 2.1710000038146973,3.930000066757202 0.0010000000474974513,3.930000066757202 C-2.1700000762939453,3.930000066757202 -3.930000066757202,2.1710000038146973 -3.930000066757202,0.0010000000474974513 C-3.930000066757202,-2.1700000762939453 -2.1700000762939453,-3.930000066757202 0.0010000000474974513,-3.930000066757202 C2.1710000038146973,-3.930000066757202 3.930000066757202,-2.1700000762939453 3.930000066757202,0.0010000000474974513z"></path></g></g><g transform="matrix(1,0,0,1,193.3209991455078,473.5500183105469)" opacity="1" style="display: block;"><g opacity="1" transform="matrix(1,0,0,1,4.178999900817871,4.179999828338623)"><path fill="#C9E9D9" fill-opacity="1" d=" M3.930000066757202,0.0010000000474974513 C3.930000066757202,2.1710000038146973 2.1700000762939453,3.930000066757202 -0.0010000000474974513,3.930000066757202 C-2.1710000038146973,3.930000066757202 -3.930000066757202,2.1710000038146973 -3.930000066757202,0.0010000000474974513 C-3.930000066757202,-2.1700000762939453 -2.1710000038146973,-3.930000066757202 -0.0010000000474974513,-3.930000066757202 C2.1700000762939453,-3.930000066757202 3.930000066757202,-2.1700000762939453 3.930000066757202,0.0010000000474974513z"></path></g></g><g transform="matrix(1,0,0,1,209.0380096435547,473.5500183105469)" opacity="1" style="display: block;"><g opacity="1" transform="matrix(1,0,0,1,4.179999828338623,4.179999828338623)"><path fill="#0FAE5A" fill-opacity="1" d=" M3.930000066757202,0.0010000000474974513 C3.930000066757202,2.1710000038146973 2.1710000038146973,3.930000066757202 0.0010000000474974513,3.930000066757202 C-2.1700000762939453,3.930000066757202 -3.930000066757202,2.1710000038146973 -3.930000066757202,0.0010000000474974513 C-3.930000066757202,-2.1700000762939453 -2.1700000762939453,-3.930000066757202 0.0010000000474974513,-3.930000066757202 C2.1710000038146973,-3.930000066757202 3.930000066757202,-2.1700000762939453 3.930000066757202,0.0010000000474974513z"></path></g></g><g transform="matrix(1,0,0,1,355.7569885253906,394.3249816894531)" opacity="1" style="display: block;"><g opacity="1" transform="matrix(1,0,0,1,14.319999694824219,35.71900177001953)"><path stroke-linecap="butt" stroke-linejoin="miter" fill-opacity="0" stroke-miterlimit="10" stroke="#008C50" stroke-opacity="1" stroke-width="1" d=" M-11.682000160217285,-14.413000106811523 C-11.682000160217285,-14.413000106811523 -11.682000160217285,-14.413000106811523 -11.682000160217285,-14.413000106811523 C1.222000002861023,-14.413000106811523 11.682000160217285,-3.9519999027252197 11.682000160217285,8.95199966430664 C11.682000160217285,8.95199966430664 11.682000160217285,14.413000106811523 11.682000160217285,14.413000106811523"></path></g><g opacity="1" transform="matrix(1,0,0,1,9.6899995803833,40.391998291015625)"><path stroke-linecap="butt" stroke-linejoin="miter" fill-opacity="0" stroke-miterlimit="10" stroke="#008C50" stroke-opacity="1" stroke-width="1" d=" M-7.052000045776367,-9.682999610900879 C-7.052000045776367,-9.682999610900879 -7.052000045776367,-9.682999610900879 -7.052000045776367,-9.682999610900879 C0.7379999756813049,-9.682999610900879 7.052000045776367,-3.368000030517578 7.052000045776367,4.421999931335449 C7.052000045776367,4.421999931335449 7.052000045776367,9.682999610900879 7.052000045776367,9.682999610900879"></path></g><g opacity="1" transform="matrix(1,0,0,1,18.857999801635742,30.98900032043457)"><path stroke-linecap="butt" stroke-linejoin="miter" fill-opacity="0" stroke-miterlimit="10" stroke="#008C50" stroke-opacity="1" stroke-width="1" d=" M-16.357999801635742,-19.086000442504883 C-16.357999801635742,-19.086000442504883 -16.357999801635742,-19.086000442504883 -16.357999801635742,-19.086000442504883 C1.7100000381469727,-19.086000442504883 16.357999801635742,-4.439000129699707 16.357999801635742,13.630000114440918 C16.357999801635742,13.630000114440918 16.357999801635742,19.086000442504883 16.357999801635742,19.086000442504883"></path></g><g opacity="1" transform="matrix(1,0,0,1,23.656999588012695,26.288000106811523)"><path stroke-linecap="butt" stroke-linejoin="miter" fill-opacity="0" stroke-miterlimit="10" stroke="#008C50" stroke-opacity="1" stroke-width="1" d=" M-21.020000457763672,-23.788000106811523 C-21.020000457763672,-23.788000106811523 -21.020000457763672,-23.788000106811523 -21.020000457763672,-23.788000106811523 C2.197999954223633,-23.788000106811523 21.020000457763672,-4.9670000076293945 21.020000457763672,18.250999450683594 C21.020000457763672,18.250999450683594 21.020000457763672,23.788000106811523 21.020000457763672,23.788000106811523"></path></g></g><g transform="matrix(1,0,0,1,228.427001953125,47.35099792480469)" opacity="1" style="display: block;"><g opacity="1" transform="matrix(1,0,0,1,8.541000366210938,8.541000366210938)"><path fill="#0FAE5A" fill-opacity="1" d=" M8.291000366210938,0 C8.291000366210938,4.578999996185303 4.578999996185303,8.291000366210938 0,8.291000366210938 C-4.578999996185303,8.291000366210938 -8.291000366210938,4.578999996185303 -8.291000366210938,0 C-8.291000366210938,-4.578999996185303 -4.578999996185303,-8.291000366210938 0,-8.291000366210938 C4.578999996185303,-8.291000366210938 8.291000366210938,-4.578999996185303 8.291000366210938,0z"></path></g></g><g transform="matrix(1,0,0,1,495.51800537109375,204.60800170898438)" opacity="1" style="display: block;"><g opacity="1" transform="matrix(1,0,0,1,8.541000366210938,8.541000366210938)"><path fill="#0FAE5A" fill-opacity="1" d=" M8.291000366210938,0 C8.291000366210938,4.578999996185303 4.578999996185303,8.291000366210938 0,8.291000366210938 C-4.578999996185303,8.291000366210938 -8.291000366210938,4.578999996185303 -8.291000366210938,0 C-8.291000366210938,-4.578999996185303 -4.578999996185303,-8.291000366210938 0,-8.291000366210938 C4.578999996185303,-8.291000366210938 8.291000366210938,-4.578999996185303 8.291000366210938,0z"></path></g></g><g transform="matrix(1,0,0,1,324.74798583984375,175.44400024414062)" opacity="1" style="display: block;"><g opacity="1" transform="matrix(1,0,0,1,9.982999801635742,14.85099983215332)"><path fill="#004149" fill-opacity="1" d=" M0,-4.867000102996826 C0,-4.867000102996826 9.732999801635742,-4.867000102996826 9.732999801635742,-4.867000102996826 C9.732999801635742,0.4729999899864197 5.340000152587891,4.867000102996826 0,4.867000102996826 C-5.340000152587891,4.867000102996826 -9.732999801635742,0.4729999899864197 -9.732999801635742,-4.867000102996826 C-9.732999801635742,-4.867000102996826 0,-4.867000102996826 0,-4.867000102996826z"></path></g><g opacity="1" transform="matrix(1,0,0,1,9.982999801635742,5.117000102996826)"><path fill="#456B8B" fill-opacity="1" d=" M0,4.867000102996826 C0,4.867000102996826 -9.732999801635742,4.867000102996826 -9.732999801635742,4.867000102996826 C-9.732999801635742,-0.4729999899864197 -5.340000152587891,-4.867000102996826 0,-4.867000102996826 C5.340000152587891,-4.867000102996826 9.732999801635742,-0.4729999899864197 9.732999801635742,4.867000102996826 C9.732999801635742,4.867000102996826 0,4.867000102996826 0,4.867000102996826z"></path></g></g><g transform="matrix(1,0,0,1,329.8609924316406,279.27899169921875)" opacity="1" style="display: block;"><g opacity="1" transform="matrix(1,0,0,1,4.869999885559082,4.869999885559082)"><path fill="#C9E9D9" fill-opacity="1" d=" M4.619999885559082,0 C4.619999885559082,2.552000045776367 2.552000045776367,4.619999885559082 0,4.619999885559082 C-2.552000045776367,4.619999885559082 -4.619999885559082,2.552000045776367 -4.619999885559082,0 C-4.619999885559082,-2.552000045776367 -2.552000045776367,-4.619999885559082 0,-4.619999885559082 C2.552000045776367,-4.619999885559082 4.619999885559082,-2.552000045776367 4.619999885559082,0z"></path></g></g><g transform="matrix(1,0,0,1,263.97601318359375,338.83502197265625)" opacity="1" style="display: block;"><g opacity="1" transform="matrix(1,0,0,1,9.425000190734863,9.425000190734863)"><path fill="#004149" fill-opacity="1" d=" M9.175999641418457,0.0010000000474974513 C9.175999641418457,5.067999839782715 5.066999912261963,9.175999641418457 0,9.175999641418457 C-5.067999839782715,9.175999641418457 -9.175999641418457,5.067999839782715 -9.175999641418457,0.0010000000474974513 C-9.175999641418457,-5.065999984741211 -5.067999839782715,-9.175999641418457 0,-9.175999641418457 C5.066999912261963,-9.175999641418457 9.175999641418457,-5.065999984741211 9.175999641418457,0.0010000000474974513z"></path></g></g><g transform="matrix(1,0,0,1,177.95599365234375,379.75)" opacity="1" style="display: block;"><g opacity="1" transform="matrix(1,0,0,1,30.25,30.25)"><path fill="#C9E9D9" fill-opacity="1" d=" M30,-30 C30,-30 30,30 30,30 C30,30 -30,30 -30,30 C-30,30 -30,26.851999282836914 -30,26.851999282836914 C-30,-4.546999931335449 -4.546999931335449,-30 26.851999282836914,-30 C26.851999282836914,-30 30,-30 30,-30z"></path></g></g><g transform="matrix(1,0,0,1,357.95599365234375,443.780029296875)" opacity="1" style="display: block;"><g opacity="1" transform="matrix(1,0,0,1,28.235000610351562,28.235000610351562)"><path fill="#004149" fill-opacity="1" d=" M-27.985000610351562,-27.986000061035156 C-27.985000610351562,-27.986000061035156 27.985000610351562,27.986000061035156 27.985000610351562,27.986000061035156 C27.985000610351562,27.986000061035156 27.985000610351562,-27.986000061035156 27.985000610351562,-27.986000061035156 C27.985000610351562,-27.986000061035156 -27.985000610351562,-27.986000061035156 -27.985000610351562,-27.986000061035156z"></path></g></g><g transform="matrix(1,0,0,1,270.7120056152344,412.09100341796875)" opacity="1" style="display: block;"><g opacity="1" transform="matrix(1,0,0,1,27.493999481201172,27.909000396728516)"><path fill="#F8F8F8" fill-opacity="1" d=" M-7.000999927520752,0 C-7.000999927520752,-3.638000011444092 -4.052000045776367,-6.585999965667725 -0.414000004529953,-6.585999965667725 C3.2219998836517334,-6.585999965667725 6.171000003814697,-3.638000011444092 6.171000003814697,0 C6.171000003814697,3.635999917984009 3.2219998836517334,6.585000038146973 -0.414000004529953,6.585000038146973 C-4.052000045776367,6.585000038146973 -7.000999927520752,3.635999917984009 -7.000999927520752,0z M-0.414000004529953,-27.659000396728516 C-13.324999809265137,-27.659000396728516 -24.160999298095703,-18.812999725341797 -27.209999084472656,-6.853000164031982 C-27.229999542236328,-6.767000198364258 -27.2450008392334,-6.677999973297119 -27.2450008392334,-6.585999965667725 C-27.2450008392334,-5.857999801635742 -26.65399932861328,-5.26800012588501 -25.927000045776367,-5.26800012588501 C-25.927000045776367,-5.26800012588501 -14.779999732971191,-5.26800012588501 -14.779999732971191,-5.26800012588501 C-14.24899959564209,-5.26800012588501 -13.793999671936035,-5.585000038146973 -13.586000442504883,-6.038000106811523 C-13.586000442504883,-6.038000106811523 -13.583000183105469,-6.0370001792907715 -13.583000183105469,-6.0370001792907715 C-11.293999671936035,-11.02299976348877 -6.261000156402588,-14.48799991607666 -0.414000004529953,-14.48799991607666 C7.585000038146973,-14.48799991607666 14.072999954223633,-8.00100040435791 14.072999954223633,0 C14.072999954223633,8.00100040435791 7.585000038146973,14.487000465393066 -0.414000004529953,14.487000465393066 C-6.261000156402588,14.487000465393066 -11.293999671936035,11.02299976348877 -13.583000183105469,6.0370001792907715 C-13.583000183105469,6.0370001792907715 -13.586000442504883,6.038000106811523 -13.586000442504883,6.038000106811523 C-13.793999671936035,5.585000038146973 -14.24899959564209,5.26800012588501 -14.779999732971191,5.26800012588501 C-14.779999732971191,5.26800012588501 -25.927000045776367,5.26800012588501 -25.927000045776367,5.26800012588501 C-26.65399932861328,5.26800012588501 -27.2450008392334,5.859000205993652 -27.2450008392334,6.585000038146973 C-27.2450008392334,6.677000045776367 -27.229999542236328,6.763000011444092 -27.211999893188477,6.848999977111816 C-24.163999557495117,18.80900001525879 -13.326000213623047,27.659000396728516 -0.414000004529953,27.659000396728516 C14.859000205993652,27.659000396728516 27.2450008392334,15.27400016784668 27.2450008392334,0 C27.2450008392334,-15.274999618530273 14.859000205993652,-27.659000396728516 -0.414000004529953,-27.659000396728516z"></path></g></g><g transform="matrix(1,0,0,1,116.0260009765625,149.31100463867188)" opacity="1" style="display: block;"><g opacity="1" transform="matrix(1,0,0,1,28.235000610351562,28.236000061035156)"><path fill="#0FAE5A" fill-opacity="1" d=" M27.986000061035156,27.986000061035156 C27.986000061035156,27.986000061035156 -27.986000061035156,27.986000061035156 -27.986000061035156,27.986000061035156 C-27.986000061035156,27.986000061035156 -27.986000061035156,-27.986000061035156 -27.986000061035156,-27.986000061035156 C-27.986000061035156,-27.986000061035156 27.986000061035156,-27.986000061035156 27.986000061035156,-27.986000061035156 C27.986000061035156,-27.986000061035156 27.986000061035156,27.986000061035156 27.986000061035156,27.986000061035156z"></path></g></g><g transform="matrix(1,0,0,1,127.75700378417969,147.0080108642578)" opacity="1" style="display: block;"><g opacity="1" transform="matrix(1,0,0,1,32.856998443603516,16.913000106811523)"><path stroke-linecap="butt" stroke-linejoin="miter" fill-opacity="0" stroke-miterlimit="10" stroke="#EDEDED" stroke-opacity="1" stroke-width="1" d=" M11.682000160217285,14.413000106811523 C11.682000160217285,14.413000106811523 11.682000160217285,14.413000106811523 11.682000160217285,14.413000106811523 C-1.222000002861023,14.413000106811523 -11.682000160217285,3.953000068664551 -11.682000160217285,-8.951000213623047 C-11.682000160217285,-8.951000213623047 -11.682000160217285,-14.413000106811523 -11.682000160217285,-14.413000106811523"></path></g><g opacity="1" transform="matrix(1,0,0,1,37.48699951171875,12.239999771118164)"><path stroke-linecap="butt" stroke-linejoin="miter" fill-opacity="0" stroke-miterlimit="10" stroke="#EDEDED" stroke-opacity="1" stroke-width="1" d=" M7.052000045776367,9.682999610900879 C7.052000045776367,9.682999610900879 7.052000045776367,9.682999610900879 7.052000045776367,9.682999610900879 C-0.7379999756813049,9.682999610900879 -7.052000045776367,3.368000030517578 -7.052000045776367,-4.421000003814697 C-7.052000045776367,-4.421000003814697 -7.052000045776367,-9.682999610900879 -7.052000045776367,-9.682999610900879"></path></g><g opacity="1" transform="matrix(1,0,0,1,28.319000244140625,21.64299964904785)"><path stroke-linecap="butt" stroke-linejoin="miter" fill-opacity="0" stroke-miterlimit="10" stroke="#EDEDED" stroke-opacity="1" stroke-width="1" d=" M16.357999801635742,19.086000442504883 C16.357999801635742,19.086000442504883 16.357999801635742,19.086000442504883 16.357999801635742,19.086000442504883 C-1.7100000381469727,19.086000442504883 -16.357999801635742,4.439000129699707 -16.357999801635742,-13.628999710083008 C-16.357999801635742,-13.628999710083008 -16.357999801635742,-19.086000442504883 -16.357999801635742,-19.086000442504883"></path></g><g opacity="1" transform="matrix(1,0,0,1,23.520000457763672,26.3439998626709)"><path stroke-linecap="butt" stroke-linejoin="miter" fill-opacity="0" stroke-miterlimit="10" stroke="#EDEDED" stroke-opacity="1" stroke-width="1" d=" M21.020000457763672,23.788000106811523 C21.020000457763672,23.788000106811523 21.020000457763672,23.788000106811523 21.020000457763672,23.788000106811523 C-2.197000026702881,23.788000106811523 -21.020000457763672,4.9670000076293945 -21.020000457763672,-18.250999450683594 C-21.020000457763672,-18.250999450683594 -21.020000457763672,-23.788000106811523 -21.020000457763672,-23.788000106811523"></path></g></g><g transform="matrix(1,0,0,1,196.04100036621094,178.5070037841797)" opacity="1" style="display: block;"><g opacity="1" transform="matrix(1,0,0,1,6.25,6.25)"><path fill="#C9E9D9" fill-opacity="1" d=" M-6,6 C-6,6 6,6 6,6 C6,6 6,-6 6,-6 C6,-6 -6,-6 -6,-6 C-6,-6 -6,6 -6,6z"></path></g></g><g transform="matrix(1,0,0,1,183.9969940185547,166.3509979248047)" opacity="1" style="display: block;"><g opacity="1" transform="matrix(1,0,0,1,6.25,12.309000015258789)"><path fill="#C9E9D9" fill-opacity="1" d=" M-6,12.059000015258789 C-6,12.059000015258789 6,12.059000015258789 6,12.059000015258789 C6,12.059000015258789 6,-12.059000015258789 6,-12.059000015258789 C6,-12.059000015258789 -6,-12.059000015258789 -6,-12.059000015258789 C-6,-12.059000015258789 -6,12.059000015258789 -6,12.059000015258789z"></path></g></g><g transform="matrix(1,0,0,1,171.9969940185547,154.35000610351562)" opacity="1" style="display: block;"><g opacity="1" transform="matrix(1,0,0,1,6.25,18.30900001525879)"><path fill="#C9E9D9" fill-opacity="1" d=" M-6,18.05900001525879 C-6,18.05900001525879 6,18.05900001525879 6,18.05900001525879 C6,18.05900001525879 6,-18.05900001525879 6,-18.05900001525879 C6,-18.05900001525879 -6,-18.05900001525879 -6,-18.05900001525879 C-6,-18.05900001525879 -6,18.05900001525879 -6,18.05900001525879z"></path></g></g><g transform="matrix(1,0,0,1,413.15899658203125,227.21099853515625)" opacity="1" style="display: block;"><g opacity="1" transform="matrix(1,0,0,1,32.645999908447266,32.645999908447266)"><path fill="#0FAE5A" fill-opacity="1" d=" M32.395999908447266,0 C32.395999908447266,17.892000198364258 17.891000747680664,32.395999908447266 0,32.395999908447266 C-17.892000198364258,32.395999908447266 -32.395999908447266,17.892000198364258 -32.395999908447266,0 C-32.395999908447266,-17.892000198364258 -17.892000198364258,-32.395999908447266 0,-32.395999908447266 C17.891000747680664,-32.395999908447266 32.395999908447266,-17.892000198364258 32.395999908447266,0z"></path></g></g><g transform="matrix(1,0,0,1,428.94000244140625,239.55099487304688)" opacity="1" style="display: block;"><g opacity="1" transform="matrix(1,0,0,1,16.329999923706055,11.942000389099121)"><path stroke-linecap="round" stroke-linejoin="miter" fill-opacity="0" stroke-miterlimit="10" stroke="#004149" stroke-opacity="1" stroke-width="1.559px" d=" M8.045000076293945,0 C8.045000076293945,-4.442999839782715 4.442999839782715,-8.043999671936035 0,-8.043999671936035 C-4.441999912261963,-8.043999671936035 -8.045000076293945,-4.442999839782715 -8.045000076293945,0 C-8.045000076293945,4.442999839782715 -4.441999912261963,8.043999671936035 0,8.043999671936035 C4.442999839782715,8.043999671936035 8.045000076293945,4.442999839782715 8.045000076293945,0z"></path></g><g opacity="1" transform="matrix(1,0,0,1,10.479000091552734,26.569000244140625)"><path stroke-linecap="round" stroke-linejoin="miter" fill-opacity="0" stroke-miterlimit="10" stroke="#004149" stroke-opacity="1" stroke-width="1.559px" d=" M-6.581999778747559,6.583000183105469 C-6.581999778747559,-0.6930000185966492 -0.6940000057220459,-6.583000183105469 6.581999778747559,-6.583000183105469"></path></g><g opacity="1" transform="matrix(1,0,0,1,0,0)"><path stroke-linecap="round" stroke-linejoin="miter" fill-opacity="0" stroke-miterlimit="10" stroke="#004149" stroke-opacity="1" stroke-width="1.559px" d=" M6.833000183105469,9.748000144958496 C6.833000183105469,9.748000144958496 25.83799934387207,9.748000144958496 25.83799934387207,9.748000144958496"></path></g><g opacity="1" transform="matrix(1,0,0,1,0,0)"><path stroke-linecap="round" stroke-linejoin="miter" fill-opacity="0" stroke-miterlimit="10" stroke="#004149" stroke-opacity="1" stroke-width="1.559px" d=" M16.334999084472656,4.263000011444092 C16.334999084472656,4.263000011444092 16.334999084472656,9.748000144958496 16.334999084472656,9.748000144958496"></path></g><g opacity="1" transform="matrix(1,0,0,1,20.586000442504883,21.54599952697754)"><path stroke-linecap="round" stroke-linejoin="miter" fill-opacity="0" stroke-miterlimit="10" stroke="#004149" stroke-opacity="1" stroke-width="1.559px" d=" M4.256999969482422,1.559000015258789 C1.9630000591278076,-0.3869999945163727 -1.0089999437332153,-1.559000015258789 -4.256999969482422,-1.559000015258789"></path></g><g opacity="1" transform="matrix(1,0,0,1,28.041000366210938,28.07200050354004)"><path stroke-linecap="round" stroke-linejoin="miter" fill-opacity="0" stroke-miterlimit="10" stroke="#004149" stroke-opacity="1" stroke-width="1.559px" d=" M1.6480000019073486,0 C1.6480000019073486,-0.9100000262260437 0.9100000262260437,-1.6480000019073486 0,-1.6480000019073486 C-0.9110000133514404,-1.6480000019073486 -1.6480000019073486,-0.9100000262260437 -1.6480000019073486,0 C-1.6480000019073486,0.9100000262260437 -0.9110000133514404,1.6480000019073486 0,1.6480000019073486 C0.9100000262260437,1.6480000019073486 1.6480000019073486,0.9100000262260437 1.6480000019073486,0z"></path></g><g opacity="1" transform="matrix(1,0,0,1,28.041000366210938,28.072999954223633)"><path stroke-linecap="round" stroke-linejoin="miter" fill-opacity="0" stroke-miterlimit="10" stroke="#004149" stroke-opacity="1" stroke-width="1.559px" d=" M6.179999828338623,-1.031000018119812 C6.179999828338623,-1.031000018119812 6.123000144958496,-1.031000018119812 6.123000144958496,-1.031000018119812 C5.519999980926514,-1.031000018119812 4.973999977111816,-1.3930000066757202 4.74399995803833,-1.9509999752044678 C4.742000102996826,-1.9570000171661377 4.738999843597412,-1.9630000591278076 4.736000061035156,-1.968999981880188 C4.501999855041504,-2.5290000438690186 4.630000114440918,-3.1730000972747803 5.059000015258789,-3.6019999980926514 C5.059000015258789,-3.6019999980926514 5.0980000495910645,-3.6419999599456787 5.0980000495910645,-3.6419999599456787 C5.257999897003174,-3.802000045776367 5.257999897003174,-4.065000057220459 5.0980000495910645,-4.223999977111816 C5.0980000495910645,-4.223999977111816 4.224999904632568,-5.0980000495910645 4.224999904632568,-5.0980000495910645 C4.064000129699707,-5.258999824523926 3.8010001182556152,-5.258999824523926 3.6410000324249268,-5.0980000495910645 C3.6410000324249268,-5.0980000495910645 3.6019999980926514,-5.058000087738037 3.6019999980926514,-5.058000087738037 C3.1730000972747803,-4.630000114440918 2.5280001163482666,-4.502999782562256 1.968000054359436,-4.736999988555908 C1.9620000123977661,-4.738999843597412 1.9570000171661377,-4.742000102996826 1.9509999752044678,-4.74399995803833 C1.3930000066757202,-4.973999977111816 1.031000018119812,-5.519999980926514 1.031000018119812,-6.124000072479248 C1.031000018119812,-6.124000072479248 1.031000018119812,-6.179999828338623 1.031000018119812,-6.179999828338623 C1.031000018119812,-6.406000137329102 0.8450000286102295,-6.5920000076293945 0.6179999709129333,-6.5920000076293945 C0.6179999709129333,-6.5920000076293945 -0.6179999709129333,-6.5920000076293945 -0.6179999709129333,-6.5920000076293945 C-0.843999981880188,-6.5920000076293945 -1.0290000438690186,-6.406000137329102 -1.0290000438690186,-6.179999828338623 C-1.0290000438690186,-6.179999828338623 -1.0290000438690186,-6.124000072479248 -1.0290000438690186,-6.124000072479248 C-1.0290000438690186,-5.519999980926514 -1.3910000324249268,-4.973999977111816 -1.9500000476837158,-4.74399995803833 C-1.9559999704360962,-4.742000102996826 -1.9620000123977661,-4.738999843597412 -1.968000054359436,-4.736999988555908 C-2.5280001163482666,-4.502999782562256 -3.1730000972747803,-4.630000114440918 -3.6010000705718994,-5.058000087738037 C-3.6010000705718994,-5.058000087738037 -3.6410000324249268,-5.0980000495910645 -3.6410000324249268,-5.0980000495910645 C-3.799999952316284,-5.258999824523926 -4.063000202178955,-5.258999824523926 -4.2230000495910645,-5.0980000495910645 C-4.2230000495910645,-5.0980000495910645 -5.0970001220703125,-4.223999977111816 -5.0970001220703125,-4.223999977111816 C-5.257999897003174,-4.065000057220459 -5.257999897003174,-3.802000045776367 -5.0970001220703125,-3.6419999599456787 C-5.0970001220703125,-3.6419999599456787 -5.058000087738037,-3.6019999980926514 -5.058000087738037,-3.6019999980926514 C-4.630000114440918,-3.1730000972747803 -4.502999782562256,-2.5290000438690186 -4.736000061035156,-1.968999981880188 C-4.73799991607666,-1.9630000591278076 -4.741000175476074,-1.9570000171661377 -4.743000030517578,-1.9509999752044678 C-4.9730000495910645,-1.3930000066757202 -5.519000053405762,-1.031000018119812 -6.123000144958496,-1.031000018119812 C-6.123000144958496,-1.031000018119812 -6.178999900817871,-1.031000018119812 -6.178999900817871,-1.031000018119812 C-6.406000137329102,-1.031000018119812 -6.5920000076293945,-0.8450000286102295 -6.5920000076293945,-0.6190000176429749 C-6.5920000076293945,-0.6190000176429749 -6.5920000076293945,0.6179999709129333 -6.5920000076293945,0.6179999709129333 C-6.5920000076293945,0.8450000286102295 -6.406000137329102,1.031000018119812 -6.178999900817871,1.031000018119812 C-6.178999900817871,1.031000018119812 -6.123000144958496,1.031000018119812 -6.123000144958496,1.031000018119812 C-5.519000053405762,1.031000018119812 -4.9730000495910645,1.3930000066757202 -4.743000030517578,1.9500000476837158 C-4.741000175476074,1.9559999704360962 -4.73799991607666,1.9630000591278076 -4.736000061035156,1.968999981880188 C-4.502999782562256,2.5290000438690186 -4.630000114440918,3.1730000972747803 -5.058000087738037,3.6019999980926514 C-5.058000087738037,3.6019999980926514 -5.0970001220703125,3.6419999599456787 -5.0970001220703125,3.6419999599456787 C-5.257999897003174,3.802000045776367 -5.257999897003174,4.065000057220459 -5.0970001220703125,4.223999977111816 C-5.0970001220703125,4.223999977111816 -4.2230000495910645,5.098999977111816 -4.2230000495910645,5.098999977111816 C-4.063000202178955,5.258999824523926 -3.799999952316284,5.258999824523926 -3.6410000324249268,5.098999977111816 C-3.6410000324249268,5.098999977111816 -3.6010000705718994,5.059000015258789 -3.6010000705718994,5.059000015258789 C-3.1730000972747803,4.630000114440918 -2.5269999504089355,4.502999782562256 -1.9670000076293945,4.736999988555908 C-1.9620000123977661,4.739999771118164 -1.9559999704360962,4.739999771118164 -1.9500000476837158,4.743000030517578 C-1.3910000324249268,4.973999977111816 -1.0290000438690186,5.520999908447266 -1.0290000438690186,6.124000072479248 C-1.0290000438690186,6.124000072479248 -1.0290000438690186,6.179999828338623 -1.0290000438690186,6.179999828338623 C-1.0290000438690186,6.4070000648498535 -0.843999981880188,6.5920000076293945 -0.6179999709129333,6.5920000076293945 C-0.6179999709129333,6.5920000076293945 0.6179999709129333,6.5920000076293945 0.6179999709129333,6.5920000076293945 C0.8450000286102295,6.5920000076293945 1.031000018119812,6.4070000648498535 1.031000018119812,6.179999828338623 C1.031000018119812,6.179999828338623 1.031000018119812,6.124000072479248 1.031000018119812,6.124000072479248 C1.031000018119812,5.520999908447266 1.3930000066757202,4.973999977111816 1.9509999752044678,4.743000030517578 C1.9559999704360962,4.739999771118164 1.9609999656677246,4.739999771118164 1.968000054359436,4.736999988555908 C2.5280001163482666,4.502999782562256 3.1730000972747803,4.630000114440918 3.6019999980926514,5.059000015258789 C3.6019999980926514,5.059000015258789 3.6410000324249268,5.098999977111816 3.6410000324249268,5.098999977111816 C3.8010001182556152,5.258999824523926 4.064000129699707,5.258999824523926 4.224999904632568,5.098999977111816 C4.224999904632568,5.098999977111816 5.0980000495910645,4.223999977111816 5.0980000495910645,4.223999977111816 C5.257999897003174,4.065000057220459 5.257999897003174,3.802000045776367 5.0980000495910645,3.6419999599456787 C5.0980000495910645,3.6419999599456787 5.059000015258789,3.6019999980926514 5.059000015258789,3.6019999980926514 C4.630000114440918,3.1730000972747803 4.501999855041504,2.5290000438690186 4.736000061035156,1.968999981880188 C4.738999843597412,1.9630000591278076 4.742000102996826,1.9559999704360962 4.74399995803833,1.9500000476837158 C4.974999904632568,1.3930000066757202 5.519999980926514,1.031000018119812 6.123000144958496,1.031000018119812 C6.123000144958496,1.031000018119812 6.179999828338623,1.031000018119812 6.179999828338623,1.031000018119812 C6.4070000648498535,1.031000018119812 6.5920000076293945,0.8450000286102295 6.5920000076293945,0.6179999709129333 C6.5920000076293945,0.6179999709129333 6.5920000076293945,-0.6190000176429749 6.5920000076293945,-0.6190000176429749 C6.5920000076293945,-0.8450000286102295 6.4070000648498535,-1.031000018119812 6.179999828338623,-1.031000018119812z"></path></g></g><g transform="matrix(1,0,0,1,147.260986328125,258.52301025390625)" opacity="1" style="display: block;"><g opacity="1" transform="matrix(1,0,0,1,45.597999572753906,45.597999572753906)"><path fill="#456B8B" fill-opacity="1" d=" M45.347999572753906,45.347999572753906 C45.347999572753906,45.347999572753906 -45.347999572753906,45.347999572753906 -45.347999572753906,45.347999572753906 C-45.347999572753906,45.347999572753906 -45.347999572753906,-45.347999572753906 -45.347999572753906,-45.347999572753906 C-45.347999572753906,-45.347999572753906 45.347999572753906,-45.347999572753906 45.347999572753906,-45.347999572753906 C45.347999572753906,-45.347999572753906 45.347999572753906,45.347999572753906 45.347999572753906,45.347999572753906z"></path></g></g><g transform="matrix(1,0,0,1,163.958984375,275.2220153808594)" opacity="1" style="display: block;"><g opacity="1" transform="matrix(1,0,0,1,28.89900016784668,28.898000717163086)"><path stroke-linecap="round" stroke-linejoin="round" fill-opacity="0" stroke="#C9E9D9" stroke-opacity="1" stroke-width="1.865px" d=" M24.23699951171875,0 C24.23699951171875,-13.38599967956543 13.38599967956543,-24.236000061035156 0.0010000000474974513,-24.236000061035156 C-13.385000228881836,-24.236000061035156 -24.23699951171875,-13.38599967956543 -24.23699951171875,0 C-24.23699951171875,13.38599967956543 -13.385000228881836,24.236000061035156 0.0010000000474974513,24.236000061035156 C13.38599967956543,24.236000061035156 24.23699951171875,13.38599967956543 24.23699951171875,0z"></path></g><g opacity="1" transform="matrix(1,0,0,1,28.89900016784668,28.898000717163086)"><path stroke-linecap="round" stroke-linejoin="round" fill-opacity="0" stroke="#C9E9D9" stroke-opacity="1" stroke-width="1.865px" d=" M9.232999801635742,0 C9.232999801635742,-5.099999904632568 5.098999977111816,-9.232999801635742 0,-9.232999801635742 C-5.099999904632568,-9.232999801635742 -9.232999801635742,-5.099999904632568 -9.232999801635742,0 C-9.232999801635742,5.099999904632568 -5.099999904632568,9.232999801635742 0,9.232999801635742 C5.098999977111816,9.232999801635742 9.232999801635742,5.099999904632568 9.232999801635742,0z"></path></g><g opacity="1" transform="matrix(1,0,0,1,16.202999114990234,43.902000427246094)"><path stroke-linecap="round" stroke-linejoin="round" fill-opacity="0" stroke="#C9E9D9" stroke-opacity="1" stroke-width="1.865px" d=" M2.309000015258789,-2.308000087738037 C2.309000015258789,-2.308000087738037 -2.309000015258789,2.308000087738037 -2.309000015258789,2.308000087738037"></path></g><g opacity="1" transform="matrix(1,0,0,1,41.59400177001953,43.902000427246094)"><path stroke-linecap="round" stroke-linejoin="round" fill-opacity="0" stroke="#C9E9D9" stroke-opacity="1" stroke-width="1.865px" d=" M-2.309000015258789,-2.308000087738037 C-2.309000015258789,-2.308000087738037 2.309000015258789,2.308000087738037 2.309000015258789,2.308000087738037"></path></g><g opacity="1" transform="matrix(1,0,0,1,41.59400177001953,13.895000457763672)"><path stroke-linecap="round" stroke-linejoin="round" fill-opacity="0" stroke="#C9E9D9" stroke-opacity="1" stroke-width="1.865px" d=" M-2.309000015258789,2.308000087738037 C-2.309000015258789,2.308000087738037 2.309000015258789,-2.308000087738037 2.309000015258789,-2.308000087738037"></path></g><g opacity="1" transform="matrix(1,0,0,1,16.202999114990234,13.895000457763672)"><path stroke-linecap="round" stroke-linejoin="round" fill-opacity="0" stroke="#C9E9D9" stroke-opacity="1" stroke-width="1.865px" d=" M2.309000015258789,2.308000087738037 C2.309000015258789,2.308000087738037 -2.309000015258789,-2.308000087738037 -2.309000015258789,-2.308000087738037"></path></g></g></g></g></svg>