<svg xmlns:xlink="http://www.w3.org/1999/xlink" xmlns="http://www.w3.org/2000/svg" viewBox="0 0 1080 600" width="1080" height="600" preserveAspectRatio="xMidYMid meet" style="width: 100%; height: 100%; transform: translate3d(0px, 0px, 0px);"><defs><clipPath id="__lottie_element_531"><rect width="1080" height="600" x="0" y="0"></rect></clipPath><clipPath id="__lottie_element_533"><path d="M0,0 L630,0 L630,480 L0,480z"></path></clipPath><mask id="__lottie_element_638" mask-type="alpha"><g transform="matrix(1,0,0,1,42.35900115966797,356.9540100097656)" opacity="1" style="display: block;"><g opacity="1" transform="matrix(1,0,0,1,13.269000053405762,2.503999948501587)"><path fill="rgb(69,107,139)" fill-opacity="1" d=" M10.765999794006348,2.253999948501587 C10.765999794006348,2.253999948501587 -10.765999794006348,2.253999948501587 -10.765999794006348,2.253999948501587 C-12.01099967956543,2.253999948501587 -13.020000457763672,1.2450000047683716 -13.020000457763672,0 C-13.020000457763672,-1.24399995803833 -12.01099967956543,-2.253999948501587 -10.765999794006348,-2.253999948501587 C-10.765999794006348,-2.253999948501587 10.765999794006348,-2.253999948501587 10.765999794006348,-2.253999948501587 C12.010000228881836,-2.253999948501587 13.020000457763672,-1.24399995803833 13.020000457763672,0 C13.020000457763672,1.2450000047683716 12.010000228881836,2.253999948501587 10.765999794006348,2.253999948501587z"></path></g><g opacity="1" transform="matrix(1,0,0,1,20.631999969482422,12.916999816894531)"><path fill="rgb(69,107,139)" fill-opacity="1" d=" M10.765999794006348,2.253000020980835 C10.765999794006348,2.253000020980835 -10.765999794006348,2.253000020980835 -10.765999794006348,2.253000020980835 C-12.010000228881836,2.253000020980835 -13.020000457763672,1.24399995803833 -13.020000457763672,-0.0010000000474974513 C-13.020000457763672,-1.2450000047683716 -12.010000228881836,-2.253000020980835 -10.765999794006348,-2.253000020980835 C-10.765999794006348,-2.253000020980835 10.765999794006348,-2.253000020980835 10.765999794006348,-2.253000020980835 C12.01099967956543,-2.253000020980835 13.020000457763672,-1.2450000047683716 13.020000457763672,-0.0010000000474974513 C13.020000457763672,1.24399995803833 12.01099967956543,2.253000020980835 10.765999794006348,2.253000020980835z"></path></g><g opacity="1" transform="matrix(1,0,0,1,63.24800109863281,12.916999816894531)"><path fill="rgb(69,107,139)" fill-opacity="1" d=" M23.900999069213867,2.253000020980835 C23.900999069213867,2.253000020980835 -23.900999069213867,2.253000020980835 -23.900999069213867,2.253000020980835 C-25.145000457763672,2.253000020980835 -26.15399932861328,1.24399995803833 -26.15399932861328,-0.0010000000474974513 C-26.15399932861328,-1.2450000047683716 -25.145000457763672,-2.253000020980835 -23.900999069213867,-2.253000020980835 C-23.900999069213867,-2.253000020980835 23.900999069213867,-2.253000020980835 23.900999069213867,-2.253000020980835 C25.145999908447266,-2.253000020980835 26.15399932861328,-1.2450000047683716 26.15399932861328,-0.0010000000474974513 C26.15399932861328,1.24399995803833 25.145999908447266,2.253000020980835 23.900999069213867,2.253000020980835z"></path></g><g opacity="1" transform="matrix(-1,0,0,-1,48.68600082397461,23.32900047302246)"><path fill="rgb(69,107,139)" fill-opacity="1" d=" M38.4630012512207,2.253000020980835 C38.4630012512207,2.253000020980835 -38.46200180053711,2.253000020980835 -38.46200180053711,2.253000020980835 C-39.707000732421875,2.253000020980835 -40.71500015258789,1.24399995803833 -40.71500015258789,-0.0010000000474974513 C-40.71500015258789,-1.2450000047683716 -39.707000732421875,-2.253000020980835 -38.46200180053711,-2.253000020980835 C-38.46200180053711,-2.253000020980835 38.4630012512207,-2.253000020980835 38.4630012512207,-2.253000020980835 C39.70800018310547,-2.253000020980835 40.71500015258789,-1.2450000047683716 40.71500015258789,-0.0010000000474974513 C40.71500015258789,1.24399995803833 39.70800018310547,2.253000020980835 38.4630012512207,2.253000020980835z"></path></g><g opacity="1" transform="matrix(1,0,0,1,37.52199935913086,33.74100112915039)"><path fill="rgb(69,107,139)" fill-opacity="1" d=" M27.29800033569336,2.253000020980835 C27.29800033569336,2.253000020980835 -27.297000885009766,2.253000020980835 -27.297000885009766,2.253000020980835 C-28.54199981689453,2.253000020980835 -29.551000595092773,1.2450000047683716 -29.551000595092773,0.0010000000474974513 C-29.551000595092773,-1.24399995803833 -28.54199981689453,-2.253000020980835 -27.297000885009766,-2.253000020980835 C-27.297000885009766,-2.253000020980835 27.29800033569336,-2.253000020980835 27.29800033569336,-2.253000020980835 C28.542999267578125,-2.253000020980835 29.551000595092773,-1.24399995803833 29.551000595092773,0.0010000000474974513 C29.551000595092773,1.2450000047683716 28.542999267578125,2.253000020980835 27.29800033569336,2.253000020980835z"></path></g><g opacity="1" transform="matrix(1,0,0,1,80.49199676513672,33.74100112915039)"><path fill="rgb(69,107,139)" fill-opacity="1" d=" M7.783999919891357,2.253000020980835 C7.783999919891357,2.253000020980835 -7.7829999923706055,2.253000020980835 -7.7829999923706055,2.253000020980835 C-9.027999877929688,2.253000020980835 -10.036999702453613,1.2450000047683716 -10.036999702453613,0.0010000000474974513 C-10.036999702453613,-1.24399995803833 -9.027999877929688,-2.253000020980835 -7.7829999923706055,-2.253000020980835 C-7.7829999923706055,-2.253000020980835 7.783999919891357,-2.253000020980835 7.783999919891357,-2.253000020980835 C9.029000282287598,-2.253000020980835 10.036999702453613,-1.24399995803833 10.036999702453613,0.0010000000474974513 C10.036999702453613,1.2450000047683716 9.029000282287598,2.253000020980835 7.783999919891357,2.253000020980835z"></path></g><g opacity="1" transform="matrix(1,0,0,1,28.881999969482422,44.15299987792969)"><path fill="rgb(69,107,139)" fill-opacity="1" d=" M18.658000946044922,2.253000020980835 C18.658000946044922,2.253000020980835 -18.658000946044922,2.253000020980835 -18.658000946044922,2.253000020980835 C-19.902999877929688,2.253000020980835 -20.910999298095703,1.2450000047683716 -20.910999298095703,0.0010000000474974513 C-20.910999298095703,-1.24399995803833 -19.902999877929688,-2.253000020980835 -18.658000946044922,-2.253000020980835 C-18.658000946044922,-2.253000020980835 18.658000946044922,-2.253000020980835 18.658000946044922,-2.253000020980835 C19.902999877929688,-2.253000020980835 20.910999298095703,-1.24399995803833 20.910999298095703,0.0010000000474974513 C20.910999298095703,1.2450000047683716 19.902999877929688,2.253000020980835 18.658000946044922,2.253000020980835z"></path></g><g opacity="1" transform="matrix(1,0,0,1,62.513999938964844,44.15299987792969)"><path fill="rgb(69,107,139)" fill-opacity="1" d=" M7.085000038146973,2.253000020980835 C7.085000038146973,2.253000020980835 -7.084000110626221,2.253000020980835 -7.084000110626221,2.253000020980835 C-8.329000473022461,2.253000020980835 -9.338000297546387,1.2450000047683716 -9.338000297546387,0.0010000000474974513 C-9.338000297546387,-1.24399995803833 -8.329000473022461,-2.253000020980835 -7.084000110626221,-2.253000020980835 C-7.084000110626221,-2.253000020980835 7.085000038146973,-2.253000020980835 7.085000038146973,-2.253000020980835 C8.329999923706055,-2.253000020980835 9.338000297546387,-1.24399995803833 9.338000297546387,0.0010000000474974513 C9.338000297546387,1.2450000047683716 8.329999923706055,2.253000020980835 7.085000038146973,2.253000020980835z"></path></g><g opacity="1" transform="matrix(1,0,0,1,27.19700050354004,54.564998626708984)"><path fill="rgb(69,107,139)" fill-opacity="1" d=" M7.64300012588501,2.253999948501587 C7.64300012588501,2.253999948501587 -7.642000198364258,2.253999948501587 -7.642000198364258,2.253999948501587 C-8.88700008392334,2.253999948501587 -9.895999908447266,1.24399995803833 -9.895999908447266,0 C-9.895999908447266,-1.2450000047683716 -8.88700008392334,-2.253999948501587 -7.642000198364258,-2.253999948501587 C-7.642000198364258,-2.253999948501587 7.64300012588501,-2.253999948501587 7.64300012588501,-2.253999948501587 C8.88700008392334,-2.253999948501587 9.895999908447266,-1.2450000047683716 9.895999908447266,0 C9.895999908447266,1.24399995803833 8.88700008392334,2.253999948501587 7.64300012588501,2.253999948501587z"></path></g><g opacity="1" transform="matrix(1,0,0,1,57.21200180053711,64.97799682617188)"><path fill="rgb(69,107,139)" fill-opacity="1" d=" M29.937000274658203,2.253999948501587 C29.937000274658203,2.253999948501587 -29.93600082397461,2.253999948501587 -29.93600082397461,2.253999948501587 C-31.180999755859375,2.253999948501587 -32.18899917602539,1.2450000047683716 -32.18899917602539,0 C-32.18899917602539,-1.24399995803833 -31.180999755859375,-2.253999948501587 -29.93600082397461,-2.253999948501587 C-29.93600082397461,-2.253999948501587 29.937000274658203,-2.253999948501587 29.937000274658203,-2.253999948501587 C31.18199920654297,-2.253999948501587 32.18899917602539,-1.24399995803833 32.18899917602539,0 C32.18899917602539,1.2450000047683716 31.18199920654297,2.253999948501587 29.937000274658203,2.253999948501587z"></path></g><g opacity="1" transform="matrix(1,0,0,1,38.2130012512207,75.38999938964844)"><path fill="rgb(69,107,139)" fill-opacity="1" d=" M18.658000946044922,2.253999948501587 C18.658000946044922,2.253999948501587 -18.659000396728516,2.253999948501587 -18.659000396728516,2.253999948501587 C-19.90399932861328,2.253999948501587 -20.910999298095703,1.24399995803833 -20.910999298095703,-0.0010000000474974513 C-20.910999298095703,-1.2450000047683716 -19.90399932861328,-2.253999948501587 -18.659000396728516,-2.253999948501587 C-18.659000396728516,-2.253999948501587 18.658000946044922,-2.253999948501587 18.658000946044922,-2.253999948501587 C19.902999877929688,-2.253999948501587 20.910999298095703,-1.2450000047683716 20.910999298095703,-0.0010000000474974513 C20.910999298095703,1.24399995803833 19.902999877929688,2.253999948501587 18.658000946044922,2.253999948501587z"></path></g><g opacity="1" transform="matrix(1,0,0,1,30.555999755859375,85.802001953125)"><path fill="rgb(69,107,139)" fill-opacity="1" d=" M18.659000396728516,2.253000020980835 C18.659000396728516,2.253000020980835 -18.658000946044922,2.253000020980835 -18.658000946044922,2.253000020980835 C-19.902999877929688,2.253000020980835 -20.910999298095703,1.2450000047683716 -20.910999298095703,0.0010000000474974513 C-20.910999298095703,-1.24399995803833 -19.902999877929688,-2.253999948501587 -18.658000946044922,-2.253999948501587 C-18.658000946044922,-2.253999948501587 18.659000396728516,-2.253999948501587 18.659000396728516,-2.253999948501587 C19.90399932861328,-2.253999948501587 20.910999298095703,-1.24399995803833 20.910999298095703,0.0010000000474974513 C20.910999298095703,1.2450000047683716 19.90399932861328,2.253000020980835 18.659000396728516,2.253000020980835z"></path></g><g opacity="1" transform="matrix(1,0,0,1,12.63599967956543,96.21399688720703)"><path fill="rgb(69,107,139)" fill-opacity="1" d=" M10.131999969482422,2.253999948501587 C10.131999969482422,2.253999948501587 -10.133000373840332,2.253999948501587 -10.133000373840332,2.253999948501587 C-11.376999855041504,2.253999948501587 -12.38599967956543,1.2450000047683716 -12.38599967956543,0.0010000000474974513 C-12.38599967956543,-1.24399995803833 -11.376999855041504,-2.253000020980835 -10.133000373840332,-2.253000020980835 C-10.133000373840332,-2.253000020980835 10.131999969482422,-2.253000020980835 10.131999969482422,-2.253000020980835 C11.376999855041504,-2.253000020980835 12.38599967956543,-1.24399995803833 12.38599967956543,0.0010000000474974513 C12.38599967956543,1.2450000047683716 11.376999855041504,2.253999948501587 10.131999969482422,2.253999948501587z"></path></g><g opacity="1" transform="matrix(1,0,0,1,60.83300018310547,96.21399688720703)"><path fill="rgb(69,107,139)" fill-opacity="1" d=" M29.69700050354004,2.253999948501587 C29.69700050354004,2.253999948501587 -29.69700050354004,2.253999948501587 -29.69700050354004,2.253999948501587 C-30.941999435424805,2.253999948501587 -31.948999404907227,1.2450000047683716 -31.948999404907227,0.0010000000474974513 C-31.948999404907227,-1.24399995803833 -30.941999435424805,-2.253000020980835 -29.69700050354004,-2.253000020980835 C-29.69700050354004,-2.253000020980835 29.69700050354004,-2.253000020980835 29.69700050354004,-2.253000020980835 C30.941999435424805,-2.253000020980835 31.948999404907227,-1.24399995803833 31.948999404907227,0.0010000000474974513 C31.948999404907227,1.2450000047683716 30.941999435424805,2.253999948501587 29.69700050354004,2.253999948501587z"></path></g></g></mask></defs><g clip-path="url(#__lottie_element_531)"><g transform="matrix(1,0,0,1,240.31997680664062,-0.25)" opacity="1" style="display: block;"><g opacity="1" transform="matrix(1,0,0,1,419.9649963378906,300.25)"><path fill="#F3F3F3" fill-opacity="1" d=" M-298.57501220703125,180.28599548339844 C-298.57501220703125,180.28599548339844 -180.28500366210938,180.28599548339844 -180.28500366210938,180.28599548339844 C-180.28500366210938,180.28599548339844 -180.28500366210938,298.57598876953125 -180.28500366210938,298.57598876953125 C-180.28500366210938,298.57598876953125 -298.57501220703125,298.57598876953125 -298.57501220703125,298.57598876953125 C-298.57501220703125,298.57598876953125 -298.57501220703125,180.28599548339844 -298.57501220703125,180.28599548339844z M-178.86000061035156,180.28599548339844 C-178.86000061035156,180.28599548339844 -60.56999969482422,180.28599548339844 -60.56999969482422,180.28599548339844 C-60.56999969482422,180.28599548339844 -60.56999969482422,298.57598876953125 -60.56999969482422,298.57598876953125 C-60.56999969482422,298.57598876953125 -178.86000061035156,298.57598876953125 -178.86000061035156,298.57598876953125 C-178.86000061035156,298.57598876953125 -178.86000061035156,180.28599548339844 -178.86000061035156,180.28599548339844z M-59.14400100708008,180.28599548339844 C-59.14400100708008,180.28599548339844 59.14500045776367,180.28599548339844 59.14500045776367,180.28599548339844 C59.14500045776367,180.28599548339844 59.14500045776367,298.57598876953125 59.14500045776367,298.57598876953125 C59.14500045776367,298.57598876953125 -59.14400100708008,298.57598876953125 -59.14400100708008,298.57598876953125 C-59.14400100708008,298.57598876953125 -59.14400100708008,180.28599548339844 -59.14400100708008,180.28599548339844z M60.57099914550781,180.28599548339844 C60.57099914550781,180.28599548339844 178.86000061035156,180.28599548339844 178.86000061035156,180.28599548339844 C178.86000061035156,180.28599548339844 178.86000061035156,298.57598876953125 178.86000061035156,298.57598876953125 C178.86000061035156,298.57598876953125 60.57099914550781,298.57598876953125 60.57099914550781,298.57598876953125 C60.57099914550781,298.57598876953125 60.57099914550781,180.28599548339844 60.57099914550781,180.28599548339844z M180.28500366210938,180.28599548339844 C180.28500366210938,180.28599548339844 298.5740051269531,180.28599548339844 298.5740051269531,180.28599548339844 C298.5740051269531,180.28599548339844 298.5740051269531,298.57598876953125 298.5740051269531,298.57598876953125 C298.5740051269531,298.57598876953125 180.28500366210938,298.57598876953125 180.28500366210938,298.57598876953125 C180.28500366210938,298.57598876953125 180.28500366210938,180.28599548339844 180.28500366210938,180.28599548339844z M300,180.28599548339844 C300,180.28599548339844 418.2909851074219,180.28599548339844 418.2909851074219,180.28599548339844 C418.2909851074219,180.28599548339844 418.2909851074219,298.57598876953125 418.2909851074219,298.57598876953125 C418.2909851074219,298.57598876953125 300,298.57598876953125 300,298.57598876953125 C300,298.57598876953125 300,180.28599548339844 300,180.28599548339844z M-418.2900085449219,60.57099914550781 C-418.2900085449219,60.57099914550781 -299.9989929199219,60.57099914550781 -299.9989929199219,60.57099914550781 C-299.9989929199219,60.57099914550781 -299.9989929199219,178.86000061035156 -299.9989929199219,178.86000061035156 C-299.9989929199219,178.86000061035156 -418.2900085449219,178.86000061035156 -418.2900085449219,178.86000061035156 C-418.2900085449219,178.86000061035156 -418.2900085449219,60.57099914550781 -418.2900085449219,60.57099914550781z M-298.57501220703125,60.57099914550781 C-298.57501220703125,60.57099914550781 -180.28500366210938,60.57099914550781 -180.28500366210938,60.57099914550781 C-180.28500366210938,60.57099914550781 -180.28500366210938,178.86000061035156 -180.28500366210938,178.86000061035156 C-180.28500366210938,178.86000061035156 -298.57501220703125,178.86000061035156 -298.57501220703125,178.86000061035156 C-298.57501220703125,178.86000061035156 -298.57501220703125,60.57099914550781 -298.57501220703125,60.57099914550781z M-178.86000061035156,60.57099914550781 C-178.86000061035156,60.57099914550781 -60.56999969482422,60.57099914550781 -60.56999969482422,60.57099914550781 C-60.56999969482422,60.57099914550781 -60.56999969482422,178.86000061035156 -60.56999969482422,178.86000061035156 C-60.56999969482422,178.86000061035156 -178.86000061035156,178.86000061035156 -178.86000061035156,178.86000061035156 C-178.86000061035156,178.86000061035156 -178.86000061035156,60.57099914550781 -178.86000061035156,60.57099914550781z M-59.14400100708008,60.57099914550781 C-59.14400100708008,60.57099914550781 59.14500045776367,60.57099914550781 59.14500045776367,60.57099914550781 C59.14500045776367,60.57099914550781 59.14500045776367,178.86000061035156 59.14500045776367,178.86000061035156 C59.14500045776367,178.86000061035156 -59.14400100708008,178.86000061035156 -59.14400100708008,178.86000061035156 C-59.14400100708008,178.86000061035156 -59.14400100708008,60.57099914550781 -59.14400100708008,60.57099914550781z M60.57099914550781,60.57099914550781 C60.57099914550781,60.57099914550781 178.86000061035156,60.57099914550781 178.86000061035156,60.57099914550781 C178.86000061035156,60.57099914550781 178.86000061035156,178.86000061035156 178.86000061035156,178.86000061035156 C178.86000061035156,178.86000061035156 60.57099914550781,178.86000061035156 60.57099914550781,178.86000061035156 C60.57099914550781,178.86000061035156 60.57099914550781,60.57099914550781 60.57099914550781,60.57099914550781z M180.28500366210938,60.57099914550781 C180.28500366210938,60.57099914550781 298.5740051269531,60.57099914550781 298.5740051269531,60.57099914550781 C298.5740051269531,60.57099914550781 298.5740051269531,178.86000061035156 298.5740051269531,178.86000061035156 C298.5740051269531,178.86000061035156 180.28500366210938,178.86000061035156 180.28500366210938,178.86000061035156 C180.28500366210938,178.86000061035156 180.28500366210938,60.57099914550781 180.28500366210938,60.57099914550781z M-418.2900085449219,-59.14500045776367 C-418.2900085449219,-59.14500045776367 -299.9989929199219,-59.14500045776367 -299.9989929199219,-59.14500045776367 C-299.9989929199219,-59.14500045776367 -299.9989929199219,59.14500045776367 -299.9989929199219,59.14500045776367 C-299.9989929199219,59.14500045776367 -418.2900085449219,59.14500045776367 -418.2900085449219,59.14500045776367 C-418.2900085449219,59.14500045776367 -418.2900085449219,-59.14500045776367 -418.2900085449219,-59.14500045776367z M-298.57501220703125,-59.14500045776367 C-298.57501220703125,-59.14500045776367 -180.28500366210938,-59.14500045776367 -180.28500366210938,-59.14500045776367 C-180.28500366210938,-59.14500045776367 -180.28500366210938,59.14500045776367 -180.28500366210938,59.14500045776367 C-180.28500366210938,59.14500045776367 -298.57501220703125,59.14500045776367 -298.57501220703125,59.14500045776367 C-298.57501220703125,59.14500045776367 -298.57501220703125,-59.14500045776367 -298.57501220703125,-59.14500045776367z M-178.86000061035156,-59.14500045776367 C-178.86000061035156,-59.14500045776367 -60.56999969482422,-59.14500045776367 -60.56999969482422,-59.14500045776367 C-60.56999969482422,-59.14500045776367 -60.56999969482422,59.14500045776367 -60.56999969482422,59.14500045776367 C-60.56999969482422,59.14500045776367 -178.86000061035156,59.14500045776367 -178.86000061035156,59.14500045776367 C-178.86000061035156,59.14500045776367 -178.86000061035156,-59.14500045776367 -178.86000061035156,-59.14500045776367z M-59.14400100708008,-59.14500045776367 C-59.14400100708008,-59.14500045776367 59.14500045776367,-59.14500045776367 59.14500045776367,-59.14500045776367 C59.14500045776367,-59.14500045776367 59.14500045776367,59.14500045776367 59.14500045776367,59.14500045776367 C59.14500045776367,59.14500045776367 -59.14400100708008,59.14500045776367 -59.14400100708008,59.14500045776367 C-59.14400100708008,59.14500045776367 -59.14400100708008,-59.14500045776367 -59.14400100708008,-59.14500045776367z M60.57099914550781,-59.14500045776367 C60.57099914550781,-59.14500045776367 178.86000061035156,-59.14500045776367 178.86000061035156,-59.14500045776367 C178.86000061035156,-59.14500045776367 178.86000061035156,59.14500045776367 178.86000061035156,59.14500045776367 C178.86000061035156,59.14500045776367 60.57099914550781,59.14500045776367 60.57099914550781,59.14500045776367 C60.57099914550781,59.14500045776367 60.57099914550781,-59.14500045776367 60.57099914550781,-59.14500045776367z M180.28500366210938,-59.14500045776367 C180.28500366210938,-59.14500045776367 298.5740051269531,-59.14500045776367 298.5740051269531,-59.14500045776367 C298.5740051269531,-59.14500045776367 298.5740051269531,59.14500045776367 298.5740051269531,59.14500045776367 C298.5740051269531,59.14500045776367 180.28500366210938,59.14500045776367 180.28500366210938,59.14500045776367 C180.28500366210938,59.14500045776367 180.28500366210938,-59.14500045776367 180.28500366210938,-59.14500045776367z M-418.2900085449219,-178.86000061035156 C-418.2900085449219,-178.86000061035156 -299.9989929199219,-178.86000061035156 -299.9989929199219,-178.86000061035156 C-299.9989929199219,-178.86000061035156 -299.9989929199219,-60.56999969482422 -299.9989929199219,-60.56999969482422 C-299.9989929199219,-60.56999969482422 -418.2900085449219,-60.56999969482422 -418.2900085449219,-60.56999969482422 C-418.2900085449219,-60.56999969482422 -418.2900085449219,-178.86000061035156 -418.2900085449219,-178.86000061035156z M-298.57501220703125,-178.86000061035156 C-298.57501220703125,-178.86000061035156 -180.28500366210938,-178.86000061035156 -180.28500366210938,-178.86000061035156 C-180.28500366210938,-178.86000061035156 -180.28500366210938,-60.56999969482422 -180.28500366210938,-60.56999969482422 C-180.28500366210938,-60.56999969482422 -298.57501220703125,-60.56999969482422 -298.57501220703125,-60.56999969482422 C-298.57501220703125,-60.56999969482422 -298.57501220703125,-178.86000061035156 -298.57501220703125,-178.86000061035156z M-178.86000061035156,-178.86000061035156 C-178.86000061035156,-178.86000061035156 -60.56999969482422,-178.86000061035156 -60.56999969482422,-178.86000061035156 C-60.56999969482422,-178.86000061035156 -60.56999969482422,-60.56999969482422 -60.56999969482422,-60.56999969482422 C-60.56999969482422,-60.56999969482422 -178.86000061035156,-60.56999969482422 -178.86000061035156,-60.56999969482422 C-178.86000061035156,-60.56999969482422 -178.86000061035156,-178.86000061035156 -178.86000061035156,-178.86000061035156z M-59.14400100708008,-178.86000061035156 C-59.14400100708008,-178.86000061035156 59.14500045776367,-178.86000061035156 59.14500045776367,-178.86000061035156 C59.14500045776367,-178.86000061035156 59.14500045776367,-60.56999969482422 59.14500045776367,-60.56999969482422 C59.14500045776367,-60.56999969482422 -59.14400100708008,-60.56999969482422 -59.14400100708008,-60.56999969482422 C-59.14400100708008,-60.56999969482422 -59.14400100708008,-178.86000061035156 -59.14400100708008,-178.86000061035156z M60.57099914550781,-178.86000061035156 C60.57099914550781,-178.86000061035156 178.86000061035156,-178.86000061035156 178.86000061035156,-178.86000061035156 C178.86000061035156,-178.86000061035156 178.86000061035156,-60.56999969482422 178.86000061035156,-60.56999969482422 C178.86000061035156,-60.56999969482422 60.57099914550781,-60.56999969482422 60.57099914550781,-60.56999969482422 C60.57099914550781,-60.56999969482422 60.57099914550781,-178.86000061035156 60.57099914550781,-178.86000061035156z M180.28500366210938,-178.86000061035156 C180.28500366210938,-178.86000061035156 298.5740051269531,-178.86000061035156 298.5740051269531,-178.86000061035156 C298.5740051269531,-178.86000061035156 298.5740051269531,-60.56999969482422 298.5740051269531,-60.56999969482422 C298.5740051269531,-60.56999969482422 180.28500366210938,-60.56999969482422 180.28500366210938,-60.56999969482422 C180.28500366210938,-60.56999969482422 180.28500366210938,-178.86000061035156 180.28500366210938,-178.86000061035156z M300,-178.86000061035156 C300,-178.86000061035156 418.2909851074219,-178.86000061035156 418.2909851074219,-178.86000061035156 C418.2909851074219,-178.86000061035156 418.2909851074219,-60.56999969482422 418.2909851074219,-60.56999969482422 C418.2909851074219,-60.56999969482422 300,-60.56999969482422 300,-60.56999969482422 C300,-60.56999969482422 300,-178.86000061035156 300,-178.86000061035156z M-418.2900085449219,-298.5740051269531 C-418.2900085449219,-298.5740051269531 -299.9989929199219,-298.5740051269531 -299.9989929199219,-298.5740051269531 C-299.9989929199219,-298.5740051269531 -299.9989929199219,-180.28399658203125 -299.9989929199219,-180.28399658203125 C-299.9989929199219,-180.28399658203125 -418.2900085449219,-180.28399658203125 -418.2900085449219,-180.28399658203125 C-418.2900085449219,-180.28399658203125 -418.2900085449219,-298.5740051269531 -418.2900085449219,-298.5740051269531z M-298.57501220703125,-298.5740051269531 C-298.57501220703125,-298.5740051269531 -180.28500366210938,-298.5740051269531 -180.28500366210938,-298.5740051269531 C-180.28500366210938,-298.5740051269531 -180.28500366210938,-180.28399658203125 -180.28500366210938,-180.28399658203125 C-180.28500366210938,-180.28399658203125 -298.57501220703125,-180.28399658203125 -298.57501220703125,-180.28399658203125 C-298.57501220703125,-180.28399658203125 -298.57501220703125,-298.5740051269531 -298.57501220703125,-298.5740051269531z M-178.86000061035156,-298.5740051269531 C-178.86000061035156,-298.5740051269531 -60.56999969482422,-298.5740051269531 -60.56999969482422,-298.5740051269531 C-60.56999969482422,-298.5740051269531 -60.56999969482422,-180.28399658203125 -60.56999969482422,-180.28399658203125 C-60.56999969482422,-180.28399658203125 -178.86000061035156,-180.28399658203125 -178.86000061035156,-180.28399658203125 C-178.86000061035156,-180.28399658203125 -178.86000061035156,-298.5740051269531 -178.86000061035156,-298.5740051269531z M-59.14400100708008,-298.5740051269531 C-59.14400100708008,-298.5740051269531 59.14500045776367,-298.5740051269531 59.14500045776367,-298.5740051269531 C59.14500045776367,-298.5740051269531 59.14500045776367,-180.28399658203125 59.14500045776367,-180.28399658203125 C59.14500045776367,-180.28399658203125 -59.14400100708008,-180.28399658203125 -59.14400100708008,-180.28399658203125 C-59.14400100708008,-180.28399658203125 -59.14400100708008,-298.5740051269531 -59.14400100708008,-298.5740051269531z M60.57099914550781,-298.5740051269531 C60.57099914550781,-298.5740051269531 178.86000061035156,-298.5740051269531 178.86000061035156,-298.5740051269531 C178.86000061035156,-298.5740051269531 178.86000061035156,-180.28399658203125 178.86000061035156,-180.28399658203125 C178.86000061035156,-180.28399658203125 60.57099914550781,-180.28399658203125 60.57099914550781,-180.28399658203125 C60.57099914550781,-180.28399658203125 60.57099914550781,-298.5740051269531 60.57099914550781,-298.5740051269531z M180.28500366210938,-298.5740051269531 C180.28500366210938,-298.5740051269531 298.5740051269531,-298.5740051269531 298.5740051269531,-298.5740051269531 C298.5740051269531,-298.5740051269531 298.5740051269531,-180.28399658203125 298.5740051269531,-180.28399658203125 C298.5740051269531,-180.28399658203125 180.28500366210938,-180.28399658203125 180.28500366210938,-180.28399658203125 C180.28500366210938,-180.28399658203125 180.28500366210938,-298.5740051269531 180.28500366210938,-298.5740051269531z M300,-298.5740051269531 C300,-298.5740051269531 418.2909851074219,-298.5740051269531 418.2909851074219,-298.5740051269531 C418.2909851074219,-298.5740051269531 418.2909851074219,-180.28399658203125 418.2909851074219,-180.28399658203125 C418.2909851074219,-180.28399658203125 300,-180.28399658203125 300,-180.28399658203125 C300,-180.28399658203125 300,-298.5740051269531 300,-298.5740051269531z M-419.7149963378906,-300 C-419.7149963378906,-300 -419.7149963378906,-299.2869873046875 -419.7149963378906,-299.2869873046875 C-419.7149963378906,-299.2869873046875 -419.7149963378906,-179.57200622558594 -419.7149963378906,-179.57200622558594 C-419.7149963378906,-179.57200622558594 -419.7149963378906,-178.86000061035156 -419.7149963378906,-178.86000061035156 C-419.7149963378906,-178.86000061035156 -419.7149963378906,-59.856998443603516 -419.7149963378906,-59.856998443603516 C-419.7149963378906,-59.856998443603516 -419.7149963378906,-59.14500045776367 -419.7149963378906,-59.14500045776367 C-419.7149963378906,-59.14500045776367 -419.7149963378906,59.858001708984375 -419.7149963378906,59.858001708984375 C-419.7149963378906,59.858001708984375 -419.7149963378906,60.57099914550781 -419.7149963378906,60.57099914550781 C-419.7149963378906,60.57099914550781 -419.7149963378906,179.57200622558594 -419.7149963378906,179.57200622558594 C-419.7149963378906,179.57200622558594 -419.7149963378906,180.28599548339844 -419.7149963378906,180.28599548339844 C-419.7149963378906,180.28599548339844 -419.00201416015625,180.28599548339844 -419.00201416015625,180.28599548339844 C-419.00201416015625,180.28599548339844 -300,180.28599548339844 -300,180.28599548339844 C-300,180.28599548339844 -300,299.2869873046875 -300,299.2869873046875 C-300,299.2869873046875 -300,300 -300,300 C-300,300 -299.2879943847656,300 -299.2879943847656,300 C-299.2879943847656,300 -180.28500366210938,300 -180.28500366210938,300 C-180.28500366210938,300 -179.57200622558594,300 -179.57200622558594,300 C-179.57200622558594,300 -178.86000061035156,300 -178.86000061035156,300 C-178.86000061035156,300 -60.56999969482422,300 -60.56999969482422,300 C-60.56999969482422,300 -59.856998443603516,300 -59.856998443603516,300 C-59.856998443603516,300 -59.14400100708008,300 -59.14400100708008,300 C-59.14400100708008,300 59.14400100708008,300 59.14400100708008,300 C59.14400100708008,300 59.856998443603516,300 59.856998443603516,300 C59.856998443603516,300 60.57099914550781,300 60.57099914550781,300 C60.57099914550781,300 178.86000061035156,300 178.86000061035156,300 C178.86000061035156,300 179.57200622558594,300 179.57200622558594,300 C179.57200622558594,300 180.28500366210938,300 180.28500366210938,300 C180.28500366210938,300 298.5740051269531,300 298.5740051269531,300 C298.5740051269531,300 299.2869873046875,300 299.2869873046875,300 C299.2869873046875,300 300,300 300,300 C300,300 419.00201416015625,300 419.00201416015625,300 C419.00201416015625,300 419.7149963378906,300 419.7149963378906,300 C419.7149963378906,300 419.7149963378906,178.85899353027344 419.7149963378906,178.85899353027344 C419.7149963378906,178.85899353027344 419.00201416015625,178.85899353027344 419.00201416015625,178.85899353027344 C419.00201416015625,178.85899353027344 300,178.85899353027344 300,178.85899353027344 C300,178.85899353027344 300,60.57099914550781 300,60.57099914550781 C300,60.57099914550781 300,59.858001708984375 300,59.858001708984375 C300,59.858001708984375 300,59.14500045776367 300,59.14500045776367 C300,59.14500045776367 300,-59.14500045776367 300,-59.14500045776367 C300,-59.14500045776367 419.00201416015625,-59.14500045776367 419.00201416015625,-59.14500045776367 C419.00201416015625,-59.14500045776367 419.7149963378906,-59.14500045776367 419.7149963378906,-59.14500045776367 C419.7149963378906,-59.14500045776367 419.7149963378906,-300 419.7149963378906,-300 C419.7149963378906,-300 -419.7149963378906,-300 -419.7149963378906,-300z"></path></g></g><g clip-path="url(#__lottie_element_533)" transform="matrix(1,0,0,1,330.4840087890625,0)" opacity="1" style="display: block;"><g transform="matrix(1,0,0,1,269.4380187988281,-0.0970001220703125)" opacity="1" style="display: block;"><g opacity="1" transform="matrix(1,0,0,1,30.249000549316406,30.25)"><path fill="#C9E9D9" fill-opacity="1" d=" M-29.999000549316406,30 C-29.999000549316406,30 29.999000549316406,30 29.999000549316406,30 C29.999000549316406,30 29.999000549316406,-30 29.999000549316406,-30 C29.999000549316406,-30 -29.999000549316406,-30 -29.999000549316406,-30 C-29.999000549316406,-30 -29.999000549316406,30 -29.999000549316406,30z"></path></g></g><g transform="matrix(1,0,0,1,450.2070007324219,59.75)" opacity="1" style="display: block;"><g opacity="1" transform="matrix(1,0,0,1,30.25,30.25)"><path fill="#004149" fill-opacity="1" d=" M-30,30 C-30,30 30,30 30,30 C30,30 30,-30 30,-30 C-3.13700008392334,-30 -30,-3.13700008392334 -30,30z"></path></g></g><g transform="matrix(1,0,0,1,389.24798583984375,56.49500274658203)" opacity="1" style="display: block;"><g opacity="1" transform="matrix(1,0,0,1,0,0)"><path stroke-linecap="butt" stroke-linejoin="miter" fill-opacity="0" stroke-miterlimit="10" stroke="#C9E9D9" stroke-opacity="1" stroke-width="1" d=" M0.5,162.02000427246094 C0.5,162.02000427246094 0.5,0.5 0.5,0.5"></path></g></g><g transform="matrix(1,0,0,1,377.2019958496094,56.49500274658203)" opacity="1" style="display: block;"><g opacity="1" transform="matrix(1,0,0,1,0,0)"><path stroke-linecap="butt" stroke-linejoin="miter" fill-opacity="0" stroke-miterlimit="10" stroke="#C9E9D9" stroke-opacity="1" stroke-width="1" d=" M0.5,162.5030059814453 C0.5,162.5030059814453 0.5,0.5 0.5,0.5"></path></g></g><g transform="matrix(1,0,0,1,-2.1140060424804688,236.54800415039062)" opacity="1" style="display: block;"><g opacity="1" transform="matrix(1,0,0,1,62.65999984741211,32.00699996948242)"><path stroke-linecap="butt" stroke-linejoin="miter" fill-opacity="0" stroke-miterlimit="10" stroke="#C9E9D9" stroke-opacity="1" stroke-width="1" d=" M-59.67599868774414,29.506999969482422 C-59.67599868774414,29.506999969482422 38.08300018310547,29.506999969482422 38.08300018310547,29.506999969482422 C50.007999420166016,29.506999969482422 59.67599868774414,19.84000015258789 59.67599868774414,7.914999961853027 C59.67599868774414,7.914999961853027 59.67599868774414,-29.506999969482422 59.67599868774414,-29.506999969482422"></path></g><g opacity="1" transform="matrix(1,0,0,1,68.44000244140625,38.02899932861328)"><path stroke-linecap="butt" stroke-linejoin="miter" fill-opacity="0" stroke-miterlimit="10" stroke="#C9E9D9" stroke-opacity="1" stroke-width="1" d=" M-65.94100189208984,35.52899932861328 C-65.94100189208984,35.52899932861328 35.625,35.52899932861328 35.625,35.52899932861328 C52.36800003051758,35.52899932861328 65.94100189208984,21.95800018310547 65.94100189208984,5.215000152587891 C65.94100189208984,5.215000152587891 65.94100189208984,-35.52899932861328 65.94100189208984,-35.52899932861328"></path></g></g><g transform="matrix(1,0,0,1,14.779022216796875,-1.819000244140625)" opacity="1" style="display: block;"><g opacity="1" transform="matrix(1,0,0,1,314.9079895019531,210.86700439453125)"><path stroke-linecap="butt" stroke-linejoin="miter" fill-opacity="0" stroke-miterlimit="10" stroke="#0FAE5A" stroke-opacity="1" stroke-width="1" d=" M-300.4079895019531,-208.36700439453125 C-300.4079895019531,-208.36700439453125 -300.4079895019531,-34.6619987487793 -300.4079895019531,-34.6619987487793 C-300.4079895019531,-22.73699951171875 -290.739990234375,-13.069999694824219 -278.81500244140625,-13.069999694824219 C-278.81500244140625,-13.069999694824219 -227.74600219726562,-13.069999694824219 -227.74600219726562,-13.069999694824219 C-211.0030059814453,-13.069999694824219 -197.42999267578125,0.503000020980835 -197.42999267578125,17.246000289916992 C-197.42999267578125,17.246000289916992 -197.42999267578125,67.35299682617188 -197.42999267578125,67.35299682617188 C-197.42999267578125,79.27799987792969 -187.76300048828125,88.94499969482422 -175.83900451660156,88.94499969482422 C-175.83900451660156,88.94499969482422 26.45800018310547,88.94499969482422 26.45800018310547,88.94499969482422 C38.382999420166016,88.94499969482422 48.05099868774414,79.27799987792969 48.05099868774414,67.35299682617188 C48.05099868774414,67.35299682617188 48.05099868774414,0.3880000114440918 48.05099868774414,0.3880000114440918 C48.05099868774414,-16.354999542236328 61.62300109863281,-29.92799949645996 78.36599731445312,-29.92799949645996 C78.36599731445312,-29.92799949645996 207.88699340820312,-29.92799949645996 207.88699340820312,-29.92799949645996 C224.6300048828125,-29.92799949645996 238.20199584960938,-16.354999542236328 238.20199584960938,0.3880000114440918 C238.20199584960938,0.3880000114440918 238.20199584960938,186.7760009765625 238.20199584960938,186.7760009765625 C238.20199584960938,198.6999969482422 247.8679962158203,208.36700439453125 259.7929992675781,208.36700439453125 C259.7929992675781,208.36700439453125 300.4079895019531,208.36700439453125 300.4079895019531,208.36700439453125"></path></g><g opacity="1" transform="matrix(1,0,0,1,308.9079895019531,222.86700439453125)"><path stroke-linecap="butt" stroke-linejoin="miter" fill-opacity="0" stroke-miterlimit="10" stroke="#0FAE5A" stroke-opacity="1" stroke-width="1" d=" M-306.4079895019531,-208.36700439453125 C-306.4079895019531,-208.36700439453125 -306.4079895019531,-43.38600158691406 -306.4079895019531,-43.38600158691406 C-306.4079895019531,-26.64299964904785 -292.8340148925781,-13.069999694824219 -276.09100341796875,-13.069999694824219 C-276.09100341796875,-13.069999694824219 -225.02200317382812,-13.069999694824219 -225.02200317382812,-13.069999694824219 C-213.0959930419922,-13.069999694824219 -203.42999267578125,-3.4030001163482666 -203.42999267578125,8.522000312805176 C-203.42999267578125,8.522000312805176 -203.42999267578125,58.62799835205078 -203.42999267578125,58.62799835205078 C-203.42999267578125,75.37100219726562 -189.85800170898438,88.94499969482422 -173.11500549316406,88.94499969482422 C-173.11500549316406,88.94499969482422 35.736000061035156,88.94499969482422 35.736000061035156,88.94499969482422 C52.479000091552734,88.94499969482422 66.0510025024414,75.37100219726562 66.0510025024414,58.62799835205078 C66.0510025024414,58.62799835205078 66.0510025024414,-8.336000442504883 66.0510025024414,-8.336000442504883 C66.0510025024414,-20.26099967956543 75.71700286865234,-29.92799949645996 87.64299774169922,-29.92799949645996 C87.64299774169922,-29.92799949645996 210.61099243164062,-29.92799949645996 210.61099243164062,-29.92799949645996 C222.53500366210938,-29.92799949645996 232.20199584960938,-20.26099967956543 232.20199584960938,-8.336000442504883 C232.20199584960938,-8.336000442504883 232.20199584960938,178.05099487304688 232.20199584960938,178.05099487304688 C232.20199584960938,194.79400634765625 245.7760009765625,208.36700439453125 262.5190124511719,208.36700439453125 C262.5190124511719,208.36700439453125 306.4079895019531,208.36700439453125 306.4079895019531,208.36700439453125"></path></g></g><g transform="matrix(1,0,0,1,450.2070007324219,298.4100036621094)" opacity="1" style="display: block;"><g opacity="1" transform="matrix(1,0,0,1,30.25,30.25)"><path fill="#0FAE5A" fill-opacity="1" d=" M-30,30 C-30,30 30,30 30,30 C30,30 30,-30 30,-30 C30,-30 -30,-30 -30,-30 C-30,-30 -30,30 -30,30z"></path></g></g><g transform="matrix(0,0,0,0,480.4580078125,328.6600036621094)" opacity="1" style="display: block;"><g opacity="1" transform="matrix(1,0,0,1,24.180999755859375,24.18199920654297)"><path stroke-linecap="butt" stroke-linejoin="miter" fill-opacity="0" stroke-miterlimit="10" stroke="#004149" stroke-opacity="1" stroke-width="2px" d=" M19.180999755859375,0.0010000000474974513 C19.180999755859375,-10.593000411987305 10.593000411987305,-19.18199920654297 -0.0010000000474974513,-19.18199920654297 C-10.593000411987305,-19.18199920654297 -19.180999755859375,-10.593000411987305 -19.180999755859375,0.0010000000474974513 C-19.180999755859375,10.593999862670898 -10.593000411987305,19.18199920654297 -0.0010000000474974513,19.18199920654297 C10.593000411987305,19.18199920654297 19.180999755859375,10.593999862670898 19.180999755859375,0.0010000000474974513z"></path></g></g><g transform="matrix(0,0,0,0,480.4580078125,328.6600036621094)" opacity="1" style="display: block;"><g opacity="1" transform="matrix(1,0,0,1,11.131999969482422,7.809999942779541)"><path fill="#F8F8F8" fill-opacity="1" d=" M-6.64300012588501,6.64300012588501 C-6.64300012588501,6.64300012588501 -6.64300012588501,6.64300012588501 -6.64300012588501,6.64300012588501 C-7.559999942779541,5.72599983215332 -7.559999942779541,4.238999843597412 -6.64300012588501,3.322000026702881 C-6.64300012588501,3.322000026702881 3.322000026702881,-6.64300012588501 3.322000026702881,-6.64300012588501 C4.239999771118164,-7.559999942779541 5.72599983215332,-7.559999942779541 6.644000053405762,-6.64300012588501 C7.560999870300293,-5.72599983215332 7.560999870300293,-4.238999843597412 6.644000053405762,-3.322000026702881 C6.644000053405762,-3.322000026702881 -3.321000099182129,6.64300012588501 -3.321000099182129,6.64300012588501 C-4.238999843597412,7.559999942779541 -5.724999904632568,7.559999942779541 -6.64300012588501,6.64300012588501z"></path></g><g opacity="1" transform="matrix(1,0,0,1,4.488999843597412,11.130999565124512)"><path fill="#F8F8F8" fill-opacity="1" d=" M3.322000026702881,3.322000026702881 C3.322000026702881,3.322000026702881 3.322000026702881,3.322000026702881 3.322000026702881,3.322000026702881 C2.4040000438690186,4.238999843597412 0.9179999828338623,4.238999843597412 0,3.322000026702881 C0,3.322000026702881 -3.322000026702881,0.0010000000474974513 -3.322000026702881,0.0010000000474974513 C-4.238999843597412,-0.9160000085830688 -4.238999843597412,-2.4040000438690186 -3.322000026702881,-3.321000099182129 C-2.4049999713897705,-4.238999843597412 -0.9169999957084656,-4.238999843597412 0,-3.321000099182129 C0,-3.321000099182129 3.322000026702881,0.0010000000474974513 3.322000026702881,0.0010000000474974513 C4.238999843597412,0.9179999828338623 4.238999843597412,2.4049999713897705 3.322000026702881,3.322000026702881z"></path></g></g><g transform="matrix(1,0,0,1,29.436996459960938,329.802001953125)" opacity="1" style="display: block;"><g opacity="1" transform="matrix(1,0,0,1,60.25,75.2239990234375)"><path fill="#004149" fill-opacity="1" d=" M-60,74.9739990234375 C-60,74.9739990234375 60,74.9739990234375 60,74.9739990234375 C60,74.9739990234375 60,-74.9739990234375 60,-74.9739990234375 C60,-74.9739990234375 -60,-74.9739990234375 -60,-74.9739990234375 C-60,-74.9739990234375 -60,74.9739990234375 -60,74.9739990234375z"></path></g></g><g transform="matrix(1,0,0,1,509.8459777832031,-0.25)" opacity="1" style="display: block;"><g opacity="1" transform="matrix(1,0,0,1,60.20199966430664,60.25)"><path fill="#456B8B" fill-opacity="1" d=" M-59.95199966430664,60 C-59.95199966430664,60 59.95199966430664,60 59.95199966430664,60 C59.95199966430664,60 59.95199966430664,-60 59.95199966430664,-60 C59.95199966430664,-60 -59.95199966430664,-60 -59.95199966430664,-60 C-59.95199966430664,-60 -59.95199966430664,60 -59.95199966430664,60z"></path></g></g><g transform="matrix(1,0,0,1,149.43699645996094,119.75)" opacity="1" style="display: block;"><g opacity="1" transform="matrix(1,0,0,1,60.25,30.25)"><path fill="#008C50" fill-opacity="1" d=" M-60,30 C-60,30 60,30 60,30 C60,30 60,-30 60,-30 C60,-30 -60,-30 -60,-30 C-60,-30 -60,30 -60,30z"></path></g></g><g transform="matrix(1,0,0,1,269.43701171875,419.802001953125)" opacity="1" style="display: block;"><g opacity="1" transform="matrix(1,0,0,1,60.25,30.224000930786133)"><path fill="#0FAE5A" fill-opacity="1" d=" M-60,29.974000930786133 C-60,29.974000930786133 60,29.974000930786133 60,29.974000930786133 C60,29.974000930786133 60,-29.974000930786133 60,-29.974000930786133 C60,-29.974000930786133 -60,-29.974000930786133 -60,-29.974000930786133 C-60,-29.974000930786133 -60,29.974000930786133 -60,29.974000930786133z"></path></g></g><g transform="matrix(1,0,0,1,280.1500244140625,428.7300109863281)" opacity="1" style="display: block;"><g opacity="1" transform="matrix(1,0,0,1,48.6510009765625,15.720999717712402)"><path stroke-linecap="round" stroke-linejoin="round" fill-opacity="0" stroke="#008C50" stroke-opacity="1" stroke-width="2px" d=" M-43.6510009765625,7.942999839782715 C-43.6510009765625,7.942999839782715 -29.15399932861328,-0.7549999952316284 -29.15399932861328,-0.7549999952316284 C-29.15399932861328,-0.7549999952316284 -14.657999992370605,3.5339999198913574 -14.657999992370605,3.5339999198913574 C-14.657999992370605,3.5339999198913574 -13.131999969482422,1.8669999837875366 -11.125,-0.32600000500679016"></path></g></g><g transform="matrix(1,0,0,1,280.1500244140625,446.0039978027344)" opacity="1" style="display: block;"><g opacity="1" transform="matrix(1,0,0,1,48.6510009765625,9.793000221252441)"><path stroke-linecap="round" stroke-linejoin="round" fill-opacity="0" stroke="#C9E9D9" stroke-opacity="1" stroke-width="2px" d=" M-43.6510009765625,2.618000030517578 C-43.6510009765625,2.618000030517578 -29.395999908447266,-0.4020000100135803 -29.395999908447266,-0.4020000100135803 C-29.395999908447266,-0.4020000100135803 -13.85200023651123,4.791999816894531 -13.85200023651123,4.791999816894531 C-13.85200023651123,4.791999816894531 -13.109999656677246,4.428999900817871 -11.970000267028809,3.869999885559082"></path></g></g><g transform="matrix(1,0,0,1,269.43701171875,359.802001953125)" opacity="1" style="display: block;"><g opacity="1" transform="matrix(1,0,0,1,30.25,30.25)"><path fill="#456B8B" fill-opacity="1" d=" M-30,30 C-30,30 30,30 30,30 C30,30 30,-30 30,-30 C30,-30 -30,-30 -30,-30 C-30,-30 -30,30 -30,30z"></path></g></g><g transform="matrix(1,0,0,1,284.4430236816406,374.8080139160156)" opacity="1" style="display: block;"><g opacity="1" transform="matrix(1,0,0,1,15.244000434875488,15.244000434875488)"><path fill="#C9E9D9" fill-opacity="1" d=" M14.994999885559082,0 C14.994999885559082,-8.281000137329102 8.281999588012695,-14.994000434875488 0.0010000000474974513,-14.994000434875488 C-8.279999732971191,-14.994000434875488 -14.994999885559082,-8.281000137329102 -14.994999885559082,0 C-14.994999885559082,8.281000137329102 -8.279999732971191,14.994000434875488 0.0010000000474974513,14.994000434875488 C8.281999588012695,14.994000434875488 14.994999885559082,8.281000137329102 14.994999885559082,0z"></path></g></g><g transform="matrix(1,0,0,1,284.4430236816406,374.8080139160156)" opacity="1" style="display: block;"><g opacity="1" transform="matrix(1,0,0,1,15.244000434875488,15.244000434875488)"><path fill="#00414A" fill-opacity="1" d=" M14.994999885559082,0 C14.994999885559082,-8.281000137329102 8.281999588012695,-14.994000434875488 0.0010000000474974513,-14.994000434875488 C-8.279999732971191,-14.994000434875488 -14.994999885559082,-8.281000137329102 -14.994999885559082,0 C-14.994999885559082,8.281000137329102 -8.279999732971191,14.994000434875488 0.0010000000474974513,14.994000434875488 C8.281999588012695,14.994000434875488 14.994999885559082,8.281000137329102 14.994999885559082,0z"></path></g></g><g transform="matrix(1,0,0,1,591.2860107421875,74.41200256347656)" opacity="1" style="display: block;"><g opacity="1" transform="matrix(1,0,0,1,12.902000427246094,12.902000427246094)"><path fill="#008C50" fill-opacity="1" d=" M12.652999877929688,0 C12.652999877929688,-6.98799991607666 6.986999988555908,-12.652000427246094 0,-12.652000427246094 C-6.98799991607666,-12.652000427246094 -12.652999877929688,-6.98799991607666 -12.652999877929688,0 C-12.652999877929688,6.98799991607666 -6.98799991607666,12.652000427246094 0,12.652000427246094 C6.986999988555908,12.652000427246094 12.652999877929688,6.98799991607666 12.652999877929688,0z"></path></g></g><g transform="matrix(1,0,0,1,42.35900115966797,356.9540100097656)" opacity="1" style="display: block;"><g opacity="1" transform="matrix(1,0,0,1,13.269000053405762,2.503999948501587)"><path fill="#456B8B" fill-opacity="1" d=" M10.765999794006348,2.253999948501587 C10.765999794006348,2.253999948501587 -10.765999794006348,2.253999948501587 -10.765999794006348,2.253999948501587 C-12.01099967956543,2.253999948501587 -13.020000457763672,1.2450000047683716 -13.020000457763672,0 C-13.020000457763672,-1.24399995803833 -12.01099967956543,-2.253999948501587 -10.765999794006348,-2.253999948501587 C-10.765999794006348,-2.253999948501587 10.765999794006348,-2.253999948501587 10.765999794006348,-2.253999948501587 C12.010000228881836,-2.253999948501587 13.020000457763672,-1.24399995803833 13.020000457763672,0 C13.020000457763672,1.2450000047683716 12.010000228881836,2.253999948501587 10.765999794006348,2.253999948501587z"></path></g><g opacity="1" transform="matrix(1,0,0,1,20.631999969482422,12.916999816894531)"><path fill="#456B8B" fill-opacity="1" d=" M10.765999794006348,2.253000020980835 C10.765999794006348,2.253000020980835 -10.765999794006348,2.253000020980835 -10.765999794006348,2.253000020980835 C-12.010000228881836,2.253000020980835 -13.020000457763672,1.24399995803833 -13.020000457763672,-0.0010000000474974513 C-13.020000457763672,-1.2450000047683716 -12.010000228881836,-2.253000020980835 -10.765999794006348,-2.253000020980835 C-10.765999794006348,-2.253000020980835 10.765999794006348,-2.253000020980835 10.765999794006348,-2.253000020980835 C12.01099967956543,-2.253000020980835 13.020000457763672,-1.2450000047683716 13.020000457763672,-0.0010000000474974513 C13.020000457763672,1.24399995803833 12.01099967956543,2.253000020980835 10.765999794006348,2.253000020980835z"></path></g><g opacity="1" transform="matrix(1,0,0,1,63.24800109863281,12.916999816894531)"><path fill="#456B8B" fill-opacity="1" d=" M23.900999069213867,2.253000020980835 C23.900999069213867,2.253000020980835 -23.900999069213867,2.253000020980835 -23.900999069213867,2.253000020980835 C-25.145000457763672,2.253000020980835 -26.15399932861328,1.24399995803833 -26.15399932861328,-0.0010000000474974513 C-26.15399932861328,-1.2450000047683716 -25.145000457763672,-2.253000020980835 -23.900999069213867,-2.253000020980835 C-23.900999069213867,-2.253000020980835 23.900999069213867,-2.253000020980835 23.900999069213867,-2.253000020980835 C25.145999908447266,-2.253000020980835 26.15399932861328,-1.2450000047683716 26.15399932861328,-0.0010000000474974513 C26.15399932861328,1.24399995803833 25.145999908447266,2.253000020980835 23.900999069213867,2.253000020980835z"></path></g><g opacity="1" transform="matrix(-1,0,0,-1,48.68600082397461,23.32900047302246)"><path fill="#456B8B" fill-opacity="1" d=" M38.4630012512207,2.253000020980835 C38.4630012512207,2.253000020980835 -38.46200180053711,2.253000020980835 -38.46200180053711,2.253000020980835 C-39.707000732421875,2.253000020980835 -40.71500015258789,1.24399995803833 -40.71500015258789,-0.0010000000474974513 C-40.71500015258789,-1.2450000047683716 -39.707000732421875,-2.253000020980835 -38.46200180053711,-2.253000020980835 C-38.46200180053711,-2.253000020980835 38.4630012512207,-2.253000020980835 38.4630012512207,-2.253000020980835 C39.70800018310547,-2.253000020980835 40.71500015258789,-1.2450000047683716 40.71500015258789,-0.0010000000474974513 C40.71500015258789,1.24399995803833 39.70800018310547,2.253000020980835 38.4630012512207,2.253000020980835z"></path></g><g opacity="1" transform="matrix(1,0,0,1,37.52199935913086,33.74100112915039)"><path fill="#456B8B" fill-opacity="1" d=" M27.29800033569336,2.253000020980835 C27.29800033569336,2.253000020980835 -27.297000885009766,2.253000020980835 -27.297000885009766,2.253000020980835 C-28.54199981689453,2.253000020980835 -29.551000595092773,1.2450000047683716 -29.551000595092773,0.0010000000474974513 C-29.551000595092773,-1.24399995803833 -28.54199981689453,-2.253000020980835 -27.297000885009766,-2.253000020980835 C-27.297000885009766,-2.253000020980835 27.29800033569336,-2.253000020980835 27.29800033569336,-2.253000020980835 C28.542999267578125,-2.253000020980835 29.551000595092773,-1.24399995803833 29.551000595092773,0.0010000000474974513 C29.551000595092773,1.2450000047683716 28.542999267578125,2.253000020980835 27.29800033569336,2.253000020980835z"></path></g><g opacity="1" transform="matrix(1,0,0,1,80.49199676513672,33.74100112915039)"><path fill="#456B8B" fill-opacity="1" d=" M7.783999919891357,2.253000020980835 C7.783999919891357,2.253000020980835 -7.7829999923706055,2.253000020980835 -7.7829999923706055,2.253000020980835 C-9.027999877929688,2.253000020980835 -10.036999702453613,1.2450000047683716 -10.036999702453613,0.0010000000474974513 C-10.036999702453613,-1.24399995803833 -9.027999877929688,-2.253000020980835 -7.7829999923706055,-2.253000020980835 C-7.7829999923706055,-2.253000020980835 7.783999919891357,-2.253000020980835 7.783999919891357,-2.253000020980835 C9.029000282287598,-2.253000020980835 10.036999702453613,-1.24399995803833 10.036999702453613,0.0010000000474974513 C10.036999702453613,1.2450000047683716 9.029000282287598,2.253000020980835 7.783999919891357,2.253000020980835z"></path></g><g opacity="1" transform="matrix(1,0,0,1,28.881999969482422,44.15299987792969)"><path fill="#456B8B" fill-opacity="1" d=" M18.658000946044922,2.253000020980835 C18.658000946044922,2.253000020980835 -18.658000946044922,2.253000020980835 -18.658000946044922,2.253000020980835 C-19.902999877929688,2.253000020980835 -20.910999298095703,1.2450000047683716 -20.910999298095703,0.0010000000474974513 C-20.910999298095703,-1.24399995803833 -19.902999877929688,-2.253000020980835 -18.658000946044922,-2.253000020980835 C-18.658000946044922,-2.253000020980835 18.658000946044922,-2.253000020980835 18.658000946044922,-2.253000020980835 C19.902999877929688,-2.253000020980835 20.910999298095703,-1.24399995803833 20.910999298095703,0.0010000000474974513 C20.910999298095703,1.2450000047683716 19.902999877929688,2.253000020980835 18.658000946044922,2.253000020980835z"></path></g><g opacity="1" transform="matrix(1,0,0,1,62.513999938964844,44.15299987792969)"><path fill="#456B8B" fill-opacity="1" d=" M7.085000038146973,2.253000020980835 C7.085000038146973,2.253000020980835 -7.084000110626221,2.253000020980835 -7.084000110626221,2.253000020980835 C-8.329000473022461,2.253000020980835 -9.338000297546387,1.2450000047683716 -9.338000297546387,0.0010000000474974513 C-9.338000297546387,-1.24399995803833 -8.329000473022461,-2.253000020980835 -7.084000110626221,-2.253000020980835 C-7.084000110626221,-2.253000020980835 7.085000038146973,-2.253000020980835 7.085000038146973,-2.253000020980835 C8.329999923706055,-2.253000020980835 9.338000297546387,-1.24399995803833 9.338000297546387,0.0010000000474974513 C9.338000297546387,1.2450000047683716 8.329999923706055,2.253000020980835 7.085000038146973,2.253000020980835z"></path></g><g opacity="1" transform="matrix(1,0,0,1,27.19700050354004,54.564998626708984)"><path fill="#456B8B" fill-opacity="1" d=" M7.64300012588501,2.253999948501587 C7.64300012588501,2.253999948501587 -7.642000198364258,2.253999948501587 -7.642000198364258,2.253999948501587 C-8.88700008392334,2.253999948501587 -9.895999908447266,1.24399995803833 -9.895999908447266,0 C-9.895999908447266,-1.2450000047683716 -8.88700008392334,-2.253999948501587 -7.642000198364258,-2.253999948501587 C-7.642000198364258,-2.253999948501587 7.64300012588501,-2.253999948501587 7.64300012588501,-2.253999948501587 C8.88700008392334,-2.253999948501587 9.895999908447266,-1.2450000047683716 9.895999908447266,0 C9.895999908447266,1.24399995803833 8.88700008392334,2.253999948501587 7.64300012588501,2.253999948501587z"></path></g><g opacity="1" transform="matrix(1,0,0,1,57.21200180053711,64.97799682617188)"><path fill="#456B8B" fill-opacity="1" d=" M29.937000274658203,2.253999948501587 C29.937000274658203,2.253999948501587 -29.93600082397461,2.253999948501587 -29.93600082397461,2.253999948501587 C-31.180999755859375,2.253999948501587 -32.18899917602539,1.2450000047683716 -32.18899917602539,0 C-32.18899917602539,-1.24399995803833 -31.180999755859375,-2.253999948501587 -29.93600082397461,-2.253999948501587 C-29.93600082397461,-2.253999948501587 29.937000274658203,-2.253999948501587 29.937000274658203,-2.253999948501587 C31.18199920654297,-2.253999948501587 32.18899917602539,-1.24399995803833 32.18899917602539,0 C32.18899917602539,1.2450000047683716 31.18199920654297,2.253999948501587 29.937000274658203,2.253999948501587z"></path></g><g opacity="1" transform="matrix(1,0,0,1,38.2130012512207,75.38999938964844)"><path fill="#456B8B" fill-opacity="1" d=" M18.658000946044922,2.253999948501587 C18.658000946044922,2.253999948501587 -18.659000396728516,2.253999948501587 -18.659000396728516,2.253999948501587 C-19.90399932861328,2.253999948501587 -20.910999298095703,1.24399995803833 -20.910999298095703,-0.0010000000474974513 C-20.910999298095703,-1.2450000047683716 -19.90399932861328,-2.253999948501587 -18.659000396728516,-2.253999948501587 C-18.659000396728516,-2.253999948501587 18.658000946044922,-2.253999948501587 18.658000946044922,-2.253999948501587 C19.902999877929688,-2.253999948501587 20.910999298095703,-1.2450000047683716 20.910999298095703,-0.0010000000474974513 C20.910999298095703,1.24399995803833 19.902999877929688,2.253999948501587 18.658000946044922,2.253999948501587z"></path></g><g opacity="1" transform="matrix(1,0,0,1,30.555999755859375,85.802001953125)"><path fill="#456B8B" fill-opacity="1" d=" M18.659000396728516,2.253000020980835 C18.659000396728516,2.253000020980835 -18.658000946044922,2.253000020980835 -18.658000946044922,2.253000020980835 C-19.902999877929688,2.253000020980835 -20.910999298095703,1.2450000047683716 -20.910999298095703,0.0010000000474974513 C-20.910999298095703,-1.24399995803833 -19.902999877929688,-2.253999948501587 -18.658000946044922,-2.253999948501587 C-18.658000946044922,-2.253999948501587 18.659000396728516,-2.253999948501587 18.659000396728516,-2.253999948501587 C19.90399932861328,-2.253999948501587 20.910999298095703,-1.24399995803833 20.910999298095703,0.0010000000474974513 C20.910999298095703,1.2450000047683716 19.90399932861328,2.253000020980835 18.659000396728516,2.253000020980835z"></path></g><g opacity="1" transform="matrix(1,0,0,1,12.63599967956543,96.21399688720703)"><path fill="#456B8B" fill-opacity="1" d=" M10.131999969482422,2.253999948501587 C10.131999969482422,2.253999948501587 -10.133000373840332,2.253999948501587 -10.133000373840332,2.253999948501587 C-11.376999855041504,2.253999948501587 -12.38599967956543,1.2450000047683716 -12.38599967956543,0.0010000000474974513 C-12.38599967956543,-1.24399995803833 -11.376999855041504,-2.253000020980835 -10.133000373840332,-2.253000020980835 C-10.133000373840332,-2.253000020980835 10.131999969482422,-2.253000020980835 10.131999969482422,-2.253000020980835 C11.376999855041504,-2.253000020980835 12.38599967956543,-1.24399995803833 12.38599967956543,0.0010000000474974513 C12.38599967956543,1.2450000047683716 11.376999855041504,2.253999948501587 10.131999969482422,2.253999948501587z"></path></g><g opacity="1" transform="matrix(1,0,0,1,60.83300018310547,96.21399688720703)"><path fill="#456B8B" fill-opacity="1" d=" M29.69700050354004,2.253999948501587 C29.69700050354004,2.253999948501587 -29.69700050354004,2.253999948501587 -29.69700050354004,2.253999948501587 C-30.941999435424805,2.253999948501587 -31.948999404907227,1.2450000047683716 -31.948999404907227,0.0010000000474974513 C-31.948999404907227,-1.24399995803833 -30.941999435424805,-2.253000020980835 -29.69700050354004,-2.253000020980835 C-29.69700050354004,-2.253000020980835 29.69700050354004,-2.253000020980835 29.69700050354004,-2.253000020980835 C30.941999435424805,-2.253000020980835 31.948999404907227,-1.24399995803833 31.948999404907227,0.0010000000474974513 C31.948999404907227,1.2450000047683716 30.941999435424805,2.253999948501587 29.69700050354004,2.253999948501587z"></path></g></g><g mask="url(#__lottie_element_638)" style="display: block;"><g transform="matrix(0.9486899971961975,0,0,1.0280699729919434,302.56817626953125,236.69085693359375)" opacity="1"><g opacity="1" transform="matrix(1,0,0,1,0,0)"><g opacity="1" transform="matrix(1,0,0,1,0,0)"><g opacity="1" transform="matrix(1,0,0,1,0,10.333000183105469)"><g opacity="1" transform="matrix(1,0,0,1,0,10.333000183105469)"><g opacity="1" transform="matrix(1,0,0,1,0,10.333000183105469)"><g opacity="1" transform="matrix(1,0,0,1,0,10.333000183105469)"><g opacity="1" transform="matrix(1,0,0,1,0,10.333000183105469)"><g opacity="1" transform="matrix(1,0,0,1,0,10.333000183105469)"><g opacity="1" transform="matrix(1,0,0,1,0,10.333000183105469)"><g opacity="1" transform="matrix(1,0,0,1,0,10.333000183105469)"><g opacity="1" transform="matrix(1,0,0,1,0,10.333000183105469)"><path stroke-linecap="round" stroke-linejoin="miter" fill-opacity="0" stroke-miterlimit="4" stroke="#10AF5A" stroke-opacity="1" stroke-width="9px" d="M0 0"></path></g><path stroke-linecap="round" stroke-linejoin="miter" fill-opacity="0" stroke-miterlimit="4" stroke="#10AF5A" stroke-opacity="1" stroke-width="9px" d="M0 0"></path></g><path stroke-linecap="round" stroke-linejoin="miter" fill-opacity="0" stroke-miterlimit="4" stroke="#10AF5A" stroke-opacity="1" stroke-width="9px" d="M0 0"></path></g><path stroke-linecap="round" stroke-linejoin="miter" fill-opacity="0" stroke-miterlimit="4" stroke="#10AF5A" stroke-opacity="1" stroke-width="9px" d="M0 0"></path></g><path stroke-linecap="round" stroke-linejoin="miter" fill-opacity="0" stroke-miterlimit="4" stroke="#10AF5A" stroke-opacity="1" stroke-width="9px" d="M0 0"></path></g><path stroke-linecap="round" stroke-linejoin="miter" fill-opacity="0" stroke-miterlimit="4" stroke="#10AF5A" stroke-opacity="1" stroke-width="9px" d="M0 0"></path></g><path stroke-linecap="round" stroke-linejoin="miter" fill-opacity="0" stroke-miterlimit="4" stroke="#10AF5A" stroke-opacity="1" stroke-width="9px" d=" M-268.80499267578125,117.78099822998047 C-268.80499267578125,117.78099822998047 -186.26499938964844,117.87799835205078 -177.9980010986328,117.88800048828125"></path></g><path stroke-linecap="round" stroke-linejoin="miter" fill-opacity="0" stroke-miterlimit="4" stroke="#10AF5A" stroke-opacity="1" stroke-width="9px" d=" M-269.5069885253906,117.88899993896484 C-269.5069885253906,117.88899993896484 -177.33299255371094,117.88899993896484 -177.33299255371094,117.88899993896484"></path></g><path stroke-linecap="round" stroke-linejoin="miter" fill-opacity="0" stroke-miterlimit="4" stroke="#10AF5A" stroke-opacity="1" stroke-width="9px" d=" M-269.5069885253906,117.78099822998047 C-269.5069885253906,117.78099822998047 -177.33299255371094,117.88899993896484 -177.33299255371094,117.88899993896484"></path></g><path stroke-linecap="round" stroke-linejoin="miter" fill-opacity="0" stroke-miterlimit="4" stroke="#10AF5A" stroke-opacity="1" stroke-width="9px" d=" M-274.77801513671875,117.88899993896484 C-274.77801513671875,117.88899993896484 -245.4980010986328,117.78099822998047 -245.4980010986328,117.78099822998047"></path></g></g></g></g><g transform="matrix(1,0,0,1,167.8800048828125,129.93800354003906)" opacity="1" style="display: block;"><g opacity="1" transform="matrix(1,0,0,1,2.8550000190734863,28.368999481201172)"><path fill="#0FAE5A" fill-opacity="1" d=" M1.781000018119812,11.505000114440918 C1.781000018119812,11.505000114440918 -1.781999945640564,11.505000114440918 -1.781999945640564,11.505000114440918 C-2.234999895095825,11.505000114440918 -2.6050000190734863,11.133999824523926 -2.6050000190734863,10.680999755859375 C-2.6050000190734863,10.680999755859375 -2.6050000190734863,-10.680999755859375 -2.6050000190734863,-10.680999755859375 C-2.6050000190734863,-11.133999824523926 -2.234999895095825,-11.505000114440918 -1.781999945640564,-11.505000114440918 C-1.781999945640564,-11.505000114440918 1.781000018119812,-11.505000114440918 1.781000018119812,-11.505000114440918 C2.234999895095825,-11.505000114440918 2.6050000190734863,-11.133999824523926 2.6050000190734863,-10.680999755859375 C2.6050000190734863,-10.680999755859375 2.6050000190734863,10.680999755859375 2.6050000190734863,10.680999755859375 C2.6050000190734863,11.133999824523926 2.234999895095825,11.505000114440918 1.781000018119812,11.505000114440918z"></path></g><g opacity="1" transform="matrix(1,0,0,1,12.265999794006348,29.069000244140625)"><path fill="#0FAE5A" fill-opacity="1" d=" M1.781000018119812,10.805000305175781 C1.781000018119812,10.805000305175781 -1.781999945640564,10.805000305175781 -1.781999945640564,10.805000305175781 C-2.234999895095825,10.805000305175781 -2.6050000190734863,10.4350004196167 -2.6050000190734863,9.982000350952148 C-2.6050000190734863,9.982000350952148 -2.6050000190734863,-9.980999946594238 -2.6050000190734863,-9.980999946594238 C-2.6050000190734863,-10.434000015258789 -2.234999895095825,-10.805000305175781 -1.781999945640564,-10.805000305175781 C-1.781999945640564,-10.805000305175781 1.781000018119812,-10.805000305175781 1.781000018119812,-10.805000305175781 C2.234999895095825,-10.805000305175781 2.6050000190734863,-10.434000015258789 2.6050000190734863,-9.980999946594238 C2.6050000190734863,-9.980999946594238 2.6050000190734863,9.982000350952148 2.6050000190734863,9.982000350952148 C2.6050000190734863,10.4350004196167 2.234999895095825,10.805000305175781 1.781000018119812,10.805000305175781z"></path></g><g opacity="1" transform="matrix(1,0,0,1,21.677000045776367,36.03900146484375)"><path fill="#C9E9D9" fill-opacity="1" d=" M1.781000018119812,3.8350000381469727 C1.781000018119812,3.8350000381469727 -1.781999945640564,3.8350000381469727 -1.781999945640564,3.8350000381469727 C-2.234999895095825,3.8350000381469727 -2.6050000190734863,3.4639999866485596 -2.6050000190734863,3.010999917984009 C-2.6050000190734863,3.010999917984009 -2.6050000190734863,-3.010999917984009 -2.6050000190734863,-3.010999917984009 C-2.6050000190734863,-3.4639999866485596 -2.234999895095825,-3.8350000381469727 -1.781999945640564,-3.8350000381469727 C-1.781999945640564,-3.8350000381469727 1.781000018119812,-3.8350000381469727 1.781000018119812,-3.8350000381469727 C2.234999895095825,-3.8350000381469727 2.6050000190734863,-3.4639999866485596 2.6050000190734863,-3.010999917984009 C2.6050000190734863,-3.010999917984009 2.6050000190734863,3.010999917984009 2.6050000190734863,3.010999917984009 C2.6050000190734863,3.4639999866485596 2.234999895095825,3.8350000381469727 1.781000018119812,3.8350000381469727z"></path></g><g opacity="1" transform="matrix(1,0,0,1,31.086999893188477,20.062000274658203)"><path fill="#0FAE5A" fill-opacity="1" d=" M1.781000018119812,19.812000274658203 C1.781000018119812,19.812000274658203 -1.781999945640564,19.812000274658203 -1.781999945640564,19.812000274658203 C-2.234999895095825,19.812000274658203 -2.6050000190734863,19.44099998474121 -2.6050000190734863,18.988000869750977 C-2.6050000190734863,18.988000869750977 -2.6050000190734863,-18.988000869750977 -2.6050000190734863,-18.988000869750977 C-2.6050000190734863,-19.44099998474121 -2.234999895095825,-19.812000274658203 -1.781999945640564,-19.812000274658203 C-1.781999945640564,-19.812000274658203 1.781000018119812,-19.812000274658203 1.781000018119812,-19.812000274658203 C2.234999895095825,-19.812000274658203 2.6050000190734863,-19.44099998474121 2.6050000190734863,-18.988000869750977 C2.6050000190734863,-18.988000869750977 2.6050000190734863,18.988000869750977 2.6050000190734863,18.988000869750977 C2.6050000190734863,19.44099998474121 2.234999895095825,19.812000274658203 1.781000018119812,19.812000274658203z"></path></g><g opacity="1" transform="matrix(1,0,0,1,40.49800109863281,21.93899917602539)"><path fill="#C9E9D9" fill-opacity="1" d=" M1.781000018119812,17.934999465942383 C1.781000018119812,17.934999465942383 -1.781000018119812,17.934999465942383 -1.781000018119812,17.934999465942383 C-2.234999895095825,17.934999465942383 -2.6050000190734863,17.565000534057617 -2.6050000190734863,17.11199951171875 C-2.6050000190734863,17.11199951171875 -2.6050000190734863,-17.11199951171875 -2.6050000190734863,-17.11199951171875 C-2.6050000190734863,-17.565000534057617 -2.234999895095825,-17.934999465942383 -1.781000018119812,-17.934999465942383 C-1.781000018119812,-17.934999465942383 1.781000018119812,-17.934999465942383 1.781000018119812,-17.934999465942383 C2.234999895095825,-17.934999465942383 2.6050000190734863,-17.565000534057617 2.6050000190734863,-17.11199951171875 C2.6050000190734863,-17.11199951171875 2.6050000190734863,17.11199951171875 2.6050000190734863,17.11199951171875 C2.6050000190734863,17.565000534057617 2.234999895095825,17.934999465942383 1.781000018119812,17.934999465942383z"></path></g><g opacity="1" transform="matrix(1,0,0,1,49.90800094604492,31.743000030517578)"><path fill="#0FAE5A" fill-opacity="1" d=" M1.781000018119812,8.130999565124512 C1.781000018119812,8.130999565124512 -1.781000018119812,8.130999565124512 -1.781000018119812,8.130999565124512 C-2.234999895095825,8.130999565124512 -2.6050000190734863,7.760000228881836 -2.6050000190734863,7.307000160217285 C-2.6050000190734863,7.307000160217285 -2.6050000190734863,-7.307000160217285 -2.6050000190734863,-7.307000160217285 C-2.6050000190734863,-7.760000228881836 -2.234999895095825,-8.130999565124512 -1.781000018119812,-8.130999565124512 C-1.781000018119812,-8.130999565124512 1.781000018119812,-8.130999565124512 1.781000018119812,-8.130999565124512 C2.234999895095825,-8.130999565124512 2.6050000190734863,-7.760000228881836 2.6050000190734863,-7.307000160217285 C2.6050000190734863,-7.307000160217285 2.6050000190734863,7.307000160217285 2.6050000190734863,7.307000160217285 C2.6050000190734863,7.760000228881836 2.234999895095825,8.130999565124512 1.781000018119812,8.130999565124512z"></path></g><g opacity="1" transform="matrix(1,0,0,1,68.72899627685547,24.42099952697754)"><path fill="#0FAE5A" fill-opacity="1" d=" M1.781999945640564,15.45300006866455 C1.781999945640564,15.45300006866455 -1.781000018119812,15.45300006866455 -1.781000018119812,15.45300006866455 C-2.234999895095825,15.45300006866455 -2.6050000190734863,15.083000183105469 -2.6050000190734863,14.630000114440918 C-2.6050000190734863,14.630000114440918 -2.6050000190734863,-14.628999710083008 -2.6050000190734863,-14.628999710083008 C-2.6050000190734863,-15.081999778747559 -2.234999895095825,-15.45300006866455 -1.781000018119812,-15.45300006866455 C-1.781000018119812,-15.45300006866455 1.781999945640564,-15.45300006866455 1.781999945640564,-15.45300006866455 C2.234999895095825,-15.45300006866455 2.6050000190734863,-15.081999778747559 2.6050000190734863,-14.628999710083008 C2.6050000190734863,-14.628999710083008 2.6050000190734863,14.630000114440918 2.6050000190734863,14.630000114440918 C2.6050000190734863,15.083000183105469 2.234999895095825,15.45300006866455 1.781999945640564,15.45300006866455z"></path></g><g opacity="1" transform="matrix(1,0,0,1,78.13999938964844,23.70599937438965)"><path fill="#C9E9D9" fill-opacity="1" d=" M1.781000018119812,16.167999267578125 C1.781000018119812,16.167999267578125 -1.781999945640564,16.167999267578125 -1.781999945640564,16.167999267578125 C-2.234999895095825,16.167999267578125 -2.6050000190734863,15.79800033569336 -2.6050000190734863,15.345000267028809 C-2.6050000190734863,15.345000267028809 -2.6050000190734863,-15.345000267028809 -2.6050000190734863,-15.345000267028809 C-2.6050000190734863,-15.79800033569336 -2.234999895095825,-16.167999267578125 -1.781999945640564,-16.167999267578125 C-1.781999945640564,-16.167999267578125 1.781000018119812,-16.167999267578125 1.781000018119812,-16.167999267578125 C2.234999895095825,-16.167999267578125 2.6050000190734863,-15.79800033569336 2.6050000190734863,-15.345000267028809 C2.6050000190734863,-15.345000267028809 2.6050000190734863,15.345000267028809 2.6050000190734863,15.345000267028809 C2.6050000190734863,15.79800033569336 2.234999895095825,16.167999267578125 1.781000018119812,16.167999267578125z"></path></g><g opacity="1" transform="matrix(1,0,0,1,59.31800079345703,36.597999572753906)"><path fill="#C9E9D9" fill-opacity="1" d=" M1.781999945640564,3.2760000228881836 C1.781999945640564,3.2760000228881836 -1.781000018119812,3.2760000228881836 -1.781000018119812,3.2760000228881836 C-2.234999895095825,3.2760000228881836 -2.6050000190734863,2.9049999713897705 -2.6050000190734863,2.4519999027252197 C-2.6050000190734863,2.4519999027252197 -2.6050000190734863,-2.4519999027252197 -2.6050000190734863,-2.4519999027252197 C-2.6050000190734863,-2.9049999713897705 -2.234999895095825,-3.2760000228881836 -1.781000018119812,-3.2760000228881836 C-1.781000018119812,-3.2760000228881836 1.781999945640564,-3.2760000228881836 1.781999945640564,-3.2760000228881836 C2.234999895095825,-3.2760000228881836 2.6050000190734863,-2.9049999713897705 2.6050000190734863,-2.4519999027252197 C2.6050000190734863,-2.4519999027252197 2.6050000190734863,2.4519999027252197 2.6050000190734863,2.4519999027252197 C2.6050000190734863,2.9049999713897705 2.234999895095825,3.2760000228881836 1.781999945640564,3.2760000228881836z"></path></g></g><g transform="matrix(1,0,0,1,529.0180053710938,77.10700225830078)" opacity="1" style="display: block;"><g opacity="1" transform="matrix(1,0,0,1,22.98200035095215,3.2679998874664307)"><path fill="#C9E9D9" fill-opacity="1" d=" M19.714000701904297,3.0179998874664307 C19.714000701904297,3.0179998874664307 -19.71500015258789,3.0179998874664307 -19.71500015258789,3.0179998874664307 C-21.381999969482422,3.0179998874664307 -22.732999801635742,1.6670000553131104 -22.732999801635742,0 C-22.732999801635742,-1.6670000553131104 -21.381999969482422,-3.0179998874664307 -19.71500015258789,-3.0179998874664307 C-19.71500015258789,-3.0179998874664307 19.714000701904297,-3.0179998874664307 19.714000701904297,-3.0179998874664307 C21.381000518798828,-3.0179998874664307 22.732999801635742,-1.6670000553131104 22.732999801635742,0 C22.732999801635742,1.6670000553131104 21.381000518798828,3.0179998874664307 19.714000701904297,3.0179998874664307z"></path></g></g><g transform="matrix(1,0,0,1,529.0169677734375,91.3550033569336)" opacity="1" style="display: block;"><g opacity="1" transform="matrix(1,0,0,1,27.85099983215332,3.2679998874664307)"><path fill="#C9E9D9" fill-opacity="1" d=" M24.582000732421875,3.0179998874664307 C24.582000732421875,3.0179998874664307 -24.582000732421875,3.0179998874664307 -24.582000732421875,3.0179998874664307 C-26.249000549316406,3.0179998874664307 -27.60099983215332,1.6670000553131104 -27.60099983215332,0 C-27.60099983215332,-1.6670000553131104 -26.249000549316406,-3.0179998874664307 -24.582000732421875,-3.0179998874664307 C-24.582000732421875,-3.0179998874664307 24.582000732421875,-3.0179998874664307 24.582000732421875,-3.0179998874664307 C26.249000549316406,-3.0179998874664307 27.60099983215332,-1.6670000553131104 27.60099983215332,0 C27.60099983215332,1.6670000553131104 26.249000549316406,3.0179998874664307 24.582000732421875,3.0179998874664307z"></path></g></g><g transform="matrix(1,0,0,1,29.436996459960938,329.802001953125)" opacity="1" style="display: block;"><g opacity="1" transform="matrix(1,0,0,1,60.25,4.36899995803833)"><path fill="#008C50" fill-opacity="1" d=" M-60,4.11899995803833 C-60,4.11899995803833 60,4.11899995803833 60,4.11899995803833 C60,4.11899995803833 60,-4.11899995803833 60,-4.11899995803833 C60,-4.11899995803833 -60,-4.11899995803833 -60,-4.11899995803833 C-60,-4.11899995803833 -60,4.11899995803833 -60,4.11899995803833z"></path></g></g><g transform="matrix(1,0,0,1,149.43699645996094,-0.25)" opacity="1" style="display: block;"><g opacity="1" transform="matrix(1,0,0,1,60.25,60.25)"><path fill="#004149" fill-opacity="1" d=" M-60,60 C-60,60 60,60 60,60 C60,60 60,-60 60,-60 C60,-60 -60,-60 -60,-60 C-60,-60 -60,60 -60,60z"></path></g></g><g transform="matrix(1,0,0,1,175.2779998779297,25.590999603271484)" opacity="1" style="display: block;"><g opacity="1" transform="matrix(1,0,0,1,34.409000396728516,34.409000396728516)"><path fill="#0FAE5A" fill-opacity="1" d=" M34.159000396728516,0 C34.159000396728516,-18.864999771118164 18.864999771118164,-34.159000396728516 -0.0010000000474974513,-34.159000396728516 C-18.865999221801758,-34.159000396728516 -34.159000396728516,-18.864999771118164 -34.159000396728516,0 C-34.159000396728516,18.864999771118164 -18.865999221801758,34.159000396728516 -0.0010000000474974513,34.159000396728516 C18.864999771118164,34.159000396728516 34.159000396728516,18.864999771118164 34.159000396728516,0z"></path></g></g><g transform="matrix(1,0,0,1,175.2779998779297,25.590999603271484)" opacity="1" style="display: block;"><g opacity="1" transform="matrix(1,0,0,1,34.409000396728516,34.409000396728516)"><path fill="#CAE9D9" fill-opacity="1" d=" M34.159000396728516,0 C34.159000396728516,-18.864999771118164 18.864999771118164,-34.159000396728516 -0.0010000000474974513,-34.159000396728516 C-18.865999221801758,-34.159000396728516 -34.159000396728516,-18.864999771118164 -34.159000396728516,0 C-34.159000396728516,18.864999771118164 -18.865999221801758,34.159000396728516 -0.0010000000474974513,34.159000396728516 C18.864999771118164,34.159000396728516 34.159000396728516,18.864999771118164 34.159000396728516,0z"></path></g></g><g transform="matrix(1,0,0,1,178.06100463867188,59.75)" opacity="1" style="display: block;"><g opacity="1" transform="matrix(1,0,0,1,20.375,17.329999923706055)"><path fill="#008C50" fill-opacity="1" d=" M11.25,-17.079999923706055 C11.25,-17.079999923706055 -20.125,-3.572000026702881 -20.125,-3.572000026702881 C-14.739999771118164,8.935999870300293 -2.368000030517578,17.079999923706055 11.25,17.079999923706055 C14.246999740600586,17.079999923706055 17.229999542236328,16.684999465942383 20.125,15.906999588012695 C20.125,15.906999588012695 11.25,-17.079999923706055 11.25,-17.079999923706055z"></path></g></g><g transform="matrix(1,0,0,1,175.27700805664062,49.5469970703125)" opacity="1" style="display: block;"><g opacity="1" transform="matrix(1,0,0,1,17.32900047302246,12.118000030517578)"><path fill="#C9E9D9" fill-opacity="1" d=" M17.079999923706055,-1.6649999618530273 C17.079999923706055,-1.6649999618530273 -15.520999908447266,-11.868000030517578 -15.520999908447266,-11.868000030517578 C-16.554000854492188,-8.5649995803833 -17.079999923706055,-5.125 -17.079999923706055,-1.6649999618530273 C-17.079999923706055,2.989000082015991 -16.128999710083008,7.59499979019165 -14.28499984741211,11.868000030517578 C-14.28499984741211,11.868000030517578 17.079999923706055,-1.6649999618530273 17.079999923706055,-1.6649999618530273z"></path></g></g><g transform="matrix(1,0,0,1,188.60499572753906,38.91899871826172)" opacity="1" style="display: block;"><g opacity="1" transform="matrix(1,0,0,1,21.08099937438965,21.08099937438965)"><path fill="#004149" fill-opacity="1" d=" M20.83099937438965,0 C20.83099937438965,-11.505000114440918 11.503999710083008,-20.83099937438965 0,-20.83099937438965 C-11.505000114440918,-20.83099937438965 -20.83099937438965,-11.505000114440918 -20.83099937438965,0 C-20.83099937438965,11.505000114440918 -11.505000114440918,20.83099937438965 0,20.83099937438965 C11.503999710083008,20.83099937438965 20.83099937438965,11.505000114440918 20.83099937438965,0z"></path></g></g><g transform="matrix(1,0,0,1,217.88800048828125,15.67300033569336)" opacity="1" style="display: block;"><g opacity="1" transform="matrix(1,0,0,1,20.952999114990234,7.193999767303467)"><path stroke-linecap="butt" stroke-linejoin="miter" fill-opacity="0" stroke-miterlimit="10" stroke="#F8F8F8" stroke-opacity="1" stroke-width="1" d=" M-18.452999114990234,4.693999767303467 C-18.452999114990234,4.693999767303467 -9.065999984741211,-4.693999767303467 -9.065999984741211,-4.693999767303467 C-9.065999984741211,-4.693999767303467 18.452999114990234,-4.693999767303467 18.452999114990234,-4.693999767303467"></path></g></g><g transform="matrix(1,0,0,1,199.43499755859375,91.65899658203125)" opacity="1" style="display: block;"><g opacity="1" transform="matrix(1,0,0,1,20.952999114990234,7.193999767303467)"><path stroke-linecap="butt" stroke-linejoin="miter" fill-opacity="0" stroke-miterlimit="10" stroke="#F8F8F8" stroke-opacity="1" stroke-width="1" d=" M-18.45400047302246,-4.695000171661377 C-18.45400047302246,-4.695000171661377 -9.065999984741211,4.695000171661377 -9.065999984741211,4.695000171661377 C-9.065999984741211,4.695000171661377 18.45400047302246,4.695000171661377 18.45400047302246,4.695000171661377"></path></g></g><g transform="matrix(1,0,0,1,218.3109893798828,25.590999603271484)" opacity="1" style="display: block;"><g opacity="1" transform="matrix(1,0,0,1,2.4059998989105225,2.4059998989105225)"><path fill="#F8F8F8" fill-opacity="1" d=" M2.1559998989105225,0 C2.1559998989105225,1.190000057220459 1.190999984741211,2.1559998989105225 0,2.1559998989105225 C-1.190000057220459,2.1559998989105225 -2.1559998989105225,1.190000057220459 -2.1559998989105225,0 C-2.1559998989105225,-1.190000057220459 -1.190000057220459,-2.1559998989105225 0,-2.1559998989105225 C1.190999984741211,-2.1559998989105225 2.1559998989105225,-1.190000057220459 2.1559998989105225,0z"></path></g></g><g transform="matrix(1,0,0,1,199.5279998779297,91.75299835205078)" opacity="1" style="display: block;"><g opacity="1" transform="matrix(1,0,0,1,2.4059998989105225,2.4059998989105225)"><path fill="#F8F8F8" fill-opacity="1" d=" M2.1559998989105225,0 C2.1559998989105225,1.190000057220459 1.190999984741211,2.1559998989105225 0,2.1559998989105225 C-1.190999984741211,2.1559998989105225 -2.1559998989105225,1.190000057220459 -2.1559998989105225,0 C-2.1559998989105225,-1.190000057220459 -1.190999984741211,-2.1559998989105225 0,-2.1559998989105225 C1.190999984741211,-2.1559998989105225 2.1559998989105225,-1.190000057220459 2.1559998989105225,0z"></path></g></g><g transform="matrix(1,0,0,1,591.2860107421875,74.41200256347656)" opacity="1" style="display: block;"><g opacity="1" transform="matrix(1,0,0,1,12.902000427246094,12.25100040435791)"><path fill="#0FAE5A" fill-opacity="1" d=" M0,0.6510000228881836 C0,0.6510000228881836 12.652000427246094,0.6510000228881836 12.652000427246094,0.6510000228881836 C12.652000427246094,-6.289999961853027 6.940000057220459,-12.00100040435791 0,-12.00100040435791 C-6.940000057220459,-12.00100040435791 -12.652000427246094,-6.289999961853027 -12.652000427246094,0.6510000228881836 C-12.652000427246094,5.4629998207092285 -9.906999588012695,9.875 -5.590000152587891,12.00100040435791 C-5.590000152587891,12.00100040435791 0,0.6510000228881836 0,0.6510000228881836z"></path></g></g><g transform="matrix(1,0,0,1,534.47900390625,22.996999740600586)" opacity="1" style="display: block;"><g opacity="1" transform="matrix(1,0,0,1,4.178999900817871,4.179999828338623)"><path fill="#0FAE5A" fill-opacity="1" d=" M3.928999900817871,0 C3.928999900817871,2.1700000762939453 2.1700000762939453,3.930000066757202 -0.0010000000474974513,3.930000066757202 C-2.1710000038146973,3.930000066757202 -3.928999900817871,2.1700000762939453 -3.928999900817871,0 C-3.928999900817871,-2.1700000762939453 -2.1710000038146973,-3.930000066757202 -0.0010000000474974513,-3.930000066757202 C2.1700000762939453,-3.930000066757202 3.928999900817871,-2.1700000762939453 3.928999900817871,0z"></path></g></g><g transform="matrix(1,0,0,1,550.1959838867188,22.996999740600586)" opacity="1" style="display: block;"><g opacity="1" transform="matrix(1,0,0,1,4.179999828338623,4.179999828338623)"><path fill="#00414A" fill-opacity="1" d=" M3.930000066757202,0 C3.930000066757202,2.1700000762939453 2.1689999103546143,3.930000066757202 -0.0010000000474974513,3.930000066757202 C-2.1710000038146973,3.930000066757202 -3.930000066757202,2.1700000762939453 -3.930000066757202,0 C-3.930000066757202,-2.1700000762939453 -2.1710000038146973,-3.930000066757202 -0.0010000000474974513,-3.930000066757202 C2.1689999103546143,-3.930000066757202 3.930000066757202,-2.1700000762939453 3.930000066757202,0z"></path></g></g><g transform="matrix(1,0,0,1,565.9149780273438,22.996999740600586)" opacity="1" style="display: block;"><g opacity="1" transform="matrix(1,0,0,1,4.179999828338623,4.179999828338623)"><path fill="#0FAE5A" fill-opacity="1" d=" M3.930000066757202,0 C3.930000066757202,2.1700000762939453 2.1689999103546143,3.930000066757202 -0.0010000000474974513,3.930000066757202 C-2.1710000038146973,3.930000066757202 -3.930000066757202,2.1700000762939453 -3.930000066757202,0 C-3.930000066757202,-2.1700000762939453 -2.1710000038146973,-3.930000066757202 -0.0010000000474974513,-3.930000066757202 C2.1689999103546143,-3.930000066757202 3.930000066757202,-2.1700000762939453 3.930000066757202,0z"></path></g></g><g transform="matrix(1,0,0,1,581.6339721679688,22.996999740600586)" opacity="1" style="display: block;"><g opacity="1" transform="matrix(1,0,0,1,4.178999900817871,4.179999828338623)"><path fill="#00414A" fill-opacity="1" d=" M3.928999900817871,0 C3.928999900817871,2.1700000762939453 2.1700000762939453,3.930000066757202 0,3.930000066757202 C-2.1710000038146973,3.930000066757202 -3.928999900817871,2.1700000762939453 -3.928999900817871,0 C-3.928999900817871,-2.1700000762939453 -2.1710000038146973,-3.930000066757202 0,-3.930000066757202 C2.1700000762939453,-3.930000066757202 3.928999900817871,-2.1700000762939453 3.928999900817871,0z"></path></g></g><g transform="matrix(1,0,0,1,597.3529663085938,22.996999740600586)" opacity="1" style="display: block;"><g opacity="1" transform="matrix(1,0,0,1,4.178999900817871,4.179999828338623)"><path fill="#0FAE5A" fill-opacity="1" d=" M3.928999900817871,0 C3.928999900817871,2.1700000762939453 2.1700000762939453,3.930000066757202 -0.0010000000474974513,3.930000066757202 C-2.1710000038146973,3.930000066757202 -3.928999900817871,2.1700000762939453 -3.928999900817871,0 C-3.928999900817871,-2.1700000762939453 -2.1710000038146973,-3.930000066757202 -0.0010000000474974513,-3.930000066757202 C2.1700000762939453,-3.930000066757202 3.928999900817871,-2.1700000762939453 3.928999900817871,0z"></path></g></g><g transform="matrix(1,0,0,1,534.47900390625,40.01100158691406)" opacity="1" style="display: block;"><g opacity="1" transform="matrix(1,0,0,1,4.178999900817871,4.179999828338623)"><path fill="#00414A" fill-opacity="1" d=" M3.928999900817871,0 C3.928999900817871,2.1700000762939453 2.1700000762939453,3.930000066757202 -0.0010000000474974513,3.930000066757202 C-2.1710000038146973,3.930000066757202 -3.928999900817871,2.1700000762939453 -3.928999900817871,0 C-3.928999900817871,-2.1700000762939453 -2.1710000038146973,-3.930000066757202 -0.0010000000474974513,-3.930000066757202 C2.1700000762939453,-3.930000066757202 3.928999900817871,-2.1700000762939453 3.928999900817871,0z"></path></g></g><g transform="matrix(1,0,0,1,550.1959838867188,40.01100158691406)" opacity="1" style="display: block;"><g opacity="1" transform="matrix(1,0,0,1,4.179999828338623,4.179999828338623)"><path fill="#0FAE5A" fill-opacity="1" d=" M3.930000066757202,0 C3.930000066757202,2.1700000762939453 2.1689999103546143,3.930000066757202 -0.0010000000474974513,3.930000066757202 C-2.1710000038146973,3.930000066757202 -3.930000066757202,2.1700000762939453 -3.930000066757202,0 C-3.930000066757202,-2.1700000762939453 -2.1710000038146973,-3.930000066757202 -0.0010000000474974513,-3.930000066757202 C2.1689999103546143,-3.930000066757202 3.930000066757202,-2.1700000762939453 3.930000066757202,0z"></path></g></g><g transform="matrix(1,0,0,1,565.9149780273438,40.01100158691406)" opacity="1" style="display: block;"><g opacity="1" transform="matrix(1,0,0,1,4.179999828338623,4.179999828338623)"><path fill="#004149" fill-opacity="1" d=" M3.930000066757202,0 C3.930000066757202,2.1700000762939453 2.1689999103546143,3.930000066757202 -0.0010000000474974513,3.930000066757202 C-2.1710000038146973,3.930000066757202 -3.930000066757202,2.1700000762939453 -3.930000066757202,0 C-3.930000066757202,-2.1700000762939453 -2.1710000038146973,-3.930000066757202 -0.0010000000474974513,-3.930000066757202 C2.1689999103546143,-3.930000066757202 3.930000066757202,-2.1700000762939453 3.930000066757202,0z"></path></g></g><g transform="matrix(1,0,0,1,581.6339721679688,40.01100158691406)" opacity="1" style="display: block;"><g opacity="1" transform="matrix(1,0,0,1,4.178999900817871,4.179999828338623)"><path fill="#0FAE5A" fill-opacity="1" d=" M3.928999900817871,0 C3.928999900817871,2.1700000762939453 2.1700000762939453,3.930000066757202 0,3.930000066757202 C-2.1710000038146973,3.930000066757202 -3.928999900817871,2.1700000762939453 -3.928999900817871,0 C-3.928999900817871,-2.1700000762939453 -2.1710000038146973,-3.930000066757202 0,-3.930000066757202 C2.1700000762939453,-3.930000066757202 3.928999900817871,-2.1700000762939453 3.928999900817871,0z"></path></g></g><g transform="matrix(1,0,0,1,597.3529663085938,40.01100158691406)" opacity="1" style="display: block;"><g opacity="1" transform="matrix(1,0,0,1,4.178999900817871,4.179999828338623)"><path fill="#004149" fill-opacity="1" d=" M3.928999900817871,0 C3.928999900817871,2.1700000762939453 2.1700000762939453,3.930000066757202 -0.0010000000474974513,3.930000066757202 C-2.1710000038146973,3.930000066757202 -3.928999900817871,2.1700000762939453 -3.928999900817871,0 C-3.928999900817871,-2.1700000762939453 -2.1710000038146973,-3.930000066757202 -0.0010000000474974513,-3.930000066757202 C2.1700000762939453,-3.930000066757202 3.928999900817871,-2.1700000762939453 3.928999900817871,0z"></path></g></g><g transform="matrix(1,0,0,1,285.6809997558594,16.14699935913086)" opacity="1" style="display: block;"><g opacity="1" transform="matrix(1,0,0,1,20.882999420166016,14.005999565124512)"><path fill="#0FAE5A" fill-opacity="1" d=" M-6.876999855041504,0 C-6.876999855041504,0 -6.876999855041504,-13.755999565124512 -6.876999855041504,-13.755999565124512 C0.6690000295639038,-13.755999565124512 6.876999855041504,-7.546000003814697 6.876999855041504,0 C6.876999855041504,7.546000003814697 0.6690000295639038,13.755999565124512 -6.876999855041504,13.755999565124512 C-6.876999855041504,13.755999565124512 -6.876999855041504,0 -6.876999855041504,0z"></path></g><g opacity="1" transform="matrix(1,0,0,1,7.127999782562256,14.005999565124512)"><path fill="#F8F8F8" fill-opacity="1" d=" M6.877999782562256,0 C6.877999782562256,0 6.877999782562256,13.755999565124512 6.877999782562256,13.755999565124512 C-0.6679999828338623,13.755999565124512 -6.877999782562256,7.546000003814697 -6.877999782562256,0 C-6.877999782562256,-7.546000003814697 -0.6679999828338623,-13.755999565124512 6.877999782562256,-13.755999565124512 C6.877999782562256,-13.755999565124512 6.877999782562256,0 6.877999782562256,0z"></path></g></g><g transform="matrix(1,0,0,1,450.2070007324219,238.41000366210938)" opacity="1" style="display: block;"><g opacity="1" transform="matrix(1,0,0,1,30.25,30.25)"><path fill="#456B8B" fill-opacity="1" d=" M30,-30 C30,-30 -30,-30 -30,-30 C-30,-30 -30,30 -30,30 C-30,30 30,-30 30,-30z"></path></g></g><g transform="matrix(1,0,0,1,450.2070007324219,238.4110107421875)" opacity="1" style="display: block;"><g opacity="1" transform="matrix(1,0,0,1,30.25,30.25)"><path fill="#004149" fill-opacity="1" d=" M-30,30 C-30,30 30,30 30,30 C30,30 30,-30 30,-30 C30,-30 -30,30 -30,30z"></path></g></g><g transform="matrix(1,0,0,1,89.43699645996094,119.55099487304688)" opacity="1" style="display: block;"><g opacity="1" transform="matrix(1,0,0,1,30.25,30.25)"><path fill="#456B8B" fill-opacity="1" d=" M-30,30 C-30,30 30,30 30,30 C30,30 30,-30 30,-30 C30,-30 -30,-30 -30,-30 C-30,-30 -30,30 -30,30z"></path></g></g><g transform="matrix(0,0,0,0,119.68699645996094,149.80099487304688)" opacity="1" style="display: block;"><g opacity="1" transform="matrix(1,0,0,1,24.180999755859375,24.180999755859375)"><path stroke-linecap="butt" stroke-linejoin="miter" fill-opacity="0" stroke-miterlimit="10" stroke="#FFFFFF" stroke-opacity="1" stroke-width="2px" d=" M19.180999755859375,0 C19.180999755859375,-10.593999862670898 10.593000411987305,-19.180999755859375 0,-19.180999755859375 C-10.593000411987305,-19.180999755859375 -19.180999755859375,-10.593999862670898 -19.180999755859375,0 C-19.180999755859375,10.593000411987305 -10.593000411987305,19.180999755859375 0,19.180999755859375 C10.593000411987305,19.180999755859375 19.180999755859375,10.593000411987305 19.180999755859375,0z"></path></g></g><g transform="matrix(0,0,0,0,119.68699645996094,149.80099487304688)" opacity="1" style="display: block;"><g opacity="1" transform="matrix(1,0,0,1,7.809999942779541,7.810999870300293)"><path fill="#F8F8F8" fill-opacity="1" d=" M-6.64300012588501,6.64300012588501 C-6.64300012588501,6.64300012588501 -6.64300012588501,6.64300012588501 -6.64300012588501,6.64300012588501 C-7.559999942779541,5.72599983215332 -7.559999942779541,4.238999843597412 -6.64300012588501,3.321000099182129 C-6.64300012588501,3.321000099182129 3.321000099182129,-6.644000053405762 3.321000099182129,-6.644000053405762 C4.238999843597412,-7.560999870300293 5.72599983215332,-7.560999870300293 6.64300012588501,-6.644000053405762 C7.560999870300293,-5.72599983215332 7.560999870300293,-4.238999843597412 6.64300012588501,-3.322000026702881 C6.64300012588501,-3.322000026702881 -3.322000026702881,6.64300012588501 -3.322000026702881,6.64300012588501 C-4.238999843597412,7.559999942779541 -5.72599983215332,7.559999942779541 -6.64300012588501,6.64300012588501z"></path></g><g opacity="1" transform="matrix(1,0,0,1,7.809999942779541,7.810999870300293)"><path fill="#F8F8F8" fill-opacity="1" d=" M-6.64300012588501,-6.644000053405762 C-6.64300012588501,-6.644000053405762 -6.64300012588501,-6.644000053405762 -6.64300012588501,-6.644000053405762 C-7.559999942779541,-5.7270002365112305 -7.559999942779541,-4.23799991607666 -6.64300012588501,-3.321000099182129 C-6.64300012588501,-3.321000099182129 3.321000099182129,6.644000053405762 3.321000099182129,6.644000053405762 C4.238999843597412,7.560999870300293 5.72599983215332,7.560999870300293 6.64300012588501,6.644000053405762 C7.560999870300293,5.72599983215332 7.560999870300293,4.238999843597412 6.64300012588501,3.322000026702881 C6.64300012588501,3.322000026702881 -3.322000026702881,-6.644000053405762 -3.322000026702881,-6.644000053405762 C-4.238999843597412,-7.560999870300293 -5.72599983215332,-7.560999870300293 -6.64300012588501,-6.644000053405762z"></path></g></g><g transform="matrix(1,0,0,1,-86.75499725341797,-242.00399780273438)" opacity="1" style="display: block;"><g opacity="1" transform="matrix(1,0,0,1,77.5,545.1599731445312)"><path fill="#B8312A" fill-opacity="1" d=" M5,0 C5,2.76200008392334 2.76200008392334,5 0,5 C-2.76200008392334,5 -5,2.76200008392334 -5,0 C-5,-2.760999917984009 -2.76200008392334,-5 0,-5 C2.76200008392334,-5 5,-2.760999917984009 5,0z"></path></g></g><g transform="matrix(1,0,0,1,-103.75499725341797,-245.00399780273438)" opacity="1" style="display: none;"><g opacity="1" transform="matrix(1,0,0,1,487.0400085449219,315.1789245605469)"><path fill="#B8312A" fill-opacity="1" d=" M5,0 C5,2.76200008392334 2.76200008392334,5 0,5 C-2.76200008392334,5 -5,2.76200008392334 -5,0 C-5,-2.760999917984009 -2.76200008392334,-5 0,-5 C2.76200008392334,-5 5,-2.760999917984009 5,0z"></path></g></g><g transform="matrix(1,0,0,1,315,240)" opacity="1" style="display: block;"><g opacity="1" transform="matrix(1,0,0,1,-25.710983276367188,64)"><path fill="#456B8B" fill-opacity="1" d=" M0,-5 C2.759500026702881,-5 5,-2.759500026702881 5,0 C5,2.759500026702881 2.759500026702881,5 0,5 C-2.759500026702881,5 -5,2.759500026702881 -5,0 C-5,-2.759500026702881 -2.759500026702881,-5 0,-5z"></path></g></g></g></g></svg>