<svg height="20" viewBox="0 0 160 20" width="160" xmlns="http://www.w3.org/2000/svg" xmlns:xlink="http://www.w3.org/1999/xlink"><g fill="#161616" fill-rule="evenodd"><path d="m14.8484848 14.5c.3463204.4545455.5627706 1.0454545.5627706 1.6818182 0 .8636363-.3030303 1.5909091-.8658009 2.1818182-.5627705.5909091-1.2554112.9090909-2.077922.9090909-.9090909 0-1.5584416-.3181818-2.0346321-.9090909l-4.41558438-5.7727273v3.1818182c0 .9090909-.17316018 1.6363636-.47619048 2.1363636-.56277056.9090909-1.34199134 1.3636364-2.38095238 1.3636364-.95238095 0-1.68831169-.3181818-2.20779221-1-.47619047-.6363637-.73593073-1.4545455-.73593073-2.5v-11.81818185c0-.95454545.25974026-1.77272727.73593073-2.4090909.51948052-.68181819 1.25541126-1 2.16450217-1 .86580086 0 1.6017316.31818181 2.2077922 1 .34632035.36363636.51948052.72727272.60606061 1.13636363.04329004.22727273.08658009.68181818.08658009 1.31818182v2.95454545l3.29004329-5c.6060606-.95454545 1.42857139-1.4090909 2.38095239-1.4090909.7792208 0 1.4718615.31818181 2.0779221.9090909.6060606.5909091.8658008 1.31818182.8658008 2.13636364 0 .59090909-.1731601 1.13636364-.4761904 1.63636364l-2.9004329 4.45454545zm4.5454546-13.95454545c-.8658009 0-1.6017316.31818181-2.1645022 1-.4761904.59090909-.7359307 1.5-.7359307 2.77272727v11.45454548c0 1.1363636.2597403 1.9545454.7359307 2.5.5627706.6363636 1.2987013 1 2.1645022 1 .9090909 0 1.6450216-.3636364 2.1645022-1.0454546.4761904-.6363636.7359307-1.4545454.7359307-2.4545454v-11.45454548c0-1.27272727-.2597403-2.18181818-.7359307-2.81818182-.6060606-.63636364-1.2987013-.95454545-2.1645022-.95454545zm13.2900433 5.72727272c.995671 0 1.8181818.36363637 2.4675325 1.13636364.6926406.81818182 1.1688311 1.27272727 1.3419913 1.36363636.4329004.22727273.8658009.36363637 1.3419913.36363637.5627706 0 1.1255412-.18181819 1.6017316-.5.8658009-.59090909 1.2987013-1.45454546 1.2987013-2.5 0-1.27272728-.6926407-2.5-2.1212121-3.68181819-1.8181818-1.49999999-3.7662338-2.27272727-5.9307359-2.27272727-2.5108225 0-4.6320346.90909091-6.3636364 2.63636364-1.991342 1.95454545-2.987013 4.36363636-2.987013 7.13636363 0 1.86363635.4761905 3.59090905 1.4285715 5.18181815.9523809 1.5909091 2.2510822 2.7727273 3.8528138 3.5909091 1.2554113.6363637 2.6406927.9545455 4.0692641.9545455 2.3376623 0 4.3722944-.8181818 6.1471861-2.4545455 1.2554113-1.1363636 1.9047619-2.2727272 1.9047619-3.4090909 0-.8181818-.3030303-1.5454545-.8658008-2.1363636-.5627706-.5909091-1.2554113-.8636364-2.0779221-.8636364-.6926407 0-1.2554113.1818182-1.6883117.5909091s-.8225108.8636364-1.2554113 1.2727273c-.6926406.5454545-1.4285714.8636363-2.2077922.8636363-.9523809 0-1.7316017-.3636363-2.3809523-1.0454545-.6493507-.6818182-.995671-1.5454545-.995671-2.54545455 0-1 .3030303-1.86363636.995671-2.54545454.6493506-.77272727 1.4718614-1.13636364 2.4242424-1.13636364zm23.7662338 8.22727273-3.6363637-4.81818182 2.943723-4.5c.3030303-.45454545.4761904-1 .4761904-1.63636363 0-.81818182-.3030303-1.54545455-.8658008-2.13636364-.6060606-.59090909-1.2554113-.90909091-2.0779221-.90909091-.995671 0-1.7748918.45454546-2.3809524 1.40909091l-3.2900433 5v-2.95454546c0-.63636363-.04329-1.09090909-.0865801-1.31818181-.0865801-.36363637-.3030303-.77272728-.6060606-1.13636364-.5627705-.68181818-1.2987013-1-2.2077922-1s-1.6450216.31818182-2.1645021 1c-.5194806.63636364-.7359308 1.45454545-.7359308 2.40909091v11.86363639c0 1.0454545.2597403 1.8636363.7359308 2.5.5194805.6818182 1.2554112 1 2.2077922 1 1.038961 0 1.8614718-.4545455 2.3809523-1.3636364.3030303-.5.4329005-1.2272727.4329005-2.1363636v-3.1818182l4.4155844 5.7727273c.4761905.5909091 1.1255411.9090909 2.034632.9090909.8225108 0 1.5151515-.3181818 2.0779221-.9090909s.8658009-1.3181819.8658009-2.1818182c0-.6363637-.1731602-1.2272727-.5194805-1.6818182z" fill="#161616"></path><path d="m11.4718615 9.18181818c1.1688311 1.04545452 1.7748917 2.45454542 1.7748917 4.31818182 0 2-.6493506 3.5909091-1.9913419 4.7272727-1.2121213 1.0454546-2.81385286 1.5909091-4.80519485 1.5909091s-3.59307359-.5454545-4.89177489-1.6363636c-1.03896104-.8636364-1.55844156-1.9090909-1.55844156-3.0909091 0-.7727273.25974026-1.4545455.77922078-1.9545455.51948052-.5454545 1.12554112-.7727272 1.86147186-.8181818.64935065 0 1.34199134.2727273 2.07792208.9090909.90909091.7272728 1.51515151 1.1363637 1.86147186 1.1363637.51948052 0 .73593074-.2727273.73593074-.8181819 0-.3181818-.12987013-.5454545-.43290044-.7727272-.17316017-.0909091-1.03896104-.4545455-2.59740259-1.0454546-2.5974026-.9545454-3.8961039-2.7272727-3.8961039-5.31818179 0-1.95454546.69264069-3.5 2.03463203-4.63636364 1.21212122-1 2.68398269-1.45454545 4.45887446-1.45454545 1.51515152 0 2.85714286.36363636 3.98268402 1.13636363 1.1255411.77272728 1.6883117 1.72727273 1.6883117 2.95454546 0 .72727273-.2164503 1.31818182-.6493507 1.81818182s-.995671.72727272-1.6450216.72727272c-.69264073 0-1.51515156-.36363636-2.38095242-1.09090909-.51948052-.45454545-.95238095-.68181818-1.21212121-.68181818-.47619048 0-.6926407.22727273-.6926407.72727273 0 .45454545.60606061.86363636 1.73160174 1.27272727 1.6017316.59090909 2.85714289 1.22727273 3.76623379 2zm17.012987-5.5c0-.54545454-.1298701-1.04545454-.4329004-1.5-.3030304-.5-.6493507-.81818182-1.1255412-1-.4329004-.18181818-1.3419913-.27272727-2.7705627-.27272727h-5.8441559c-1.6450216 0-2.7272727.09090909-3.1601731.31818182-.4329005.18181818-.8225109.54545454-1.0822511 1.04545454-.2597403.5-.4329005 1-.4329005 1.5 0 .86363637.3030303 1.59090909.9090909 2.09090909.5627706.5 1.2554113.72727273 2.1212122.72727273h1.5151515v9.27272731c0 1.0454545.1731602 1.8636363.5194805 2.3636363.5627706.8636364 1.3419913 1.2727273 2.3809524 1.2727273 1.038961 0 1.8181818-.4545455 2.3809524-1.3636364.3463203-.5454545.4761904-1.3181818.4761904-2.3181818v-9.27272725h1.3419914c1.038961 0 1.7748918-.22727273 2.2077922-.68181819.6926407-.63636363.995671-1.36363636.995671-2.18181818zm9.1774892-1.09090909c-.5627706-1.22727273-1.4718615-1.86363636-2.7272728-1.86363636-1.2554112 0-2.1212121.59090909-2.6839826 1.81818182l-5.4978355 12.31818185c-.2597403.5454545-.3463204 1.0909091-.3463204 1.5909091 0 .6363636.1731602 1.2272727.5194805 1.7272727.5627706.8636363 1.3419914 1.3181818 2.3809524 1.3181818.8225108 0 1.5584416-.3181818 2.1212121-1 .3030303-.3181818.5627706-.8636364.8658009-1.5454545h5.3679654c.3896104.8181818.7359307 1.4545454 1.1255411 1.8181818.5194805.5 1.1255411.7272727 1.8614718.7272727.909091 0 1.6450217-.3636364 2.2510823-1.0909091.4329004-.5454545.6493506-1.1818182.6493506-1.9090909 0-.5-.1298701-1-.3463203-1.4545455zm18.7012987 9.63636361c1.2554112-1.5 1.9047619-3.04545452 1.9047619-4.7272727 0-.90909091-.1731602-1.77272727-.5627706-2.68181818-.4761905-1.18181818-1.2554112-2.13636364-2.2943723-2.86363637-1.038961-.72727272-2.1645022-1.09090909-3.3766234-1.09090909h-3.6796536c-2.3809524 0-3.5930736 1.18181819-3.5930736 3.5v11.36363634c0 1.0909091.2164502 1.9545455.6926407 2.5909091.5194805.7272727 1.2554112 1.1363637 2.2510822 1.1363637.8225108 0 1.5151515-.3181819 2.034632-.909091.5194806-.590909.8225109-1.3181818.8225109-2.1818181v-2.5l2.4242424 4.1818181c.5627705.9545455 1.3419913 1.409091 2.3809524 1.409091.8225108 0 1.5151515-.2727273 2.077922-.8636364.5627706-.5454546.8658009-1.2727273.8658009-2.1363636 0-.6818182-.1731602-1.3181819-.5627706-1.9545455zm15.6709956-11.09090906c-.4329004-.18181818-1.3419913-.27272728-2.7705627-.27272728h-5.8441559c-1.6450216 0-2.6839827.0909091-3.1601731.31818182-.4329005.18181818-.8225109.54545455-1.0822511 1.04545455-.2597403.5-.4329005 1-.4329005 1.5 0 .86363636.3030303 1.59090909.909091 2.09090909.5627705.5 1.2554112.72727273 2.1212121.72727273h1.5151515v9.27272725c0 1.0454546.1731602 1.8636364.5194805 2.3636364.5627706.8636363 1.3419914 1.2727273 2.3809524 1.2727273s1.8181818-.4545455 2.3809524-1.3636364c.3463203-.5454546.4761904-1.3181818.4761904-2.3181818v-9.18181821h1.3419914c1.038961 0 1.7748918-.22727273 2.2510822-.68181818.6493507-.63636364.952381-1.36363636.952381-2.18181818 0-.54545455-.1298701-1.04545455-.4329004-1.5-.3030303-.54545455-.6926407-.90909091-1.1255412-1.09090909zm11.2987013 5.45454545c.952381 0 1.6883117-.22727273 2.2510823-.68181818.6060606-.5.9090909-1.27272727.9090909-2.22727273 0-.90909091-.3463204-1.63636363-1.038961-2.18181818-.3896104-.31818182-.909091-.5-1.5151516-.59090909-.1731601 0-.6926407-.04545455-1.6450216-.04545455h-3.4632035c-.9090909 0-1.5151515.04545455-1.8181818.0909091-.6493506.13636363-1.1688312.4090909-1.5584415.86363636-.3463204.40909091-.6060607.90909091-.6926407 1.5-.0432901.27272727-.0865801.86363636-.0865801 1.68181818v10.0454545c0 1.0909091.0865801 1.909091.2164502 2.409091.2597403.7727272.7792208 1.3181818 1.5151515 1.6363636.3896104.1818182 1.1255411.2727273 2.2077922.2727273h4.5021645c1.1255411 0 1.9047619-.2272728 2.4242424-.6363637.6493507-.5454545.952381-1.2727272.952381-2.1818182 0-.8636363-.3030303-1.590909-.952381-2.1818181-.5194805-.4545455-1.3419913-.7272728-2.4242424-.7272728h-2.6406926v-1.4090909h2.0779221c1.6883116 0 2.5541125-.7272727 2.5541125-2.2272727 0-.68181818-.2164502-1.22727273-.6926407-1.63636364-.4329004-.36363636-.995671-.54545454-1.6450216-.54545454h-2.2943723v-1.27272727h2.8571428zm17.1861477 7.95454541-1.3852819-2.3181818c1.2554109-1.5 1.9047619-3.04545452 1.9047619-4.7272727 0-.90909091-.17316-1.77272727-.562771-2.68181818-.47619-1.18181818-1.2554108-2.13636364-2.2943718-2.86363637-1.0389611-.72727272-2.1645022-1.09090909-3.3766234-1.09090909h-3.6796537c-2.3809524 0-3.5930736 1.18181819-3.5930736 3.5v11.36363634c0 1.0909091.2164502 1.9545455.6926407 2.5909091.5194805.7272727 1.2554113 1.1363637 2.2510823 1.1363637.8225108 0 1.4718614-.3181819 2.034632-.909091.5194805-.590909.8225108-1.3181818.8225108-2.1818181v-2.5l2.4242425 4.1818181c.5627705.9545455 1.3419913 1.409091 2.3809523 1.409091.8225109 0 1.5151516-.2727273 2.0779219-.8636364.562771-.5454546.865801-1.2727273.865801-2.1363636 0-.6363637-.21645-1.2727273-.56277-1.909091z" transform="translate(58.009)" fill="#161616"></path></g></svg>