<svg fill="none" height="28" viewBox="0 0 134 28" width="134" xmlns="http://www.w3.org/2000/svg" xmlns:xlink="http://www.w3.org/1999/xlink"><g clip-rule="evenodd" fill="#161616" fill-rule="evenodd"><path d="m12.5326.269899v4.214131h-2.2457s-2.02844-.30106-2.02844 1.73094v3.3112h4.27414l-.507 4.57383h-3.76714v12.8096h-4.92592v-12.868h-3.33254v-4.51543h3.47733v-3.83814s-.43461-2.10693 1.37645-3.83786c1.81105-1.730671 4.20149-1.580271 4.20149-1.580271z" fill="#161616"></path><path d="m24.1445 20.024c0 1.7456-1.4283 3.3867-3.19 3.3867-1.7621 0-3.1904-1.6411-3.1904-3.3867v-3.3109c0-1.7456 1.4283-3.3864 3.1904-3.3864 1.7617 0 3.19 1.6408 3.19 3.3864zm.2652-10.42236v2.29626c-1.2568-1.7181-3.0145-2.7856-4.9593-2.7856-3.8208 0-6.9182 3.4995-6.9182 9.1997 0 5.663 3.0974 9.1998 6.9182 9.1998 1.9633 0 3.7356-1.0875 4.995-2.8344l-.0326 2.2325h4.7449v-17.30826z" fill="#161616"></path><path d="m39.8798 23.3136s-3.8034.2259-3.8034-4.8914v-.2798c0-5.1173 3.8034-4.8914 3.8034-4.8914 2.5716-.0379 3.4773.9029 3.4773.9029l1.1952-3.7251c-2.0647-1.58024-8.2946-1.84371-11.0837.8278-2.4133 2.3117-2.4128 6.0576-2.3689 7.0256-.0439.968-.0444 4.7141 2.3689 7.0256 2.7891 2.6714 9.019 2.4082 11.0837.828l-1.1952-3.7251s-.9057.9405-3.4773.9029z" fill="#161616"></path><path d="m50.2386 16.6375s-.2536-3.8379 3.079-3.8379c3.3322 0 3.0786 3.8379 3.0786 3.8379zm10.6854 3.4992s1.992-10.83656-7.534-10.89523c-9.5264-.05893-8.1499 9.80403-8.1499 9.80403.2174 5.9826 2.8615 7.7136 7.3892 8.2778 4.5275.5646 7.9687-1.2416 7.9687-1.2416l-1.0505-3.4992s-3.6583 1.1664-6.556.903c-2.8976-.2632-2.6805-3.3488-2.6805-3.3488z" fill="#161616"></path><path d="m68.1841 16.5999c0-1.7456 1.4283-3.3867 3.1901-3.3867 1.762 0 3.1903 1.6411 3.1903 3.3867v3.3109c0 1.7456-1.4283 3.3864-3.1903 3.3864-1.7618 0-3.1901-1.6408-3.1901-3.3864zm-.2652 10.4224v-2.2963c1.2568 1.7182 3.0145 2.7856 4.9593 2.7856 3.8208 0 6.9182-3.4994 6.9182-9.2 0-5.6626-3.0974-9.19971-6.9182-9.19971-1.9633 0-3.7356 1.08771-4.995 2.83441l.0326-11.430675-4.9344.576795v25.85098z" fill="#161616"></path><path d="m92.8426 19.9326c0 1.7456-1.4655 3.3867-3.2735 3.3867-1.8077 0-3.2735-1.6411-3.2735-3.3867v-3.3109c0-1.7456 1.4658-3.3864 3.2735-3.3864 1.808 0 3.2735 1.6408 3.2735 3.3864zm-3.2311-10.58397c-6.2012 0-8.2883 3.88667-8.2883 9.08157 0 5.5115 2.6893 9.0819 8.2883 9.0819 4.5775 0 8.2885-3.1949 8.2885-9.0819 0-5.0154-2.3681-9.08157-8.2885-9.08157z" fill="#161616"></path><path d="m111.145 19.9326c0 1.7456-1.465 3.3867-3.273 3.3867s-3.274-1.6411-3.274-3.3867v-3.3109c0-1.7456 1.466-3.3864 3.274-3.3864s3.273 1.6408 3.273 3.3864zm-3.231-10.58397c-6.201 0-8.288 3.88667-8.288 9.08157 0 5.5115 2.689 9.0819 8.288 9.0819 4.578 0 8.289-3.1949 8.289-9.0819 0-5.0154-2.368-9.08157-8.289-9.08157z" fill="#161616"></path><path d="m133.582 26.9848-5.419-8.714 5.178-8.71402h-5.298l-5.057 7.80102v-16.932019l-4.977.542v26.017019h4.977v-8.865l5.458 8.865z" fill="#161616"></path></g></svg>