<svg xmlns:xlink="http://www.w3.org/1999/xlink" fill="none" height="33" viewBox="0 0 280 89" width="102" xmlns="http://www.w3.org/2000/svg"><g clip-rule="evenodd" fill="#161616" fill-rule="evenodd"><path d="m101.82 33.2811c6.934 0 10.223-1.19 10.223-3.612v-12.028c0-2.421-3.289-3.611-10.223-3.611h-14.8929c-6.933 0-10.221 1.19-10.221 3.611v12.028c0 2.422 3.288 3.612 10.221 3.612zm0 5.695h-14.8929c-12.4 0-18.597-3.204-18.597-9.757v-11.126c0-6.554 6.197-9.764 18.597-9.764h14.8929c12.4 0 18.599 3.21 18.599 9.764v11.126c0 6.553-6.199 9.757-18.599 9.757z" fill="#161616"></path><path d="m261.33 33.2811h-14.892c-6.932 0-10.221-1.19-10.221-3.612v-12.028c0-2.42 3.289-3.61 10.221-3.61h14.892c6.934 0 10.223 1.19 10.223 3.61v12.028c0 2.422-3.289 3.612-10.223 3.612zm0 5.695c12.4 0 18.599-3.204 18.599-9.756v-11.127c0-6.553-6.199-9.76205-18.599-9.76205h-14.892c-12.399 0-18.597 3.20905-18.597 9.76205v11.127c0 6.552 6.198 9.756 18.597 9.756z" fill="#161616"></path><path d="m59.747 29.076v-7.694c0-1.667-1.027-2.426-3.096-2.426h-18.156c-1.64 0-2.979 1.404-2.979 3.116 0 1.717 1.339 3.119 2.979 3.119h12.419v4.137c0 1.241-1.613 2.441-4.318 3.17-2.148.578-3.94.634-5.842.634h-19.973c-7.96 0-11.948-1.317-11.948-3.96v-19.541c0-2.635 4.76-3.858 14.263-3.858h5.616c2.147 0 3.225-.968 3.225-2.897 0-1.919-1.078-2.876-3.225-2.876h-7.969c-4.809 0-9.236.528-13.184 1.885-4.492 1.543-7.559 4.257-7.559 7.762v19.564c0 3.642 2.476 6.289 7.409 7.943 3.589 1.213 8.004 1.821 13.265 1.821h20.066c4.897 0 9.043-.674 12.445-2.019 4.378-1.719 6.562-4.345 6.562-7.88z" fill="#161616"></path><path d="m180.822 15.191c0 3.144-3.924 4.055-11.607 4.055h-31.224v-13.47202h31.224c7.683 0 11.607.912 11.607 4.055zm1.146-13.55102c-3.51-1.049003-7.764-1.63900344-12.753-1.63900344h-37.535c-1.391 0-2.52 1.12700344-2.52 2.51900344v33.90202c0 1.706 1.061 2.554 3.102 2.554h2.626c2.042 0 3.103-.848 3.103-2.554v-11.402h31.224c5.314 0 9.4-.583 13.161-1.826 4.827-1.773 7.279-4.592 7.279-8.454v-6.09102c0-3.083-2.534-5.439-7.687-7.009z" fill="#161616"></path><path d="m218.885 8.3305c-7.702 0-10.962-.14-15.524 1.731-4.291 1.761-6.119 4.856-6.119 7.704v18.778c0 1.624 1.011 2.432 2.956 2.432h2.5c1.944 0 2.954-.808 2.954-2.432v-18.778c0-2.623 3.251-3.735 9.693-3.735h3.6c2.103 0 3.101-.961 3.101-2.851 0-1.881-1.057-2.849-3.161-2.849z" fill="#161616"></path><path d="m0 88.3392h60.739v-39.763h-60.739z" fill="#161616"></path><path d="m73.0635 88.3392h60.7385v-39.763h-60.7385z" fill="#161616"></path><path d="m146.125 88.3392h60.739v-39.763h-60.739z" fill="#161616"></path><path d="m219.188 88.3392h60.738v-39.763h-60.738z" fill="#161616"></path></g></svg>