<svg xmlns:xlink="http://www.w3.org/1999/xlink" fill="none" height="17" viewBox="0 0 228 25" width="150" xmlns="http://www.w3.org/2000/svg"><path d="m18.0439.791976v3.168084c0 .20657-.1378.34435-.3443.34435h-13.60195v6.47399h11.22595c.2066 0 .3444.1376.3444.3441v3.1683c0 .2066-.1378.3442-.3444.3442h-11.22595v9.573c0 .2068-.13758.3444-.34434.3444h-3.409156c-.206569 0-.344154-.1376-.344154-.3444v-23.416024c0-.20657.137585-.344344.344154-.344344h17.355446c.2065 0 .3443.137774.3443.344344zm20.54 13.567424c-1.2566-3.4779-2.6513-6.95588-4.0806-10.12397h-.809c-1.4291 3.16809-2.841 6.64607-4.098 10.12397zm7.2144 10.193h-3.7535c-.2066 0-.3443-.1035-.3959-.3101-.4995-1.98-1.1018-4.0633-1.7907-6.1639h-11.5188c-.6885 2.1006-1.2911 4.1839-1.7733 6.1639-.0515.2066-.1895.3101-.396.3101h-3.6156c-.241 0-.379-.1376-.31-.3789 2.1693-7.6788 5.4752-16.15027 8.8154-23.278236.155-.3271.3445-.447632.6716-.447632h4.8896c.3271 0 .5166.120532.6717.447632 3.3746 7.110916 6.6288 15.599436 8.8154 23.278236.0689.2413-.0688.3789-.3099.3789zm6.1632-11.8457c0-7.47272 4.9241-12.70670038 11.9491-12.70670038h.5163c4.4079 0 7.817 2.23815038 9.6248 5.47503038.1205.20676.086.37884-.1205.48232l-3.0302 1.49771c-.2067.10329-.4652.10329-.6028-.15483-1.2741-2.20384-3.1852-3.37465-6.0089-3.37465h-.5166c-4.4248 0-7.4725 3.51243-7.4725 8.60902 0 5.1136 2.996 8.5398 7.4725 8.5398h.5166c2.8927 0 4.5798-.9815 5.8713-2.4794.1721-.1895.3616-.2238.5682-.1205l3.1163 1.5152c.1205.0687.1721.1548.1721.241 0 .086-.0345.155-.1031.2581-1.9112 2.7895-5.3547 4.5112-9.5558 4.5112h-.5166c-7.1453 0-11.8802-4.9071-11.8802-12.2933zm49.5175 8.3332v3.1681c0 .2068-.138.3444-.345.3444h-18.0784c-.2065 0-.3441-.1376-.3441-.3444v-23.416024c0-.20657.1376-.344344.3441-.344344h17.7684c.207 0 .345.137774.345.344344v3.168084c0 .20657-.138.34435-.345.34435h-14.0149v6.26699h11.3981c.2066 0 .3445.138.3445.3446v3.1336c0 .2065-.1379.3443-.3445.3443h-11.3981v6.3017h14.3249c.207 0 .345.1378.345.3443zm26.928-3.4609c0-2.2381-1.481-3.2541-4.735-3.2541h-8.11v6.474h8.11c3.305 0 4.735-.9643 4.735-3.2199zm-5.889-13.37787h-6.956v6.47377h6.956c3.116 0 4.545-1.01599 4.545-3.23689 0-2.22128-1.429-3.23688-4.545-3.23688zm10.09 13.73967c0 4.2182-3.237 6.6116-8.954 6.6116h-11.846c-.206 0-.344-.1376-.344-.3444v-23.416024c0-.20657.138-.344344.344-.344344h10.796c5.561 0 8.591 2.203848 8.591 6.232708 0 2.65148-1.342 4.39066-4.063 5.19966 3.823.8092 5.476 3.0993 5.476 6.0608zm20.126 3.1336c4.941 0 8.058-3.3919 8.058-8.5743 0-5.18281-3.117-8.57452-8.058-8.57452h-.517c-4.941 0-8.057 3.39171-8.057 8.57452 0 5.1824 3.116 8.5743 8.057 8.5743zm-12.913-8.5743c0-7.26613 4.821-12.50010038 12.396-12.50010038h.517c7.575 0 12.396 5.23397038 12.396 12.50010038 0 7.2657-4.821 12.4999-12.396 12.4999h-.517c-7.575 0-12.396-5.2342-12.396-12.4999zm45.212 8.5743c4.943 0 8.058-3.3919 8.058-8.5743 0-5.18281-3.115-8.57452-8.058-8.57452h-.515c-4.943 0-8.059 3.39171-8.059 8.57452 0 5.1824 3.116 8.5743 8.059 8.5743zm-12.913-8.5743c0-7.26613 4.821-12.50010038 12.398-12.50010038h.515c7.577 0 12.398 5.23397038 12.398 12.50010038 0 7.2657-4.821 12.4999-12.398 12.4999h-.515c-7.577 0-12.398-5.2342-12.398-12.4999zm55.01 12.0523h-4.443c-.291 0-.413-.069-.602-.2928-3.116-3.6673-6.8-7.3173-9.935-10.0035h-1.997v9.9519c0 .2068-.138.3444-.345.3444h-3.409c-.207 0-.343-.1376-.343-.3444v-23.416024c0-.20657.136-.344344.343-.344344h3.409c.207 0 .345.137774.345.344344v9.504224h2.032c3.358-3.03046 6.456-6.30164 8.988-9.590449.171-.223815.309-.258119.516-.258119h4.201c.207 0 .311.103279.311.241055 0 .068794-.036.154835-.121.258119-3.702 4.562714-7.37 8.298974-10.761 11.191494 4.27 3.6155 8.316 7.6446 12 11.9835.19.2238.087.4306-.189.4306" fill="#FFFFFF"></path></svg>